<svg xmlns="http://www.w3.org/2000/svg" viewBox="0 0 992.1 121.4"><path d="M706.8 72h77.7a11.2 11.2 0 00-8.1 6.4h-66.6a1.9 1.9 0 00-1.7 1.2c-.7 1.8-1.7 3.6-2.4 5.3s0 1.3.7 1.3h42c8 0 13.1.6 15.4 1.8s2.8 3.4 1.4 6.6-1.5 3.3-2.2 4.9a10.9 10.9 0 01-7 6.6c-3.3 1.2-8.8 1.9-16.8 1.9l-33.6.2h-35.8c.9-2.2 2.3-4.5 3.2-6.8h63.6a1.9 1.9 0 001.7-1.2l2.3-5.7c.3-.7 0-1.2-.6-1.2h-42.1c-7.9 0-13.1-.6-15.4-1.8s-2.9-3.5-1.6-6.7c.5-1.4 1.2-2.7 1.7-4a11.8 11.8 0 017.2-6.8c3.3-1.3 9-1.9 17-1.9M932.6 121.3h-2.2l.9-2.1c.1-.4.3-.8.4-1.2s0-.2-.1-.3a.2.2 0 00-.3 0l-2 1.4-2.5 1.9h-.4l-1-1.8a10.9 10.9 0 00-.8-1.5h-.3c-.1 0-.2 0-.2.2l-.6 1.5-.9 2.1h-2.2c.5-1.2 1-2.3 1.4-3.5s1-2.3 1.4-3.4h2.3a19.8 19.8 0 001.1 2l.9 1.7h.5l2.4-1.8 2.7-2h2.3c-.5 1.1-.9 2.3-1.4 3.4l-1.4 3.5M921.6 116h-7.5c-.2 0-.3.1-.3.2s-.1.3-.2.4v.3h7.1l-.6 1.6H913l-.3.2c0 .2-.1.3-.2.5s0 .2.1.2l.2.2h7.4c-.2.5-.5 1-.7 1.6h-9.1a.5.5 0 01-.5-.3.9.9 0 01-.1-.5c.4-.9.8-1.8 1.1-2.7s.9-2 1.3-3a.5.5 0 01.5-.4h9.6a11.1 11.1 0 01-.7 1.6M910.9 116h-4l-.3.2-1 2.4-1.1 2.7h-2.1l1-2.7 1-2.2a.4.4 0 00-.1-.3h-4l.7-1.6h10.6a11.1 11.1 0 00-.7 1.6M898.1 119.2a3.4 3.4 0 01-1.3 1.4 3.6 3.6 0 01-2.2.7h-8.1c.2-.6.5-1.1.7-1.6h8.1a.7.7 0 00.6-.5c.1-.4.1-.6-.2-.6h-5.9a2.2 2.2 0 01-1.7-.6 1.6 1.6 0 01-.1-1.5 4.8 4.8 0 011.4-1.5 4.3 4.3 0 012.2-.6h8l-.6 1.6h-8.1a.8.8 0 00-.7.5c-.1.4-.1.5.2.5h5.9a2.1 2.1 0 011.7.7 1.6 1.6 0 01.1 1.5M887.1 116.5a3.1 3.1 0 01-1.3 1.5 5.2 5.2 0 01-2.2.7h-1.9l-.6 1.3a5 5 0 00-.5 1.3h-2.2c.2-.5.3-.9.5-1.3l.6-1.3h-2a2.1 2.1 0 01-1.7-.7 1.6 1.6 0 01-.1-1.5l.4-1 .5-1.1h2.2l-.5 1.1-.4 1c-.2.4-.1.6.2.6h6.2c.3 0 .5-.2.7-.6l.4-1c.1-.4.3-.7.4-1.1h2.2c-.1.4-.3.7-.4 1.1s-.3.7-.5 1M873.7 119.2a3.4 3.4 0 01-1.3 1.4 3.6 3.6 0 01-2.2.7h-8.1a11.1 11.1 0 00.7-1.6h8.1a.6.6 0 00.6-.5c.2-.4.1-.5-.2-.5h-5.9a2.2 2.2 0 01-1.7-.7 1.4 1.4 0 01-.1-1.4 3.3 3.3 0 011.4-1.5 3.6 3.6 0 012.2-.7h8l-.6 1.6h-8.1c-.3 0-.5.2-.7.6s-.1.5.3.5h5.8a2.1 2.1 0 011.7.6 1.3 1.3 0 01.1 1.5M895.7 72.1h66.4c-1.1 2.1-2.1 4.2-3.1 6.3h-60.9a2.1 2.1 0 00-1.7 1.2l-2.4 5.2c-.3.7 0 1.3.6 1.3h40.8q11.7 0 15 1.8c2.1 1.1 2.5 3.3.9 6.5-.8 1.6-1.5 3.2-2.3 4.9a12.3 12.3 0 01-7.3 6.5q-5 1.8-16.5 1.8l-47.2.2h-20.9l3.1-7.1h63a1.9 1.9 0 001.7-1.2c.9-1.9 1.7-3.3 2.6-5.2s0-1.2-.6-1.2h-40.8c-7.7 0-12.7-.6-14.9-1.8s-2.6-3.4-1.1-6.6l1.8-4a12.2 12.2 0 017.2-6.7c3.3-1.2 8.9-1.8 16.6-1.8" fill="#836f40"/><path d="M861.4 102.5l-1.5 3.4h65.3c4.6 0 11.6-.2 15.9-1.7a10.7 10.7 0 006.2-5.6l2.4-4.9c.6-1.3 1.4-3.2-.2-4.1s-11-1.6-14-1.6h-40.9a2.6 2.6 0 01-2.3-3.8l2.4-5.3a4.2 4.2 0 013.4-2.3h59.8l1.2-2.5h-63.4c-4.6 0-11.6.2-16 1.8a9.8 9.8 0 00-6.1 5.7l-1.8 4c-.6 1.3-1.4 3.3.3 4.2s10.9 1.5 14 1.5h40.8a2.6 2.6 0 012.2 3.9l-2.5 5.2a4 4 0 01-3.4 2.3h-61.8" fill-rule="evenodd"/><path d="M879.8 71.9c-6.4 1.5-8.2 4-9.4 6.5h-68.2a4.2 4.2 0 00-3.3 2.4c-2.5 5.9-5.8 11.6-8.3 17.5-.6 1.3 0 2.4 1.2 2.4l66.5-.2-3.2 7.2H774c-4.4 0-6.3-3.9-4.4-8.5 2.6-6.2 6.1-12.5 8.8-19 2-4.7 7.2-8.5 11.6-8.5h89.8z" fill="#836f40"/><path d="M706.8 72h77.7a11.2 11.2 0 00-8.1 6.4h-66.6a1.9 1.9 0 00-1.7 1.2c-.7 1.8-1.7 3.6-2.4 5.3s0 1.3.7 1.3h42c8 0 13.1.6 15.4 1.8s2.8 3.4 1.4 6.6-1.5 3.3-2.2 4.9a10.9 10.9 0 01-7 6.6c-3.3 1.2-8.8 1.9-16.8 1.9l-33.6.2h-35.8c.9-2.2 2.3-4.5 3.2-6.8h63.6a1.9 1.9 0 001.7-1.2l2.3-5.7c.3-.7 0-1.2-.6-1.2h-42.1c-7.9 0-13.1-.6-15.4-1.8s-2.9-3.5-1.6-6.7c.5-1.4 1.2-2.7 1.7-4a11.8 11.8 0 017.2-6.8c3.3-1.3 9-1.9 17-1.9" fill="#836f40"/><path d="M674.3 103.2l-1.6 3.1h66.5c4.7 0 11.8-.2 16.2-1.8a9.9 9.9 0 005.9-5.6c.7-1.7 1.5-3.2 2.2-4.9s1.2-3.4-.6-4.3-11.2-1.6-14.5-1.6h-42a2.6 2.6 0 01-2.4-3.8c.7-1.8 1.7-3.5 2.4-5.3a3.8 3.8 0 013.4-2.4h65.4a13.9 13.9 0 012.1-2.7h-70.5c-4.7 0-12 .1-16.4 1.7a9.8 9.8 0 00-6.1 5.7c-.5 1.4-1.1 2.7-1.7 4s-1.1 3.5.7 4.4 11.3 1.6 14.6 1.6h42a2.6 2.6 0 012.4 3.8c-.7 1.9-1.5 3.8-2.3 5.7a3.8 3.8 0 01-3.4 2.4h-62.3" fill-rule="evenodd"/><path d="M744.8 116.1H741c-.2 0-.5.1-.5.3s-.7 1.6-1 2.3-.8 1.8-1.1 2.7h-2.2l1.1-2.7.9-2.2a.2.2 0 000-.3c0-.1-.1-.1-.2-.1h-3.8a11.1 11.1 0 00.7-1.6h10.6a11.1 11.1 0 01-.7 1.6M693.9 119.3a3.4 3.4 0 01-1.3 1.4 3.6 3.6 0 01-2.2.7h-8.1c.2-.6.5-1.1.7-1.6h8.1c.3 0 .5-.2.7-.5s0-.6-.3-.6h-5.8a2.1 2.1 0 01-1.7-.7 1.6 1.6 0 01-.1-1.5 3.7 3.7 0 011.4-1.4 3.6 3.6 0 012.2-.7h8a7.7 7.7 0 01-.7 1.6h-8a.8.8 0 00-.7.5c-.2.4-.1.6.2.6h5.9a1.9 1.9 0 011.6.7 1.2 1.2 0 01.1 1.5M730.3 121.4h-3l-1.5-2a7.6 7.6 0 01-1.1-1.4.4.4 0 01-.1-.3l.3-.2h5a.9.9 0 00.9-.7c.2-.5.1-.7-.3-.7h-6.6a.2.2 0 00-.2.2l-1.1 2.4c-.3.9-.7 1.8-1.1 2.7h-2.2l1.5-3.5 1.5-3.4h9a1.8 1.8 0 011.7.7 1.5 1.5 0 010 1.6 3.6 3.6 0 01-1.4 1.6 3.4 3.4 0 01-2.2.7h-.9l.9 1.1.9 1.2M718.4 121.4h-2.2a11.7 11.7 0 01.5-1.1 5.4 5.4 0 01.5-1.1h-5.8a11.1 11.1 0 00.7-1.6h5.7a4.2 4.2 0 00.4-1c.2-.3.1-.5-.2-.5h-6.2a.6.6 0 00-.6.5l-1.1 2.4a24.4 24.4 0 01-1 2.4h-2.2l1.1-2.4a24.4 24.4 0 011-2.4 3.9 3.9 0 011.4-1.5 3.7 3.7 0 012.1-.6h6.2a1.8 1.8 0 011.6.6 1.2 1.2 0 01.1 1.5 24.4 24.4 0 01-1 2.4 24.4 24.4 0 01-1 2.4M706 121.4h-2.1l.9-2.1a6.1 6.1 0 01.5-1.2.4.4 0 00-.1-.3h-.4l-2 1.4-2.5 1.9h-.4a16.2 16.2 0 01-1-1.8l-.7-1.5h-.3c-.1 0-.2 0-.2.1l-.7 1.6-.9 2.1h-2.2l1.5-3.5 1.5-3.4h2.3c.3.7.7 1.3 1 2a14 14 0 00.9 1.7h.4l2.5-1.8c.8-.7 1.8-1.3 2.7-2h2.3l-1.5 3.4-1.5 3.5M820.5 116.1h-3.8c-.2 0-.5.1-.5.3a22.9 22.9 0 00-1 2.3l-1.1 2.6h-2.2l1.1-2.6a14.7 14.7 0 011-2.2.4.4 0 00-.1-.3c0-.1-.1-.1-.2-.1h-3.8a7.7 7.7 0 01.7-1.6h10.6a7.7 7.7 0 00-.7 1.6M840.2 121.3H838l.6-1.3.4-.9v-.3h-5.3c-.1 0-.2 0-.2.2a3.7 3.7 0 00-.5 1.1l-.6 1.3h-2.1c.4-1.1.9-2.3 1.4-3.4s1-2.3 1.4-3.4h2.2l-.6 1.3-.3.9c-.1.1-.1.2 0 .2l.2.2h5l.3-.2a3.7 3.7 0 01.5-1.1 7.8 7.8 0 01.5-1.4h2.2c-.5 1.2-1 2.3-1.4 3.5l-1.5 3.4M829.4 121.3h-7.3a2.9 2.9 0 01-1.9-.6 1.3 1.3 0 01-.2-1.6l.5-1.2c.2-.4.3-.9.5-1.3a3.4 3.4 0 011.6-1.5 4.8 4.8 0 012.4-.6h7.2l-.6 1.6h-7.3c-.5 0-.9.1-1.1.5s-.3.9-.5 1.3l-.5 1.2q-.3.6.6.6h7.2l-.6 1.6M807.7 119.2a2.9 2.9 0 01-1.4 1.5 4.3 4.3 0 01-2.2.6H798a2.1 2.1 0 01-1.7-.6 1.3 1.3 0 01-.1-1.5 24.4 24.4 0 011-2.4 22.9 22.9 0 011-2.3h2.2c-.3.8-.7 1.5-1 2.3l-1 2.4c-.2.3-.1.5.2.5h6.2a.8.8 0 00.7-.5l1-2.4c.3-.8.7-1.5 1-2.3h2.2c-.3.8-.7 1.5-1 2.3l-1 2.4M794.4 121.3h-9.2c0-.1-.1-.2 0-.3s.8-2 1.3-3 .9-2.3 1.4-3.4h2.2c-.4.8-.7 1.7-1.1 2.6a21.4 21.4 0 01-1 2.2.4.4 0 00.1.3c0 .1.1.1.2.1h6.7l-.6 1.6M784.1 121.3h-7.2a2.5 2.5 0 01-1.9-.6 1.4 1.4 0 01-.3-1.5l.6-1.3c.2-.4.3-.8.5-1.3a3.4 3.4 0 011.6-1.5 4.8 4.8 0 012.4-.6h7.2c-.2.5-.5 1-.7 1.6h-7.2a1.2 1.2 0 00-1.1.5 11.2 11.2 0 00-.5 1.3l-.6 1.3c-.1.3.1.5.7.5h7.2c-.2.6-.5 1.1-.7 1.6" fill="#836f40"/><path d="M843.1 53.8c.1 0 .5 0 .4.3s-2.1 2.5-3.1 3-1.9.4-3.8.4h-26.7c-.4.7-.2 1.9 1.5 1.9h34.2c2.6 0 6.2-.4 8.3-3.1l1-1.3c1.1-1.4.2-2.4-1-2.4h-28a.2.2 0 01-.1-.4 10.3 10.3 0 013-3 9.4 9.4 0 013.8-.4h28c.4-.7.1-1.9-1.5-1.9h-35.5c-2.6 0-6.2.4-8.3 3.1l-1 1.2c-1.5 2 .3 2.6 1.6 2.6h27.2M766.4 46.9c-2.6 0-6.2.4-8.3 3.1l-1.5 1.9-1.1 1.5-1.3 1.6-1.8 2.2c-.6.7-.5 2.2 1.4 2.2h34.7c2.6 0 6.2-.4 8.2-3.1l1.5-1.9 1.2-1.5 1.2-1.6 1.9-2.2c.5-.7.4-2.2-1.5-2.2h-9.5l-1.7 2.1-1.6 2.1-1.7 2.2-1.7 2.1c-1.1 1.4-2.1 2.1-4.7 2.1h-14.8c-.2 0-.2-.3-.1-.4l2-2.5c.6-.9 1.4-1.7 2-2.6l2-2.5 2.1-2.6h-6.9M708.6 46.9c-2.6 0-6.2.4-8.3 3.1l-1.5 1.9-1.2 1.5-1.2 1.6-1.8 2.2c-.5.8-.4 2.2 1.4 2.2h46.1a2.3 2.3 0 002.6-1.8h-37.1c-.4 0-.4-.2-.3-.4l4-5.1 4.1-5.1h-6.8M901.9 53.8c.1 0 .5 0 .3.3a10.3 10.3 0 01-3 3 10 10 0 01-3.9.4h-26.7c-.4.7-.1 1.9 1.6 1.9h34.2c2.5 0 6.2-.4 8.2-3.1a6.4 6.4 0 001-1.3c1.2-1.4.3-2.4-.9-2.4h-28.1c-.2 0-.3-.2-.2-.4a11.7 11.7 0 013-3c.9-.4 2-.4 4-.4h28c.4-.7.1-1.9-1.6-1.9h-35.5c-2.6 0-6.2.4-8.3 3.1l-1 1.2c-1.5 2 .3 2.5 1.6 2.6h27.3M946.7 50.9c1.1-1.4 2.1-2.1 4.7-2.1h14.2c.2 0 .2.3.1.4a32.4 32.4 0 00-2.4 3.1c-.8 1-1.7 2-2.5 3.1s-2.3 2.1-4.9 2.1H942c-.2 0-.2-.3-.1-.4l2.4-3.1 2.4-3.1m-3.8-4c-2.5 0-6.1.4-8.1 3.1l-1.5 1.9-1.2 1.5-1.2 1.6-1.7 2.2c-.6.7-.5 2.2 1.4 2.2h34c2.6 0 6.2-.4 8.2-3.1l1.5-1.9 1.1-1.5 1.3-1.6 1.7-2.2c.6-.7.5-2.2-1.4-2.2zM822 32.5c-3.3 2.6-7.5 3.1-11.9 3.1H604.4l-3.3-.2c-3.7-.3-7.4-1.4-9.2-4.9s-1.2-5.8.3-8.5l.2-.2c0-.1 0-.2.1-.2l-16.1 7.7-12.3 5.8-.8.4-.8.2h-18a14.7 14.7 0 01-11.6-6c-1-1.4-2-2.7-3.1-4l-3-4c-1.5-2.1-3.1-4.1-4.6-6.1l-4.3-6-4.8-6.7A1.7 1.7 0 01513 1a1.8 1.8 0 011.6-1h24a16.9 16.9 0 0113.5 7l4.6 6.2.8 1.1a2 2 0 002.3.6l11.3-5.3 17.4-8a18.3 18.3 0 017.7-1.6H630a1.8 1.8 0 01.8 3.5h-.1a1.7 1.7 0 00-1 2 1.8 1.8 0 001.8 1.5H671c4.1 0 9.4.7 12.8 3.2a1.9 1.9 0 002.5-.2 10.4 10.4 0 017.6-3h23.7a2.1 2.1 0 011.7 1 1.8 1.8 0 01-.3 2l-5.2 6.5a1.8 1.8 0 00-.2 1.9 1.6 1.6 0 001.6 1h29.7a1.8 1.8 0 001.5-.7l1.8-2.3 3.2-3.9C755 7.8 760.3 7 765.8 7h53.7l3.4.2a12.6 12.6 0 017.6 2.8 1.8 1.8 0 002.4.1c3.3-2.6 7.6-3.1 12-3.1h50.4l3.4.2a13 13 0 016.7 2.2 2 2 0 002.1 0c3.2-2 7-2.3 10.9-2.3h57.1c6.1 0 15.1 1.6 16.4 8.9s-2.7 10.2-8 14-14 5.7-20.7 5.7h-54.3l-3.3-.2a13.7 13.7 0 01-6.9-2.2 1.8 1.8 0 00-2 0c-3.1 1.9-7 2.3-10.9 2.3h-53.9c-2.7-.3-5.5-1-7.5-2.9a1.9 1.9 0 00-2.4-.1m-493 2.8a31 31 0 01-4.3.2h-61.2c-2.8-.3-5.7-1.1-7.7-3a2 2 0 00-1.4-.6 1.9 1.9 0 00-1.3.7l-.5.7-1.3 1.6a1.7 1.7 0 01-1.4.8h-45.5l-.7-.2-13.1-4.3-13-4.2h-.2a.1.1 0 01-.1-.1h-.2l-1-.5-.9 1.2-4.6 5.9-1.3 1.6a1.5 1.5 0 01-1.4.7H74c-3.6-.3-7.2-1.5-9.1-4.8a7.9 7.9 0 01-1-3.2 1.7 1.7 0 00-1.3-1.6 1.6 1.6 0 00-1.9.7c-1.8 2.2-3.6 4.4-5.3 6.7l-1.3 1.6a1.9 1.9 0 01-1.5.8H16a1.8 1.8 0 01-1.7-1.1 1.9 1.9 0 01.2-1.9l5.5-7.3 5.4-6.9a1.5 1.5 0 00.2-1.9 1.7 1.7 0 00-1.6-1.1H1.8A1.9 1.9 0 01.2 15a1.9 1.9 0 01.1-1.9l4.3-6.6a27.3 27.3 0 012.1-3A9.7 9.7 0 0114.5 0h96.6a1.8 1.8 0 011.7 1.1 1.7 1.7 0 01-.3 1.9c-3.7 4.3-6 8.2-10.3 13.5a1.7 1.7 0 00-.2 2 1.8 1.8 0 001.6 1h16.7a1.7 1.7 0 001.4-.7l2.2-2.7 4-5.1a11 11 0 018.8-4h85.4a38.5 38.5 0 014.8.2c2.9.4 5.8 1.4 7.6 3.6a1.8 1.8 0 001.5.7 2 2 0 001.4-.6 10.5 10.5 0 018.6-3.8h27.2l3.4-.2h58l3.2.2c3 .2 6 1 8 3.1a1.7 1.7 0 001.3.5 2.2 2.2 0 001.4-.5 11 11 0 017.9-3.2h20.1a1.5 1.5 0 011.4.7l1.3 1.6c1.7 2.1 3.4 4.1 5 6.2l1.2 1.5a1.8 1.8 0 002.2.5l8.2-3.6L409.4 8a13.8 13.8 0 015.3-.9h32.5l3.4-.2h53.9l3.4.2c3.6.3 7.3 1.5 9.1 4.9s.7 7.4-1.7 10.4l-3 3.7-3 3.9c-3.6 4.7-8.9 5.5-14.4 5.5h-57.5a12.8 12.8 0 01-7.6-3 2.4 2.4 0 00-1.4-.5 1.7 1.7 0 00-1.3.8c-.2.1-.3.3-.4.4l-1.3 1.7a1.6 1.6 0 01-1.4.8h-25.2a1.7 1.7 0 01-1.6-1.1 1.9 1.9 0 01.1-1.9l.9-1.1-8.3 3.6-.8.3-.7.2h-13.8a1.9 1.9 0 01-1.4-.7l-1.3-1.4-5-5.8a1.8 1.8 0 00-2.8 0l-4.2 5.5-1.3 1.6a1.9 1.9 0 01-1.5.8h-28.4z" fill="#836f40" fill-rule="evenodd"/><path d="M459.2 20.1l-2 2.5h29.1a24.3 24.3 0 012-2.5h-29.1m313.3 2.5h29.1l1.8-2.5h-29c-.6.8-1.3 1.6-1.9 2.5zm-508-8.2c3-3.9 7.5-4.3 12.1-4.3h61c2.5.2 5.5.9 6.8 3.3a5.7 5.7 0 01-.6 6l-.9 1.4h-3.3c.5 2-.4 4-1.6 5.6l-1.3 1.7c-3 3.9-7.5 4.4-12 4.4h-57.8l-3.1-.2c-2.5-.2-5.4-.9-6.7-3.2s-.5-4.2.6-6.1l.9-1.4h2.9a6.1 6.1 0 011.2-5v-.2h.1zm174.1 0c2.9-3.9 7.5-4.3 12-4.3h57c2.6.3 5.5.9 6.8 3.3s.1 5.1-1.5 7.1l-3 3.8-3 3.8c-2.9 3.9-7.5 4.4-12 4.4h-54.1l-3.1-.2c-2.5-.2-5.4-.9-6.7-3.3s-.3-5 1.3-6.9l3-3.9c1-1.2 2.2-2.4 3.3-3.8zm-31 9.8l-4.1 1.8-14.8 6.4-.6.2h-13l-.9-1c-1.8-2-3.5-4.1-5.3-6.2l-3.5-4.2-3.2 4-4.8 6.2-.9 1.2h-21.6l3.8-4.9c1.8-2.5 3.8-4.9 5.6-7.3s3.9-4.9 5.9-7.4a7.5 7.5 0 016.2-2.9h19.5l.9 1.2c1.7 2.1 3.4 4.1 5 6.2l3.6 4.4 11.6-5.2 13.6-5.9a11.8 11.8 0 014.1-.7H441l-3.9 5c-2.1 2.7-4.4 5.3-6.4 8.1s-4.3 5.4-6.4 8.2l-.9 1.2h-22.2l3.7-4.9zm494.5-4.1h-48.6a24.3 24.3 0 00-2 2.5h48.6l1.2-1.6zm-220.4.7h-17.5l-.8-.7c-.7-.5-2.8-.6-3.6-.6h-1.2a3.2 3.2 0 01-.4 2.5.5.5 0 01-.2.4l.7-.2.5-.2h21.5zm-78.5-7.6l-9.5 4.5-18.6 8.9-12.3 5.7-.6.3h-17.7a11.8 11.8 0 01-9.2-4.8l-3-4-3-4c-1.6-2-3.2-3.9-4.6-6l-4.3-5.9-3.5-4.8h21.7a13.6 13.6 0 0111 5.7l4.7 6.2c1 1.5 2.1 2.9 3.2 4.3l14.9-6.9 17.3-8a14.6 14.6 0 016.5-1.3h28.4l-12.3 5.8-3.4 1.6a28.5 28.5 0 015.1-.4h57c4.4 0 12.4 1 13.4 6.4 0 .3.1.5.1.8l3.4-4.4a7.3 7.3 0 016-2.8h21.2l-4 5c-1.7 2-3.3 4.1-4.9 6.2a14.7 14.7 0 00-1 1.3H747v.5l.6-.9 3-3.9c1-1.3 2.1-2.6 3.2-3.8 2.9-4 7.5-4.4 12-4.4h56.8c2.6.2 5.6.9 6.9 3.4a5.4 5.4 0 01-.4 5.5l.6-.8c1-1.3 2.1-2.5 3.2-3.8 2.9-4 7.5-4.4 12-4.4h53.5c2.6.3 5.5.9 6.8 3.3a6 6 0 01.6 1.9 13.3 13.3 0 011.4-1.9h.3c3-2.9 7-3.2 10.9-3.2h57.1c4.4 0 12.4 1 13.4 6.4a4.8 4.8 0 010 1.7l-.4 2.6h-19.7l-.8-.6c-.7-.6-2.8-.7-3.7-.7h-1.2a3.5 3.5 0 01-.6 2.8h-.1a3.2 3.2 0 00.9-.3h26.6l-7.7 5.5c-4.9 3.5-13 5.1-19 5.1h-57.4c-2.5-.2-5.5-.9-6.8-3.3a6.4 6.4 0 01-.6-1.8l-.2.3h-.2l-.2.2c-2.9 4-7.5 4.5-12 4.5h-50.4l-3.2-.2c-2.5-.2-5.4-.9-6.7-3.3s-.5-4.3.6-6.1l-1 1.3-3 3.9c-3 3.9-7.5 4.4-12 4.4H672.4l2.8-3.6c-4.9 2.5-11.5 3.6-16.6 3.6h-57.3c-2.5-.2-5.4-.9-6.8-3.3s-.6-3.8.4-5.6v-.2h.1l1.8-2.3a10.9 10.9 0 012.5-2.3 9.7 9.7 0 011.8-3.1l1.7-2.1h.2c.1-.4.1-.4.2-.4zM94.9 20.7l-1.4 1.9h29.1l3.7-4.6 4-5.1a7.8 7.8 0 016.4-2.8h20.9l-3.9 5c-1.8 2.1-3.6 4.3-5.3 6.5s-3.5 4.3-5.1 6.6c-3 3.9-7.6 4.4-12.1 4.4H77.3l-3-.2c-2.5-.2-5.4-.8-6.7-3.2s-.2-5.1 1.3-7.1l3.5-4.5 3.7-4.7h-3.7c-2.8 0-5.3.7-7.1 2.9l-6.2 7.8-6.2 7.8-.9 1.2H18.5l3.9-4.9 7.8-9.9 3.9-4.9h-30l3-4.7a18.9 18.9 0 012-2.7 6.4 6.4 0 015.4-2.4h93.9zm133.3 6.8c1.9-2.4 3.7-4.8 5.6-7.1s3.9-5 5.9-7.5a7.9 7.9 0 016.3-2.8h21l-3.9 5c-2.2 2.7-4.4 5.3-6.5 8.1s-4.3 5.4-6.4 8.2l-.9 1.2h-44.6l-13.2-4.3-13-4.2h-.2a3.4 3.4 0 01-2.1-2.7c-1.2 1.4-2.3 2.9-3.4 4.3l-4.6 5.9-.9 1.2h-26.6l3.7-4.9c1.9-2.5 4-4.9 5.9-7.4s3.9-5 5.9-7.5a7.1 7.1 0 015.9-2.7h60a32.4 32.4 0 014.4.2c2.4.3 5 1.1 6.2 3.4s.2 4.8-1.3 6.7h-.1l-1.7 2.1A9.1 9.1 0 01224 26l2.2.8z" fill-rule="evenodd"/><path d="M230.5 29.6h17.2c2.1-2.8 4.4-5.5 6.5-8.2s4.3-5.5 6.5-8.2H246a4.5 4.5 0 00-3.9 1.7l-5.9 7.3-5.7 7.4m-79.2-16.5h-14.6a4.9 4.9 0 00-4 1.7l-4 5.1-4 5a2.9 2.9 0 01-2.3.7H88.9c-.8 0-1.4-.3-.9-1l4.5-5.7 4.6-5.8H82.4a4.8 4.8 0 00-3.9 1.7l-3.7 4.6-3.5 4.6c-4.1 5.3 2.5 5.5 6 5.5h53.9c2.8 0 7.2.1 9.6-3.2l5.2-6.6zm132.1 6.3c-2.1 0-.6-1.4-.3-1.6a2.8 2.8 0 012.3-.8H323c.7 0 1.3.3 1.1.9h17.1c2.9-4.5-3.2-4.8-6.6-4.8h-58c-2.9 0-7.3 0-9.7 3.2l-1.7 2.1c-3.1 4.6 3.2 4.9 6.6 4.9h46c1.7 0 .6 1.2.4 1.6h.1a3.1 3.1 0 01-2.4.7h-37.4c-.7 0-1.3-.3-.9-.8h-17.3c-2.9 4.5 3.3 4.7 6.6 4.7h57.8c2.7 0 7.1.1 9.6-3.2a18.3 18.3 0 011.3-1.6c3.6-4.9-2.3-5.3-6.4-5.3zm173.7-1.6a3.1 3.1 0 012.3-.8H493c.7 0 1.3.4.8 1l-2.7 3.5c-1 1.1-1.9 2.2-2.8 3.4a2.9 2.9 0 01-2.3.7h-33.5c-.7 0-1.4-.3-.8-1l2.7-3.4zM434.7 24c-4.1 5.2 2.6 5.5 6.1 5.5h54.1c2.7 0 7.2.1 9.6-3.2l3-3.8c.9-1.3 2-2.5 3.1-3.8 4.1-5.3-2.6-5.6-6.1-5.6h-53.9c-2.7 0-7.2 0-9.6 3.2-1.1 1.3-2.3 2.6-3.3 3.9zm-333-17.9H14.5a3.4 3.4 0 00-3 1.3 18.8 18.8 0 00-1.8 2.4h30.8l-7.9 9.9-7.8 9.9h25.7l6.2-7.9c2-2.6 4.2-5.2 6.3-7.8s5.3-4.1 9.4-4.1h26.3zm442.8 23.5h17c4-2 8.1-3.9 12.3-5.8l18.5-8.8L611 6.1h-14.8a11 11 0 00-5.2 1.1l-17.3 7.9-17.1 8c-1.6-2.1-3.3-4.2-4.8-6.3l-4.6-6.2a10.9 10.9 0 00-8.6-4.5h-15.7l4.3 5.9c1.4 2 3 4 4.5 6l3 4 3 4a8.9 8.9 0 006.8 3.6zm227.9-11.8a2.7 2.7 0 012.3-.8H808c.8 0 1.5.4.9 1l-2.7 3.5-2.6 3.4a3 3 0 01-2.4.7h-33.4c-.7 0-1.4-.3-.8-1l2.7-3.4zM750.1 24c-4.1 5.2 2.6 5.5 6.2 5.5h53.8c2.7 0 7.1.1 9.6-3.2.9-1.3 2-2.5 2.9-3.8l3.1-3.8c4.1-5.3-2.6-5.6-6.2-5.6h-53.7c-2.7 0-7.2 0-9.6 3.2l-3.2 3.9c-.9 1.2-2 2.5-2.9 3.8zM434.7 13.2c-2.2 2.7-4.4 5.4-6.5 8.2s-4.3 5.4-6.4 8.2h-14.5c1.6-2.2 3.3-4.3 4.9-6.4l5-6.4-14.9 6.4-14.8 6.4h-11l-5.2-6.1c-1.8-2.1-3.4-4.1-5.2-6.1a.8.8 0 00-.7-.4.5.5 0 00-.6.2c-1.7 2-3.4 4.1-5 6.2l-4.8 6.2h-13.9c1.8-2.5 3.8-4.9 5.7-7.4s3.8-4.9 5.8-7.3a5 5 0 013.8-1.8h18c1.7 2.1 3.4 4.1 5 6.2l5.2 6.2 13.6-6 13.6-5.9a8.8 8.8 0 012.9-.4zM146.9 29.5h18.9l4.6-5.9 4.6-5.9c.6-.7.9-1 2.6-1h30.8c1.1 0 1.5.4 1.2 1l-1.2 1.5c-1 1.3-2.5 1.3-4.3 1.3h-24.7l-.2.2c0 .2.2.3.3.4l13 4.2 13.1 4.3h19.5l-15.3-5.8c-.2-.1-.3-.2-.3-.4s.1-.2.2-.2h6.8c5.3-.1 8.6.2 10.7-2.4.5-.8 1.2-1.5 1.8-2.3 4.5-5.6-4.9-5.3-6.9-5.3h-60a4.3 4.3 0 00-3.5 1.5c-2 2.5-4 4.9-5.9 7.4zm531.7 0h67.6c-1.9-.9-2-2.7-2.1-3.9H699l4.8-6.2c1.5-2.1 3.2-4.1 4.9-6.2h-14.8a4 4 0 00-3.5 1.5c-2 2.5-3.9 5-5.9 7.4s-3.9 5-5.9 7.4zm230.3.1h54.3c6.6 0 13.5-2 17.2-4.6h-16.1a22 22 0 01-7.3 1.3h-37.1c-.8 0-1.4-.4-.9-1l1.8-2.3h35c1.6 0 2.6-.3 3.3-1.2l1-1.4v-.3h-36.9l2.2-2.8a3.1 3.1 0 012.4-.7h36.5c2.5 0 4.5.4 5.5 1.2h16.1c.4-2.6-3.8-4.5-10.4-4.5h-57.1c-2.5 0-6.4-.1-8.8 2.3a15.6 15.6 0 00-1.6 2c-1 1.3-1.4 2.4-1.2 3.1a7 7 0 00-3.1 2.3l-1.7 2.1c-2.3 4.2 3.6 4.5 6.9 4.5zm-304.5 0h54.2c6.6 0 13.7-2 17.2-4.6h-16.1a21.1 21.1 0 01-7.3 1.3h-36.9c-.8 0-1.4-.4-.9-1l1.8-2.3h34.9a3.9 3.9 0 003.3-1.2l1-1.4c.1 0 0-.1-.1-.3h-36.7l2.1-2.8a3 3 0 012.3-.7h36.6c2.5 0 4.6.4 5.5 1.2h16.1c.4-2.6-3.8-4.5-10.4-4.5h-57c-2.5 0-6.3-.1-8.8 2.3a15.6 15.6 0 00-1.6 2c-1.1 1.3-1.5 2.4-1.4 3.1a7.1 7.1 0 00-2.9 2.3l-1.8 2.2c-2.3 4.1 3.6 4.4 6.9 4.4zM829.2 24c-4.1 5.2 2.6 5.5 6.2 5.5h50.4c2.8 0 7.2.1 9.6-3.2l.5-.7h-49c-.7 0-1.4-.3-.9-1l2.6-3.4c.9-1.1 1.8-2.3 2.8-3.4a3 3 0 012.3-.8h48.8c1.5-3.6-4.1-3.9-7.2-3.9h-50.4c-2.8 0-7.3 0-9.6 3.2l-3.2 3.9c-.9 1.2-2 2.5-2.9 3.8zM660.4 55.6l4.9-7.3c0-.1 0-.2-.1-.2h-15.6c-1.5 0-3.4.1-4.7 1.1a4.4 4.4 0 00-1.2 1.5l-4.9 7.1c0 .1 0 .2.1.2h15.6c1.5 0 3.4-.1 4.7-1.1l1.2-1.4m-22.3 1.7l4.8-7.1c1.8-2.6 3.7-3 6.7-3h15.6a1.1 1.1 0 01.8 1.9l-4.9 7.1c-1.7 2.6-3.7 2.9-6.6 2.9h-15.6a1 1 0 01-.8-1.7zm-.5-10.7c-3.2 0-7.9.4-9.8 3.3l-5.8 8.6c-.2.2-.1.5 0 .7a2.3 2.3 0 001.8.6h42.7c3.2 0 7.9-.4 9.8-3.3l5.8-8.5c.2-.2.1-.5 0-.7a2.3 2.3 0 00-1.8-.6zm-36 9l5-7.3c0-.1 0-.2-.1-.2h-15.6a7.6 7.6 0 00-4.7 1.1 4.4 4.4 0 00-1.2 1.5l-4.9 7.1c-.1.1 0 .2.1.2h15.6c1.5 0 3.4-.1 4.7-1.1a7.6 7.6 0 001.1-1.2zm-22.3 1.7l4.9-7.1c1.8-2.6 3.7-3 6.7-3h15.6a1.1 1.1 0 01.8 1.8l-4.9 7.1c-1.7 2.6-3.7 2.9-6.6 2.9h-15.6a1.1 1.1 0 01-.9-1.6zm-.5-10.7c-3.1 0-7.8.4-9.7 3.3l-5.9 8.5a.9.9 0 00.1.7 2.3 2.3 0 001.8.6h42.7c3.2 0 7.8-.4 9.8-3.3l5.8-8.5c.2-.2.1-.5 0-.7a2.3 2.3 0 00-1.8-.6zm-54 7.7c-.4 0-.7.1-.8.4l-2.4 3.5c-.1.1 0 .2.1.2H537c1.5 0 3.4-.1 4.6-1a16.3 16.3 0 002.3-2.9c0-.1 0-.2-.1-.2zm.8-2.2h19a.9.9 0 00.8-.4l2.5-3.6a.3.3 0 00-.1-.2h-15.4c-1.6 0-3.4.1-4.7 1.2a15.1 15.1 0 00-2.2 2.8c0 .2 0 .3.1.3zm-4.8 5.5l2.4-3.4a1.7 1.7 0 011.6-.9h19a1.1 1.1 0 01.8 1.7 12.3 12.3 0 01-2.4 3.1c-1.4 1.1-3.4 1.2-5.2 1.2h-15.3a1.1 1.1 0 01-.9-1.6zm27.8-8.9l-2.4 3.5a1.9 1.9 0 01-1.6.8h-19a1.1 1.1 0 01-.9-1.6 15 15 0 012.4-3.1c1.5-1.2 3.5-1.3 5.3-1.3h15.4a1.1 1.1 0 01.8 1.8zm11.8 5.5c-.1-.2-.6-.3-.8-.3L557 53l2.7-.5c.9-.1 1.9-.1 2.5-1l2.5-3.6a.6.6 0 00-.1-.7c-.3-.5-1.2-.6-1.7-.6h-42.6c-3.1 0-7.8.4-9.7 3.3l-1.6 2.2a.1.1 0 00.1.1l.7.3 2.3.9-2.4.4a3.8 3.8 0 00-3 1.7l-2 2.9a.9.9 0 00.1.7 2.3 2.3 0 001.8.6h42.5c3.2 0 7.8-.4 9.8-3.3zm77.2-8.6h42.7a3 3 0 012.5 1.1 1.4 1.4 0 01.1 1.7l-5.8 8.7c-2.2 3.1-7 3.7-10.6 3.7h-42.7a3 3 0 01-2.5-1.1 1.4 1.4 0 01-.1-1.7l5.8-8.6c2.2-3.1 7-3.7 10.6-3.7zm-58.8 0h42.8a3 3 0 012.5 1.1 1.4 1.4 0 01.1 1.7l-5.8 8.7c-2.2 3.1-7.1 3.7-10.6 3.7h-42.7a3.3 3.3 0 01-2.6-1.1 1.5 1.5 0 010-1.7l5.8-8.6c2.1-3.1 7-3.7 10.5-3.7zM508.7 53l-.4-.4a.8.8 0 01-.1-1l1.6-2.4c2.1-3.2 7-3.7 10.5-3.7h42.6a3.1 3.1 0 012.5 1.1 1.5 1.5 0 01.1 1.7l-2.5 3.8a2.9 2.9 0 01-2.2 1.2l.4.3a.9.9 0 010 1l-1.6 2.4c-2.1 3.1-7 3.7-10.5 3.7h-42.5a3.3 3.3 0 01-2.6-1.1 1.5 1.5 0 010-1.7l2-3a4.2 4.2 0 012.7-1.8z" fill="#836f40" fill-rule="evenodd"/></svg>