<svg xmlns="http://www.w3.org/2000/svg" viewBox="0 0 423.14 42.27"><defs><style>.cls-1{fill:#fff}.cls-2{fill:#d9181b}</style></defs><g id="Livello_2" data-name="Livello 2"><g id="Layer_1" data-name="Layer 1"><path class="cls-1" d="M71.45 8c.86-1.29 1.75-2.56 2.61-3.85s1.87-2.66 2.79-4l.09-.15h26.71c3.59 0 9 .12 12.3 1.61 2.09 1 3.06 2.54 1.62 4.61-1.27 1.82-3.6 3-5.65 3.72a41.41 41.41 0 01-11.34 2l3.69 3.81 4.14 4.25.49.5H96.38l-.09-.09C95 19 93.71 17.63 92.45 16.2l-3.67-4.14h-9.56c-1 1.37-1.94 2.73-2.89 4.11l-2.89 4.23-.09.14H62.77l.33-.47 2.9-4.23c.86-1.27 1.72-2.53 2.61-3.78h-6.34l.3-.46c.78-1.18 1.6-2.34 2.4-3.51l.09-.09h6.39zM10.88 8c.86-1.29 1.75-2.56 2.61-3.85s1.86-2.66 2.79-4l.09-.15h34.3c3.48 0 9.16.61 10.4 4.56a7.09 7.09 0 01-1.22 5.76 21.3 21.3 0 01-8.47 7 32.89 32.89 0 01-14.26 3.22H2.19l.32-.48c1-1.4 1.93-2.82 2.9-4.22S7.13 13.31 8 12.06H0l.29-.46C1 10.41 1.84 9.25 2.65 8.1l.09-.1h8.14zm139.94 8.82c.46 1.19 1 2.38 1.44 3.56l.08.19h11.28l-.19-.43c-1.52-3.31-3-6.64-4.48-10l-4.44-10-.07-.14H132l-.09.13c-.77 1.09-1.54 2.19-2.28 3.31l-.31.47h11.55q-7.22 3.86-14.41 7.75c-5.14 2.78-10.31 5.53-15.46 8.34l-1 .57h11.91q3.3-1.86 6.61-3.71zM296.25 4.1h-15.73l.33-.47c.8-1.17 1.61-2.33 2.42-3.5l.09-.13h42l-.36.47c-.8 1.16-1.6 2.32-2.37 3.49l-.09.14h-15.67q-2.78 4.05-5.56 8.09c-1.88 2.74-3.77 5.48-5.64 8.22l-.09.13h-10.67l.33-.48c1.88-2.73 3.75-5.48 5.65-8.22q2.69-3.84 5.36-7.74zm27.41 8c-.88 1.25-1.73 2.51-2.59 3.77l-2.88 4.24-.31.47h41.48l.09-.13c.62-.9 1.23-1.8 1.84-2.71s1.23-1.81 1.88-2.7l.34-.47h-10.63l-.09.12c-.42.59-.82 1.2-1.22 1.8h-20.3q1.49-2.21 3-4.38h13.09l.09-.13c.76-1.18 1.57-2.33 2.37-3.48l.33-.48h-13.07q1.35-1.93 2.69-3.88H360c-.34.49-.68 1-1 1.47l-.3.46h10.6l.09-.13 1.84-2.7c.62-.92 1.27-1.81 1.92-2.71l.34-.48H332l-.09.13c-.92 1.33-1.87 2.64-2.77 4s-1.78 2.5-2.64 3.82h-6.39l-.09.13c-.81 1.16-1.61 2.32-2.39 3.5l-.3.46h6.33zm81.82-.12l3.7 3.81c1.4 1.43 2.8 2.87 4.21 4.28l.52.51h-12.54l-.09-.09c-1.31-1.42-2.63-2.81-3.91-4.24l-3.69-4.14h-9.52c-1 1.36-1.92 2.72-2.86 4.11l-2.87 4.23-.09.13h-10.62l.32-.47 2.87-4.24c.86-1.27 1.74-2.52 2.63-3.77h-6.39l.32-.47 2.42-3.49L370 8h6.35c.86-1.29 1.77-2.55 2.63-3.84s1.84-2.66 2.77-4l.09-.14h26.71c3.58 0 9 .13 12.26 1.61 2.08.94 3.13 2.53 1.69 4.61-1.26 1.81-3.65 3-5.67 3.72a41.41 41.41 0 01-11.33 2zm-197.9.13h-8.13l.31-.47c.78-1.15 1.55-2.31 2.35-3.45l.09-.19H221l-.33.48c-.8 1.13-1.57 2.29-2.34 3.44-1 1.41-2 2.8-2.89 4.23s-1.94 2.85-2.87 4.25l-.09.14h-35C174 20.52 168 20 166.87 16c-.61-2.09.41-4.32 1.61-6a23.53 23.53 0 019-6.9A32.48 32.48 0 01191.24 0h35.09l-.33.47c-.61.91-1.25 1.78-1.84 2.71s-1.23 1.78-1.8 2.7l-.09.14h-10.6l.31-.47c.32-.48.64-1 1-1.45H192.6c-4.93 0-11.47 2.12-14.51 6.21a4.18 4.18 0 00-1 3.35c.62 2.35 4.54 2.74 6.53 2.79h21c1-1.47 2-2.94 3-4.39zm24.82 4.38c.33-.49.65-1 1-1.45l.35-.47H223.1l-.09.13c-.62.9-1.26 1.79-1.85 2.71s-1.22 1.8-1.8 2.71l-.3.46H248a50.92 50.92 0 0014.69-1.89c2.39-.72 5.86-2.11 7.33-4.22a3.06 3.06 0 00.61-2.08c-.44-4-9.45-4.34-12.43-4.34h-14.36c-.93 0-5.12-.13-5.22-1.39-.06-.72 1.45-1.4 2-1.61a18.27 18.27 0 016.24-.92h17.54l-1 1.45-.3.47h10.61l.09-.14c.58-.92 1.22-1.79 1.8-2.7s1.22-1.8 1.84-2.71l.31-.47H250.1a52 52 0 00-14.48 1.81c-2.35.7-5.85 2-7.33 4.07a2.87 2.87 0 00-.62 1.93c.4 4 10.31 4.28 13.27 4.28h13.51c1.06 0 5 .19 5.09 1.63.06.81-1.32 1.5-1.94 1.75a18 18 0 01-6.44 1zM84.79 4.1C83.89 5.38 83 6.67 82.11 8H99c2 0 7-.34 8.16-2.09s-4.34-1.78-5.07-1.78zm-60.61 0c-1.48 2.12-3 4.22-4.44 6.35s-2.76 4-4.13 6h20.15A22.24 22.24 0 0045 14.3a12.87 12.87 0 005.22-4.3 4 4 0 00.67-3.18c-.7-2.35-4.33-2.71-6.37-2.71zm111.18 8.79l5.38-3 6.09-3.4 1.29 3.25c.42 1 .83 2.11 1.25 3.16zM387 8h16.9c2 0 7-.33 8.19-2.08S407.71 4.1 407 4.1h-17.36c-.89 1.3-1.79 2.59-2.64 3.9z"/><path class="cls-2" d="M334.77 29.23a1.46 1.46 0 00-.19.68c0 .45.26.67.79.67h6.75a2.25 2.25 0 001.17-.39 2.54 2.54 0 00.94-1l1.58-2.7a1.45 1.45 0 00.2-.67c0-.46-.26-.68-.76-.68h-18.92a2.32 2.32 0 00-1.2.39 2.77 2.77 0 00-.94 1l-3.12 5.41a1.34 1.34 0 00-.2.67c0 .45.25.68.76.68h9.46c.52 0 .79.22.79.67a1.46 1.46 0 01-.2.68l-1.58 2.7a2.54 2.54 0 01-.94 1 2.29 2.29 0 01-1.2.39c-.5 0-.76-.22-.76-.67a1.49 1.49 0 01.2-.68l.79-1.35a1.43 1.43 0 00.19-.68c0-.45-.25-.67-.76-.67h-6.75a2.29 2.29 0 00-1.2.39 2.69 2.69 0 00-.94 1l-1.58 2.7a1.46 1.46 0 00-.19.68c0 .45.26.67.78.67h18.92a2.25 2.25 0 001.17-.39 2.54 2.54 0 00.94-1l3.13-5.4a1.32 1.32 0 00.22-.68c0-.45-.26-.67-.79-.67h-9.45c-.53 0-.79-.23-.79-.69a1.4 1.4 0 01.2-.68l1.57-2.69a2.93 2.93 0 011-1 2.2 2.2 0 011.18-.39c.51 0 .76.23.76.68a1.45 1.45 0 01-.2.67zM371.77 25.86c0-.46-.26-.68-.76-.68h-18.92a2.29 2.29 0 00-1.2.39 2.69 2.69 0 00-.94 1l-7 12.16a1.49 1.49 0 00-.2.68c0 .45.27.67.79.67h18.92a2.25 2.25 0 001.17-.39 2.61 2.61 0 00.94-1l7-12.16a1.45 1.45 0 00.2-.67zm-9.13 1.53l-6 10.45a2.35 2.35 0 01-.81.82 2 2 0 01-1 .34h-2.44c-.45 0-.68-.2-.68-.58a1.27 1.27 0 01.17-.58l6.05-10.45a2.27 2.27 0 01.81-.82 1.93 1.93 0 011-.34h2.44c.44 0 .65.19.65.58a1.18 1.18 0 01-.19.58zM309 29.23a1.38 1.38 0 00-.2.68c0 .45.26.67.79.67h6.75a2.25 2.25 0 001.17-.39 2.64 2.64 0 001-1l1.57-2.7a1.45 1.45 0 00.2-.67c0-.46-.25-.68-.76-.68h-18.95a2.35 2.35 0 00-1.2.39 2.77 2.77 0 00-.94 1l-3.12 5.41a1.45 1.45 0 00-.2.67c0 .45.25.68.76.68h9.46c.52 0 .79.22.79.67a1.46 1.46 0 01-.2.68l-1.57 2.7a2.64 2.64 0 01-1 1 2.29 2.29 0 01-1.2.39c-.5 0-.76-.22-.76-.67a1.49 1.49 0 01.2-.68l.79-1.35a1.46 1.46 0 00.2-.68c0-.45-.26-.67-.76-.67h-6.76a2.32 2.32 0 00-1.2.39 2.69 2.69 0 00-.94 1l-1.58 2.7a1.46 1.46 0 00-.19.68c0 .45.26.67.79.67h18.96a2.25 2.25 0 001.17-.39 2.54 2.54 0 00.94-1l3.13-5.4a1.32 1.32 0 00.22-.68c0-.45-.26-.67-.78-.67h-9.46c-.53 0-.79-.23-.79-.69a1.52 1.52 0 01.2-.68l1.57-2.69a3 3 0 011-1 2.23 2.23 0 011.18-.39c.51 0 .76.23.76.68a1.34 1.34 0 01-.2.67zM240.19 40h6.74a2.25 2.25 0 001.16-.39 2.66 2.66 0 00.95-1l6.26-10.8a3.14 3.14 0 011-1 2.23 2.23 0 011.18-.39c.51 0 .76.23.76.68a1.43 1.43 0 01-.19.67l-.79 1.35a1.49 1.49 0 00-.2.68c0 .45.26.67.79.67h6.76a2.25 2.25 0 001.16-.39 2.57 2.57 0 00.95-1l1.57-2.7a1.34 1.34 0 00.2-.67c0-.46-.25-.68-.76-.68h-18.96a2.29 2.29 0 00-1.19.39 2.72 2.72 0 00-1 1l-7 12.16a1.38 1.38 0 00-.2.68c.02.56.28.74.81.74zM293.93 25.86c0-.46-.26-.68-.76-.68h-18.92a2.32 2.32 0 00-1.2.39 2.77 2.77 0 00-.94 1l-7 12.16a1.46 1.46 0 00-.19.68c0 .45.26.67.78.67h18.92a2.25 2.25 0 001.17-.39 2.54 2.54 0 00.94-1l7-12.16a1.45 1.45 0 00.2-.67zm-9.12 1.53l-6.05 10.45a2.35 2.35 0 01-.81.82 2 2 0 01-1 .34h-2.45c-.45 0-.67-.2-.67-.58a1.13 1.13 0 01.17-.58l6-10.45a2.27 2.27 0 01.81-.82 2 2 0 011-.34h2.44c.44 0 .66.19.66.58a1.3 1.3 0 01-.1.58z"/><path class="cls-1" d="M284.32 26.23h-2.44a2 2 0 00-1 .34 2.27 2.27 0 00-.81.82l-6 10.45a1.15 1.15 0 00-.17.58c0 .38.22.58.67.58H277a2 2 0 001-.34 2.35 2.35 0 00.81-.82l6.05-10.45a1.3 1.3 0 00.17-.58c-.03-.39-.27-.58-.71-.58zM362.16 26.23h-2.44a1.93 1.93 0 00-1 .34 2.27 2.27 0 00-.81.82l-6.05 10.45a1.27 1.27 0 00-.17.58c0 .38.23.58.68.58h2.44a2 2 0 001-.34 2.35 2.35 0 00.81-.82l6-10.45a1.18 1.18 0 00.17-.58c.02-.39-.19-.58-.63-.58z"/><path class="cls-1" d="M245.29 22.8L234 42.27h131.6l11.3-19.47zm12.52 7.78c-.53 0-.79-.22-.79-.67a1.49 1.49 0 01.2-.68l.79-1.35a1.43 1.43 0 00.19-.67c0-.45-.25-.68-.76-.68a2.23 2.23 0 00-1.18.39 3.14 3.14 0 00-1 1L249 38.68a2.66 2.66 0 01-.95 1 2.25 2.25 0 01-1.16.39h-6.74c-.53 0-.79-.22-.79-.67a1.38 1.38 0 01.2-.68l7-12.16a2.72 2.72 0 011-1 2.29 2.29 0 011.19-.39h18.92c.51 0 .76.22.76.68a1.34 1.34 0 01-.2.67l-1.57 2.7a2.57 2.57 0 01-.95 1 2.25 2.25 0 01-1.16.39zm27.94 9.07a2.25 2.25 0 01-1.17.39h-18.92c-.52 0-.78-.22-.78-.67a1.46 1.46 0 01.19-.68l7-12.16a2.77 2.77 0 01.94-1 2.32 2.32 0 011.2-.39h18.92c.5 0 .76.22.76.68a1.45 1.45 0 01-.2.67l-7 12.16a2.54 2.54 0 01-.94 1zm23.49-13.12a2.23 2.23 0 00-1.18.39 3 3 0 00-1 1l-1.57 2.69a1.52 1.52 0 00-.2.68c0 .46.26.69.79.69h9.46c.52 0 .78.22.78.67a1.32 1.32 0 01-.22.68l-3.1 5.36a2.54 2.54 0 01-.94 1 2.25 2.25 0 01-1.17.39H292c-.53 0-.79-.22-.79-.67a1.46 1.46 0 01.19-.68L293 36a2.69 2.69 0 01.94-1 2.32 2.32 0 011.2-.39h6.76c.5 0 .76.22.76.67a1.46 1.46 0 01-.2.68l-.79 1.35a1.49 1.49 0 00-.2.68c0 .45.26.67.76.67a2.29 2.29 0 001.2-.39 2.64 2.64 0 001-1l1.57-2.7a1.46 1.46 0 00.2-.68c0-.45-.27-.67-.79-.67h-9.46c-.51 0-.76-.23-.76-.68a1.45 1.45 0 01.2-.67l3.12-5.41a2.77 2.77 0 01.94-1 2.35 2.35 0 011.2-.39h18.92c.51 0 .76.22.76.68a1.45 1.45 0 01-.2.67l-1.57 2.7a2.64 2.64 0 01-1 1 2.25 2.25 0 01-1.17.39h-6.75c-.53 0-.79-.22-.79-.67a1.38 1.38 0 01.2-.68l.78-1.35a1.34 1.34 0 00.2-.67c-.03-.38-.28-.61-.79-.61zm25.76 0a2.2 2.2 0 00-1.18.39 2.93 2.93 0 00-1 1l-1.57 2.69a1.4 1.4 0 00-.2.68c0 .46.26.69.79.69h9.45c.53 0 .79.22.79.67a1.32 1.32 0 01-.22.68l-3.13 5.4a2.54 2.54 0 01-.94 1 2.25 2.25 0 01-1.17.39h-18.88c-.52 0-.78-.22-.78-.67a1.46 1.46 0 01.19-.68l1.58-2.7a2.69 2.69 0 01.94-1 2.29 2.29 0 011.2-.39h6.75c.51 0 .76.22.76.67a1.43 1.43 0 01-.19.68l-.79 1.35a1.49 1.49 0 00-.2.68c0 .45.26.67.76.67a2.29 2.29 0 001.2-.39 2.54 2.54 0 00.94-1l1.58-2.7a1.46 1.46 0 00.2-.68c0-.45-.27-.67-.79-.67h-9.46c-.51 0-.76-.23-.76-.68a1.34 1.34 0 01.2-.67l3.12-5.41a2.77 2.77 0 01.94-1 2.32 2.32 0 011.2-.39h18.92c.5 0 .76.22.76.68a1.45 1.45 0 01-.2.67l-1.58 2.7a2.54 2.54 0 01-.94 1 2.25 2.25 0 01-1.17.39h-6.75c-.53 0-.79-.22-.79-.67a1.46 1.46 0 01.19-.68l.79-1.35a1.45 1.45 0 00.2-.67c0-.45-.25-.68-.76-.68zm29.53 12.16a2.61 2.61 0 01-.94 1 2.25 2.25 0 01-1.17.39H343.5c-.52 0-.79-.22-.79-.67a1.49 1.49 0 01.2-.68l7-12.16a2.69 2.69 0 01.94-1 2.29 2.29 0 011.2-.39H371c.5 0 .76.22.76.68a1.45 1.45 0 01-.2.67z"/></g></g></svg>