<svg xmlns="http://www.w3.org/2000/svg" viewBox="0 0 352.77 42.55"><defs><style>.cls-1{fill:#fff}.cls-2{fill:#d9181b}</style></defs><g id="Livello_2" data-name="Livello 2"><g id="Layer_1" data-name="Layer 1"><path class="cls-1" d="M19.1 11.9L16 17.08h17.15c9.92 0 12.89-5.17 3.11-5.17zm2.17-3.62h15.25c8.53 0 11.4-4.65 2.77-4.65H24.05zM0 11.9l2.16-3.62H10L15 0h36.9c7.9 0 6.1 1.85 3.92 5.54C54.67 7.45 51.3 9 47 9.66c4.93.69 7.78 2.41 6.21 5-2.2 3.69-2.93 6-12 6H2.6l5.26-8.8zm76.63-3.62l2.78-4.65h15.16c9 0 6 4.65-2.77 4.65zM58 20.7h11.2l5.26-8.8h7.76L90 20.7h13l-8.42-8.9c10-.53 14.93-3.1 16.57-5.83 2.08-3.59 3.85-5.91-7.61-5.91L70.32 0l-4.94 8.28h-6.17L57 11.9h6.17zm54-8.56L119.28 0h11.25l-6.84 11.43c-2.16 3.64 2 5.88 8.95 6 7.18-.17 14-2.41 16.18-6L155.65 0h11.25l-7.32 12.26c-2.86 4.78-14.43 8.87-28.25 8.87h-7.27c-13.83 0-15-4.09-12.1-8.87zm60.46 8.56l10.2-17.07h-15.11L169.71 0h41.53l-2.16 3.63h-15.14l-10.2 17.07h-11.25zm59.67-7.32H218.8l10.64-6.57zm-37 7.32H207l6.27-3.89h20.19l1.63 3.89h12L237.57 0h-23.1l-2.05 3.43h11.86zm55.36 0h41.11l3.4-5.63h-11.29l-1.19 2h-18.63L274.09 0h-11.25zm48.81 0h41.12l3.36-5.62h-11.26l-1.19 2H312.7l3.09-5.17h12.67l2.16-3.62h-12.68l2.79-4.65h18.6l-1.2 2h11.25L352.77 0h-41.12l-4.94 8.27h-6.17l-2.16 3.63h6.17zM246.29 26.51h-2.44a1.91 1.91 0 00-1 .34 2.27 2.27 0 00-.81.82l-6 10.45a1.27 1.27 0 00-.17.58c0 .38.23.58.68.58h2.44a2 2 0 001-.34 2.35 2.35 0 00.81-.82l6-10.45a1.27 1.27 0 00.17-.58c-.03-.39-.25-.58-.68-.58zM324.13 26.51h-2.45a1.9 1.9 0 00-1 .34 2.12 2.12 0 00-.81.82l-6.07 10.45a1.27 1.27 0 00-.17.58c0 .38.23.58.68.58h2.44a2 2 0 001-.34 2.19 2.19 0 00.81-.82l6.05-10.45a1.27 1.27 0 00.17-.58c0-.39-.22-.58-.65-.58z"/><path class="cls-2" d="M219.18 29.51a1.46 1.46 0 00-.19.68c0 .45.26.68.79.68h6.75a2.28 2.28 0 001.17-.4 2.54 2.54 0 00.94-1l1.58-2.7a1.45 1.45 0 00.2-.67c0-.45-.26-.68-.76-.68h-18.92a2.29 2.29 0 00-1.2.39 2.77 2.77 0 00-.94 1l-7 12.16a1.49 1.49 0 00-.2.68c0 .45.27.67.79.67h6.74a2.25 2.25 0 001.17-.39 2.71 2.71 0 00.94-1l6.27-10.8a2.82 2.82 0 011-.95 2.14 2.14 0 011.18-.4c.51 0 .76.23.76.68a1.45 1.45 0 01-.2.67zM271 29.51a1.49 1.49 0 00-.2.68c0 .45.27.68.79.68h6.76a2.28 2.28 0 001.17-.4 2.61 2.61 0 00.94-1l1.58-2.7a1.43 1.43 0 00.19-.67c0-.45-.25-.68-.76-.68h-18.93a2.29 2.29 0 00-1.2.39 2.69 2.69 0 00-.94 1l-3.13 5.41a1.43 1.43 0 00-.19.67c0 .45.25.68.76.68h9.45c.53 0 .79.22.79.67a1.43 1.43 0 01-.19.68l-1.58 2.7a2.61 2.61 0 01-.94 1 2.32 2.32 0 01-1.2.39c-.51 0-.76-.22-.76-.67a1.38 1.38 0 01.2-.68l.78-1.35a1.34 1.34 0 00.2-.67c0-.46-.25-.68-.76-.68h-6.75a2.29 2.29 0 00-1.2.39 2.69 2.69 0 00-.94 1L253.36 39a1.49 1.49 0 00-.2.68c0 .45.26.67.79.67h18.92a2.31 2.31 0 001.17-.39 2.61 2.61 0 00.94-1l3.12-5.4a1.34 1.34 0 00.23-.68c0-.45-.26-.67-.79-.67h-9.46c-.52 0-.79-.23-.79-.69a1.43 1.43 0 01.21-.68l1.57-2.69a2.87 2.87 0 01.95-.95 2.19 2.19 0 011.19-.4c.5 0 .76.23.76.68a1.45 1.45 0 01-.2.67zM227.63 40.32h18.92a2.31 2.31 0 001.17-.39 2.61 2.61 0 00.94-1l7-12.16a1.43 1.43 0 00.19-.67c0-.45-.25-.68-.76-.68h-18.87a2.29 2.29 0 00-1.2.39 2.69 2.69 0 00-.94 1L227 39a1.49 1.49 0 00-.2.68c.04.42.3.64.83.64zm8.33-2.2l6-10.45a2.27 2.27 0 01.81-.82 1.91 1.91 0 011-.34h2.44c.43 0 .65.19.65.58a1.27 1.27 0 01-.17.58l-6 10.45a2.35 2.35 0 01-.81.82 2 2 0 01-1 .34h-2.44c-.45 0-.68-.2-.68-.58a1.27 1.27 0 01.24-.58zM296.74 29.51a1.49 1.49 0 00-.2.68c0 .45.27.68.79.68h6.76a2.34 2.34 0 001.17-.4 2.61 2.61 0 00.94-1l1.58-2.7a1.43 1.43 0 00.19-.67c0-.45-.25-.68-.76-.68h-18.92a2.29 2.29 0 00-1.19.39 2.69 2.69 0 00-.94 1L283 32.22a1.45 1.45 0 00-.2.67c0 .45.26.68.76.68h9.46c.53 0 .79.22.79.67a1.43 1.43 0 01-.19.68l-1.58 2.7a2.61 2.61 0 01-.94 1 2.35 2.35 0 01-1.2.39c-.51 0-.76-.22-.76-.67a1.46 1.46 0 01.19-.68l.79-1.35a1.45 1.45 0 00.2-.67c0-.46-.25-.68-.76-.68h-6.76a2.29 2.29 0 00-1.19.39 2.81 2.81 0 00-.95 1L279.12 39a1.49 1.49 0 00-.2.68c0 .45.26.67.79.67h18.92a2.25 2.25 0 001.16-.39 2.57 2.57 0 00.95-1l3.12-5.4a1.34 1.34 0 00.23-.68c0-.45-.27-.67-.79-.67h-9.46c-.52 0-.79-.23-.79-.69a1.52 1.52 0 01.2-.68l1.57-2.69a3 3 0 011-.95 2.16 2.16 0 011.18-.4c.51 0 .77.23.77.68a1.45 1.45 0 01-.2.67zM305.47 40.32h18.91a2.25 2.25 0 001.17-.39 2.57 2.57 0 00.95-1l7-12.16a1.45 1.45 0 00.2-.67c0-.45-.25-.68-.76-.68h-18.89a2.29 2.29 0 00-1.19.39 2.72 2.72 0 00-.95 1l-7 12.16a1.38 1.38 0 00-.2.68c-.03.45.23.67.76.67zm8.33-2.2l6.05-10.45a2.12 2.12 0 01.81-.82 1.9 1.9 0 011-.34h2.45c.43 0 .65.19.65.58a1.27 1.27 0 01-.17.58l-6.05 10.45a2.19 2.19 0 01-.81.82 2 2 0 01-1 .34h-2.44c-.45 0-.68-.2-.68-.58a1.27 1.27 0 01.19-.58z"/><path class="cls-1" d="M207.26 23.08L196 42.55h131.55l11.3-19.47zm12.52 7.79c-.53 0-.79-.23-.79-.68a1.46 1.46 0 01.19-.68l.79-1.35a1.45 1.45 0 00.2-.67c0-.45-.25-.68-.76-.68a2.14 2.14 0 00-1.18.4 2.82 2.82 0 00-1 .95L211 39a2.71 2.71 0 01-.94 1 2.25 2.25 0 01-1.17.39h-6.74c-.52 0-.79-.22-.79-.67a1.49 1.49 0 01.2-.68l7-12.16a2.67 2.67 0 01.94-.95 2.22 2.22 0 011.2-.4h18.92c.5 0 .76.23.76.68a1.45 1.45 0 01-.2.67l-1.58 2.7a2.54 2.54 0 01-.94 1 2.28 2.28 0 01-1.17.4zm27.94 9.06a2.31 2.31 0 01-1.17.39h-18.92c-.53 0-.79-.22-.79-.67A1.49 1.49 0 01227 39l7-12.16a2.59 2.59 0 01.94-.95 2.22 2.22 0 011.2-.4h18.91c.51 0 .76.23.76.68a1.43 1.43 0 01-.19.67l-7 12.16a2.61 2.61 0 01-.9.93zm23.49-13.12a2.19 2.19 0 00-1.19.4 2.87 2.87 0 00-.95.95l-1.57 2.69a1.43 1.43 0 00-.21.68c0 .46.27.69.79.69h9.46c.53 0 .79.22.79.67a1.34 1.34 0 01-.23.68L275 39a2.61 2.61 0 01-.94 1 2.31 2.31 0 01-1.17.39H254c-.53 0-.79-.22-.79-.67a1.49 1.49 0 01.2-.68l1.58-2.7a2.69 2.69 0 01.94-1 2.29 2.29 0 011.2-.39h6.75c.51 0 .76.22.76.68a1.34 1.34 0 01-.2.67l-.78 1.35a1.38 1.38 0 00-.2.68c0 .45.25.67.76.67a2.32 2.32 0 001.2-.39 2.61 2.61 0 00.94-1l1.58-2.7a1.43 1.43 0 00.19-.68c0-.45-.26-.67-.79-.67h-9.45c-.51 0-.76-.23-.76-.68a1.43 1.43 0 01.19-.67l3.13-5.41a2.59 2.59 0 01.94-.95 2.22 2.22 0 011.2-.4h18.91c.51 0 .76.23.76.68a1.43 1.43 0 01-.19.67l-1.58 2.7a2.61 2.61 0 01-.94 1 2.28 2.28 0 01-1.17.4h-6.76c-.52 0-.79-.23-.79-.68a1.49 1.49 0 01.2-.68l.79-1.35a1.45 1.45 0 00.2-.67c-.02-.52-.31-.71-.81-.71zm25.76 0a2.17 2.17 0 00-1.19.4 3 3 0 00-1 .95l-1.57 2.69a1.52 1.52 0 00-.2.68c0 .46.27.69.79.69h9.46c.52 0 .79.22.79.67a1.34 1.34 0 01-.23.68L300.74 39a2.57 2.57 0 01-.95 1 2.25 2.25 0 01-1.16.39h-18.92c-.53 0-.79-.22-.79-.67a1.49 1.49 0 01.2-.68l1.57-2.7a2.72 2.72 0 01.95-1 2.29 2.29 0 011.19-.39h6.76c.51 0 .76.22.76.68a1.45 1.45 0 01-.2.67l-.79 1.35a1.46 1.46 0 00-.19.68c0 .45.25.67.76.67a2.35 2.35 0 001.2-.39 2.61 2.61 0 00.94-1l1.58-2.7a1.43 1.43 0 00.19-.68c0-.45-.26-.67-.79-.67h-9.46c-.5 0-.76-.23-.76-.68a1.45 1.45 0 01.2-.67l3.13-5.41a2.59 2.59 0 01.94-.95 2.22 2.22 0 011.19-.4h18.92c.51 0 .76.23.76.68a1.43 1.43 0 01-.19.67l-1.58 2.7a2.61 2.61 0 01-.94 1 2.34 2.34 0 01-1.17.4h-6.76c-.52 0-.79-.23-.79-.68a1.49 1.49 0 01.2-.68l.79-1.35a1.45 1.45 0 00.2-.67c0-.52-.26-.71-.73-.71zM326.5 39a2.57 2.57 0 01-.95 1 2.25 2.25 0 01-1.17.39h-18.91c-.53 0-.79-.22-.79-.67a1.38 1.38 0 01.2-.68l7-12.16a2.62 2.62 0 01.95-.95 2.22 2.22 0 011.19-.4H333c.51 0 .76.23.76.68a1.45 1.45 0 01-.2.67z"/></g></g></svg>