<?xml version="1.0" encoding="UTF-8"?>
<svg width="18px" height="22px" viewBox="0 0 18 22" version="1.1" xmlns="http://www.w3.org/2000/svg" xmlns:xlink="http://www.w3.org/1999/xlink">
    <!-- Generator: Sketch 54.1 (76490) - https://sketchapp.com -->
    <title>copy</title>
    <desc>Created with Sketch.</desc>
    <g id="Page-1" stroke="none" stroke-width="1" fill="none" fill-rule="evenodd">
        <g id="new_altoros_field-copy-49" transform="translate(-1417.000000, -7023.000000)" fill="#02bebd" fill-rule="nonzero" stroke="#00C088" stroke-width="0.5">
            <g id="copy" transform="translate(1418.000000, 7024.000000)">
                <g id="Group-20">
                    <path d="M12,4 L0,4 L0,5.53288657 L0,20 L1.52268245,20 L10.4773176,20 L12,20 L12,5.53288657 L12,4 Z M10.9309665,18.4631422 L10.9309665,18.9238024 L1.06114398,18.9238024 L1.06114398,18.4631422 L1.06114398,5.53288657 L1.06114398,5.07222636 L10.9309665,5.07222636 L10.9309665,5.53288657 L10.9309665,18.4631422 Z" id="Shape"></path>
                    <polygon id="Path" points="16 -2.48689958e-14 4 -2.48689958e-14 4 4.06899975 4.93310547 4.06899975 4.93310547 1.07222636 14.9349112 1.07222636 14.9349112 1.53288657 14.9349112 15.0386963 12.0341797 15.0386963 12.0341797 16 15.8699951 16 16 1.53288657"></polygon>
                </g>
            </g>
        </g>
    </g>
</svg>