<svg width="40" height="40" viewBox="0 0 40 40" fill="none" xmlns="http://www.w3.org/2000/svg">
<circle cx="20" cy="20" r="19.5" stroke="white"/>
<path d="M34.7408 15.9388L33.7076 17.6663C32.4226 10.0432 25.2224 4.90881 17.6258 6.19831C10.0291 7.48791 4.91252 14.713 6.19765 22.336C7.33291 29.0705 13.1456 33.9997 19.9521 34V32.5265C13.0588 32.5265 7.47067 26.919 7.47067 20.0017C7.47067 13.0844 13.0588 7.47686 19.9521 7.47686C26.8455 7.47686 32.4336 13.0844 32.4336 20.0017C32.4336 20.4085 32.7623 20.7384 33.1678 20.7384C33.4257 20.7384 33.6647 20.6027 33.7974 20.3808L36 16.6971L34.7408 15.9388Z" fill="white"/>
<path fill-rule="evenodd" clip-rule="evenodd" d="M28.4628 20.8608L29.4129 20.66L29.413 19.3434L28.4629 19.1426C28.1705 19.081 27.9446 18.8476 27.8914 18.5527C27.8124 18.1161 27.6971 17.687 27.5465 17.2698C27.4454 16.9872 27.5251 16.6714 27.748 16.4711L28.5181 15.7783C28.3267 15.3944 28.11 15.0238 27.8692 14.6689L26.8998 14.9891C26.6159 15.0811 26.3046 14.9931 26.1104 14.766C25.8236 14.4263 25.5091 14.111 25.1704 13.8235C24.9423 13.6294 24.8541 13.3159 24.9474 13.0307L25.2665 12.0572C24.9128 11.8159 24.5434 11.5983 24.1609 11.4061L23.4711 12.1789C23.2716 12.4022 22.9573 12.4822 22.6759 12.3811C22.2596 12.2303 21.8316 12.1145 21.3961 12.035C21.1022 11.9816 20.8697 11.7549 20.8082 11.4615L20.6082 10.5081H19.2961L19.096 11.4615C19.0346 11.7548 18.8021 11.9815 18.5081 12.0349C18.0731 12.1142 17.6454 12.2299 17.2297 12.381C16.9481 12.4817 16.6337 12.4019 16.4338 12.1788L15.7434 11.406C15.3608 11.5981 14.9915 11.8156 14.6378 12.0572L14.9568 13.0302C15.0498 13.3151 14.962 13.6282 14.7345 13.8224C14.3959 14.1102 14.0818 14.4257 13.7953 14.7656C13.6014 14.9939 13.2894 15.0822 13.0052 14.9894L12.0351 14.6692C11.7946 15.0242 11.5778 15.3948 11.3863 15.7787L12.1564 16.4708C12.3792 16.6707 12.4589 16.9863 12.3578 17.2687C12.2076 17.6865 12.0922 18.116 12.0129 18.553C11.9598 18.848 11.7338 19.0813 11.4414 19.143L10.4914 19.3437V20.6603L11.4414 20.8611C11.7337 20.9227 11.9597 21.1561 12.0128 21.451C12.0918 21.8876 12.2072 22.3167 12.3577 22.7339C12.4588 23.0165 12.3792 23.3323 12.1563 23.5326L11.3862 24.2254C11.5775 24.6093 11.7943 24.9799 12.035 25.3348L13.0044 25.0146C13.2884 24.9216 13.6002 25.0097 13.7939 25.2377C14.0807 25.5774 14.3951 25.8927 14.7339 26.1802C14.9619 26.3743 15.0501 26.6878 14.9569 26.973L14.6378 27.9465C14.9915 28.1878 15.3609 28.4054 15.7434 28.5976L16.4331 27.8248C16.6332 27.6025 16.9468 27.5227 17.2282 27.6226C17.6446 27.7734 18.0727 27.8892 18.5081 27.9687C18.8021 28.0221 19.0346 28.2488 19.096 28.5422L19.2961 29.4956H20.6082L20.8083 28.5422C20.8697 28.2488 21.1023 28.0221 21.3962 27.9687C21.8312 27.8894 22.2589 27.7737 22.6746 27.6226C22.9562 27.5217 23.2707 27.6016 23.4705 27.8248L24.161 28.5976C24.5436 28.4055 24.9129 28.188 25.2666 27.9465L24.9475 26.9737C24.8544 26.6888 24.9422 26.3758 25.1698 26.1815C25.5083 25.8937 25.8225 25.5782 26.109 25.2382C26.3029 25.01 26.6148 24.9217 26.8991 25.0144L27.8691 25.3347C28.1097 24.9797 28.3265 24.609 28.518 24.2252L27.7479 23.533C27.5251 23.3331 27.4453 23.0175 27.5465 22.7351C27.6967 22.3173 27.8121 21.8878 27.8914 21.4508C27.9445 21.1558 28.1704 20.9225 28.4628 20.8608ZM14.8126 20.0017C14.8126 22.8499 17.1136 25.1589 19.952 25.1589C22.7905 25.1589 25.0915 22.8499 25.0915 20.0017C25.0915 17.1534 22.7905 14.8444 19.952 14.8444C17.1151 14.8478 14.816 17.1548 14.8126 20.0017Z" fill="white"/>
</svg>
