<svg width="20" height="18" viewBox="0 0 20 18" fill="none" xmlns="http://www.w3.org/2000/svg">
<path d="M0.811243 6.06931C0.811243 6.06931 2.48685 4.7487 3.0456 5.40869C3.60372 6.06931 5.73558 14.0411 6.44745 15.5111C7.06869 16.8011 8.7818 18.5055 10.6605 17.288C12.538 16.0705 18.783 10.7393 19.9005 4.4437C21.0173 -1.85 12.3861 -0.531885 11.4718 4.95182C13.7568 3.57996 14.9768 5.50869 13.8074 7.69367C12.6399 9.87615 11.573 11.2993 11.0155 11.2993C10.458 11.2993 10.0293 9.83865 9.39055 7.28618C8.73118 4.64745 8.7343 -0.105638 5.98995 0.433107C3.40122 0.941228 0 5.00307 0 5.00307L0.811243 6.06931Z" fill="white"/>
</svg>
