<svg width="19" height="14" viewBox="0 0 19 14" fill="none" xmlns="http://www.w3.org/2000/svg">
<path fill-rule="evenodd" clip-rule="evenodd" d="M8.94523 0.770359C10.9724 0.762811 12.9987 0.806849 15.0242 0.904347C15.4731 0.929209 15.9226 0.960308 16.3715 1.00897C17.3796 1.13079 18.1121 1.65432 18.3886 2.62784C18.5915 3.35184 18.7312 4.11085 18.7557 4.86525C18.8112 6.50193 18.8 8.14515 18.7631 9.78793C18.7439 10.4694 18.628 11.1578 18.4621 11.8271C18.1854 12.9588 17.3982 13.5781 16.2301 13.6754C15.2281 13.7546 14.2258 13.8096 13.2237 13.8278C11.9574 13.8526 10.684 13.8351 9.41144 13.8351V13.925C7.33355 13.8583 5.25613 13.797 3.17824 13.7121C2.73567 13.6944 2.28089 13.6087 1.85672 13.4809C0.848506 13.1765 0.406098 12.3797 0.270887 11.4307C0.1172 10.3598 0.0134719 9.27591 0.00107604 8.19293C-0.0110001 6.73874 0.0808798 5.27923 0.16076 3.81904C0.197699 3.19233 0.362873 2.57229 0.713231 2.03682C1.2112 1.26409 1.99145 1.00253 2.86438 0.953904C4.89002 0.838293 6.91806 0.777906 8.94523 0.770359ZM7.48238 9.73838V4.51835C8.78145 5.1893 10.0692 5.85375 11.38 6.53009L11.3817 6.53095L11.3852 6.53277L12.5537 7.13571C11.3355 7.76463 10.1394 8.37723 8.93838 8.99235L8.93711 8.993C8.45359 9.24064 7.96926 9.48869 7.48238 9.73838Z" fill="white"/>
</svg>
