<svg width="95" height="88" viewBox="0 0 95 88" fill="none" xmlns="http://www.w3.org/2000/svg">
<path d="M68.7749 32V27.8095H66V25.8067H68.7749V23.0644H66V20.7227H68.7749V10H74.7711C77.5566 10 79.6191 10.5444 80.9587 11.6331C82.3196 12.7218 83 14.3035 83 16.3782C83 18.4734 82.2664 20.1167 80.7992 21.3081C79.3321 22.479 77.1739 23.0644 74.3246 23.0644H71.6454V25.8067H76.9081V27.8095H71.6454V32H68.7749ZM71.6454 20.7227H73.9099C75.8449 20.7227 77.344 20.4146 78.4071 19.7983C79.4916 19.1821 80.0338 18.0728 80.0338 16.4706C80.0338 15.0738 79.5872 14.0364 78.6942 13.3585C77.8011 12.6807 76.4084 12.3417 74.5159 12.3417H71.6454V20.7227Z" fill="white"/>
<path d="M72.7616 0C63.4521 0 55.5074 6.01125 52.5311 14.0604H14.9719C14.1399 14.0604 13.4645 14.8025 13.4586 15.6252L13.101 68.158H2.39497C1.55927 68.158 0.841797 68.7568 0.841797 69.5853V76.2517C0.861008 82.5276 5.856 87.6834 12.1914 87.9671V88H58.9138V87.9561C59.2921 87.97 59.448 88 59.6874 88H59.7199C66.277 87.9898 71.5875 82.7265 71.5875 76.2378V42.5321C71.9658 42.5526 72.3663 42.5635 72.7579 42.5635C84.6047 42.5635 94.2452 33.0052 94.2452 21.281C94.2452 9.5576 84.6092 0 72.7616 0ZM12.767 85.005H12.7574C7.86213 84.9984 3.89052 81.0813 3.86835 76.2363V71.153H47.7534V76.2151C47.7556 79.3403 49.0169 82.3361 51.2572 84.5392C51.4161 84.6964 51.6134 84.8178 51.7797 85.005H12.767ZM68.5609 76.2363C68.5617 81.0725 64.6048 84.9955 59.7184 85.005H59.6896C54.7833 84.9962 50.8043 81.0711 50.7799 76.2166V69.5853C50.7925 69.2021 50.6447 68.8314 50.3706 68.5609C50.0964 68.2903 49.7218 68.1448 49.3354 68.158H16.1275L16.4748 17.0554H51.691C51.4228 18.4264 51.2839 19.8186 51.2765 21.2145C51.2735 24.1664 51.8957 27.0854 53.103 29.7842H38.8097C37.9732 29.7842 37.2964 30.4548 37.2964 31.2818C37.2964 32.1087 37.9732 32.7793 38.8097 32.7793H54.7449C57.8667 37.6374 62.8573 41.0244 68.5609 42.1577V76.2363ZM72.7616 39.5693C62.5677 39.5693 54.303 31.3914 54.3038 21.303C54.3038 11.2145 62.5677 3.0367 72.7623 3.0367C82.9562 3.0367 91.2202 11.2152 91.2202 21.303C91.2091 31.3863 82.9518 39.5583 72.7616 39.5693Z" fill="#9B9B9B"/>
<path d="M29.0964 39.751C26.4253 39.751 24.2529 41.8327 24.2529 44.392C24.2529 46.9512 26.4253 49.033 29.0964 49.033C31.7676 49.033 33.9407 46.9512 33.9407 44.392C33.9407 41.8327 31.7676 39.751 29.0964 39.751ZM29.0964 46.0379C28.0937 46.0379 27.2795 45.2994 27.2795 44.392C27.2795 43.4838 28.0945 42.746 29.0964 42.746C30.0984 42.746 30.9141 43.4845 30.9141 44.392C30.9141 45.2994 30.0984 46.0379 29.0964 46.0379Z" fill="white"/>
<path d="M37.2974 44.3849C37.2974 45.2118 37.9742 45.8823 38.8106 45.8823H58.9857C59.8214 45.8823 60.499 45.2118 60.499 44.3849C60.499 43.5579 59.8214 42.8875 58.9857 42.8875H38.8106C37.9742 42.8875 37.2974 43.5579 37.2974 44.3849Z" fill="white"/>
<path d="M29.0964 26.7329C26.4253 26.7329 24.2529 28.8154 24.2529 31.3746C24.2529 33.9339 26.4253 36.0156 29.0964 36.0156C31.7676 36.0156 33.9407 33.9339 33.9407 31.3746C33.9407 28.8154 31.7676 26.7329 29.0964 26.7329ZM29.0964 33.0206C28.0937 33.0206 27.2795 32.2821 27.2795 31.3746C27.2795 30.4672 28.0945 29.7279 29.0964 29.7279C30.0984 29.7279 30.9141 30.4665 30.9141 31.3746C30.9141 32.2821 30.0984 33.0213 29.0964 33.0213V33.0206Z" fill="white"/>
<path d="M29.0964 52.7666C26.4253 52.7666 24.2529 54.8484 24.2529 57.4076C24.2529 59.9668 26.4253 62.0486 29.0964 62.0486C31.7676 62.0486 33.9407 59.9668 33.9407 57.4076C33.9407 54.8484 31.7676 52.7666 29.0964 52.7666ZM29.0964 59.0535C28.0937 59.0535 27.2795 58.3158 27.2795 57.4076C27.2795 56.5002 28.0945 55.7616 29.0964 55.7616C30.0984 55.7616 30.9141 56.5002 30.9141 57.4076C30.9141 58.315 30.0984 59.0535 29.0964 59.0535Z" fill="white"/>
<path d="M58.9857 55.9905H38.8106C37.9742 55.9905 37.2974 56.661 37.2974 57.488C37.2974 58.3151 37.9742 58.9856 38.8106 58.9856H58.9857C59.8214 58.9856 60.499 58.3151 60.499 57.488C60.499 56.661 59.8214 55.9905 58.9857 55.9905Z" fill="white"/>
<path fill-rule="evenodd" clip-rule="evenodd" d="M54.6691 32.7793L53.0272 29.7842H38.734C37.8975 29.7842 37.2207 30.4547 37.2207 31.2817C37.2207 32.1088 37.8975 32.7793 38.734 32.7793H54.6691Z" fill="white"/>
</svg>
