<svg width="40" height="40" viewBox="0 0 40 40" fill="none" xmlns="http://www.w3.org/2000/svg">
<circle cx="20" cy="20" r="19.5" stroke="white"/>
<path fill-rule="evenodd" clip-rule="evenodd" d="M27.863 13.1331H22.8189C23.3503 12.4842 23.6708 11.6498 23.6708 10.7404C23.6708 8.6779 22.0241 7 20.0001 7C17.9759 7 16.3292 8.6779 16.3292 10.7404C16.3292 11.6498 16.6497 12.4842 17.1811 13.1331H12.137L9 30H31L27.863 13.1331ZM20.0001 8.34766C21.2948 8.34766 22.3482 9.42104 22.3482 10.7404C22.3482 12.0597 21.2948 13.1331 20.0001 13.1331C18.7052 13.1331 17.6518 12.0597 17.6518 10.7404C17.6518 9.42104 18.7052 8.34766 20.0001 8.34766ZM21.0579 26H19.3379L16.7479 22.38V26H15.2379V18.86H16.7479V22.32L19.3079 18.86H20.9179L18.3179 22.29L21.0579 26ZM26.4666 20.11V18.86H21.9566V26H23.4666V20.11H26.4666Z" fill="white"/>
</svg>
