<svg width="40" height="40" viewBox="0 0 40 40" fill="none" xmlns="http://www.w3.org/2000/svg">
<path d="M0.5 20C0.5 9.23045 9.23045 0.5 20 0.5C30.7695 0.5 39.5 9.23045 39.5 20C39.5 30.7695 30.7695 39.5 20 39.5C9.23045 39.5 0.5 30.7695 0.5 20Z" fill="#1A1A1A" stroke="white"/>
<path fill-rule="evenodd" clip-rule="evenodd" d="M1.48438 20.0002C1.48438 9.76288 9.78339 1.46387 20.0207 1.46387C22.9473 1.46387 25.7155 2.1421 28.1767 3.34997C28.4271 3.47285 28.6743 3.60121 28.9182 3.7349C30.6243 4.67016 32.1672 5.86605 33.4934 7.26898L20.0207 20.7417L7.28949 33.4729C5.88655 32.1467 4.69067 30.6038 3.75541 28.8977C3.62172 28.6538 3.49336 28.4066 3.37048 28.1562C2.16261 25.695 1.48438 22.9268 1.48438 20.0002Z" fill="#CFD1D0"/>
</svg>
