<svg width="20" height="23" viewBox="0 0 20 23" fill="none" xmlns="http://www.w3.org/2000/svg">
<path fill-rule="evenodd" clip-rule="evenodd" d="M3 4.97168C2.44772 4.97168 2 5.41939 2 5.97168V19.9717C2 20.524 2.44772 20.9717 3 20.9717H17C17.5523 20.9717 18 20.524 18 19.9717V5.97168C18 5.41939 17.5523 4.97168 17 4.97168H3ZM0 5.97168C0 4.31483 1.34315 2.97168 3 2.97168H17C18.6569 2.97168 20 4.31483 20 5.97168V19.9717C20 21.6285 18.6569 22.9717 17 22.9717H3C1.34315 22.9717 0 21.6285 0 19.9717V5.97168Z" fill="white"/>
<path fill-rule="evenodd" clip-rule="evenodd" d="M14 0.97168C14.5523 0.97168 15 1.41939 15 1.97168V5.97168C15 6.52396 14.5523 6.97168 14 6.97168C13.4477 6.97168 13 6.52396 13 5.97168V1.97168C13 1.41939 13.4477 0.97168 14 0.97168Z" fill="white"/>
<path fill-rule="evenodd" clip-rule="evenodd" d="M6 0.97168C6.55228 0.97168 7 1.41939 7 1.97168V5.97168C7 6.52396 6.55228 6.97168 6 6.97168C5.44772 6.97168 5 6.52396 5 5.97168V1.97168C5 1.41939 5.44772 0.97168 6 0.97168Z" fill="white"/>
<path fill-rule="evenodd" clip-rule="evenodd" d="M0 9.97168C0 9.41939 0.447715 8.97168 1 8.97168H19C19.5523 8.97168 20 9.41939 20 9.97168C20 10.524 19.5523 10.9717 19 10.9717H1C0.447715 10.9717 0 10.524 0 9.97168Z" fill="white"/>
</svg>
