<svg width="106" height="88" viewBox="0 0 106 88" fill="none" xmlns="http://www.w3.org/2000/svg">
<path fill-rule="evenodd" clip-rule="evenodd" d="M51.3017 41.3753L47.2615 33.3944L51.2515 41.221L51.3017 41.3753Z" fill="white"/>
<path fill-rule="evenodd" clip-rule="evenodd" d="M51.3017 41.3753L47.2615 33.3944L51.2515 41.221L51.3017 41.3753Z" fill="white"/>
<path fill-rule="evenodd" clip-rule="evenodd" d="M51.3017 41.3753L51.2515 41.221L47.2615 33.3944L51.3017 41.3753Z" fill="white"/>
<path fill-rule="evenodd" clip-rule="evenodd" d="M105.158 41.0332C105.158 50.4037 97.2324 58 87.456 58C81.4606 58 76.1613 55.1432 72.9591 50.7723H59.8048L51.936 50.1196L47.9115 51.7836L36.5943 50.6652L35.4334 46.8732L34.5093 46.5512C32.1202 53.2128 25.5257 58 17.7647 58C7.98834 58 0.0629883 50.4037 0.0629883 41.0332C0.0629883 32.5998 6.48258 25.6034 14.8935 24.2885L12.0475 18.6775L26.919 21.7294L32.1258 21.1888L20.5476 15.9301H7.13667V13.3007L30.7912 13.4847L29.0036 6.57455L29.3682 6.5L32.1258 7.1655L33.5052 10.9051L40.6534 13.4233L56.3778 5.11646L78.3562 10.5841L80.9059 9.94261L64.395 0H85.635L97.8815 10.8414V19.1556L89.1573 24.1438C98.1355 24.9644 105.158 32.2128 105.158 41.0332ZM72.7677 41.0332C72.7677 48.8085 79.3439 55.1116 87.456 55.1116C95.5681 55.1116 102.144 48.8085 102.144 41.0332C102.144 33.2579 95.5681 26.9548 87.456 26.9548C86.1913 26.9548 84.9639 27.108 83.7929 27.3961L84.893 29.758C85.7189 29.5863 86.5765 29.4959 87.456 29.4959C94.104 29.4959 99.4932 34.6614 99.4932 41.0333C99.4932 47.4052 94.104 52.5707 87.456 52.5707C80.8081 52.5707 75.4188 47.4052 75.4188 41.0333C75.4188 36.5272 78.114 32.6245 82.0434 30.7253L80.9614 28.4023C76.1068 30.6998 72.7677 35.4928 72.7677 41.0332ZM3.07646 41.0332C3.07646 48.8085 9.65263 55.1116 17.7647 55.1116C24.7266 55.1116 30.5573 50.4692 32.0707 44.238L31.3196 43.3027L29.6886 42.6233C28.8804 48.2428 23.8499 52.5707 17.7648 52.5707C11.1168 52.5707 5.72759 47.4052 5.72759 41.0333C5.72759 34.7346 10.9936 29.6149 17.5359 29.4979L16.2819 27.0257C8.86615 27.7382 3.07646 33.7377 3.07646 41.0332ZM8.74106 41.0333C8.74106 45.81 12.7811 49.6823 17.7648 49.6823C22.6161 49.6823 26.5733 46.0129 26.78 41.4118L24.1388 40.3117C24.1599 40.5145 24.1707 40.7201 24.1707 40.9282C24.1707 44.3179 21.3037 47.0659 17.7671 47.0659C14.2305 47.0659 11.3635 44.3179 11.3635 40.9282C11.3635 37.5384 14.2305 34.7904 17.7671 34.7904C18.7536 34.7904 19.6879 35.0042 20.5225 35.3861L19.0436 32.4704C18.6259 32.4136 18.1989 32.3842 17.7648 32.3842C12.7811 32.3842 8.74106 36.2565 8.74106 41.0333ZM78.4323 41.0333C78.4323 45.81 82.4724 49.6823 87.456 49.6823C92.4397 49.6823 96.4797 45.81 96.4797 41.0333C96.4797 36.2565 92.4397 32.3842 87.456 32.3842C87.0151 32.3842 86.5816 32.4145 86.1576 32.4731L87.0735 34.4394C87.1993 34.4328 87.326 34.4294 87.4536 34.4294C91.1982 34.4294 94.2339 37.339 94.2339 40.9282C94.2339 44.5173 91.1982 47.4269 87.4536 47.4269C83.7089 47.4269 80.6733 44.5173 80.6733 40.9282C80.6733 38.4881 82.0763 36.3621 84.1513 35.2509L83.2739 33.3672C80.3959 34.8125 78.4323 37.7031 78.4323 41.0333ZM84.4401 40.9282C84.4401 42.5234 85.7893 43.8165 87.4536 43.8165C89.1179 43.8165 90.467 42.5234 90.467 40.9282C90.467 39.333 89.1179 38.0398 87.4536 38.0398C85.7893 38.0398 84.4401 39.333 84.4401 40.9282ZM15.1303 40.9282C15.1303 42.324 16.3109 43.4555 17.7671 43.4555C19.2234 43.4555 20.4039 42.324 20.4039 40.9282C20.4039 39.5324 19.2234 38.4009 17.7671 38.4009C16.3109 38.4009 15.1303 39.5324 15.1303 40.9282ZM40.3824 25.9924C38.8301 25.1148 36.5859 24.2762 34.5401 23.577L32.2694 22.876L37.7038 21.0937L21.211 13.6005L26.1533 15.846H38.6381L41.1461 16.461L56.7818 8.20102L71.8288 11.9443L45.5239 17.3619L59.4879 24.687C58.381 27.0031 56.9672 29.9959 55.7685 32.6074C55.0576 34.1564 54.4176 35.5815 53.9615 36.6547C53.7346 37.1886 53.5458 37.6525 53.4157 38.0076C53.3518 38.182 53.2926 38.3553 53.2504 38.5089C53.2297 38.5839 53.2051 38.6824 53.1886 38.7892L53.1878 38.7947C53.1779 38.8574 53.1366 39.1202 53.2156 39.4229C53.2706 39.6337 53.4051 39.9224 53.4888 40.1019L53.492 40.1089C53.6066 40.3548 53.7612 40.6739 53.9437 41.0437C54.3095 41.7851 54.8007 42.757 55.338 43.8095C55.9749 45.0574 56.6798 46.425 57.3234 47.6673L51.4394 47.1793L47.4391 48.8333L43.8975 48.4833L45.8575 46.7159C46.2472 46.7458 46.6596 46.7658 47.054 46.7721C47.4476 46.7784 47.8621 46.7718 48.2407 46.7404C48.5299 46.7164 49.1061 46.6597 49.6217 46.4196C50.2678 46.1186 50.8114 45.6656 51.1798 45.0607C51.5386 44.4714 51.6523 43.8681 51.667 43.3727C51.6911 42.5557 51.4405 41.7962 51.3327 41.4698L51.3217 41.4363L51.3017 41.3753L47.2615 33.3944L47.259 33.3897L47.2581 33.3878C46.2063 31.3571 44.1429 28.1183 40.3824 25.9924ZM35.5561 43.8427L42.1127 46.127L44.8088 43.6959L45.5121 43.7802C45.9643 43.8345 46.5558 43.8753 47.1043 43.8841C47.4381 43.8895 47.7414 43.8827 47.981 43.8628C48.0943 43.8534 48.1858 43.8421 48.257 43.8285C48.2917 43.8218 48.3122 43.8164 48.321 43.8139C48.4752 43.7391 48.5414 43.6634 48.5771 43.6048C48.619 43.536 48.6504 43.437 48.6547 43.2909C48.6585 43.1619 48.6393 43.0022 48.5973 42.8182C48.5558 42.6357 48.5016 42.4689 48.4475 42.3044L48.4434 42.2917L44.5613 34.6768L44.5603 34.6749L44.5585 34.6713C44.057 33.7032 43.3297 32.4947 42.3006 31.3177C41.3994 30.287 40.2667 29.2803 38.8515 28.4802C37.5747 27.7584 35.5796 26.9988 33.528 26.2976C32.5116 25.9502 31.498 25.6226 30.5734 25.3256L30.2359 25.2173C29.451 24.9653 28.7353 24.7356 28.1614 24.5397L27.0777 24.7157L17.4598 22.742L18.1335 24.0701L19.6553 27.0704L21.1152 29.9487L23.2562 34.1696L24.9444 37.498L26.2311 38.0339L29.6932 39.476L32.4469 40.6229L33.2335 40.9506L35.2808 43.4998L35.5561 43.8427ZM94.868 17.5154V12.1055L84.4563 2.88835H74.8559L88.3987 11.0436L78.7081 13.4818L54.0751 18.555L63.4002 23.4467L62.8118 24.6708C61.66 27.067 59.9409 30.6897 58.5269 33.7705C57.8191 35.3126 57.1924 36.7087 56.7523 37.7443C56.5312 38.2644 56.3645 38.6765 56.2591 38.9643C56.3594 39.1785 56.4977 39.464 56.6678 39.8088C57.0251 40.5328 57.5095 41.4913 58.0448 42.5402C58.9499 44.3133 59.9941 46.3316 60.8017 47.884H71.2565C70.2906 45.7888 69.7542 43.4711 69.7542 41.0332C69.7542 33.5077 74.866 27.1265 81.943 24.9055L94.868 17.5154Z" fill="white"/>
<path fill-rule="evenodd" clip-rule="evenodd" d="M51.2515 41.221L51.3017 41.3753L47.2615 33.3944L51.2515 41.221Z" fill="white"/>
<path fill-rule="evenodd" clip-rule="evenodd" d="M29.8736 9.5L11.1788 12L10.6736 13.5H7.13672L8.8538 9.93433L29.3683 6.5L29.8736 9.5Z" fill="white"/>
<path d="M34.8839 80.4707L70.9072 80.4707C73.198 84.4209 77.5467 87.0144 82.0284 87.0144C88.1523 87.0144 92.6125 83.5271 93.9581 77.686C94.0703 77.1993 93.9435 76.6897 93.6169 76.3116C93.2895 75.9344 92.8015 75.7339 92.302 75.7721L85.6233 76.2902C84.934 74.9816 84.9332 73.4205 85.6218 72.1112L92.3374 72.6683C92.8538 72.7111 93.3579 72.4984 93.686 72.099C94.0142 71.6995 94.1241 71.1654 93.9796 70.6702C92.4258 65.3281 87.8119 62 81.937 62C76.5446 62 72.1828 64.8176 70.2924 69.5193L34.3613 69.5193C32.3871 66.189 28.3811 62.9803 23.2839 63.0308C17.2099 63.0308 12.7198 66.479 11.2712 72.2443C11.1482 72.7341 11.2689 73.2522 11.5955 73.6379C11.9221 74.0235 12.4147 74.2294 12.9196 74.1911L19.5975 73.6754C20.2868 74.9832 20.2876 76.545 19.5998 77.8544L12.8834 77.2973C12.367 77.2544 11.8629 77.4671 11.5348 77.8666C11.2066 78.2661 11.0968 78.8002 11.2412 79.2953C12.7882 84.6115 17.379 87.9464 23.2393 88C28.6324 88.0008 32.9934 85.1464 34.8839 80.4707ZM15.2403 80.6383L20.273 81.0554C20.8086 81.0998 21.3297 80.8694 21.6555 80.444L21.7008 80.385C23.8041 77.6256 23.7788 73.8024 21.6393 71.0712C21.3143 70.6611 20.8048 70.4391 20.2815 70.4797L15.1043 70.8799C16.6143 67.8625 19.4992 66.1752 23.2992 66.1752C27.4397 66.1346 30.7034 69.038 31.9852 71.7615C32.2449 72.3102 32.8013 72.6583 33.4107 72.6545L71.4074 72.6545C72.0998 72.6583 72.7123 72.2091 72.9144 71.5495C74.114 67.5924 77.5713 65.1398 81.9385 65.1398C85.4558 65.1398 88.3636 66.6978 89.982 69.3249L84.9494 68.9094C84.413 68.865 83.8912 69.0961 83.5661 69.5231L83.5215 69.5813C81.419 72.3369 81.4413 76.1563 83.5753 78.8867C83.5861 78.9005 83.5984 78.9158 83.6091 78.9288C83.9357 79.319 84.4322 79.5272 84.9409 79.4882L90.1734 79.0826C88.7248 82.1604 85.8531 83.8814 82.0276 83.8814C78.462 83.8814 74.864 81.5589 73.2779 78.2332C73.0174 77.6868 72.4641 77.3386 71.8562 77.3386L33.7696 77.3386C33.0757 77.3386 32.464 77.7916 32.2634 78.4528C31.0631 82.4106 27.6057 84.8678 23.2531 84.8678C19.7512 84.8342 16.8533 83.2624 15.2403 80.6383Z" fill="#9B9B9B"/>
</svg>
