<svg width="10" height="18" viewBox="0 0 10 18" fill="none" xmlns="http://www.w3.org/2000/svg">
<path fill-rule="evenodd" clip-rule="evenodd" d="M9.69231 5.79375H6.39692C6.39692 5.45625 6.38077 5.13281 6.36462 4.80938C6.34846 4.48594 6.33231 4.1625 6.33231 3.825C6.39692 3.375 6.72 3.09375 7.30154 3.09375H9.30462H9.56308V0H5.81539C5.16923 0 4.58769 0.168751 3.94154 0.393751C2.71385 1.06875 2.19692 2.08125 2.06769 3.2625C2.00308 3.99375 2.00308 4.78125 2.00308 5.5125V5.79375H0V9H2.06769V18H6.39692V9H9.30462L9.69231 5.79375Z" fill="white"/>
<path d="M6.39692 5.79375H9.69231L9.30462 9H6.39692V18H2.06769V9H0V5.79375H2.00308V5.5125C2.00308 4.78125 2.00308 3.99375 2.06769 3.2625C2.19692 2.08125 2.71385 1.06875 3.94154 0.393751C4.58769 0.168751 5.16923 0 5.81539 0H9.56308V3.09375H9.30462H7.30154C6.72 3.09375 6.39692 3.375 6.33231 3.825C6.33231 4.1625 6.34846 4.48594 6.36462 4.80938C6.38077 5.13281 6.39692 5.45625 6.39692 5.79375Z" fill="white"/>
</svg>
