<svg width="40" height="40" viewBox="0 0 40 40" fill="none" xmlns="http://www.w3.org/2000/svg">
<circle cx="20" cy="20" r="19.5" stroke="white"/>
<path d="M24.017 9.32499L23.3471 8.66666L22.7609 9.24673L23.4262 9.90966L31.1255 17.5287L31.7861 18.1779L32.3769 17.5978L24.017 9.32499Z" fill="white"/>
<path d="M22.2344 9.77193L21.6435 10.352L30.0081 18.634L30.6687 19.2831L31.2595 18.7031L22.2344 9.77193Z" fill="white"/>
<path d="M29.4886 19.1807L21.78 11.5294L21.1147 10.8711L18.7887 13.1729C18.4174 13.5245 18.4045 14.1073 18.7597 14.4747C18.7691 14.4845 18.7788 14.4941 18.7887 14.5034L18.8445 14.5586L18.9143 14.5909C18.9422 14.5909 21.78 15.972 23.385 17.551C25.0691 19.236 26.381 21.9521 26.381 21.9982L26.4135 22.0718L26.474 22.1317C26.8293 22.4991 27.4182 22.5119 27.7895 22.1603C27.7994 22.151 27.8091 22.1415 27.8185 22.1317L30.1446 19.8299L29.4886 19.1807Z" fill="white"/>
<path d="M33.773 14.8815L26.0923 7.26703C25.7163 6.91099 25.1238 6.91099 24.7478 7.26703L23.8779 8.14633L32.2424 16.4237L32.8937 17.0775L33.7683 16.212C34.1392 15.8452 34.1413 15.2508 33.773 14.8815Z" fill="white"/>
<path d="M14.4724 26.378C14.2928 26.2012 14.05 26.1015 13.7966 26.1006C13.2648 26.1025 12.8352 26.5306 12.8371 27.0569C12.838 27.3076 12.9387 27.5479 13.1174 27.7257C13.4971 28.0858 14.0962 28.0858 14.4758 27.7257C14.851 27.3526 14.8494 26.7492 14.4724 26.378Z" fill="white"/>
<path d="M23.6344 19.218C23.1326 18.507 22.5073 17.8897 21.7875 17.395C21.6099 17.2732 21.371 17.2884 21.2106 17.4318C21.1641 17.4732 16.5352 21.5751 14.9163 22.8273C14.0808 23.5595 12.9155 23.7978 11.8552 23.4534C11.6897 23.4048 11.5106 23.4509 11.39 23.5731L8.59867 26.3353C8.41828 26.5148 8.41828 26.8049 8.59867 26.9844L11.2225 29.5809L11.255 29.6085L13.9114 32.2372C14.0929 32.4157 14.3859 32.4157 14.5674 32.2372L17.3587 29.475C17.4822 29.3557 17.5287 29.1784 17.4796 29.0146C17.1326 27.9653 17.3733 26.8126 18.1123 25.9854C19.4009 24.4018 23.5507 19.8211 23.5879 19.7751C23.7285 19.621 23.7476 19.3928 23.6344 19.218ZM15.1262 28.3387C14.776 28.6947 14.2971 28.8982 13.7951 28.9042C13.2954 28.9096 12.8138 28.7193 12.4553 28.3747C11.7077 27.6548 11.6914 26.4715 12.4189 25.7317C13.1464 24.9919 14.3421 24.9758 15.0897 25.6957C15.8373 26.4156 15.8536 27.5989 15.1262 28.3387Z" fill="white"/>
<path d="M18.4942 9.32499L19.1641 8.66666L19.7503 9.24673L19.085 9.90966L11.3857 17.5287L10.7251 18.1779L10.1343 17.5978L18.4942 9.32499Z" fill="white"/>
<path d="M8.73827 14.8815L16.419 7.26703C16.7949 6.91099 17.3875 6.91099 17.7634 7.26703L18.6334 8.14633L10.2688 16.4237L9.61752 17.0775L8.74292 16.212C8.37203 15.8452 8.36993 15.2508 8.73827 14.8815Z" fill="white"/>
<path d="M28.0388 26.378C28.2184 26.2012 28.4612 26.1015 28.7146 26.1006C29.2465 26.1025 29.676 26.5306 29.6742 27.0569C29.6732 27.3077 29.5725 27.5479 29.3938 27.7257C29.0141 28.0858 28.4151 28.0858 28.0354 27.7257C27.6602 27.3526 27.6618 26.7492 28.0388 26.378Z" fill="white"/>
<path d="M8.73827 14.8815L16.419 7.26703C16.7949 6.91099 17.3875 6.91099 17.7634 7.26703L18.6334 8.14633L10.2688 16.4237L9.61752 17.0775L8.74292 16.212C8.37203 15.8452 8.36993 15.2508 8.73827 14.8815Z" fill="white"/>
<path fill-rule="evenodd" clip-rule="evenodd" d="M17.1036 15.1301L13.0226 19.1807L12.3667 19.8299L13.8892 21.3365L13.8961 21.3305L13.9426 21.2898L13.9914 21.252C14.7459 20.6685 16.2611 19.3715 17.6389 18.1735C18.213 17.6744 18.7525 17.2018 19.1858 16.821C19.0316 16.7361 18.8929 16.662 18.7751 16.6005C18.6451 16.5326 18.5436 16.4815 18.4777 16.4491L17.9869 16.2225L17.6914 15.93C17.6664 15.9059 17.6418 15.8814 17.6177 15.8564C17.4045 15.6356 17.2332 15.3903 17.1036 15.1301Z" fill="white"/>
<path fill-rule="evenodd" clip-rule="evenodd" d="M30.6561 23.4534C30.2803 23.5755 29.8914 23.6243 29.5086 23.604L29.505 23.6073C28.3341 24.7145 26.4817 24.6804 25.3532 23.5351L25.0345 23.2197L24.8011 22.6916C24.7723 22.6323 24.7291 22.5456 24.6719 22.4356C24.6241 22.3435 24.5679 22.2377 24.504 22.1208C24.1082 22.5614 23.6326 23.0914 23.1543 23.6276C23.0234 23.7745 22.8911 23.923 22.7585 24.0721C23.4303 24.8373 24.0311 25.5334 24.3989 25.9854C25.1379 26.8126 25.3787 27.9653 25.0316 29.0146C24.9825 29.1784 25.0291 29.3557 25.1526 29.475L27.9439 32.2372C28.1253 32.4157 28.4184 32.4157 28.5998 32.2372L31.2562 29.6085L31.2888 29.5809L33.9126 26.9844C34.0929 26.8049 34.0929 26.5148 33.9126 26.3353L31.1213 23.5731C31.0007 23.4509 30.8216 23.4048 30.6561 23.4534ZM28.7161 28.9042C28.2142 28.8982 27.7352 28.6947 27.3851 28.3387C26.6576 27.5989 26.6739 26.4156 27.4215 25.6957C28.1691 24.9758 29.3649 24.9919 30.0923 25.7317C30.8198 26.4715 30.8035 27.6548 30.0559 28.3747C29.6974 28.7193 29.2158 28.9096 28.7161 28.9042Z" fill="white"/>
<path fill-rule="evenodd" clip-rule="evenodd" d="M16.8895 13.124L11.2517 18.7031L11.8425 19.2831L12.5031 18.634L16.8432 14.3368C16.7732 13.9343 16.7888 13.5205 16.8895 13.124Z" fill="white"/>
</svg>
