<svg width="40" height="40" viewBox="0 0 40 40" fill="none" xmlns="http://www.w3.org/2000/svg">
<circle cx="20" cy="20" r="19.5" stroke="white"/>
<path d="M9 20.8279C9 14.2955 14.2955 9 20.8279 9C23.2919 9 25.58 9.75349 27.4743 11.0426L22.5093 14.7793C21.3674 14.2807 20.1064 14.0041 18.7807 14.0041C13.6302 14.0041 9.45492 18.1794 9.45492 23.3299C9.45492 23.6356 9.46962 23.9378 9.49836 24.2359C9.17419 23.1567 9 22.0126 9 20.8279Z" fill="white"/>
<path d="M18.6658 23.8194C19.7317 24.8853 21.4599 24.8853 22.5259 23.8194L23.0196 23.1461L29.6027 14.1691C29.6027 14.1691 30.0095 13.5485 29.4728 13.0118C28.9361 12.4752 28.316 12.8824 28.316 12.8824L19.339 19.4655L18.6657 19.9593C17.5998 21.0252 17.5998 22.7534 18.6658 23.8194Z" fill="white"/>
</svg>
