<svg width="120" height="138" viewBox="0 0 120 138" fill="none" xmlns="http://www.w3.org/2000/svg">
<path fill-rule="evenodd" clip-rule="evenodd" d="M27.3214 71.7856C42.4106 71.7856 54.6428 59.5534 54.6428 44.4642C54.6428 29.375 42.4106 17.1428 27.3214 17.1428C12.2322 17.1428 0 29.375 0 44.4642C0 59.5534 12.2322 71.7856 27.3214 71.7856ZM29.2885 68.9442C42.8085 68.9442 53.7685 57.9841 53.7685 44.4642C53.7685 30.9443 42.8085 19.9842 29.2885 19.9842C15.7686 19.9842 4.80857 30.9443 4.80857 44.4642C4.80857 57.9841 15.7686 68.9442 29.2885 68.9442Z" fill="#A27B3E"/>
<path fill-rule="evenodd" clip-rule="evenodd" d="M27.3214 137.143C42.4106 137.143 54.6428 124.911 54.6428 109.821C54.6428 94.7322 42.4106 82.5 27.3214 82.5C12.2322 82.5 0 94.7322 0 109.821C0 124.911 12.2322 137.143 27.3214 137.143ZM29.2885 134.301C42.8085 134.301 53.7685 123.341 53.7685 109.821C53.7685 96.3015 42.8085 85.3414 29.2885 85.3414C15.7686 85.3414 4.80857 96.3015 4.80857 109.821C4.80857 123.341 15.7686 134.301 29.2885 134.301Z" fill="#A27B3E"/>
<path fill-rule="evenodd" clip-rule="evenodd" d="M92.6786 71.7856C107.768 71.7856 120 59.5534 120 44.4642C120 29.375 107.768 17.1428 92.6786 17.1428C77.5894 17.1428 65.3572 29.375 65.3572 44.4642C65.3572 59.5534 77.5894 71.7856 92.6786 71.7856ZM94.6457 68.9442C108.166 68.9442 119.126 57.9841 119.126 44.4642C119.126 30.9443 108.166 19.9842 94.6457 19.9842C81.1258 19.9842 70.1657 30.9443 70.1657 44.4642C70.1657 57.9841 81.1258 68.9442 94.6457 68.9442Z" fill="#A27B3E"/>
<path fill-rule="evenodd" clip-rule="evenodd" d="M92.6786 137.143C107.768 137.143 120 124.911 120 109.821C120 94.7322 107.768 82.5 92.6786 82.5C77.5894 82.5 65.3572 94.7322 65.3572 109.821C65.3572 124.911 77.5894 137.143 92.6786 137.143ZM94.6457 134.301C108.166 134.301 119.126 123.341 119.126 109.821C119.126 96.3015 108.166 85.3414 94.6457 85.3414C81.1258 85.3414 70.1657 96.3015 70.1657 109.821C70.1657 123.341 81.1258 134.301 94.6457 134.301Z" fill="#A27B3E"/>
<path d="M27.9228 56.2499L6.16064 28.6472L27.9228 47.8179L74.732 0L27.9228 56.2499Z" fill="#A27B3E"/>
</svg>
