<svg width="150" height="144" viewBox="0 0 150 144" fill="none" xmlns="http://www.w3.org/2000/svg">
<path d="M111.449 121.647C111.21 121.614 110.815 121.306 110.57 120.962C110.13 120.341 108.573 119.653 106.661 118.808C105.68 118.374 104.607 117.899 103.543 117.371C99.0822 115.159 94.2018 111.182 90.4705 106.815C88.4509 104.894 87.8601 104.202 87.5052 103.343C87.2874 102.816 87.3525 102.843 87.9034 103.509C88.5122 104.244 93.9257 107.324 98.3824 110.483C99.4263 111.223 102.253 113.133 103.908 114.08C107.219 115.974 110.013 119.081 110.752 120.199C111.015 120.597 111.427 121.106 111.667 121.331C111.907 121.556 112.054 121.733 111.994 121.724C111.933 121.714 111.688 121.68 111.449 121.647Z" fill="#A27B3E"/>
<path fill-rule="evenodd" clip-rule="evenodd" d="M63.2432 137.987C63.6191 140.985 66.4164 143.465 69.9784 143.959C71.9932 144.239 75.2104 143.06 77.4481 141.223C78.7244 140.175 78.7572 140.164 79.7949 140.434C83.1995 141.323 88.2283 140.318 90.6613 138.263C91.0935 137.898 91.8065 137.714 93.4092 137.553C97.3298 137.161 100.749 135.638 102.47 133.517C103.136 132.697 103.288 132.637 105.424 132.372C110.936 131.687 114.482 128.727 114.818 124.53C114.939 123.025 114.953 123.003 115.983 122.704C118.947 121.845 121.582 119.229 122.127 116.605C122.423 115.181 122.162 112.407 121.639 111.426C121.342 110.869 121.372 110.741 121.86 110.483C122.171 110.319 123.171 109.527 124.084 108.723L125.743 107.261L126.697 108.142C127.641 109.015 127.666 109.021 129.037 108.666C131.327 108.073 136.335 106.126 139.472 104.608L142.422 103.18L150 99.0806L119.188 57.8602L117.579 57.0591L116.278 57.2208C115.073 57.3707 112.585 58.8899 110.554 60.2034C108.524 61.517 106.578 62.8512 106.229 63.1683C105.881 63.4855 105.42 63.7668 105.206 63.7934C104.992 63.82 103.288 63.4479 101.419 62.9666C99.5499 62.4852 94.433 61.1682 90.0479 60.04C77.9389 56.9246 76.9168 56.9207 72.1109 59.9713L69.3678 61.7125L66.7553 61.5457C64.528 61.4034 62.6746 61.5553 54.183 62.5753C44.0661 63.7907 42.3175 63.9226 37.5891 63.8266C34.9793 63.7736 34.5048 63.6154 34.3894 62.7597C34.2516 61.7388 32.7008 60.9909 28.5799 59.9582L27.3859 59.659L13.3723 56L13.0361 58.8812L8.60454 82.122L3.40445 100.789L0 109.722L3.96681 111.105L3.96811 111.105C4.49626 111.218 7.09919 112.068 10.0857 113.105C16.3983 115.298 17.5746 115.55 19.0384 115.025C20.4245 114.527 21.0655 113.787 22.4462 111.09L23.6939 108.652L25.9067 110.043C27.573 111.091 30.7562 112.825 31.8548 113.284C31.8808 113.295 31.8082 113.971 31.6936 114.786C30.9676 119.952 34.5861 124.546 39.4621 124.649C40.6539 124.675 40.689 124.699 40.7115 125.531C40.744 126.737 41.5853 129.059 42.3687 130.106C44.5257 132.988 47.4994 133.772 51.9116 132.621C52.4521 132.481 52.5858 132.59 52.8703 133.408C53.9896 136.625 57.3867 138.3 61.2222 137.527L63.137 137.141L63.2432 137.987ZM73.7732 141.211C74.8209 140.909 77.733 138.969 77.6872 138.604C77.6769 138.521 77.5256 138.438 77.2847 138.304C77.0602 138.18 76.7579 138.013 76.4195 137.763C75.2307 136.887 75.0748 136.32 74.7241 134.739C74.316 132.899 72.6995 131.418 72.1383 130.903L72.0267 130.801C70.5882 129.92 68.4986 131.226 67.5 133C65.8327 135.962 65.1154 137.452 66.172 139.181C67.1107 140.718 68.6208 141.618 70.4465 141.731C71.5199 141.797 72.0064 141.721 73.7732 141.211ZM88.7372 137.083C89.1105 136.851 89.3995 136.593 89.3795 136.51C89.3709 136.475 89.0729 136.422 88.6606 136.349C88.0868 136.247 87.2914 136.106 86.7464 135.919C85.3864 135.454 84.7791 135.201 83.4743 133.883C83.2477 133.654 83.0374 133.447 82.8189 133.232C82.1711 132.595 81.4499 131.885 80.0094 130.309C79.3345 129.57 78.5807 128.796 77.9486 128.146C76.9434 127.112 76.2458 126.395 76.6619 126.643C77.8267 127.338 79.1102 127.91 80.3363 128.456C82.0752 129.231 83.6989 129.955 84.7059 130.903C85.1388 131.311 85.542 131.724 85.9341 132.126C87.5292 133.76 88.9411 135.207 91.4256 135.337C94.9753 135.524 98.7616 134.396 101.062 132.467C102.239 131.48 100.695 130.988 99.6874 130.866C98.1459 130.678 96.2374 129.49 89.8491 124.58C87.0597 122.437 85.0753 120.197 84.0414 119.03C83.7175 118.665 83.4869 118.405 83.354 118.285C81.673 116.779 90.417 120.875 96.1765 125.124C97.3978 126.025 98.3471 126.859 99.1679 127.58C100.874 129.079 102.025 130.09 103.908 130.2C106.491 130.35 109.846 129.16 111.59 127.475C112.516 126.58 113.193 124.04 112.88 122.637L112.663 121.671L114.036 121.5C117.02 121.129 119.576 118.965 120.174 116.304C120.823 113.418 120.259 112.332 117.006 110.202C112.787 107.44 104.579 100.521 95.0321 91.6795C87.7775 84.9613 84.657 82.5801 79.2725 80.3433C79.0569 80.2537 78.8481 80.1653 78.6453 80.0795C76.6395 79.2305 75.2132 78.6268 73.4716 79.5258C72.0693 80.2496 68.8605 80.9603 68.81 80.5583C68.7905 80.4028 69.3249 80.1294 69.9976 79.9507C71.6196 79.5197 73.1099 78.9309 73.8633 78.4233C76.4343 76.691 89.8458 82.1752 97.0588 89.44C99.6644 92.0642 109.52 100.104 113.824 103.52L116.471 106.6L118.429 109.299L119.365 109.334C121.519 108.193 122.412 104.894 123.064 102.489C123.229 101.878 123.379 101.326 123.529 100.88L123.608 100.375C123.608 100.375 123.915 96.6595 122.711 93.9639C122.002 92.3767 121.117 90.3947 120.608 89.2197C116.63 80.0471 112.251 70.7085 109.569 67.6002L108.521 66.3849L98.3255 64.0521C92.718 62.7691 86.4079 61.3171 84.303 60.8256C80.3593 59.9046 77.7592 59.7748 75.7946 60.4007C75.3029 60.5573 73.9933 61.4013 72.8844 62.2761C70.4705 64.1804 69.2535 64.851 65.4984 66.3458C59.1056 68.8907 58.4828 69.7757 57.3529 71.3836C56.4978 72.6006 55.9062 74.2413 55.6533 77.5009C55.61 78.0587 55.5637 78.6551 55.5104 79.2932C55.4311 80.243 55.3642 81.0922 55.304 81.8577C55.2063 83.099 55.1564 84.0168 55.1162 84.7553C55.0374 86.2032 54.9961 86.9622 54.7059 88.12C54.6875 88.1933 54.6691 88.2662 54.6508 88.3386C54.2304 90.0031 53.8746 91.4117 55.304 92.5188C56.0294 93.4 56.3401 93.5839 57.7941 93.4C58.9444 93.255 61.2058 92.7266 62.1302 91.9856C63.2281 91.1056 65.8087 88.7276 66.6738 86.9279C66.6738 86.9279 67.7228 85.0031 67.1747 86.5098C66.6455 87.9646 64.3416 91.6379 63.4058 92.5188C61.0119 94.7726 57.5183 95.7622 54.9791 94.9058C52.3283 94.0119 51.3427 91.6126 52.4867 88.8384C53.0976 87.3567 53.1691 86.2616 53.3573 83.3788C53.4169 82.4657 53.4882 81.3733 53.592 80.0323C53.6998 78.641 53.642 76.6294 53.595 74.9897C53.5574 73.6823 53.5267 72.6113 53.592 72.28C54.0273 70.0745 56.4213 68.5365 58.1713 67.7715C58.6573 67.559 59.165 67.3371 59.6784 67.0695C60.8441 66.4619 67.7633 64.2108 68.2212 64.1539C68.2902 64.1453 68.3268 63.9795 68.3024 63.7855C68.2357 63.2532 63.7136 63.62 58.1626 64.6079C56.4994 64.9039 54.9596 65.1882 53.5196 65.4541C46.4955 66.751 41.8454 67.6096 36.813 67.2516C34.6964 67.1011 33.6769 67.1246 33.6364 67.3249C33.6037 67.4871 33.4809 68.4065 33.3635 69.3681C32.611 75.5354 28.5047 93.977 25.4619 102.509C24.8143 104.325 25.3711 105.632 25.5184 105.824C26.1755 106.682 31.144 111.167 33.7111 112.457C34.3311 112.769 34.3506 112.812 33.882 112.833C33.0861 112.87 32.8992 116.257 33.5836 118.239C34.7049 121.488 36.729 123.023 39.7059 122.44C40.9176 122.203 41.7888 121.371 42.3529 120.68C44.0866 118.557 43.3616 116.709 40.1253 114.504C39.2257 113.891 39.0828 113.738 39.7038 114.051C40.7816 114.596 41.2476 114.962 41.9144 115.486C42.0936 115.627 42.2873 115.779 42.5113 115.95C43.5688 116.753 44.3056 118.229 44.4293 119.215C44.5529 120.201 43.795 121.597 43.3064 122.288L41.935 123.357L42.3123 125.63C42.6632 127.743 42.7695 127.995 43.8341 129.227C45.4067 131.046 46.9024 131.554 49.2954 131.08C50.1353 130.914 50.7862 130.387 51.4219 129.872C51.5292 129.785 51.642 129.705 51.754 129.627C51.9199 129.51 52.0839 129.395 52.2251 129.258C54.2647 127.28 56.3381 124.461 56.0294 122C55.8001 120.172 54.7059 118.48 52.5 117.6C51.2564 117.104 50.6529 117.034 49.4118 117.16C48.8032 117.222 47.2052 117.308 47.1241 117.245C46.7562 116.96 49.0695 115.997 50.6152 115.792C52.6267 115.525 53.9984 115.898 55.6183 117.152C57.3311 118.479 57.8327 119.352 58.0452 121.375C58.217 123.012 58.1588 123.282 57.2368 125.124C56.6904 126.215 55.6744 127.735 54.979 128.502C53.7572 129.849 53.7203 129.941 53.8814 131.226C54.2404 134.088 56.5307 135.991 59.4959 135.891C62.9317 135.775 65.4975 133.55 67.0588 129.258C68.08 126.451 66.9718 124.281 65.7353 122.44C64.071 121.01 62.2637 120.123 60.3411 121.437C59.9509 121.703 59.6232 121.854 59.6129 121.771C59.5661 121.398 61.8175 120.323 62.9512 120.176C64.8927 119.926 66.6093 120.34 67.9436 122.298C68.6722 123.368 69.1884 125.648 69.3739 127.126C69.4155 127.458 69.3338 127.904 69.2747 128.227C69.23 128.47 69.1983 128.644 69.2424 128.644C69.2773 128.645 69.2646 128.653 69.2534 128.661C69.2318 128.675 69.2161 128.686 69.5621 128.627C72.2149 128.174 74.5726 130.741 75.0582 134.612C75.2478 136.124 75.2588 136.14 76.553 136.827C77.9774 137.583 79.8254 138.122 81.5034 138.272C82.9929 138.405 87.912 137.596 88.7372 137.083ZM132.301 105.175C137.251 103.641 140.974 101.994 144.827 99.6324L146.86 98.3863L146.387 97.5647C145.208 95.5202 132.96 77.2736 131.508 75.3993C130.968 74.7018 130.52 74.0864 130.513 74.0317C130.47 73.6859 126.115 68.1376 123.669 65.3121C123.155 64.7191 122.669 64.143 122.208 63.596L122.206 63.5941C119.745 60.677 117.986 58.5917 116.527 59.2071C115.31 59.3585 107.643 64.0751 107.01 65.0626C106.842 65.3243 107 65.4991 107.605 65.7212C111.219 67.0467 117.44 77.0934 123.854 91.9589C126.156 97.2958 127.719 101.47 128.252 103.707C128.687 105.533 128.921 106.14 129.177 106.109C129.28 106.096 130.686 105.676 132.301 105.175ZM22.7542 99.7919C20.7056 107.154 20.1413 109.182 18.8311 111.239C18.4605 111.821 17.9687 112.251 17.6317 112.289C17.3176 112.324 16.0654 112.056 14.8492 111.692C13.6329 111.328 10.5884 110.44 8.08348 109.719L4.42739 108.652C9.22194 94.6527 12.9388 75.3488 14.6061 61.842C14.8142 60.156 15.0382 58.7079 15.1037 58.6241C15.1692 58.5402 16.6242 58.904 18.3369 59.4324C27.4746 62.2515 31.4468 63.5194 31.6968 63.6968C32.0958 63.98 31.9021 67.1612 31.3213 69.8639C30.8911 71.866 28.7491 79.1659 26.6335 86.3759C25.217 91.2033 23.8123 95.9904 22.9412 99.12C22.8775 99.3488 22.8152 99.5727 22.7542 99.7919Z" fill="#A27B3E"/>
<path fill-rule="evenodd" clip-rule="evenodd" d="M58.923 5.84951L88.315 61.3004L57.5747 10.8859L16.0951 34.8551L36.4837 67.856L11 33.542L58.923 5.84951Z" fill="#A27B3E"/>
<path d="M99.905 63.1665L88.5237 0L65.6961 7.67948L85.5301 4.15285L99.905 63.1665Z" fill="#A27B3E"/>
<path d="M112 63.1665L113 14.3416L96.7683 16.2701L110.435 16.6845L112 63.1665Z" fill="#A27B3E"/>
<path d="M41.2959 64.5198L31.6876 44.6821L35.1323 33.7896L47.2304 26.7986L58.6773 30.015L71.0739 47.3125L61.0821 26.801L46.6242 22.8892L32.0456 31.316L28.0043 44.2075L41.2959 64.5198Z" fill="#A27B3E"/>
<path fill-rule="evenodd" clip-rule="evenodd" d="M72.9414 53.4286C68.7661 45.2739 58.3934 44.2154 52.2437 48.5918C46.0941 52.9683 44 61.3004 47.5933 66.856C46.2304 61.0635 47.0709 55.5551 53.9631 51.5724C59.5918 48.3198 68.7703 49.1905 72.9414 56.0825C74.3754 58.5685 74.0426 59.2076 74.0164 61.8841C74.7891 58.9048 74.4414 56.3583 72.9414 53.4286Z" fill="#A27B3E"/>
</svg>
