<svg width="40" height="40" viewBox="0 0 40 40" fill="none" xmlns="http://www.w3.org/2000/svg">
<circle cx="20" cy="20" r="19.5" stroke="white"/>
<path d="M12.671 23.6678C13.695 27.6178 17.3888 30.5382 22.8888 31.7462C24.7838 32.1625 24.6261 32.2608 24.9013 30.4909C25.163 28.8082 24.9049 27.5518 23.9713 25.9648C22.2959 23.1167 22.0647 20.3914 23.379 18.9824C24.0146 18.3009 24.2144 18.312 24.826 19.0626C25.4891 19.8765 26.8347 20.851 27.5038 21.0019C27.8857 21.0881 28.1164 21.3062 28.2981 21.7529C28.7356 22.8284 29.8243 23.1061 30.9182 22.421C31.8586 21.832 31.9766 20.1964 31.1632 19.0231C30.9624 18.7334 30.5527 17.813 30.2529 16.9777C29.6479 15.2923 28.7431 13.3671 28.1522 12.508C27.8318 12.0421 27.7652 11.6652 27.762 10.3027L27.7584 8.65923L27.379 9.02438C26.8582 9.52566 26.8098 9.49233 26.9005 8.69476L26.9795 8L26.0163 8.72622L25.0531 9.45244L22.1793 9.23198C20.5988 9.11072 19.0575 9.01505 18.7543 9.01933L18.203 9.02714L18.7543 9.34579L19.3056 9.66443L17.7526 9.83276L16.1995 10.0011L16.8131 10.327L17.4267 10.6529L16.7123 10.7741C16.3194 10.8408 15.6879 10.8963 15.3089 10.8974C14.4941 10.8998 14.4238 11.1185 15.1251 11.4686C15.6211 11.7163 15.6085 11.7248 14.436 11.9312L13.2416 12.1415L13.7929 12.4491L14.3442 12.7566L13.8584 12.9482C13.5913 13.0535 13.0538 13.2013 12.664 13.2765L11.9553 13.4134L12.6877 13.7291C13.4169 14.0435 13.4179 14.0454 12.9255 14.1723C12.6535 14.2425 12.1999 14.3912 11.9175 14.5029L11.404 14.706L11.9553 14.9426L12.5066 15.1792L11.6797 15.623L10.8528 16.0669L11.3581 16.2564C11.636 16.3606 11.8634 16.5028 11.8634 16.5725C11.8634 16.6421 11.5177 16.9443 11.0951 17.2438C10.3364 17.7817 10.3329 17.7893 10.8194 17.8483C11.4042 17.9191 11.4525 18.2602 10.9447 18.7323C10.4549 19.1875 10.4812 19.3929 11.0294 19.3929C11.4767 19.3929 11.4818 19.4121 11.4905 21.1387C11.4954 22.099 11.5652 23.2243 11.6457 23.6396C11.7632 24.2458 11.8149 23.9298 11.9081 22.0353C12.1061 18.0073 13.1236 15.4108 15.3241 13.3183C16.7221 11.9888 17.6947 11.4126 19.7021 10.7243C21.2159 10.2053 24.4547 9.61371 24.6551 9.81956C24.9005 10.0716 24.0754 10.4848 23.1003 10.5981C21.6523 10.7664 19.577 11.3659 18.4975 11.9278C15.6845 13.3919 13.6131 16.1503 12.7631 19.5641C12.3516 21.2165 12.3265 22.3386 12.671 23.6678Z" fill="white"/>
</svg>
