<svg width="158" height="150" viewBox="0 0 158 150" fill="none" xmlns="http://www.w3.org/2000/svg">
<path d="M20.7035 149.634C15.17 148.569 10.7565 146.129 6.97766 142.048C1.45102 136.079 -0.909776 128.775 0.316584 121.441C1.38943 115.025 3.27591 111.451 7.96819 106.947C9.65857 105.324 10.7303 104.549 12.4129 103.735C14.5344 102.708 17.4498 101.591 18.0072 101.591C18.1521 101.591 17.2138 102.254 15.9219 103.065C13.3849 104.658 11.7054 106.111 9.523 108.602C7.85376 110.507 6.6419 112.76 5.46591 116.143C4.65949 118.463 4.58417 118.962 4.48828 122.625C4.38677 126.503 4.40377 126.654 5.23348 129.24C6.70901 133.837 8.77464 137.29 11.3826 139.518C13.4181 141.257 17.471 143.569 19.9098 144.383C21.8404 145.027 22.3869 145.089 26.1275 145.088C30.2104 145.087 30.24 145.082 32.8214 144.108C36.1597 142.849 36.6687 142.58 39.2938 140.693C42.6302 138.293 43.8112 136.987 45.3842 133.953C47.7391 129.412 48.5977 126.269 48.6463 122.012L48.6756 119.45L49.0585 120.905C49.2954 121.805 49.4608 123.874 49.4923 126.329C49.5487 130.726 49.2821 132.099 47.6893 135.613C45.7637 139.86 42.078 144.083 38.3956 146.261C36.3983 147.442 33.4116 148.698 30.9953 149.374C28.899 149.96 23.1503 150.105 20.7035 149.634ZM129.629 148.158C127.548 147.714 123.914 146.523 122.57 145.845C118.449 143.764 114.522 140.06 112.538 136.383C112.145 135.656 111.979 135.284 112.169 135.558C113.948 138.123 115.008 139.348 116.867 140.987C122.034 145.539 125.641 146.897 132.622 146.917C136.28 146.927 136.746 146.872 138.566 146.216C141.054 145.32 144.959 143.167 146.723 141.72C148.174 140.529 150.629 137.613 151.71 135.796C152.705 134.124 154.135 129.767 154.473 127.381C155.308 121.481 153.028 114.448 148.786 109.84C147.625 108.579 144.065 105.929 142.412 105.096C140.376 104.069 136.944 103.161 134.495 103C132.25 102.853 128.804 103.205 128.074 103.657C127.868 103.784 128.652 106.022 130.549 110.72C133.594 118.262 134.603 121.025 134.604 121.831C134.606 122.834 133.638 124.002 132.42 124.468C130.9 125.048 129.33 124.687 128.54 123.577C128.244 123.162 127.118 120.576 126.036 117.829C124.955 115.083 123.049 110.343 121.801 107.298C120.554 104.252 119.564 101.729 119.602 101.691C119.64 101.653 121.93 106.329 124.691 112.083C130.009 123.163 130.153 123.386 131.641 122.866C132.77 122.471 132.686 121.564 131.272 118.892C129.806 116.123 113.175 81.7412 113.175 81.4799C113.175 81.3817 114.198 80.8459 115.447 80.289C117.26 79.4814 117.764 79.349 117.941 79.6344C118.062 79.8312 118.61 81.1431 119.158 82.5497L120.155 85.1071L122.221 85.7845L124.288 86.462V85.8434C124.288 85.5031 124.159 84.3017 124.003 83.1735C123.643 80.5856 122.624 78.5225 119.878 74.8201C118.738 73.2829 117.091 70.872 116.218 69.4626C114.465 66.6329 112.728 64.3165 112.117 63.9931C110.891 63.3441 107.926 62.4137 105.434 61.8957C102.695 61.3264 102.542 61.3211 101.408 61.7543C100.759 62.002 99.8973 62.1546 99.4922 62.0935L98.7556 61.9824L99.5626 61.9428C100.006 61.921 100.498 61.7747 100.655 61.6177C101.557 60.7162 105.538 60.8134 109.604 61.8363C110.477 62.056 111.523 62.294 111.928 62.3654C113.164 62.583 117.947 67.6461 120.187 71.1086C120.332 71.3335 120.859 71.8844 121.358 72.3328C123.056 73.8592 125.476 76.9221 126.336 78.6313C126.996 79.9431 127.438 81.582 128.255 85.738C128.839 88.7089 129.379 91.4136 129.456 91.7485C129.588 92.3221 129.538 92.3475 128.596 92.1866C128.045 92.0927 126.545 91.7771 125.262 91.4853C123.979 91.1936 122.872 91.0119 122.803 91.0816C122.733 91.1513 123.354 92.9038 124.183 94.976L125.691 98.7437L127.04 98.5874C134.404 97.7343 138.678 98.4221 144.529 101.401C147.73 103.032 150.259 105.337 152.72 108.867C155.857 113.368 156.843 115.997 157.381 121.293C157.712 124.558 157.564 126.681 156.791 129.769C154.67 138.246 147.521 145.488 139.129 147.663C136.839 148.256 131.415 148.539 129.629 148.158ZM84.4681 135.013C81.2337 134.806 76.4123 134.356 71.7681 133.827L66.741 133.255L64.8678 131.247C62.0331 128.209 59.1311 124.874 59.3217 124.874C59.7123 124.874 61.3845 125.866 64.5623 127.983L67.9398 130.233L77.7915 130.231C87.143 130.229 87.7505 130.2 89.7598 129.643L91.8764 129.058L93.2597 126.768C94.0206 125.508 94.8374 124.174 95.0749 123.803C95.4998 123.139 95.4781 123.088 93.7325 120.666L91.9583 118.205L92.7355 117.372C93.163 116.914 94.9507 114.754 96.7081 112.571C99.7081 108.845 102.857 105.442 102.857 105.925C102.857 106.31 98.686 114.78 97.6858 116.426L96.7142 118.026L98.4175 119.796C99.3543 120.77 100.333 121.893 100.592 122.292L101.063 123.018L98.6172 127.584C95.6785 133.071 95.3193 133.605 94.5704 133.606C94.2529 133.606 92.6834 133.96 91.0827 134.393C88.318 135.141 87.5709 135.211 84.4681 135.013ZM38.4306 115.727C37.5255 115.256 36.3911 114.258 36.5643 114.084C36.6281 114.021 37.0146 114.201 37.4232 114.486C38.8721 115.496 40.1504 115.481 40.1504 114.453C40.1504 113.592 39.4543 112.767 38.5626 112.571C38.1262 112.475 37.7691 112.287 37.7691 112.153C37.7691 112.019 37.5575 111.909 37.2988 111.909C37.0402 111.909 36.5518 111.716 36.2136 111.479C35.7317 111.141 35.676 110.999 35.9562 110.821C36.4266 110.523 38.6515 110.522 38.973 110.819C39.1112 110.947 39.7006 111.197 40.2827 111.374C40.8648 111.552 42.7279 112.34 44.4229 113.126C46.118 113.912 47.6925 114.555 47.9219 114.555C48.1987 114.555 47.6067 113.542 46.1629 111.543L43.9868 108.531L40.6796 107.466C38.8605 106.881 37.1266 106.331 36.8263 106.243C36.3276 106.098 36.2819 106.193 36.2972 107.343L36.314 108.602L35.153 108.685C33.7269 108.787 32.7724 108.413 31.781 107.363L31.0223 106.56L32.0411 107.243C33.1126 107.962 34.6299 108.378 35.1062 108.084C35.5058 107.837 35.4551 107.096 34.9934 106.437C34.5496 105.803 32.5789 104.769 31.7987 104.76C30.9799 104.751 29.9846 103.851 30.1928 103.308C30.3479 102.904 30.5951 102.865 32.0417 103.013C33.3536 103.147 34.6939 103.638 38.2948 105.301C40.8157 106.465 42.9114 107.385 42.9521 107.344C43.12 107.176 37.4708 99.5997 37.1209 99.5236C36.9115 99.4781 36.7932 99.2995 36.8579 99.1268C36.9227 98.954 36.319 97.9908 35.5164 96.9865C34.7138 95.9821 34.1 95.1175 34.1525 95.0651C34.2807 94.9368 35.4351 95.4488 45.3601 100.036C50.0444 102.201 53.9275 103.972 53.9892 103.972C54.0509 103.972 54.1773 103.418 54.27 102.742C54.3627 102.065 54.5428 101.381 54.6701 101.221C55.0301 100.768 56.7178 96.3458 57.205 94.5793C57.4459 93.7061 57.7037 92.7834 57.778 92.5287C57.8523 92.2741 58.0844 92.0657 58.2936 92.0657C58.5028 92.0657 59.8254 91.5865 61.2327 91.0008C62.64 90.4152 63.902 89.9728 64.0372 90.0179C64.2708 90.0958 65.5394 93.7277 65.5469 94.34C65.5489 94.4995 64.667 94.8867 63.5872 95.2005L61.6239 95.7709L61.1691 97.1595C60.5965 98.9077 59.3381 101.462 58.4988 102.58C57.9889 103.259 57.9126 103.543 58.1311 103.951C58.2826 104.235 58.4067 104.731 58.4067 105.054C58.4067 105.378 59.1052 106.904 59.959 108.445C60.8127 109.987 61.6492 111.514 61.8177 111.838L62.1241 112.429L61.2576 111.93C59.2031 110.747 40.9956 100.57 40.1987 100.159C39.1441 99.6154 38.9577 99.2234 42.197 104.36L44.5275 108.055L46.1771 108.702C47.9153 109.383 48.2631 109.802 46.6481 109.269C46.1278 109.097 45.5875 108.996 45.4475 109.044C45.1489 109.146 49.4108 115.487 49.4108 115.487C49.5 116 49.3356 115.843 48.8155 115.517C48.4881 115.312 47.5654 114.993 46.765 114.809C45.9647 114.625 44.4853 114.195 43.4775 113.854C41.0977 113.047 41.0297 113.055 41.1541 114.12C41.2381 114.839 41.1209 115.115 40.5361 115.575C39.6767 116.251 39.4679 116.266 38.4306 115.727ZM69.7038 113.115C68.3749 112.641 66.7344 111.486 65.8281 110.387C63.7758 107.897 63.9544 103.248 66.2045 100.585C68.0995 98.3433 72.3443 97.4676 75.1318 98.7438C76.0402 99.1596 76.9104 99.8276 77.5003 100.562C78.9227 102.333 78.9789 102.569 77.7403 101.574C76.67 100.714 76.4974 100.665 74.5658 100.665C72.8309 100.665 72.3803 100.762 71.5754 101.314C70.196 102.259 69.7148 103.251 69.5895 105.408C69.4981 106.982 69.5783 107.468 70.0953 108.47C71.5444 111.278 75.6158 111.76 78.2201 109.431C78.8175 108.897 78.8364 108.895 78.5726 109.396C77.935 110.606 76.3087 112.171 75.0228 112.812C73.4558 113.593 71.376 113.711 69.7038 113.115ZM90.0519 104.699C89.1647 100.484 89.2812 100.701 87.2653 99.5036C86.2599 98.9063 84.9049 98.0112 84.2541 97.5145L83.0708 96.6113L76.4934 97.2453C72.8759 97.594 69.3207 97.876 68.5931 97.8719L67.2702 97.8649L68.2141 97.016C68.9724 96.334 69.2765 95.746 69.7604 94.0256C70.0918 92.8478 70.4409 91.7588 70.5363 91.6056C70.7404 91.2779 79.4002 87.8318 80.367 87.6936C81.0153 87.6009 85.6473 85.7803 86.6204 85.2357C87.0742 84.9818 87.0539 84.9367 86.3691 84.6764C85.9595 84.5206 85.5427 84.3913 85.4431 84.3891C85.3434 84.3871 85.1068 84.2867 84.9172 84.1665C84.646 83.9945 84.7496 83.5018 85.4032 81.8554C85.8601 80.7046 86.2708 79.7256 86.316 79.6799C86.3847 79.6104 115.666 92.082 117.276 92.8669C117.628 93.038 116.694 93.058 114.498 92.9262C110.294 92.6737 108.165 92.7467 105.338 93.2401C101.814 93.8553 100.606 94.5361 98.4424 97.1257C96.4468 99.5145 94.2703 102.618 94.4586 102.806C94.6311 102.979 101.384 101.684 103.501 101.072C104.51 100.781 105.381 100.587 105.436 100.642C105.588 100.795 101.085 102.231 96.6389 103.449C94.4561 104.047 92.432 104.604 92.141 104.686C91.6476 104.826 91.6404 104.803 92.0338 104.338C92.2659 104.064 92.8114 103.066 93.246 102.12C93.6807 101.174 94.7202 99.3406 95.5561 98.0451L97.076 95.6896L96.4136 94.4726C92.3488 87.0043 91.5322 85.8545 90.6709 86.3868C90.5441 86.4652 89.5357 87.8346 88.4301 89.43C87.3245 91.0254 86.3607 92.3307 86.2883 92.3307C86.1247 92.3307 86.0217 92.5174 88.1583 88.9403C89.1417 87.2938 89.8953 85.8958 89.8331 85.8335C89.7708 85.7712 88.7168 86.1221 87.4909 86.6133C86.2649 87.1044 84.3841 87.7864 83.3113 88.1289C82.2386 88.4713 81.3091 88.8863 81.2459 89.0509C81.1148 89.3925 82.2526 91.8287 83.7289 94.3673L84.7327 96.0935L87.7754 95.9599L90.8181 95.8264L88.2384 96.0952C86.8196 96.2431 85.6587 96.4413 85.6587 96.5357C85.6587 96.6301 86.6596 97.4679 87.883 98.3974C89.5702 99.6792 90.1454 100.278 90.2655 100.878C90.4882 101.992 90.7919 106.883 90.6383 106.883C90.5684 106.883 90.3046 105.9 90.0519 104.699ZM78.4488 96.4015C80.8135 96.3046 82.7483 96.1663 82.7483 96.0942C82.7483 96.0221 81.9605 94.6063 80.9976 92.9482L79.2469 89.9333L78.2856 90.6543C74.9877 93.128 70.5775 96.6111 70.5775 96.7419C70.5775 96.8269 71.3811 96.8247 72.3634 96.7369C73.3457 96.6492 76.0841 96.4984 78.4488 96.4015ZM72.7102 93.3755C74.1566 92.2042 75.34 91.2041 75.34 91.153C75.34 91.0484 71.6311 91.9769 71.511 92.1115C71.2504 92.4036 69.8039 95.5052 69.9283 95.5052C70.012 95.5052 71.2638 94.5469 72.7102 93.3755ZM100.287 92.506C100.984 91.981 102.026 91.4101 102.603 91.2375C103.179 91.0648 103.65 90.8485 103.65 90.7569C103.65 90.6652 101.507 89.8548 98.8879 88.9559C96.2685 88.057 94.1254 87.3805 94.1254 87.4524C94.1254 87.5244 95.0857 89.0167 96.2594 90.7685C97.7748 93.0305 98.4842 93.8823 98.7067 93.7072C98.8791 93.5716 99.5904 93.0311 100.287 92.506ZM28.1817 100.798C27.0452 100.456 25.7958 99.5819 25.003 98.5746C23.9833 97.2791 24.0959 97.1571 25.1917 98.37C25.8644 99.1147 26.5357 99.5138 27.7166 99.8713C29.1887 100.317 29.361 100.323 29.747 99.9365C30.133 99.5505 30.1254 99.4401 29.6573 98.6344C29.0787 97.6386 26.6067 96.0343 25.6508 96.0343C25.303 96.0343 24.6653 95.7828 24.2336 95.4754C23.4495 94.9171 23.4492 94.9162 24.0084 94.5245C25.0313 93.8081 26.5571 94.2428 31.6187 96.6928C34.275 97.9786 36.4072 99.0719 36.3569 99.1222C36.3066 99.1725 35.0596 98.8556 33.586 98.4178C30.3813 97.4658 30.252 97.4534 30.616 98.1336C31.0906 99.0203 30.9432 100.2 30.3019 100.65C29.6582 101.1 29.2751 101.127 28.1817 100.798ZM53.2473 80.9184C43.9365 79.9875 44.0414 80.0254 41.2959 76.5971C39.0995 73.8542 38.6094 73.6075 33.6681 72.7564C28.7773 71.914 19.9254 72.7185 19.9254 73.4728C19.9254 73.855 30.9847 84.6596 32.7462 85.9283C35.9038 88.2025 35.5482 88.1697 32.2079 85.8786C29.8809 84.2825 15 71.5005 15 71.5005L19.4302 71.3355C23.6381 71.0781 32.0934 71.1379 34.1973 71.44C35.2159 71.5863 36.9992 71.9614 38.1601 72.2737C40.2592 72.8384 40.2849 72.8559 42.7904 75.4425L45.3098 78.0434L50.4937 78.0431C53.3449 78.0429 57.122 78.1204 58.8871 78.2153C61.8883 78.3767 62.1078 78.3552 62.271 77.8845C63.7024 73.7565 64.9264 71.7772 67.8229 68.9064C71.7871 64.9773 74.6542 63.845 79.9702 64.1088C84.8199 64.3495 89.9503 65.6309 96.469 68.2295C100.372 69.7854 105.238 72.0885 105.238 72.38C105.238 72.522 103.667 75.372 103.17 76.1319C103.003 76.387 101.685 75.8559 97.8093 73.9706C87.315 68.8663 79.9029 66.8984 75.7355 68.1098C72.23 69.1289 70.0361 70.7473 67.7676 73.9875C65.9856 76.5329 64.9682 78.5557 64.4651 80.5538L64.1646 81.7469L62.5424 81.7162C61.6502 81.6993 57.4674 81.3403 53.2473 80.9184Z" fill="#A27B3E"/>
<path fill-rule="evenodd" clip-rule="evenodd" d="M42.5191 71.0254L33.5208 58.8184L34.9124 47.4792L45.5255 38.3909L57.3679 39.4564L72.7226 54.1911L59.1434 35.8563L44.2136 34.6585L31.4248 45.6128L29.8129 59.0263L42.5191 71.0254Z" fill="#A27B3E"/>
<path fill-rule="evenodd" clip-rule="evenodd" d="M74.1877 60.6719C70 52.5005 59 53.0005 54 57.5005C47.8889 63.0005 49 72.0005 55.5 75.5005C51.1936 70.5005 51.2428 63.3175 55.5 59.6719C60.5 55.3903 68 55.5005 74.1877 60.6719Z" fill="#A27B3E"/>
<path fill-rule="evenodd" clip-rule="evenodd" d="M53.1837 15.6547L88.5 60.0872L88.0073 60.0785L52.7806 20.8528L16.3922 52.0131L31.4581 68.5928L11.1429 51.6554L53.1837 15.6547Z" fill="#A27B3E"/>
<path fill-rule="evenodd" clip-rule="evenodd" d="M99.8605 55.5925L100.317 55.5005L81.2125 4.48304L58.1774 17.2133L79.0301 9.1139L99.8605 55.5925Z" fill="#A27B3E"/>
<path fill-rule="evenodd" clip-rule="evenodd" d="M116.456 61.9621L116.828 62.0005L107.901 14.0995L92.2974 18.968L105.809 16.8725L116.456 61.9621Z" fill="#A27B3E"/>
</svg>
