<svg width="18" height="18" viewBox="0 0 18 18" fill="none" xmlns="http://www.w3.org/2000/svg">
<path fill-rule="evenodd" clip-rule="evenodd" d="M8.98085 13.6753C6.45318 13.6753 4.3851 11.5714 4.3851 8.99997C4.3851 6.42854 6.52976 4.32464 9.05742 4.32464C11.5851 4.32464 13.6532 6.42854 13.6532 8.99997C13.7298 11.5714 11.5851 13.6753 8.98085 13.6753ZM9.05742 5.96101C10.7425 5.96101 12.0447 7.28568 12.0447 8.99997C12.0447 10.7143 10.666 12.0389 8.98085 11.961C7.29574 11.961 5.99359 10.6363 5.99359 8.92204C6.07019 7.28568 7.37231 5.96101 9.05742 5.96101Z" fill="white"/>
<path d="M14.9552 4.09081C14.9552 4.63626 14.4956 5.18172 13.8829 5.18172C13.3467 5.18172 12.8105 4.71418 12.8105 4.09081C12.8105 3.46743 13.2701 2.9999 13.8829 2.9999C14.419 2.9999 14.9552 3.54535 14.9552 4.09081Z" fill="white"/>
<path fill-rule="evenodd" clip-rule="evenodd" d="M0.172327 4.24675C0.631901 1.83116 2.31698 0.194805 4.69145 0.116883C7.60209 -0.0389611 10.5128 -0.0389611 13.3468 0.116883C15.9511 0.272727 17.866 2.22078 17.9426 4.79221C18.0191 7.59741 18.0191 10.4805 17.9426 13.2078C17.866 15.8571 15.9511 17.8831 13.3468 17.8831C10.4362 18.039 7.52549 18.039 4.69145 17.8831C2.08719 17.7273 0.248894 15.7792 0.0957025 13.1299C-0.0574023 11.0559 0.0191261 7.8323 0.0191261 5.4952V5.49351C0.0191261 5.10191 0.103856 4.60664 0.172327 4.24675ZM16.4106 12.8961C16.334 15 15.1085 16.1688 13.0404 16.3247C12.5808 16.4026 6.37656 16.4026 5.07443 16.3247C3.00634 16.1688 1.78084 15 1.70424 12.8961C1.62765 10.2468 1.62765 7.59741 1.70424 4.94805C1.78084 2.84416 3.00634 1.59739 5.07443 1.51947C7.75528 1.44155 10.4361 1.44155 13.0404 1.51947C15.1085 1.59739 16.334 2.84416 16.4106 4.94805C16.4872 7.59741 16.4872 10.2468 16.4106 12.8961Z" fill="white"/>
</svg>
