<svg width="40" height="40" viewBox="0 0 40 40" fill="none" xmlns="http://www.w3.org/2000/svg">
<circle cx="20" cy="20" r="19.5" stroke="white"/>
<path d="M13 15H27V17H13V15Z" fill="white"/>
<path d="M10 11.0857C15.625 6.97141 24.375 6.97146 30 11.0857V31H29V12H11V31H10V11.0857Z" fill="white"/>
<path d="M20.0002 30.619C19.579 30.619 19.2383 30.2783 19.2383 29.8571V21.2857L17.4084 22.6574C17.0713 22.9096 16.5944 22.842 16.3422 22.5048C16.0892 22.1685 16.1576 21.6908 16.4947 21.4386L19.5424 19.1529C19.8132 18.949 20.1852 18.949 20.4561 19.1529L23.5037 21.4386C23.8407 21.6908 23.9092 22.1685 23.6563 22.5048C23.5065 22.705 23.2782 22.81 23.046 22.81C22.8867 22.81 22.7267 22.7602 22.5899 22.6574L20.7621 21.2857V21.2868V29.8571C20.7621 30.2783 20.4213 30.619 20.0002 30.619Z" fill="white"/>
</svg>
