<svg width="1154" height="768" viewBox="0 0 1154 768" fill="none" xmlns="http://www.w3.org/2000/svg">
<path d="M394.238 368.898L419.858 280.198C396.207 304.92 378.35 335.217 368.494 368.898H394.238ZM364.167 472.965L369.128 455.803L361.201 453.934C361.926 460.365 362.89 466.723 364.167 472.965ZM459.504 368.898H505.356L572.073 213.338C514.099 214.433 461.614 238.364 423.344 276.567L459.504 368.898ZM648.217 633.706C724.939 606.588 781.907 537.462 791.268 454.14L725.557 469.581L648.217 633.706ZM509.789 488.925L475.739 558.906L441.49 472.842L422.108 468.279L398.432 552.771C432.219 601.399 485.389 635.55 546.675 643.967L536.943 495.307L509.789 488.925ZM587.088 426.997L624.954 389.115L613.161 216.492C610.335 215.998 601.657 214.507 593.037 213.856C583.379 213.148 573.828 213.296 573.317 213.305L587.088 426.997ZM631.967 491.576L591.859 500.997L601.113 644.56C615.131 642.945 628.761 640.014 641.847 635.847L631.967 491.576ZM779.426 355.236L772.99 368.898H783.901C782.533 364.287 781.083 359.716 779.426 355.236ZM677.175 368.898L668.391 233.909C699.326 248.543 726.232 270.308 747.048 297.064L713.204 368.898H677.175Z" fill="#254AA5"/>
<path d="M728.852 462.565L770.155 374.91L1117.5 372.893H1117.7L728.852 462.565ZM868.475 451.966L833.427 463.306L832.825 467.448C829.974 487.056 824.824 506.408 817.531 524.937L815.891 529.104L841.511 553.883C834.432 568.913 826.076 583.365 816.566 596.969L782.351 587.203L779.557 590.711C767.188 606.308 752.981 620.497 737.348 632.907L733.829 635.691L743.603 669.85C729.956 679.361 715.477 687.72 700.463 694.778L675.699 669.191L671.521 670.855C652.938 678.192 633.54 683.331 613.877 686.197L609.411 686.847L600.733 721.476C592.476 722.184 584.12 722.538 575.821 722.538C567.54 722.538 559.175 722.184 550.918 721.476L542.216 686.74L537.766 686.073C518.268 683.183 498.968 677.978 480.418 670.583L476.232 668.919L451.197 694.778C436.19 687.72 421.711 679.37 408.048 669.85L418.003 635.065L414.501 632.273C403.656 623.61 393.528 614.008 384.158 603.673L396.05 561.229C431.246 609.306 485.182 642.732 547.111 650.802L548.306 669.051L592.048 652.153C700.421 644.56 787.444 559.994 798.264 452.501L869.258 435.817C869.175 441.648 868.936 446.564 868.475 451.966ZM370.751 450.163L36.4982 372.893L392.49 374.927L370.751 450.163ZM364.158 472.966C362.881 466.723 361.917 460.366 361.2 453.934L369.119 455.804L364.158 472.966ZM330.371 589.92C322.798 578.391 315.991 566.335 310.132 553.883L336.428 528.462L334.788 524.295C327.586 505.931 322.493 486.875 319.675 467.654L319.065 463.52L283.143 451.834C282.649 445.963 282.451 440.939 282.385 435.381L354.203 452.287C355.374 463.899 357.45 475.23 360.334 486.224L330.371 589.92ZM505.347 368.899H459.503L423.335 276.567C461.605 238.364 514.09 214.442 572.072 213.338L505.347 368.899ZM512.673 482.979L533.341 440.478L536.488 488.48L512.673 482.979ZM462.025 375.33L502.495 375.561L481.383 424.782L462.025 375.33ZM423.747 462.408L429.359 442.397L438.704 465.875L423.747 462.408ZM394.229 368.899H368.493C378.349 335.217 396.198 304.92 419.857 280.199L394.229 368.899ZM422.099 468.28L441.481 472.842L475.729 558.907L509.78 488.925L536.933 495.316L546.666 643.967C485.379 635.551 432.218 601.4 398.423 552.772L422.099 468.28ZM631.957 491.577L641.846 635.847C628.76 640.014 615.13 642.946 601.104 644.56L591.85 500.998L631.957 491.577ZM587.078 426.997L573.308 213.305C573.819 213.305 583.37 213.149 593.036 213.857C601.648 214.507 610.334 215.998 613.152 216.5L624.945 389.116L587.078 426.997ZM625.554 398.018L631.512 485.013L591.413 494.278L587.663 435.941L625.554 398.018ZM713.195 368.899H677.174L668.381 233.909C699.317 248.543 726.231 270.308 747.039 297.064L713.195 368.899ZM677.595 375.446L710.195 375.256L689.362 419.479C686.626 425.383 683.998 431.527 681.624 437.332L677.595 375.446ZM725.547 469.589L791.259 454.14C781.898 537.463 724.929 606.596 648.208 633.706L725.547 469.589ZM334.846 334.583L336.494 330.4L310.132 304.937C317.194 289.933 325.55 275.48 335.085 261.851L370.265 271.89L373.066 268.381C385.279 253.006 399.247 239.032 414.583 226.811L418.086 224.019L408.048 188.97C421.711 179.459 436.19 171.1 451.197 164.051L476.496 190.181L480.674 188.526C499.092 181.246 518.26 176.074 537.659 173.184L542.092 172.517L550.918 137.353C559.315 136.645 567.663 136.291 575.821 136.291C583.98 136.291 592.344 136.645 600.733 137.353L609.518 172.451L613.984 173.101C633.424 175.934 652.666 181.065 671.159 188.345L675.345 190L700.454 164.051C715.477 171.109 729.956 179.467 743.586 188.97L733.673 223.657L737.183 226.44C747.905 234.955 757.892 244.36 767.138 254.423L750.294 290.163C728.382 262.839 700.182 240.819 667.887 226.226L666.049 198.029L626.823 212.358C610.564 208.57 593.638 206.511 576.217 206.511C473.983 206.511 387.842 275.109 361.439 368.899H324.116C326.918 357.263 330.437 345.775 334.846 334.583ZM779.425 355.237C781.074 359.717 782.524 364.287 783.892 368.899H772.989L779.425 355.237ZM820.588 267.879C828.417 279.713 835.471 292.098 841.511 304.937L815.602 329.972L817.267 334.147C821.774 345.486 825.367 357.123 828.227 368.899H790.913C788.779 361.364 786.273 354.002 783.397 346.812L820.588 267.879ZM835.133 368.899C832.125 356.126 828.293 343.675 823.522 331.676L849.62 306.46C842.385 290.427 833.724 275.2 823.909 260.822L892.48 115.283L820.266 141.676L770.212 247.892C761.246 238.323 751.662 229.347 741.378 221.186L751.366 186.245C735.049 174.477 717.505 164.306 698.922 155.956L673.631 182.102C654.99 174.748 635.361 169.412 614.94 166.447L606.098 131.094C596.151 130.098 586.032 129.571 575.821 129.571C565.611 129.571 555.508 130.098 545.553 131.094L536.662 166.538C516.332 169.56 496.768 174.93 478.202 182.275L452.713 155.956C434.147 164.306 416.602 174.477 400.269 186.245L410.38 221.557C394.624 234.115 380.335 248.42 367.792 264.198L332.349 254.085C320.556 270.391 310.371 287.915 302.031 306.46L328.591 332.113C323.91 343.979 320.161 356.283 317.202 368.899H0L275.628 433.799C275.71 441.845 276.007 448.4 276.856 456.858L313.016 468.617C315.983 488.835 321.273 508.269 328.525 526.749L302.031 552.36C309.3 568.525 318.043 583.843 327.948 598.32L279.163 767.205L345.064 743.142L382.032 611.241C390.833 620.637 400.228 629.482 410.298 637.519L400.269 672.584C416.602 684.352 434.147 694.522 452.713 702.873L477.938 676.825C496.595 684.261 516.299 689.688 536.777 692.719L545.553 727.734C555.508 728.739 565.611 729.258 575.821 729.258C586.032 729.258 596.151 728.739 606.098 727.734L614.841 692.851C635.41 689.869 655.229 684.5 673.993 677.105L698.946 702.873C717.505 694.522 735.049 684.352 751.382 672.584L741.526 638.17C757.563 625.438 772.099 610.928 784.823 594.894L819.294 604.735C831.087 588.438 841.256 570.905 849.62 552.36L823.794 527.399C831.177 508.673 836.501 488.942 839.484 468.412L874.771 457.006C875.595 448.68 875.924 442.109 876.015 434.228L1154 368.899H835.133Z" fill="#444141"/>
<path d="M626.823 212.337L666.049 198.008L667.887 226.205C700.182 240.806 728.382 262.827 750.294 290.142L767.138 254.41C757.892 244.339 747.905 234.934 737.183 226.428L733.673 223.636L743.586 188.958C729.956 179.446 715.477 171.088 700.454 164.03L675.353 189.979L671.159 188.332C652.666 181.044 633.424 175.914 613.984 173.081L609.518 172.43L600.733 137.34C592.344 136.632 583.98 136.27 575.821 136.27C567.663 136.27 559.315 136.632 550.918 137.34L542.1 172.496L537.659 173.171C518.26 176.054 499.092 181.225 480.674 188.505L476.496 190.168L451.197 164.03C436.19 171.08 421.711 179.438 408.048 188.958L418.085 223.998L414.583 226.79C399.255 239.019 385.279 252.994 373.066 268.361L370.264 271.869L335.085 261.838C325.55 275.459 317.194 289.92 310.132 304.916L336.494 330.387L334.846 334.562C330.437 345.754 326.918 357.25 324.116 368.886H361.439C387.842 275.089 473.982 206.499 576.217 206.499C593.638 206.499 610.564 208.557 626.823 212.337ZM592.047 652.132L548.306 669.039L547.111 650.781C485.182 642.711 431.246 609.285 396.05 561.217L384.158 603.652C393.528 613.987 403.656 623.589 414.501 632.252L418.003 635.044L408.048 669.837C421.711 679.349 436.19 687.699 451.197 694.765L476.232 668.907L480.427 670.57C498.968 677.957 518.268 683.162 537.766 686.052L542.216 686.719L550.918 721.463C559.183 722.163 567.54 722.525 575.821 722.525C584.12 722.525 592.476 722.163 600.733 721.463L609.411 686.826L613.877 686.176C633.54 683.318 652.938 678.171 671.521 670.834L675.699 669.17L700.463 694.765C715.477 687.699 729.956 679.341 743.603 669.837L733.829 635.67L737.348 632.895C752.981 620.484 767.188 606.287 779.557 590.698L782.351 587.182L816.575 596.949C826.076 583.344 834.432 568.892 841.511 553.863L815.891 529.083L817.531 524.925C824.832 506.387 829.974 487.035 832.825 467.427L833.427 463.285L868.475 451.945C868.936 446.551 869.175 441.627 869.258 435.796L798.264 452.489C787.444 559.973 700.421 644.547 592.047 652.132ZM828.227 368.886C825.367 357.11 821.775 345.466 817.267 334.134L815.602 329.951L841.511 304.916C835.471 292.078 828.417 279.692 820.588 267.866L783.397 346.8C786.273 353.981 788.779 361.351 790.913 368.886H828.227ZM354.203 452.266C355.373 463.878 357.45 475.209 360.334 486.203L330.371 589.899C322.798 578.37 315.991 566.314 310.132 553.863L336.428 528.441L334.788 524.274C327.586 505.91 322.501 486.854 319.675 467.633L319.065 463.507L283.152 451.822C282.657 445.942 282.451 440.919 282.385 435.36L354.203 452.266Z" fill="#A47C25"/>
<path d="M689.363 419.451L710.196 375.22L677.596 375.418L681.625 437.297C684.007 431.491 686.627 425.356 689.363 419.451ZM502.496 375.533L462.026 375.295L481.384 424.746L502.496 375.533ZM512.682 482.944L536.489 488.445L533.341 440.442L512.682 482.944ZM438.705 465.839L429.368 442.361L423.756 462.372L438.705 465.839ZM587.664 435.913L591.414 494.242L631.513 484.978L625.555 397.982L587.664 435.913ZM36.499 372.865L370.752 450.135L392.491 374.899L36.499 372.865ZM1117.7 372.865L728.853 462.537L770.156 374.875L1117.51 372.865H1117.7Z" fill="#43B2E9"/>
<path d="M659.919 207.428L620.24 221.921L647.476 619.503L879.436 127.226L825.187 147.04L695.453 422.339C685.523 443.75 676.936 468.76 676.936 468.76L659.919 207.428ZM428.256 421.408L339.519 738.022L289.309 756.354L422.907 293.904L481.112 442.515L568.249 239.347L594.34 644.052L554.438 659.492L538.418 414.705L476.357 542.266L428.256 421.408Z" fill="white"/>
<path d="M736.631 42.7027L720.677 64.6739L715.889 62.8951C685.094 51.4401 652.963 43.8556 620.404 40.3475L615.097 39.7628L611.29 8.79887C611.29 8.79887 587.96 6.74832 576.522 6.74832C565.059 6.74832 541.705 8.79887 541.705 8.79887L537.922 39.7628L532.607 40.3475C500.04 43.8556 467.909 51.4401 437.121 62.8951L432.325 64.6739L416.38 42.7027C398.423 50.0319 381.019 58.5141 364.463 67.9844L401.398 169.21C453.199 134.417 513.324 116.077 575.863 116.077C638.847 116.077 699.342 134.656 751.366 169.894L788.548 67.9844C771.943 58.4894 754.522 50.0072 736.631 42.7027Z" fill="#254AA5"/>
<path d="M576.482 -0.000411393C564.813 -0.000411393 553.07 0.666645 541.566 2.0172L535.632 2.69246L531.85 33.6234C498.096 37.2633 465.858 44.9879 434.741 56.5664L418.713 34.4799C397.04 43.0279 376.224 53.1406 356.182 64.9662L398.029 179.664C448.231 143.891 509.592 122.76 575.823 122.76C642.515 122.76 704.238 144.171 754.655 180.381L796.757 64.9662C776.682 53.1406 755.916 43.0279 734.226 34.4799L718.198 56.5664C687.073 44.9879 654.843 37.2633 621.089 33.6234L617.29 2.69246L611.381 2.0172C599.869 0.666645 588.109 -0.000411393 576.482 -0.000411393ZM576.482 6.71942C587.92 6.71942 611.249 8.76996 611.249 8.76996L615.057 39.7339L620.364 40.3103C652.923 43.8267 685.054 51.4112 715.849 62.8662L720.637 64.645L736.599 42.6738C754.482 49.9783 771.903 58.4604 788.508 67.9555L751.325 169.856C699.293 134.619 638.807 116.048 575.823 116.048C513.284 116.048 453.159 134.388 401.366 169.181L364.431 67.9555C380.97 58.4852 398.383 50.003 416.348 42.6738L432.294 64.645L437.081 62.8662C467.869 51.4112 499.999 43.8267 532.575 40.3103L537.89 39.7339L541.665 8.76996C541.665 8.76996 565.019 6.71942 576.482 6.71942Z" fill="#A47C25"/>
<path d="M705.72 108.745L718.089 113.916L721.196 89.2441L705.72 108.745ZM728.094 141.809L715.469 136.546L716.862 125.034L698.831 117.499L691.595 126.59L678.971 121.32L717.488 75.4173L733.664 82.1619L728.094 141.809ZM674.125 72.7821L662.769 117.103L650.037 113.842L661.393 69.5293L646.181 65.6423L649.015 54.5826L692.164 65.6094L689.321 76.6691L674.125 72.7821ZM608.38 107.855C601.664 107.172 594.742 104.99 589.987 102.264L593.201 92.571C598.351 94.7533 603.658 96.4086 609.674 97.0344C616.382 97.7262 617.824 96.5733 618.327 91.7969C618.854 86.6747 618.657 86.0406 609.369 83.0183C595.624 78.5879 593.811 75.6315 595.088 63.3447C596.267 51.9885 600.832 47.8792 616.802 49.518C621.854 50.0368 627.903 51.1815 634.232 53.2073L631.801 63.8388C625.282 62.0436 621.071 61.0965 615.83 60.553C609.979 59.9601 608.578 60.8412 608.141 65.0247C607.573 70.4928 607.82 70.6081 616.761 73.6797C632.089 78.9749 632.559 82.0384 631.405 93.2298C630.235 104.495 625.908 109.659 608.38 107.855ZM576.958 47.591L579.151 88.0582C579.62 96.7215 574.585 105.846 558.128 106.735C541.672 107.617 535.672 99.085 535.219 90.4217L533.027 49.9462L546.155 49.238L548.281 88.5111C548.528 93.1475 550.942 95.6839 557.51 95.3298C564.078 94.9839 566.213 92.1922 565.957 87.5641L563.831 48.291L576.958 47.591ZM502.561 114.559C488.725 117.779 480.105 112.459 477.756 102.338L472.359 79.0737C469.977 68.7881 475.408 60.3883 489.236 57.1766C495.82 55.6449 502.767 54.9202 507.852 54.7061L508.849 66.0294C503.715 66.4246 495.985 67.6022 491.881 68.5575C485.47 70.0398 484.605 73.6797 485.618 78.0279L490.068 97.1909C491.074 101.539 493.529 104.759 499.941 103.268C502.503 102.675 504.193 102.198 507.423 101.004L503.459 83.9324L515.516 81.1407L521.589 107.328C515.755 110.532 509.145 113.035 502.561 114.559ZM434.27 113.546L446.623 108.308L431.106 88.8652L434.27 113.546ZM473.603 120.653L461.011 125.997L453.735 116.955L435.729 124.589L437.196 136.093L424.604 141.438L418.604 81.8572L434.74 75.0138L473.603 120.653Z" fill="white"/>
</svg>
