<?xml version="1.0" encoding="UTF-8"?>
<svg width="46px" height="36px" viewBox="0 0 46 36" version="1.1" xmlns="http://www.w3.org/2000/svg" xmlns:xlink="http://www.w3.org/1999/xlink">
    <!-- Generator: Sketch 55.1 (78136) - https://sketchapp.com -->
    <title>quote</title>
    <desc>Created with Sketch.</desc>
    <g id="Page-1" stroke="none" stroke-width="1" fill="none" fill-rule="evenodd">
        <g id="Angular-Developers" transform="translate(-1110.000000, -5099.000000)" fill="#36F8D7" fill-rule="nonzero">
            <g id="quote" transform="translate(1082.000000, 5099.000000)">
                <g transform="translate(28.000000, 0.000000)" id="Path">
                    <path d="M14.371678,16.3151707 C13.2657194,16.0094958 12.1597607,15.8543975 11.0839474,15.8543975 C9.42265432,15.8543975 8.03643782,16.218856 6.96156658,16.6651594 C7.99781405,13.0232874 10.4871631,6.73931721 15.4460783,6.03165272 C15.9053243,5.96608637 16.2816705,5.64729821 16.4069623,5.21817771 L17.4907829,1.49672168 C17.5821611,1.18200317 17.5279936,0.845127741 17.3409981,0.572009948 C17.1540025,0.298892155 16.8534907,0.116662898 16.5167103,0.0723490843 C16.1507265,0.024417816 15.7776775,0 15.4079255,0 C9.45562584,0 3.56079078,5.96427764 1.07332583,14.5041827 C-0.386841063,19.5143568 -0.814999677,27.0468008 2.78172109,31.7879267 C4.7943963,34.4408772 7.73074482,35.8575627 11.5092799,35.9990956 C11.5248236,35.9995478 11.5398963,36 11.55544,36 C16.2176116,36 20.351768,32.9857563 21.6093956,28.6705856 C22.360675,26.0908885 22.0210685,23.385485 20.6522798,21.0508704 C19.2980927,18.7424825 17.0678056,17.0599141 14.371678,16.3151707 Z"></path>
                    <path d="M44.6521128,21.0510582 C43.2979089,18.7422471 41.067594,17.0596998 38.3714329,16.3149658 C37.2654604,16.0092947 36.159488,15.8541983 35.0841323,15.8541983 C33.4228185,15.8541983 32.0361137,16.2186523 30.9612291,16.6649501 C31.9974895,13.0231238 34.4868695,6.73923256 39.4463175,6.03157696 C39.9055693,5.96601143 40.2814492,5.64722728 40.4072135,5.21811216 L41.4910476,1.49670288 C41.582427,1.18198832 41.5282588,0.845117126 41.3412609,0.572002763 C41.1547341,0.2988884 40.8542185,0.116661433 40.5169629,0.0723481756 C40.1514456,0.0244175093 39.7783919,0 39.4081643,0 C33.4557904,0 27.560882,5.96420273 25.072915,14.5040005 C23.6132009,19.5141117 23.185037,27.0464611 26.7822736,31.7884318 C28.7945028,34.4408968 31.731359,35.8580167 35.5094701,35.9990956 C35.525014,35.9995478 35.5400869,36 35.5561018,36 C40.2178605,36 44.3525394,32.9857941 45.6101827,28.6706776 C46.3605294,26.091013 46.0204476,23.3851912 44.6521128,21.0510582 Z"></path>
                </g>
            </g>
        </g>
    </g>
</svg>