<svg xmlns="http://www.w3.org/2000/svg" viewBox="0 0 992.1 59.5"><path d="M843.1 53.8c.1 0 .5 0 .4.3s-2.1 2.5-3.1 3-1.9.4-3.8.4h-26.7c-.4.7-.2 1.9 1.5 1.9h34.2c2.6 0 6.2-.4 8.3-3.1l1-1.3c1.1-1.4.2-2.4-1-2.4h-28c-.1 0-.2 0-.2-.2 0-.1 0-.2.2-.2.8-1.2 1.8-2.2 3-3 1.2-.4 2.5-.5 3.8-.4h28c.4-.7.1-1.9-1.5-1.9h-35.5c-2.6 0-6.2.4-8.3 3.1l-1 1.2c-1.5 2 .3 2.5 1.6 2.6h27.1M766.4 46.9c-2.6 0-6.2.4-8.3 3.1l-1.5 1.9-1.1 1.5-1.3 1.6-1.8 2.2c-.6.7-.5 2.2 1.4 2.2h34.7c2.6 0 6.2-.4 8.2-3.1l1.5-1.9 1.2-1.5 1.2-1.6 1.9-2.2c.5-.7.4-2.2-1.5-2.2h-9.5l-1.7 2.1-1.6 2.1-1.7 2.2-1.7 2.1c-1.1 1.4-2.1 2.1-4.7 2.1h-14.8c-.2 0-.2-.3-.1-.4l2-2.5c.6-.9 1.4-1.7 2-2.6l2-2.5 2.1-2.6h-6.9M708.6 46.9c-2.6 0-6.2.4-8.3 3.1l-1.5 1.9-1.2 1.5-1.2 1.6-1.8 2.2c-.5.8-.4 2.2 1.4 2.2h46.1c1.2.2 2.3-.6 2.6-1.8h-37.1c-.4 0-.4-.2-.3-.4l4-5.1 4.1-5.1h-6.8M901.9 53.8c.1 0 .5 0 .3.3-.8 1.2-1.8 2.2-3 3-1.3.4-2.6.5-3.9.4h-26.7c-.4.7-.1 1.9 1.6 1.9h34.2c2.5 0 6.2-.4 8.2-3.1.4-.4.7-.8 1-1.3 1.2-1.4.3-2.4-.9-2.4h-28.1c-.2 0-.3-.2-.2-.4.8-1.2 1.8-2.2 3-3 .9-.4 2-.4 4-.4h28c.4-.7.1-1.9-1.6-1.9h-35.5c-2.6 0-6.2.4-8.3 3.1l-1 1.2c-1.5 2 .3 2.5 1.6 2.6h27.3M946.7 50.9c1.1-1.4 2.1-2.1 4.7-2.1h14.2c.2 0 .2.3.1.4-.9 1-1.7 2-2.4 3.1-.8 1-1.7 2-2.5 3.1s-2.3 2.1-4.9 2.1H942c-.2 0-.2-.3-.1-.4l2.4-3.1 2.4-3.1m-3.8-4c-2.5 0-6.1.4-8.1 3.1l-1.5 1.9-1.2 1.5-1.2 1.6-1.7 2.2c-.6.7-.5 2.2 1.4 2.2h34c2.6 0 6.2-.4 8.2-3.1l1.5-1.9 1.1-1.5 1.3-1.6 1.7-2.2c.6-.7.5-2.2-1.4-2.2h-34.1z" fill-rule="evenodd" clip-rule="evenodd" fill="#fff"/><path d="M661.8 55.4c-1.1 1.5-2.2 2.2-5.7 2.2h-17.4c-.3 0-.3-.3-.2-.3l4.6-6.1c1.2-1.6 2.2-2.3 5.7-2.3h17.4c.1-.1.2 0 .3.1s0 .2-.1.3l-4.6 6.1zM637.4 47c-3.3 0-7.8.5-9.8 3.1l-5.5 7.3c-.6.7-.1 2.1 2.3 2.1h43.1c3.3 0 7.9-.4 9.9-3.1l5.5-7.2c.5-.7 0-2.2-2.4-2.2h-43.1zM602.5 55.4c-1.1 1.5-2.2 2.2-5.6 2.2h-17.4c-.3 0-.3-.3-.2-.3l4.6-6.1c1.1-1.6 2.2-2.3 5.7-2.3H607c.1-.1.2 0 .3.1s0 .2-.1.3l-4.7 6.1zM578.2 47c-3.3 0-7.8.5-9.9 3.1l-5.5 7.3c-.5.7 0 2.1 2.4 2.1h43.1c3.3 0 7.8-.4 9.8-3.1l5.5-7.2c.6-.7.1-2.2-2.3-2.2h-43.1zM524.2 52.7c-.3 0-.4-.2-.3-.3 1.8-2.4 2.3-3.5 6.7-3.5h17.2c.2 0 .2.3.2.4l-2.3 3c-.2.3-.6.4-.9.4h-20.6zm-.9 1.2H544c.2 0 .3.2.2.4-1.8 2.4-2.2 3.3-6.6 3.3h-17.2c-.2 0-.3-.3-.2-.3l2.3-3c.2-.3.5-.4.8-.4zm-4.1-6.9c-3.3 0-7.9.5-9.9 3.1l-1.5 2c-.3.4 0 1.1 1.3 1.1-1.3 0-2.6.6-3.4 1.7l-1.9 2.5c-.5.7 0 2.1 2.4 2.1H549c3.3 0 7.9-.4 9.9-3.1l1.5-1.9c.2-.4 0-1.2-1.3-1.2 1.3 0 2.2-.1 2.9-1l2.4-3.1c.5-.7 0-2.2-2.4-2.2h-42.8z" fill-rule="evenodd" clip-rule="evenodd" fill="#cc182c"/><path d="M822 32.5c-3.3 2.6-7.5 3.1-11.9 3.1H604.4l-3.3-.2c-3.7-.3-7.4-1.4-9.2-4.9s-1.2-5.8.3-8.5l.2-.2c0-.1 0-.2.1-.2l-16.1 7.7-12.3 5.8-.8.4-.8.2h-18c-4.6-.1-8.9-2.3-11.6-6-1-1.4-2-2.7-3.1-4l-3-4c-1.5-2.1-3.1-4.1-4.6-6.1l-4.3-6-4.8-6.7c-.4-.6-.5-1.3-.1-1.9.3-.6.9-1 1.6-1h24c5.3.1 10.3 2.6 13.5 6.9l4.6 6.3.8 1.1c.6.7 1.5.9 2.3.6l11.3-5.3 17.4-8c2.4-1.1 5-1.6 7.7-1.6H630c1-.1 1.9.5 2.1 1.5.1.9-.4 1.7-1.3 2h-.1c-.8.3-1.2 1.2-1 2 .1.9.9 1.5 1.8 1.5H671c4.1 0 9.4.7 12.8 3.2.8.6 1.8.5 2.5-.2 2-2 4.8-3.1 7.6-3h23.7c.7 0 1.3.4 1.7 1 .3.7.2 1.5-.3 2l-5.2 6.5c-.4.5-.5 1.3-.2 1.9.3.6.9 1.1 1.6 1h29.7c.6 0 1.1-.2 1.5-.7l1.8-2.3 3.2-3.9C755 7.8 760.3 7 765.8 7h53.7l3.4.2c2.8.1 5.4 1.1 7.6 2.8.7.6 1.7.7 2.4.1 3.3-2.6 7.6-3.1 12-3.1h50.4l3.4.2c2.4.1 4.7.9 6.7 2.2.6.4 1.5.4 2.1 0 3.2-2 7-2.3 10.9-2.3h57.1c6.1 0 15.1 1.6 16.4 8.9s-2.7 10.2-8 14-14 5.7-20.7 5.7h-54.3l-3.3-.2c-2.5-.1-4.8-.9-6.9-2.2-.6-.4-1.4-.4-2 0-3.1 1.9-7 2.3-10.9 2.3h-53.9c-2.7-.3-5.5-1-7.5-2.9-.7-.6-1.7-.6-2.4-.2m-493 2.9c-1.4.2-2.9.2-4.3.2h-61.2c-2.8-.3-5.7-1.1-7.7-3-.4-.4-.9-.6-1.4-.6-.5 0-1 .3-1.3.7l-.5.7-1.3 1.6c-.3.5-.8.8-1.4.8h-45.5l-.7-.2-13.1-4.3-13-4.2h-.2c-.1 0-.1 0-.1-.1h-.2l-1-.5-.9 1.2-4.6 5.9-1.3 1.6c-.3.5-.8.7-1.4.7H74c-3.6-.3-7.2-1.5-9.1-4.8-.6-1-.9-2.1-1-3.2 0-.8-.6-1.4-1.3-1.6-.7-.2-1.5 0-1.9.7-1.8 2.2-3.6 4.4-5.3 6.7l-1.3 1.6c-.3.5-.9.8-1.5.8H16c-.7 0-1.4-.4-1.7-1.1-.3-.6-.2-1.3.2-1.9l5.5-7.3 5.4-6.9c.5-.5.6-1.3.2-1.9-.3-.7-.9-1.1-1.6-1.1H1.8c-.7 0-1.3-.3-1.6-.9-.3-.6-.3-1.3.1-1.9l4.3-6.6c.6-1 1.3-2 2.1-3C8.6 1.2 11.5-.1 14.5 0h96.6c.7 0 1.4.4 1.7 1.1.3.6.2 1.4-.3 1.9-3.7 4.3-6 8.2-10.3 13.5-.5.6-.6 1.4-.2 2 .3.6.9 1 1.6 1h16.7c.6 0 1.1-.3 1.4-.7l2.2-2.7 4-5.1c2.2-2.6 5.4-4.1 8.8-4h85.4c1.6 0 3.2 0 4.8.2 2.9.4 5.8 1.4 7.6 3.6.4.5.9.7 1.5.7.5 0 1-.2 1.4-.6 2.1-2.6 5.3-4 8.6-3.8h27.2l3.4-.2h58l3.2.2c3 .2 6 1 8 3.1.3.3.8.5 1.3.5s1-.2 1.4-.5c2.1-2.1 4.9-3.2 7.9-3.2h20.1c.6 0 1.1.2 1.4.7l1.3 1.6c1.7 2.1 3.4 4.1 5 6.2l1.2 1.5c.5.7 1.4.9 2.2.5l8.2-3.6L409.4 8c1.7-.6 3.5-1 5.3-.9h32.5l3.4-.2h53.9l3.4.2c3.6.3 7.3 1.5 9.1 4.9s.7 7.4-1.7 10.4l-3 3.7-3 3.9c-3.6 4.7-8.9 5.5-14.4 5.5h-57.5c-2.8-.1-5.5-1.2-7.6-3-.4-.3-.9-.5-1.4-.5-.5 0-1 .3-1.3.8-.2.1-.3.3-.4.4l-1.3 1.7c-.3.5-.8.8-1.4.8h-25.2c-.7 0-1.3-.4-1.6-1.1-.3-.6-.3-1.3.1-1.9l.9-1.1-8.3 3.6-.8.3-.7.2h-13.8c-.5 0-1.1-.3-1.4-.7l-1.3-1.4-5-5.8c-.6-.8-1.8-.9-2.5-.3l-.3.3-4.2 5.5-1.3 1.6c-.3.5-.9.8-1.5.8h-28.4l.3-.3z" fill-rule="evenodd" clip-rule="evenodd" fill="#fff"/><path d="M459.2 20.1l-2 2.5h29.1c.6-.9 1.3-1.7 2-2.5h-29.1m313.3 2.5h29.1l1.8-2.5h-29c-.6.8-1.3 1.6-1.9 2.5zm-508-8.2c3-3.9 7.5-4.3 12.1-4.3h61c2.5.2 5.5.9 6.8 3.3 1 2 .7 4.3-.6 6l-.9 1.4h-3.3c.5 2-.4 4-1.6 5.6l-1.3 1.7c-3 3.9-7.5 4.4-12 4.4h-57.8l-3.1-.2c-2.5-.2-5.4-.9-6.7-3.2s-.5-4.2.6-6.1l.9-1.4h2.9c-.4-1.8.1-3.6 1.2-5v-.2h.1l1.7-2zm174.1 0c2.9-3.9 7.5-4.3 12-4.3h57c2.6.3 5.5.9 6.8 3.3s.1 5.1-1.5 7.1l-3 3.8-3 3.8c-2.9 3.9-7.5 4.4-12 4.4h-54.1l-3.1-.2c-2.5-.2-5.4-.9-6.7-3.3s-.3-5 1.3-6.9l3-3.9c1-1.2 2.2-2.4 3.3-3.8zm-31 9.8l-4.1 1.8-14.8 6.4-.6.2h-13l-.9-1c-1.8-2-3.5-4.1-5.3-6.2l-3.5-4.2-3.2 4-4.8 6.2-.9 1.2h-21.6l3.8-4.9c1.8-2.5 3.8-4.9 5.6-7.3s3.9-4.9 5.9-7.4c1.5-1.9 3.8-3 6.2-2.9h19.5l.9 1.2c1.7 2.1 3.4 4.1 5 6.2l3.6 4.4 11.6-5.2 13.6-5.9c1.3-.5 2.7-.7 4.1-.7H441l-3.9 5c-2.1 2.7-4.4 5.3-6.4 8.1s-4.3 5.4-6.4 8.2l-.9 1.2h-22.2l3.7-4.9 2.7-3.5zm494.5-4.1h-48.6c-.7.8-1.4 1.6-2 2.5h48.6l1.2-1.6.8-.9zm-220.4.7h-17.5l-.8-.7c-.7-.5-2.8-.6-3.6-.6h-1.2c.2.9.1 1.8-.4 2.5 0 .2-.1.3-.2.4l.7-.2.5-.2h21.5l1-1.2zm-78.5-7.6l-9.5 4.5-18.6 8.9-12.3 5.7-.6.3h-17.7c-3.6-.1-7-1.9-9.2-4.8l-3-4-3-4c-1.6-2-3.2-3.9-4.6-6l-4.3-5.9-3.5-4.8h21.7c4.4 0 8.5 2.1 11 5.7l4.7 6.2c1 1.5 2.1 2.9 3.2 4.3l14.9-6.9 17.3-8c2-.9 4.3-1.4 6.5-1.3h28.4l-12.3 5.8-3.4 1.6c1.7-.3 3.4-.4 5.1-.4h57c4.4 0 12.4 1 13.4 6.4 0 .3.1.5.1.8l3.4-4.4c1.4-1.8 3.7-2.9 6-2.8h21.2l-4 5c-1.7 2-3.3 4.1-4.9 6.2-.4.4-.7.8-1 1.3H747v.5l.6-.9 3-3.9c1-1.3 2.1-2.6 3.2-3.8 2.9-4 7.5-4.4 12-4.4h56.8c2.6.2 5.6.9 6.9 3.4.9 1.8.7 3.9-.4 5.5l.6-.8c1-1.3 2.1-2.5 3.2-3.8 2.9-4 7.5-4.4 12-4.4h53.5c2.6.3 5.5.9 6.8 3.3.3.6.5 1.2.6 1.9.4-.7.9-1.3 1.4-1.9h.3c3-2.9 7-3.2 10.9-3.2h57.1c4.4 0 12.4 1 13.4 6.4.1.6.1 1.1 0 1.7l-.4 2.6h-19.7l-.8-.6c-.7-.6-2.8-.7-3.7-.7h-1.2c.2 1 0 2-.6 2.8h-.1l.9-.3h26.6l-7.7 5.5c-4.9 3.5-13 5.1-19 5.1h-57.4c-2.5-.2-5.5-.9-6.8-3.3-.3-.6-.5-1.2-.6-1.8l-.2.3h-.2l-.2.2c-2.9 4-7.5 4.5-12 4.5h-50.4l-3.2-.2c-2.5-.2-5.4-.9-6.7-3.3s-.5-4.3.6-6.1l-1 1.3-3 3.9c-3 3.9-7.5 4.4-12 4.4H672.4l2.8-3.6c-4.9 2.5-11.5 3.6-16.6 3.6h-57.3c-2.5-.2-5.4-.9-6.8-3.3s-.6-3.8.4-5.6v-.2h.1l1.8-2.3c.7-.9 1.6-1.7 2.5-2.3.4-1.1 1-2.2 1.8-3.1l1.7-2.1h.2c.1-.4.1-.4.2-.4zM94.9 20.7l-1.4 1.9h29.1l3.7-4.6 4-5.1c1.6-1.9 3.9-2.9 6.4-2.8h20.9l-3.9 5c-1.8 2.1-3.6 4.3-5.3 6.5s-3.5 4.3-5.1 6.6c-3 3.9-7.6 4.4-12.1 4.4H77.3l-3-.2c-2.5-.2-5.4-.8-6.7-3.2s-.2-5.1 1.3-7.1l3.5-4.5 3.7-4.7h-3.7c-2.8 0-5.3.7-7.1 2.9l-6.2 7.8-6.2 7.8-.9 1.2H18.5l3.9-4.9 7.8-9.9 3.9-4.9h-30l3-4.7c.6-1 1.3-1.9 2-2.7 1.3-1.6 3.3-2.5 5.4-2.4h93.9L94.9 20.7zm133.3 6.8c1.9-2.4 3.7-4.8 5.6-7.1s3.9-5 5.9-7.5c1.6-1.8 3.9-2.9 6.3-2.8h21l-3.9 5c-2.2 2.7-4.4 5.3-6.5 8.1s-4.3 5.4-6.4 8.2l-.9 1.2h-44.6l-13.2-4.3-13-4.2h-.2c-1.1-.5-1.9-1.5-2.1-2.7-1.2 1.4-2.3 2.9-3.4 4.3l-4.6 5.9-.9 1.2h-26.6l3.7-4.9c1.9-2.5 4-4.9 5.9-7.4s3.9-5 5.9-7.5c1.4-1.8 3.6-2.8 5.9-2.7h60c1.5 0 2.9 0 4.4.2 2.4.3 5 1.1 6.2 3.4s.2 4.8-1.3 6.7h-.1l-1.7 2.1c-1.4 1.8-3.4 2.9-5.6 3.3l2.2.8 2 .7z" fill-rule="evenodd" clip-rule="evenodd"/><path d="M230.5 29.6h17.2c2.1-2.8 4.4-5.5 6.5-8.2 2.1-2.7 4.3-5.5 6.5-8.2H246c-1.5-.1-3 .5-3.9 1.7l-5.9 7.3-5.7 7.4m-79.2-16.5h-14.6c-1.5-.1-3 .5-4 1.7l-4 5.1-4 5c-.6.6-1.5.8-2.3.7H88.9c-.8 0-1.4-.3-.9-1l4.5-5.7 4.6-5.8H82.4c-1.5-.1-2.9.6-3.9 1.7l-3.7 4.6-3.5 4.6c-4.1 5.3 2.5 5.5 6 5.5h53.9c2.8 0 7.2.1 9.6-3.2l5.2-6.6 5.3-6.6zm132.1 6.3c-2.1 0-.6-1.4-.3-1.6.6-.6 1.5-.9 2.3-.8H323c.7 0 1.3.3 1.1.9h17.1c2.9-4.5-3.2-4.8-6.6-4.8h-58c-2.9 0-7.3 0-9.7 3.2l-1.7 2.1c-3.1 4.6 3.2 4.9 6.6 4.9h46c1.7 0 .6 1.2.4 1.6h.1c-.7.6-1.5.8-2.4.7h-37.4c-.7 0-1.3-.3-.9-.8h-17.3c-2.9 4.5 3.3 4.7 6.6 4.7h57.8c2.7 0 7.1.1 9.6-3.2.4-.6.8-1.1 1.3-1.6 3.6-4.9-2.3-5.3-6.4-5.3h-45.8zm173.7-1.6c.6-.6 1.5-.9 2.3-.8H493c.7 0 1.3.4.8 1l-2.7 3.5c-1 1.1-1.9 2.2-2.8 3.4-.6.6-1.5.8-2.3.7h-33.5c-.7 0-1.4-.3-.8-1l2.7-3.4 2.7-3.4zM434.7 24c-4.1 5.2 2.6 5.5 6.1 5.5h54.1c2.7 0 7.2.1 9.6-3.2l3-3.8c.9-1.3 2-2.5 3.1-3.8 4.1-5.3-2.6-5.6-6.1-5.6h-53.9c-2.7 0-7.2 0-9.6 3.2-1.1 1.3-2.3 2.6-3.3 3.9l-3 3.8zm-333-17.9H14.5c-1.2-.1-2.3.4-3 1.3-.7.8-1.3 1.6-1.8 2.4h30.8l-7.9 9.9-7.8 9.9h25.7l6.2-7.9c2-2.6 4.2-5.2 6.3-7.8s5.3-4.1 9.4-4.1h26.3l3-3.7zm442.8 23.5h17c4-2 8.1-3.9 12.3-5.8l18.5-8.8L611 6.1h-14.8c-1.8-.1-3.6.3-5.2 1.1l-17.3 7.9-17.1 8c-1.6-2.1-3.3-4.2-4.8-6.3l-4.6-6.2c-2-2.8-5.2-4.4-8.6-4.5h-15.7l4.3 5.9c1.4 2 3 4 4.5 6l3 4 3 4c1.6 2.2 4.1 3.5 6.8 3.6zm227.9-11.8c.6-.6 1.4-.9 2.3-.8H808c.8 0 1.5.4.9 1l-2.7 3.5-2.6 3.4c-.7.6-1.5.8-2.4.7h-33.4c-.7 0-1.4-.3-.8-1l2.7-3.4 2.7-3.4zM750.1 24c-4.1 5.2 2.6 5.5 6.2 5.5h53.8c2.7 0 7.1.1 9.6-3.2.9-1.3 2-2.5 2.9-3.8l3.1-3.8c4.1-5.3-2.6-5.6-6.2-5.6h-53.7c-2.7 0-7.2 0-9.6 3.2l-3.2 3.9c-.9 1.2-2 2.5-2.9 3.8zM434.7 13.2c-2.2 2.7-4.4 5.4-6.5 8.2s-4.3 5.4-6.4 8.2h-14.5c1.6-2.2 3.3-4.3 4.9-6.4l5-6.4-14.9 6.4-14.8 6.4h-11l-5.2-6.1c-1.8-2.1-3.4-4.1-5.2-6.1-.1-.2-.4-.4-.7-.4-.2-.1-.5 0-.6.2-1.7 2-3.4 4.1-5 6.2l-4.8 6.2h-13.9c1.8-2.5 3.8-4.9 5.7-7.4s3.8-4.9 5.8-7.3c.9-1.1 2.3-1.8 3.8-1.8h18c1.7 2.1 3.4 4.1 5 6.2l5.2 6.2 13.6-6 13.6-5.9c.9-.3 1.9-.4 2.9-.4h20zM146.9 29.5h18.9l4.6-5.9 4.6-5.9c.6-.7.9-1 2.6-1h30.8c1.1 0 1.5.4 1.2 1l-1.2 1.5c-1 1.3-2.5 1.3-4.3 1.3h-24.7l-.2.2c0 .2.2.3.3.4l13 4.2 13.1 4.3h19.5l-15.3-5.8c-.2-.1-.3-.2-.3-.4s.1-.2.2-.2h6.8c5.3-.1 8.6.2 10.7-2.4.5-.8 1.2-1.5 1.8-2.3 4.5-5.6-4.9-5.3-6.9-5.3h-60c-1.3-.1-2.6.5-3.5 1.5-2 2.5-4 4.9-5.9 7.4l-5.8 7.4zm531.7 0h67.6c-1.9-.9-2-2.7-2.1-3.9H699l4.8-6.2c1.5-2.1 3.2-4.1 4.9-6.2h-14.8c-1.3-.1-2.7.4-3.5 1.5-2 2.5-3.9 5-5.9 7.4s-3.9 5-5.9 7.4zm230.3.1h54.3c6.6 0 13.5-2 17.2-4.6h-16.1c-2.3.8-4.8 1.3-7.3 1.3h-37.1c-.8 0-1.4-.4-.9-1l1.8-2.3h35c1.6 0 2.6-.3 3.3-1.2l1-1.4v-.3h-36.9l2.2-2.8c.7-.6 1.5-.8 2.4-.7h36.5c2.5 0 4.5.4 5.5 1.2h16.1c.4-2.6-3.8-4.5-10.4-4.5h-57.1c-2.5 0-6.4-.1-8.8 2.3-.6.6-1.1 1.3-1.6 2-1 1.3-1.4 2.4-1.2 3.1-1.2.5-2.3 1.3-3.1 2.3l-1.7 2.1c-2.3 4.2 3.6 4.5 6.9 4.5zm-304.5 0h54.2c6.6 0 13.7-2 17.2-4.6h-16.1c-2.3.9-4.8 1.3-7.3 1.3h-36.9c-.8 0-1.4-.4-.9-1l1.8-2.3h34.9c1.2.1 2.5-.3 3.3-1.2l1-1.4c.1 0 0-.1-.1-.3h-36.7l2.1-2.8c.6-.5 1.5-.8 2.3-.7h36.6c2.5 0 4.6.4 5.5 1.2h16.1c.4-2.6-3.8-4.5-10.4-4.5h-57c-2.5 0-6.3-.1-8.8 2.3-.6.6-1.1 1.3-1.6 2-1.1 1.3-1.5 2.4-1.4 3.1-1.2.5-2.2 1.3-2.9 2.3l-1.8 2.2c-2.3 4.1 3.6 4.4 6.9 4.4zM829.2 24c-4.1 5.2 2.6 5.5 6.2 5.5h50.4c2.8 0 7.2.1 9.6-3.2l.5-.7h-49c-.7 0-1.4-.3-.9-1l2.6-3.4c.9-1.1 1.8-2.3 2.8-3.4.6-.6 1.5-.9 2.3-.8h48.8c1.5-3.6-4.1-3.9-7.2-3.9h-50.4c-2.8 0-7.3 0-9.6 3.2l-3.2 3.9c-.9 1.2-2 2.5-2.9 3.8z" fill-rule="evenodd" clip-rule="evenodd" fill="#fff"/></svg>