<svg xmlns="http://www.w3.org/2000/svg" viewBox="0 0 425.17 89.15"><defs><style>.cls-1,.cls-2{fill:#8c9091}.cls-2,.cls-4,.cls-5{fill-rule:evenodd}.cls-4{fill:#ce0e2d}.cls-5{fill:#fff}</style></defs><g id="Livello_2" data-name="Livello 2"><g id="Layer_1" data-name="Layer 1"><path class="cls-1" d="M371.78 63.8a12.08 12.08 0 01-3.66-6.09 26.69 26.69 0 01-1-7.39 45.85 45.85 0 011.53-11.16 47.49 47.49 0 018.92-18.53c4.12-5.11 8.72-7.9 13.69-7.9a9.94 9.94 0 019 5l.29.48L397 32.69l-1.67-2.59c-2.06-3.18-4.08-4.43-6.15-4.43-2.14 0-4.27 1.11-6.51 3.74a24.84 24.84 0 00-4.94 10.19 25.4 25.4 0 00-.85 6.08 12.66 12.66 0 00.58 4 5.33 5.33 0 001.6 2.58 3.68 3.68 0 002.41.77 7.46 7.46 0 003.35-.87 42.82 42.82 0 006.18-4.28l2.9-2.56-.78 3.94-2.8 11.17-.34.28c-4.06 3.38-8 5.2-11.84 5.21a9.64 9.64 0 01-6.3-2.12zM194.76 65.29h-8.94l.41-1.67 12.38-49.24.26-1H211c2.19 0 5 .92 6.19 5.34a22.14 22.14 0 01-.35 10.92 30.52 30.52 0 01-5.06 11c-2.46 3.25-5.2 4.9-8.15 4.9h-3.88L195 64.27l-.26 1zm7.91-31.48h1.16c.7 0 2.81 0 4-4.69.63-2.5.34-3.29.23-3.47-.21-.37-1-.58-2-.58h-1.14l-2.2 8.74zM230.56 65.29H209.5l.42-1.67 12.37-49.24.26-1.01h20.81l-.42 1.67-2.27 9.02-.25 1.01H228.55l-1.92 7.65h11.32l-.42 1.66-2.27 9.03-.25 1.01h-11.32l-2.31 9.16H233.5l-.42 1.67-2.27 9.02-.25 1.02zM257.9 65.29h-9.45v-1.35c0-1.63.08-4.67.22-9.3.17-5.47-.08-7.56-.32-8.35s-.51-1-.52-1h-.75l-4.76 19-.26 1h-8.95l.42-1.67 12.38-49.24.25-1h12.14c2.1 0 4.87.88 6.1 5.1a20.49 20.49 0 01-.24 10.73c-1.32 5.21-3.62 9.26-6.86 12 .56 1.35 1 3.81.87 8.79s-.2 9.55-.25 13.93v1.33zM250 33.6h1.55a2.48 2.48 0 001.84-1 8.73 8.73 0 001.7-3.6c.65-2.61.23-3.42.08-3.61s-.23-.29-.92-.29h-2.08L250 33.6zM271.07 65.92h-4.88l.01-1.35.51-49.88.02-1.32h9.42l-.02 1.36-.39 21.9 10.62-22.49.36-.77h9.65l-.93 1.92-24.01 49.87-.36.76zM305.81 65.29h-21.06l.42-1.67 12.37-49.24.26-1.01H318.62l-.43 1.67-2.26 9.02-.26 1.01H303.8l-1.92 7.65h11.32l-.42 1.66-2.27 9.03-.25 1.01h-11.32l-2.3 9.16h12.11l-.42 1.67-2.26 9.02-.26 1.02zM330.05 65.29H308.37l.41-1.67 12.38-49.24.26-1.01h8.94l-.42 1.67-9.69 38.54h12.74l-.42 1.67-2.26 9.02-.26 1.02zM344.88 65.92c-3.34 0-7.73-1.47-9.68-8.45-1.44-5.19-1.28-11.39.5-18.45a49.1 49.1 0 018.62-18.19c4.14-5.37 8.6-8.1 13.26-8.1 3.36 0 7.77 1.49 9.65 8.6 1.4 5.26 1.23 11.43-.51 18.34A48.49 48.49 0 01358 57.9c-4.16 5.32-8.58 8-13.16 8zM355 25.67c-1.91 0-3.82 1.21-5.67 3.61a28.05 28.05 0 00-4.66 10.39c-1.06 4.24-1.26 7.68-.58 10.2.76 2.79 2.2 3.15 3.36 3.15 1.9 0 3.8-1.22 5.65-3.62a28.3 28.3 0 004.65-10.4c1.07-4.27 1.27-7.7.59-10.22-.75-2.77-2.18-3.13-3.34-3.13zM412.37 65.29H391.31l.42-1.67 12.37-49.24.26-1.01h20.81l-.42 1.67-2.27 9.02-.25 1.01H410.36l-1.92 7.65H419.75l-.41 1.66-2.27 9.03-.26 1.01H405.5l-2.31 9.16H415.31l-.42 1.67-2.27 9.02-.25 1.02z"/><path class="cls-2" d="M0 35.37l70.94-.21 10.11 4.39 15.92 2.76 9.91-7.25 77.43-.23-71 17.79-9.19 12.97-9.41-8.22-4.27 12.5-17.12-15.78-.87-6.2-9.23 2.47L0 35.37z"/><path fill="#3cb4e5" fill-rule="evenodd" d="M10.02 36.56l60.6-.17 9.7 4.34L97 44.01l10.71-7.73 66.66-.2-61 15.15-9.49 12.16L95 55.81l-4.84 12.06L75.63 54.2l-3.68-8.99-8.86 3.55-53.07-12.2z"/><path class="cls-4" d="M76.06 19.62l2.53 20.49 24.78-29.34-9.52 65.89-10.73 2.41 5.38-36.36-13.99 15.51-2.56-11.08L51.2 86.42l-11.54 2.73 36.4-69.53zM110 9.87l9.73-2.02-4.22 28.59L139.19 4.1l12.21-2.48-51.53 72.55L110 9.87z"/><path class="cls-2" d="M73.43 18l2.52 20.49 24.78-29.35-9.52 65.9-10.73 2.41 5.38-36.36L71.88 56.6l-2.57-11.08L48.56 84.8l-11.53 2.73L73.43 18z"/><path class="cls-5" d="M72.44 22.47l2.61 19.25 23.42-27.57-8.44 59.53-7.66 1.86 5.5-39-15.25 17.11-2.68-12.47-22.33 42.38-7.63 1.77 32.46-62.86z"/><path class="cls-2" d="M107.36 8.25l9.73-2.02-4.22 28.59 23.68-32.34L148.76 0 97.24 72.55l10.12-64.3z"/><path class="cls-5" d="M110.5 40.52l26.78-36.83 8.51-1.76L99.7 66.76l8.95-57.23 6.78-1.39-4.93 32.38z"/><path class="cls-4" d="M203.82 23.73L201 35.15h2.88c2.57 0 4.34-1.9 5.29-5.71.54-2.14.57-3.62.09-4.46s-1.54-1.25-3.2-1.25zm-3.91-9H211q3.77 0 4.9 4.33a20.83 20.83 0 01-.36 10.26 28.88 28.88 0 01-4.84 10.5c-2.19 2.92-4.55 4.37-7.07 4.37h-4.92l-5 19.78h-6.19zM231.78 54.92l-2.27 9.03h-18.29l12.37-49.24h18.05l-2.26 9.02h-11.87l-2.6 10.33h11.32l-2.27 9.02h-11.32l-2.97 11.84h12.11zM251.12 23.73l-2.81 11.21h3.27a3.74 3.74 0 002.84-1.46 10 10 0 002-4.18q1.39-5.57-2.14-5.57zm-3.91-9h11.09q3.6 0 4.82 4.14a19.22 19.22 0 01-.26 10q-2.06 8.13-7.3 12 1.45 1.7 1.27 9.09t-.25 14h-6.79q0-2.43.22-9.27t-.38-8.78c-.39-1.29-1-1.94-1.81-1.94H246l-5 20h-6.19zM294.23 14.71l-24 49.87h-2.69l.51-49.87h6.74l-.51 28.13 13.29-28.13h6.66zM307.04 54.92l-2.27 9.03h-18.3l12.37-49.24h18.06l-2.27 9.02h-11.87l-2.6 10.33h11.32l-2.27 9.02h-11.32l-2.97 11.84h12.12zM331.27 54.92L329 63.95h-18.92l12.38-49.24h6.18l-10.1 40.21h12.73zM347.45 54.36c2.35 0 4.58-1.38 6.71-4.14a29.43 29.43 0 004.89-10.87q1.69-6.78.58-10.9c-.74-2.74-2.28-4.12-4.63-4.12s-4.6 1.38-6.73 4.12a29.37 29.37 0 00-4.9 10.9q-1.68 6.72-.57 10.87t4.65 4.14m10.13-40.29q6.35 0 8.36 7.6t-.52 17.68A46.92 46.92 0 01357 57.07q-5.87 7.51-12.11 7.51t-8.39-7.47q-2.08-7.47.51-17.76a47.56 47.56 0 018.38-17.7q5.83-7.57 12.2-7.58M391.8 48.93l-2.7 10.75q-5.88 4.91-11 4.9-6.62 0-8.71-7.24t.61-17.85a46 46 0 018.66-18q6-7.41 12.65-7.41a8.58 8.58 0 017.9 4.34l-2.75 11q-3.26-5-7.28-5c-2.64 0-5.15 1.41-7.54 4.21a26.19 26.19 0 00-5.21 10.74q-1.65 6.55-.24 10.82t5.28 4.26a8.86 8.86 0 003.95-1 44.33 44.33 0 006.4-4.43M413.59 54.92l-2.27 9.03h-18.3l12.38-49.24h18.05l-2.27 9.02h-11.87l-2.59 10.33h11.32l-2.27 9.02h-11.32l-2.97 11.84h12.11z"/><path class="cls-2" d="M282.48 71.44c-1.3-1.23-3.24-1.85-5.85-1.85a12.49 12.49 0 00-6.83 1.85 7.5 7.5 0 00-3.54 4.32 4.12 4.12 0 001.31 4.34q2 1.83 5.86 1.83a12.5 12.5 0 006.77-1.83 7.53 7.53 0 003.58-4.34 4.2 4.2 0 00-1.3-4.32m-2.63 4.32a4.45 4.45 0 01-2 2.66 6.88 6.88 0 01-3.76 1 4.57 4.57 0 01-3.24-1 2.53 2.53 0 01-.64-2.66 4.38 4.38 0 012-2.66 6.92 6.92 0 013.77-1 4.55 4.55 0 013.23 1 2.54 2.54 0 01.64 2.66M296.51 69.74l-.57 2.21h-3.58l-2.55 9.82H286l2.55-9.82h-4.19l.58-2.21h11.57zM310.24 69.74l-.57 2.21h-3.58l-2.55 9.82h-3.81l2.55-9.82h-4.19l.57-2.21h11.58zM393.01 69.74l-.57 2.21h-3.58l-2.55 9.82h-3.81l2.55-9.82h-4.19l.57-2.21h11.58zM326.66 71.44q-1.94-1.84-5.84-1.85a12.47 12.47 0 00-6.82 1.85 7.52 7.52 0 00-3.55 4.32 4.15 4.15 0 001.32 4.34q2 1.83 5.85 1.83a12.54 12.54 0 006.78-1.83 7.47 7.47 0 003.6-4.34 4.16 4.16 0 00-1.3-4.32m-2.7 4.32a4.43 4.43 0 01-2 2.66 6.88 6.88 0 01-3.76 1 4.62 4.62 0 01-3.25-1 2.55 2.55 0 01-.64-2.66 4.4 4.4 0 012-2.66 6.89 6.89 0 013.77-1 4.56 4.56 0 013.23 1 2.52 2.52 0 01.63 2.66M344.37 78.11l-.68 2.62a17.82 17.82 0 01-6.32 1.2q-4.08 0-6-1.77a4.1 4.1 0 01-1.28-4.36 7.35 7.35 0 013.68-4.4 13.59 13.59 0 017.13-1.81 11.17 11.17 0 015.26 1.06l-.69 2.68a10.86 10.86 0 00-4.95-1.24 8.56 8.56 0 00-4.26 1 4.31 4.31 0 00-2.26 2.66 2.39 2.39 0 00.84 2.64 5.63 5.63 0 003.65 1 11.47 11.47 0 002.34-.24 35.58 35.58 0 003.54-1.08M358.35 79.57l-.58 2.2H346.5l3.12-12.03h11.13l-.58 2.21h-7.31l-.66 2.52h6.98l-.57 2.21h-6.98l-.75 2.89h7.47zM378.31 69.74l-3.12 12.03h-3.22l-5.45-7.71-2 7.71h-3.81l3.12-12.03h3.5l5.26 7.36 1.91-7.36h3.81zM409.05 71.44q-1.95-1.84-5.85-1.85a12.47 12.47 0 00-6.83 1.85 7.52 7.52 0 00-3.55 4.32 4.15 4.15 0 001.32 4.34q2 1.83 5.85 1.83a12.54 12.54 0 006.78-1.83 7.47 7.47 0 003.57-4.34 4.17 4.17 0 00-1.29-4.32m-2.64 4.32a4.39 4.39 0 01-2 2.66 6.88 6.88 0 01-3.76 1 4.57 4.57 0 01-3.24-1 2.53 2.53 0 01-.65-2.66 4.44 4.44 0 012-2.66 6.89 6.89 0 013.77-1 4.56 4.56 0 013.23 1 2.52 2.52 0 01.63 2.66"/><path class="cls-1" d="M134.75 60.56l-.32-.49 3.69-14.69 1.62 3.23a17.43 17.43 0 002.93 4.48 3.74 3.74 0 002.75 1.13 2.84 2.84 0 002.09-.77 5.65 5.65 0 001.4-2.76 5.24 5.24 0 00.15-1.19 4 4 0 00-.14-1 7.18 7.18 0 00-2.25-2.69 22.38 22.38 0 01-3.67-3.96 11.78 11.78 0 01-1.82-5.43 12.94 12.94 0 01-.11-1.79 28 28 0 011-6.74 24.67 24.67 0 015.46-10.82 11.89 11.89 0 018.87-4.34c3.1 0 6 1.53 8.44 4.25l.52.57L162 30.32l-1.69-1.94c-2.44-2.84-4.5-4-5.75-3.94a3 3 0 00-2.05.77 4.35 4.35 0 00-1.31 2.27 3.89 3.89 0 00-.13 1 3.22 3.22 0 00.15 1 8 8 0 002.25 2.68 23.69 23.69 0 013.67 4 12.12 12.12 0 011.86 5.37 14.15 14.15 0 01.12 1.88 27.15 27.15 0 01-.94 6.55 26.38 26.38 0 01-5.66 11.46c-2.58 2.9-5.62 4.51-8.92 4.5h-.06c-3.55 0-6.61-2-8.82-5.36z"/><path class="cls-4" d="M163.77 17.88l-2.41 9.62c-2.56-2.93-4.81-4.4-6.77-4.4a4.3 4.3 0 00-2.93 1.11 5.6 5.6 0 00-1.73 2.94 4.87 4.87 0 000 2.68 8.8 8.8 0 002.64 3.28 23.37 23.37 0 013.47 3.73 11 11 0 011.63 4.87 22.11 22.11 0 01-.8 7.93 25.08 25.08 0 01-5.36 10.89q-3.63 4-7.92 4-4.62 0-7.76-4.76l2.67-10.61a18.55 18.55 0 003.23 4.84 5.09 5.09 0 003.69 1.52q3.65 0 4.78-4.55a5.56 5.56 0 000-2.92 8.15 8.15 0 00-2.67-3.35 21.27 21.27 0 01-3.48-3.66 10.63 10.63 0 01-1.59-4.83 22.48 22.48 0 01.83-8A23.41 23.41 0 01148.45 18q3.56-3.9 7.88-3.9 4 0 7.44 3.81"/><path class="cls-1" d="M169.36 65.92a8.83 8.83 0 01-9-6.56c-1.32-4-1.06-9.59.79-17l7-28 .26-1h9L177 15l-7.12 28.31c-.8 3.18-.93 5.71-.39 7.54S171 53 171.86 53c1.48 0 2.9-.87 4.32-2.66a22.75 22.75 0 003.73-8.52l6.9-27.46.26-1H196l-.4 1.64-7 28c-1.85 7.35-4.4 13-7.59 16.88-3.33 4-7.24 6.05-11.62 6.05z"/><path class="cls-4" d="M188.11 14.71h6.19l-7 27.95q-2.74 10.79-7.36 16.34t-10.58 5.57a7.47 7.47 0 01-7.74-5.64q-1.85-5.64.81-16.21l7-28h6.21L168.56 43q-1.29 5.15-.38 8.25c.62 2.07 1.84 3.1 3.68 3.1s3.69-1.06 5.37-3.17a24 24 0 004-9z"/></g></g></svg>