<svg xmlns="http://www.w3.org/2000/svg" viewBox="0 0 253.1 17.1"><g fill="#fff" fill-rule="evenodd"><path d="M72.6 7.8h5.7l2.4-2.7 2.4-2.8h-4.9a1.6 1.6 0 00-1.3.6l-2.2 2.4zM46.8 2.3H42a1.8 1.8 0 00-1.4.6l-1.4 1.7-1.5 1.6a1.1 1.1 0 01-.8.3H25.8c-.2 0-.4-.1-.3-.4a15.4 15.4 0 001.7-1.9l1.7-1.9H24a1.5 1.5 0 00-1.3.6l-1.4 1.5L20 5.9c-1.5 1.8.7 1.9 1.9 1.9h17.8A4 4 0 0043 6.7l1.9-2.2c.6-.7 1.3-1.4 1.9-2.2zM90.5 4.4c-.7 0-.2-.5-.1-.5a1.1 1.1 0 01.8-.3h12.5c.2 0 .4.1.3.3h5.7c1.1-1.5-1-1.6-2.1-1.6H88.4a3.9 3.9 0 00-3.3 1.1l-.6.7c-1.2 1.5.9 1.6 2 1.6h15.2c.6 0 .2.4.1.5h.1a1.4 1.4 0 01-.9.3H88.7q-.5 0-.3-.3h-5.8c-1 1.5 1 1.6 2.1 1.6h19.2a3.8 3.8 0 003.2-1.1l.5-.5c1.4-1.6-.6-1.8-1.9-1.8zM140.5 5.9c-1.5 1.8.7 1.9 1.9 1.9h17.9a4 4 0 003.3-1.1l1.1-1.3 1.1-1.2c1.5-1.8-.7-1.9-1.9-1.9h-17.8a4 4 0 00-3.3 1.1 7.4 7.4 0 00-1.2 1.3l-1.1 1.2zm7.6-2a1.1 1.1 0 01.8-.3H160c.2 0 .5.1.2.4l-1 1.1-1 1.1c-.1.2-.5.3-.7.3h-11.2c-.2 0-.4-.1-.2-.4l1-1.1z"/><path d="M30.6 0H1.7a1.2 1.2 0 00-1 .4l-.7.8h10.2L7.3 4.5 4.4 7.8H13l2.2-2.6 2.4-2.6a4 4 0 013.2-1.4h8.7zM140.8 2.3l-2.4 2.8-2.3 2.7h-4.9l1.9-2.1c.5-.7 1.2-1.4 1.8-2.1l-5.1 2.1-5.1 2.1H121l-1.5-2-1.6-2.1h-.4l-1.8 2-1.8 2.1h-4.6l2.1-2.5 2.1-2.4a1.7 1.7 0 011.4-.6h5.9l1.5 2.1 1.5 2 4.7-1.9 4.7-2 1-.2zM44.9 7.8h6.3l1.7-2c.6-.6 1.1-1.3 1.7-2s.3-.3.9-.3h10.2c.3 0 .5.2.4.3l-.5.5a1.7 1.7 0 01-1.5.5H56c-.1 0-.1 0-.1.1h.1l4.2 1.4 4.2 1.4h6.4l-4.9-1.8a.1.1 0 00-.1-.1h2.4c1.7 0 2.8 0 3.6-.8l.7-.8c1.6-1.8-1.5-1.8-2.2-1.8H50.4a1.7 1.7 0 00-1.2.5l-2.1 2.4c-.7.8-1.5 1.6-2.2 2.5z"/><path d="M140.8 2.3l-2.4 2.8-2.3 2.7h-4.9l1.9-2.1c.5-.7 1.2-1.4 1.8-2.1l-5.1 2.1-5.1 2.1H121l-1.5-2-1.6-2.1h-.4l-1.8 2-1.8 2.1h-4.6l2.1-2.5 2.1-2.4a1.7 1.7 0 011.4-.6h5.9l1.5 2.1 1.5 2 4.7-1.9 4.7-2 1-.2z"/></g><g fill="#ee4042"><path d="M250.7 2.3h-35.1a2.1 2.1 0 00-1.7.7l-8 12.2c-.5.7-.1 1.8.6 1.8h35.6a2.6 2.6 0 001.9-.7l.5-.8 2-2.8c.4-.5-.8-.5-.8-.5h-11.8l-2.1 2.9h-11.3l7.2-10.9h11.9l-1.9 2.7h13a28.6 28.6 0 002.3-3.4c.5-1.2-2.3-1.2-2.3-1.2zM179.2 10.3l-5 6.7h-12.8a1 1 0 01-.9-.6 2.4 2.4 0 01.4-1.3l6.3-8.5 2.6-3.5a2.3 2.3 0 01.7-.6 1.5 1.5 0 011-.2h34.1c1.9 0 3.7 1.1 3.5 2.6a9.9 9.9 0 01-2.8 3.7 4 4 0 01-1.9.7 40.2 40.2 0 01-5.3.3h-1.6a21.4 21.4 0 015 1.1 2.4 2.4 0 011.2.9c.3.4.3.8 0 1.6l-1.2 1.8-1.4 2.1h-14.3l3.3-4.7a2.7 2.7 0 00.4-.8.7.7 0 00-.3-1c-.4-.4-11-.3-11-.3zm12.9-1.7a2.7 2.7 0 001.7-.6 9.8 9.8 0 001.2-1.5c1.1-1.5 1-2.3.1-2.3h-11.5l-3.2 4.4z"/><g fill-rule="evenodd"><path d="M107.1 15.2c-1.5 1.8.7 1.9 1.9 1.9h16.9a3.9 3.9 0 003.3-1.1l.2-.2H113c-.2 0-.5-.2-.3-.4l1-1.1 1-1.1a1.1 1.1 0 01.8-.3h16.4c.6-1.2-1.3-1.3-2.3-1.3h-16.9a4 4 0 00-3.3 1.1l-1.2 1.3zM11.3 16.8h5.3l3.9-1.3 5.9-2.1 6-2.1h-4.6a4.1 4.1 0 00-1.6.3l-5.5 1.9-5.5 1.8-1.3-1.4-1.4-1.5a3.1 3.1 0 00-2.5-1.1H5.1l1.2 1.4 1.3 1.4.9 1 .8.9a3 3 0 002 .8zM80.6 15.2c-1.5 1.8.7 1.9 1.9 1.9h18a3.9 3.9 0 003.3-1.1l1.2-1.3 1.1-1.2c1.5-1.8-.7-1.9-1.9-1.9h-18c-.9 0-2.5 0-3.3 1.1a7.4 7.4 0 00-1.2 1.3l-1.1 1.2zm7.6-2a1.1 1.1 0 01.8-.3h11.2c.3 0 .5.1.3.4a5.2 5.2 0 00-1 1.1l-1 1.1a1.1 1.1 0 01-.8.3H86.5c-.3 0-.5-.2-.3-.4l1-1.1zM56.5 17.1h22.6a1.4 1.4 0 01-.6-1.3H63.4l1.8-2.1 1.8-2.1h-4.9a1.5 1.5 0 00-1.3.6l-2.1 2.4a26.2 26.2 0 00-2.2 2.5zM133.7 17.1h18.2a12.5 12.5 0 005.9-1.5h-5.4a10.9 10.9 0 01-2.5.4h-12.4c-.3 0-.5-.1-.3-.4l.6-.7h11.8a1.4 1.4 0 001.1-.4l.4-.4h-12.4l.8-.9a1.4 1.4 0 01.9-.3h12.2a3.4 3.4 0 011.8.4h5.4c.2-.8-1.1-1.5-3.3-1.5h-19.2a4.4 4.4 0 00-3 .8l-.6.7a1.5 1.5 0 00-.5 1 2.8 2.8 0 00-1.1.8l-.6.7c-.9 1.2 1.1 1.3 2.2 1.3zM31.6 17.1h18.2a12.5 12.5 0 005.9-1.5h-5.4a10.9 10.9 0 01-2.5.4H35.4c-.3 0-.5-.1-.3-.4a4.6 4.6 0 00.7-.7h11.7a1.4 1.4 0 001.1-.4l.4-.4H36.7l.8-.9a1.1 1.1 0 01.8-.3h12.2a3.4 3.4 0 011.8.4h5.4c.3-.8-1.1-1.5-3.3-1.5H35.3a4.3 4.3 0 00-3 .8 1.3 1.3 0 00-.6.7 1.4 1.4 0 00-.6 1 2.5 2.5 0 00-1 .8l-.7.7c-.9 1.2 1.1 1.3 2.2 1.3z"/></g></g></svg>