<svg xmlns="http://www.w3.org/2000/svg" viewBox="0 0 253.92 69.4"><defs><style>.cls-1{fill:#8c9091}.cls-2{fill:#dd052c;fill-rule:evenodd}</style></defs><g id="Livello_2" data-name="Livello 2"><g id="Layer_1" data-name="Layer 1"><path class="cls-1" d="M105.13 9.68q.41 0 .24.3L88.25 36.21h16.59a5.91 5.91 0 004.92-2.64l10.17-15.34a18.74 18.74 0 0115.42-8.49l4.75-.06q.38 0 .21.3l-23 34.68a4.54 4.54 0 01-3.8 2H81.17a2.91 2.91 0 01-2.37-1.22l-4.92-6.92a2.8 2.8 0 01-.06-3.17L86.44 16A13.8 13.8 0 0197.8 9.76zM218.53 9.73q.38 0 .21.3l-8.55 13.1 15.95-.13a8 8 0 006.68-3.65l1-1.59a17.59 17.59 0 0114.54-8h5.23q.41 0 .24.3l-20.01 30.52a13.55 13.55 0 01-11.34 6.12h-7.11q-.41 0-.21-.3l8.92-13.56h-16.83a6.14 6.14 0 00-5.15 2.79l-2.83 4.22a14.79 14.79 0 01-12.1 6.71l-6.71.14h-.79l19.5-29.87a15.63 15.63 0 0113.16-7.1zM122.9 46.58l2.87-4.24a14.29 14.29 0 0112.1-6.27h26.45a2.64 2.64 0 002.24-1.16l1.44-2.39h-23.24c-1.49 0-2-.41-3-1.86L138.39 26a3.14 3.14 0 01.41-3.05l6.8-10.09c1.18-1.52 4.06-3 7.35-3h44.25l-.78 1.14A17 17 0 01182 18.5h-25.32a2.22 2.22 0 00-1.87.95l-2.6 3.46 23.24.05a3.62 3.62 0 012.67 1.9l3.88 5.28a2.24 2.24 0 01-.32 2.49L174 44.13a5.58 5.58 0 01-4.72 2.45z"/><path class="cls-2" d="M162.88 52.9c-1.66 2.52-3.34 5-5 7.55s-3.33 5-5 7.55a3 3 0 01-2.59 1.38h-25.9l5.41-8.22q2.7-4.12 5.42-8.23a3 3 0 012.58-1.39h24.3a1 1 0 01.75 1.36zm-13.37 2.19h-3.58a1.92 1.92 0 00-1.64.87l-3.24 4.93-3.25 4.92h4.81a1.29 1.29 0 001.12-.6q1.54-2.36 3.08-4.71l3.09-4.7a.53.53 0 00-.39-.71zM194.28 52.9l-5 7.55-5 7.55a3 3 0 01-2.59 1.38h-25.78l5.4-8.23c1.8-2.74 3.59-5.48 5.4-8.22a3 3 0 012.57-1.39h24.24a1 1 0 01.76 1.36zm-13.34 2.19h-3.57a1.89 1.89 0 00-1.63.87c-1.09 1.64-2.18 3.29-3.25 4.92s-2.16 3.29-3.23 4.93h4.8a1.29 1.29 0 001.12-.6l3.08-4.71 3.08-4.7a.55.55 0 00-.4-.71zM225.78 52.9l-5 7.55q-2.48 3.78-5 7.55a3 3 0 01-2.58 1.38h-25.79l5.39-8.23q2.7-4.11 5.41-8.22a3 3 0 012.57-1.39H225a1 1 0 01.76 1.36zm-13.35 2.19h-3.56a1.92 1.92 0 00-1.64.87L204 60.88c-1.07 1.65-2.16 3.29-3.23 4.93h4.8a1.31 1.31 0 001.12-.6q1.53-2.36 3.08-4.71l3.07-4.7a.53.53 0 00-.41-.71zM130.39 51.56h-10.6a2.34 2.34 0 00-1.09.29l-3.77 2c-.54.29-.56 1.26 0 1.26h2.9a.55.55 0 01.4.72l-8.8 13.57h9.21a3 3 0 002.57-1.4l5-7.55 5-7.55a1 1 0 00-.82-1.34z"/><path class="cls-1" d="M81.87 6.51c-1.36-2-2.51-3.6-3.34-4.68A4.64 4.64 0 0074.83 0H38.25a16.58 16.58 0 00-13 6.27 18 18 0 00-1.76 2.28l-6.82 10.31L0 43.19h7.13a14 14 0 0011.5-6.06l15.7-22.91a8.32 8.32 0 016.84-3.6h25.45l-4.75 7.28A7 7 0 0156 21.08H38a10.57 10.57 0 00-10.53 10.57h9.32A7.85 7.85 0 0143.18 35l7.91 11.13a28 28 0 0022.85 11.78L55.31 31.68H64a7 7 0 005.9-3.19l5.58-8.55 6.43-9.85a3.26 3.26 0 00-.04-3.58z"/></g></g></svg>