<svg xmlns="http://www.w3.org/2000/svg" viewBox="0 0 566.9 111.2"><g fill-rule="evenodd"><g fill="#838584"><path d="M150.8 27.9l8.6-8.5c3.3-3.4 9.8-5.5 16.6-5.5h129.1c7.5 0 14.4-2.3 18-5.9l7.7-7.9H82.4c-8.8 0-17 2.7-21.2 7L0 69.4h96.9c8 0 15.4-2.5 19.2-6.3l16.2-16.5c3-3 8.8-4.9 15.1-4.9h107.2c8.4 0 16.2-2.6 20.3-6.7l6.9-7zM352.8 0A15.6 15.6 0 00342 5l-8.5 8.9H462l-9.5 9.7a13.8 13.8 0 01-9.6 4.4H326.1a15.4 15.4 0 00-10.8 4.9l-8.5 8.9h127.3l-8.9 9.2a14 14 0 01-9.7 4.5H299.3a15.4 15.4 0 00-10.8 4.9l-8.7 8.9h211.4a19.7 19.7 0 0013.9-5.8l54.6-56.1 7.2-7.4z"/></g><g fill="#d5192d"><path d="M240.9 111.2l30.6-31.6a6.9 6.9 0 014.9-2.1h52.8a1.5 1.5 0 011 2.4l-4.2 4.3h-27.7a5.9 5.9 0 00-3.9 1.6l-4.9 5.2h40.9a1.5 1.5 0 011 2.5l-14.9 15.3a8.1 8.1 0 01-5.7 2.5zm35.4-6.7h13.2a4.6 4.6 0 003.1-1.3l3.5-3.7a1.1 1.1 0 00-.7-1.8h-10.3a5.1 5.1 0 00-3.8 1.6z"/><path d="M410.9 80L383 108.7a7.8 7.8 0 01-5.7 2.4h-25.9l24.3-25a1.1 1.1 0 00-.8-1.8h-10.3a4.9 4.9 0 00-3.6 1.5l-2.9 3h-28.7l8.9-9.2a7.1 7.1 0 015-2.1h66.6a1.5 1.5 0 011 2.5zM492.2 80l-4.2 4.3h-40.8a6.4 6.4 0 00-4.5 1.9l-2.6 2.5h40.1a1.5 1.5 0 011 2.5l-17 17.5a8 8 0 01-5.7 2.4h-69.1l8.5-8.8a7.8 7.8 0 015.6-2.4h23.2a1 1 0 01.6 1.6l-2.8 3h12.7a5.3 5.3 0 003.6-1.5l5.5-5.7a1.1 1.1 0 00-.7-1.8h-41l15.3-15.8a6.9 6.9 0 014.9-2.1h66.4a1.5 1.5 0 011 2.4z"/></g></g></svg>