<svg version="1.1" id="Layer_1" xmlns="http://www.w3.org/2000/svg" x="0" y="0" viewBox="0 0 696.7 125.4" xml:space="preserve"><style>.st0{fill:#fff}.st1{fill:#d0152b}.st2,.st3{fill-rule:evenodd;clip-rule:evenodd;fill:#fff}.st3{fill:#d0152b}</style><path class="st0" d="M103.2 67.2H64.6c-.8 0-1.5.3-2 .9 0 0-11.2 14-12.9 15.8s-.7 1.6-.3 2c.4.3 1 .5 1.5.4 0 0 36.6.1 38.7 0 .9 0 1.7-.3 2.3-1l.8-.9 3-3.6c.5-.7-.8-.7-.8-.7H81.8l-3.1 3.7H66.4l4.7-6H90l1.6-2.1h-19l4.9-5.9h12.9l-2.9 3.5h14.4c1.3-1.4 2.4-2.9 3.5-4.5.9-1.5-2.2-1.5-2.2-1.5M294.4 70.9h-12.8l-10.8 15.6h-16l11.4-15.6h-14.8l3-3.7h43zM323.9 73.1l-5.7 6.9-3.1 3.7h-13.2l11.4-14h13.5l-2.9 3.4zm17-5.9h-40.5c-.8 0-1.5.3-2 .9 0 0-11.3 14-13 15.8s-.7 1.6-.3 2c.4.3.9.5 1.4.4 0 0 39.2.1 41.3 0 .9 0 1.7-.3 2.3-1 .3-.3.6-.6.8-.9l8.7-11.2c1.6-1.9 3.2-3.9 3.6-4.5s-2.3-1.5-2.3-1.5zM37 75.3c.7 0 1.4-.3 2-.7.6-.6 1.2-1.3 1.7-2 1.7-1.9 1.7-2.9.7-2.9H28.7L24 75.3h13zm-14.8 2.3L15 86.2H.8c-.4 0-.8-.4-.8-.8-.1-.7.8-1.7.8-1.7l9.2-11 3.7-4.5c.3-.3.6-.6 1-.8.4-.2.8-.3 1.2-.2h37.7c2 0 3.8 1.4 3.2 3.3-1.1 1.9-2.5 3.5-4.2 4.8-.7.5-1.5.9-2.3 1-1.9.3-3.9.4-5.8.3h-1.9c1.8.2 3.6.7 5.3 1.4.5.2.9.7 1.1 1.2.2.5.2 1-.4 2-.6.9-1.2 1.7-1.9 2.4l-2 2.7H28.9l4.8-5.9c.3-.3.5-.7.7-1.1.2-.4.5-1 0-1.3s-12.2-.4-12.2-.4zM132.5 75.2c1.7-.3 3.1-1.3 4-2.8 1.4-2.1 1.5-2.5.5-2.5h-12.5l-4.4 5.4 12.4-.1zm-14 2.2l-7.3 8.8H97c-.4 0-.8-.4-.8-.8 0-.6.2-1.2.6-1.6l12.4-15.4 1-.8c.4-.2.8-.3 1.3-.4h37.8c1.5 0 2.9.4 3.5 1.5.2.5.3 1.1.1 1.7-.3 1.8-3.8 6.4-6.2 6.8-2 .2-4 .3-6 .2h-22.2zM167.5 75.3H183l2.9-3.4c.4-.5.8-1 .4-1.5s-1.1-.5-1.8-.5h-11c-1.1 0-2.1.6-2.7 1.5l-3.3 3.9zm-9 11h-13.8s-1.1.1-1-.7c.1-.6.3-1.2.8-1.6l8.9-10.9c1.3-1.7 3.4-4.2 6.1-5.3s5.4-1.1 8.3-1.1H196c2.9 0 4.8.3 5.6 1.6s.4 2.9-.8 4.6l-10.7 13.4h-15.9l7.1-8.8h-15.4l-7.4 8.8zM230.9 75.3c.7 0 1.4-.3 2-.7.6-.6 1.2-1.3 1.8-2 1.6-1.9 1.6-2.9.7-2.9h-12.8l-4.7 5.6h13zm-14.7 2.3l-7.3 8.6h-14.1c-.5 0-.8-.3-.9-.8.1-.6.4-1.2.8-1.7l9.2-11 3.7-4.5c.3-.3.6-.6 1-.8.4-.2.8-.3 1.2-.2h37.7c2.1 0 3.8 1.4 3.2 3.3-1.1 1.8-2.5 3.5-4.1 4.8-.7.5-1.5.9-2.4 1-1.9.3-3.9.4-5.8.3h-1.8c1.8.2 3.5.7 5.2 1.4.5.2.9.7 1.1 1.2.2.5.2 1-.4 2l-1.8 2.4-2.1 2.7h-15.8l4.9-5.9.7-1.1c.1-.4.4-1-.1-1.3s-12.1-.4-12.1-.4zM583.2 70.7h-15.9c-.9 0-1.7.1-3.2 1.7-.7.8-1.3 1.6-1.7 2.6 0 .4.5.6.8.6h29.3c2.4 0 4.1.9 3.8 2.1-.7 1.3-1.6 2.5-2.6 3.6-1.8 2.2-2.9 3.3-4.9 4s-5.5.8-7.9.8h-47.2s-1.1.1-1.4-.3.2-1.1.2-1.1l3.3-3.9h20l-2.2 2.1h16.8c.7 0 1.4-.2 2-.7 1-.8 1.8-1.8 2.5-2.8.9-1.1.6-1.7-.3-1.7h-29.9c-1.2.1-2.4-.1-3.5-.5-.7-.3-1.2-.8-1.1-1.4s2.3-3.1 2.9-3.8 1.9-2.6 3.4-3.3c3-1.3 6.3-1.1 8.7-1.1h45.2c.9.1 1.7.2 2.6.4.4.2.8.6.7 1l-.4.7-3.1 3.7h-18.5l2.2-2.8-.6.1zM411 67.8h-50.7c-.9-.1-1.7.2-2.4.8 0 0-10.5 13.6-12.1 15.3-.5.4-.6 1-.3 1.5.1.2.3.3.5.4.6.3 1.3.5 2 .4h50.9c1.7-.1 2.3-.5 2.7-.9.3-.3.6-.6.8-1 0 0 2.4-2.8 2.8-3.4s-1.2-.7-1.2-.7h-17.2l-2.9 3.6h-16.5L378 70.2h16.9l-2.7 3.4h18.9c1.5-1.8 3-3.7 3.3-4.2s-3.4-1.5-3.4-1.6M453.7 73.5l-5.6 6.6-3 3.6h-17.3l10.9-13.5h17.7l-2.7 3.3zm20.6-5.7h-53.2c-.9-.1-1.7.2-2.4.8 0 0-10.9 13.6-12.6 15.3-.5.4-.6 1-.3 1.5.1.2.3.3.5.4.6.3 1.3.5 2 .4h54.2c1.8-.1 2.4-.5 2.8-.9.3-.3.6-.6.8-1l8.3-10.8c1.5-1.8 3-3.7 3.3-4.2s-3.4-1.5-3.4-1.5zM660.7 67.8H610c-.8-.1-1.7.2-2.3.8 0 0-10.5 13.6-12.2 15.3-.5.4-.6 1-.3 1.5.1.2.3.3.5.4.6.3 1.3.5 2 .4h50.9c1 .1 2-.3 2.8-.9l.7-1 2.9-3.4c.4-.7-1.3-.7-1.3-.7h-17.1l-3 3.6h-16.3l4.5-5.8h24.7l1.6-2h-25.2l4-5.7h17.7l-2.7 3.4h19c1.2-1.3 2.2-2.7 3.2-4.2.7-1.5-3.4-1.5-3.4-1.5M515.5 75.6c.8 0 1.6-.2 2.3-.7.7-.6 1.3-1.2 1.8-1.9 1.6-1.9 1.4-2.8.1-2.8h-16.8l-4.5 5.4h17.1zm-18.8 2.2l-7 8.3h-18.6c-.6 0-1.1-.3-1.4-.8-.2-.6.6-1.6.6-1.6l8.9-10.6 3.7-4.3c.3-.4.7-.6 1.1-.8.4-.2.9-.3 1.4-.2H535c2.7 0 5.4 1.4 5.1 3.2s-2.2 3.5-4.1 4.6c-.8.5-1.7.9-2.7 1-2.8.3-6.7.3-7.6.3h-2.4c2.5.2 4.9.7 7.3 1.4.7.2 1.3.6 1.8 1.2.4.4.5.9 0 1.9-.5.8-1.1 1.6-1.7 2.3-1 1.2-2 2.6-2 2.6h-20.8l4.7-5.7c.3-.3.5-.7.6-1.1.1-.4.3-.9-.5-1.2s-16-.5-16-.5z"/><path class="st1" d="M687.6 15.2H559.1c-4.2 0-5.7 1.8-5.7 1.8s-21.3 28.6-24.8 33c-1.5 1.8.3 4.7 3 4.8h4.3s119.1.2 126-.1c4.4-.1 5.8-.9 6.7-1.8.6-.6 1.2-1.3 1.6-2.1 0 0 5.4-6.2 6.3-7.5s-3.2-1.3-3.2-1.3l-43.3-.1-6.5 7.7h-41.4l22.2-29.1h43.3l-5.8 7.2h47.7c2.6-2.9 4.9-6 7.1-9.2 1.2-3.2-9-3.2-9-3.2M475.8 32.1c2 .1 4-.4 5.7-1.5 1.4-.9 2.8-2.8 4-4.1 3.5-4.1 2.8-6.1-.5-6.1h-42.2l-10 11.6 43 .1zm-46.7 4.7l-15.5 17.9h-46.9s-2.5.1-3.6-1.7 1.1-3.5 1.1-3.5l19.7-22.8 7.9-9.3c.8-.7 1.6-1.3 2.6-1.7 1.2-.4 2.4-.5 3.6-.4h124.8c6.8 0 14 2.9 13.7 6.8-.1 1.5-4.5 7.7-9 10-2 1.2-4.3 1.9-6.7 2-6.9.8-16.7.8-18.9.8l-6.2-.2s11.6.9 18.7 2.9c1.8.5 3.5 1.4 4.9 2.7 1.1.9 1.5 1.9.5 4.1s-2.3 3.3-3.7 5l-4.2 5.4h-6.6l-45.8-.2 10.2-12.4c.6-.7 1-1.5 1.3-2.3.1-.8.4-2-1.6-2.7s-40.3-.4-40.3-.4z"/><path class="st2" d="M67.9.3L66.1 2c-.2.2-.3.5-.2.8.1.3.3.4.7.5l2.3.2h.1c6.2.6 9.1 2.1 4.9 6.3L49 33.1c-5.5 5.2-9.8 5.9-17.8 6.6l-3.1.3c-.3 0-.6.1-.8.3l-1.7 1.6c-.3.1-.4.4-.3.6 0 .1.1.1.1.2.1.3.4.4.8.4h93c.3 0 .7-.1.9-.3l1.9-1.7c.2-.2.3-.5.2-.8-.1-.3-.4-.4-.7-.4l-2.4-.2c-6.2-.7-9.1-2.2-4.9-6.4l7-6.5c.2-.2.6-.3.9-.3h48.2l25.2-5.3c.5-.1.9-.5.9-.8-.1-.4-.4-.8-.9-.7h-64.7c-.3 0-.6-.1-.8-.4-.2-.2-.2-.5 0-.7 0 0 .1-.1.2-.1l8.9-8.3c1.4-1.5 3.3-2.2 5.3-2H251l32-6.6c.5-.1.9-.4.9-.8s-.4-.8-.8-.8H68.8l-.9.3"/><path class="st2" d="M298.1 32.6h-54.3l-9.3 2.9c-1.1.2-.9 1.4.3 1.4h59.3c.3 0 .7.2.9.4.2.3.1.6-.1.8l-3.5 3.8c-5.2 5.5-10 7.4-23 7.4H125.7c-1.1 0-1.3 1.2-.2 1.4l23.3 4.9H159c53.2 0 101.7-.1 154.9 0 13.1 0 31.2-1.5 39.2-10.1l5.3-5.8c.9-1 .5-2.1-.9-2.6l-2.9-1c-.7-.2-.6-.8.4-.9s4.7-.6 6.1-1.2c2.4-.8 4.6-2.2 6.3-4l7.6-8.1c2.2-2.4.2-7.1-9.4-7.1H228.5l-23.4 4.8c-1.1.2-.9 1.4.3 1.4h100c2.9 0 4.8.8 2.9 2.8l-6.7 7.5c-.9.9-2.2 1.4-3.5 1.3"/><path class="st3" d="M603.3 116.1c-2.8 3.4-5.1 4.9-11.8 4.9H563c-.6 0-.5-.6-.3-.8l11.1-13.8c2.8-3.6 5-5.1 11.9-5.1h28.5c.5 0 .4.6.3.8l-11.2 14zm-39.1-19.2c-6.3 0-15.3 1-20.1 7l-13.3 16.5c-1.3 1.7-.8 5 3.8 5h78.3c6.4 0 15.4-1 20.2-7l13.2-16.5c1.3-1.7.9-5-3.8-5h-78.3zM495.7 116.1c-2.7 3.4-5 4.9-11.7 4.9h-28.6c-.5 0-.4-.6-.2-.8l11.1-13.8c2.8-3.6 5-5.1 11.8-5.1h28.6c.5 0 .4.6.2.8l-11.2 14zm-39-19.2c-6.4 0-15.3 1-20.2 7l-13.2 16.5c-1.3 1.7-.9 5 3.8 5h78.3c6.4 0 15.3-1 20.2-7l13.2-16.5c1.3-1.7.9-5-3.8-5h-78.3zM357.3 109.9c-.3-.1-.4-.3-.4-.6 0-.1 0-.2.1-.2 4.2-5.4 5.6-7.8 14-7.8h28.1c.6 0 .5.6.3.8l-5.5 6.9c-.4.5-1.1.9-1.8.9h-34.8zm-2 2.7h34.8c.4 0 .5.4.2.8-4.4 5.6-5.3 7.6-13.9 7.6h-28.1c-.5 0-.4-.6-.3-.8l5.4-6.7c.5-.6 1.2-.9 1.9-.9zm-5.7-15.7c-6.4 0-15.4 1-20.2 7l-3.6 4.5c-.7.9-.4 2.6 2 2.6-2.8.2-5.3 1.6-7 3.8l-4.6 5.6c-1.3 1.7-.9 5 3.8 5h77.8c6.4 0 15.4-1 20.2-7l3.6-4.5c.7-.9.5-2.6-2-2.6 2.4 0 4.4-.4 6-2.4l5.7-7c1.3-1.7.8-5-3.8-5h-77.9z"/></svg>