<svg version="1.1" id="Layer_1" xmlns="http://www.w3.org/2000/svg" x="0" y="0" viewBox="0 0 566.9 111.2" xml:space="preserve"><style>.st0,.st1{fill-rule:evenodd;clip-rule:evenodd;fill:#fff}.st1{fill:#d5192d}</style><path class="st0" d="M150.8 27.9l8.6-8.5c3.3-3.4 9.8-5.5 16.6-5.5h129.1c7.5 0 14.4-2.3 18-5.9l7.7-7.9H82.4c-8.8 0-17 2.7-21.2 7L0 69.4h96.9c8 0 15.4-2.5 19.2-6.3l16.2-16.5c3-3 8.8-4.9 15.1-4.9h107.2c8.4 0 16.2-2.6 20.3-6.7l6.9-7-131-.1zM352.8 0c-4.1.2-8 2-10.8 5l-8.5 8.9H462l-9.5 9.7c-2.5 2.7-5.9 4.3-9.6 4.4H326.1c-4.1.1-8 1.9-10.8 4.9l-8.5 8.9h127.3l-8.9 9.2c-2.5 2.7-6 4.3-9.7 4.5H299.3c-4.1.1-8 1.9-10.8 4.9l-8.7 8.9h211.4c5.2 0 10.2-2.1 13.9-5.8l54.6-56.1 7.2-7.4H352.8z"/><g><path class="st1" d="M337.2 80.1l-27.6 28.5c-1.8 1.8-4.2 2.7-6.7 2.6h-64.6l29.9-31.1c1.8-1.8 4.2-2.7 6.7-2.6h60.7c1.4 0 2.5 1.7 1.6 2.6zm-65 24.4h12.1c1.1 0 2.1-.4 2.9-1.2l4-4.1c.4-.5-.2-1.4-.9-1.4h-8.9c-1.6-.1-3.2.5-4.3 1.7l-4.9 5zm13-13.5h12.3c1.1 0 2.1-.4 2.9-1.1l4.1-4.3c.5-.4-.1-1.4-.8-1.4h-9.4c-1.6-.1-3.1.5-4.2 1.6l-4.9 5.2zM413.6 80L386 108.6c-1.8 1.7-4.2 2.7-6.7 2.6h-64.5l30-31.1c1.8-1.8 4.2-2.7 6.7-2.6H412c1.4 0 2.5 1.7 1.6 2.5zm-33.7 4.2H371c-1.6 0-3.1.5-4.2 1.6l-18 18.6h11.9c1.1 0 2.2-.4 3-1.2l17.1-17.8c.4-.3-.2-1.2-.9-1.2zM489.9 80l-27.6 28.6c-1.8 1.7-4.2 2.7-6.7 2.6h-64.5l30-31.1c1.8-1.8 4.2-2.7 6.7-2.6h60.5c1.4 0 2.5 1.7 1.6 2.5zm-33.7 4.2h-8.9c-1.6 0-3.1.5-4.3 1.6l-17.9 18.6H437c1.1.1 2.2-.4 2.9-1.2l17.2-17.8c.4-.3-.2-1.2-.9-1.2z"/></g></svg>