<svg xmlns="http://www.w3.org/2000/svg" viewBox="0 0 719.2 82.5"><g fill-rule="evenodd"><path d="M48.9 23.9l-6.2 10.4h34.4c20 0 25.9-10.4 6.3-10.4zm4.4-7.3h30.6c17.1 0 22.9-9.3 5.6-9.3H58.8zm-42.8 7.3l4.4-7.3h15.8L40.6 0h74.2c15.9 0 12.3 3.7 7.9 11.1-2.3 3.9-9.1 6.9-17.7 8.3 9.9 1.4 15.6 4.8 12.5 10.1-4.5 7.4-5.9 12.1-24.1 12.1H15.8l10.5-17.7zm154-7.3l5.6-9.3h30.4c18.1 0 12.1 9.3-5.5 9.3zm-37.5 25h22.6l10.5-17.7h15.6l15.6 17.7h26l-16.9-17.9c20.2-1.1 30-6.2 33.3-11.7C238 4.8 241.5.1 218.5.1h-66.7l-9.9 16.6h-12.4l-4.4 7.3h12.4zm108.6-17.2L250.2 0h22.6L259 23c-4.3 7.3 4.1 11.8 18 12.1s28.1-4.8 32.5-12.1l13.7-23h22.6l-14.7 24.6c-5.7 9.6-29 17.8-56.7 17.8h-14.6c-27.8 0-30.1-8.2-24.3-17.8zM357 41.6l20.5-34.3h-30.4l4.4-7.3h83.4l-4.4 7.3h-30.4l-20.4 34.3H357zm119.9-14.7h-26.8l21.4-13.2zm-74.4 14.7h23.9l12.6-7.8h40.6l3.3 7.8h24L487.8 0h-46.4l-4.1 6.9h23.8zm111.2 0h82.6l6.8-11.3h-22.6l-2.4 4h-37.4L561.2 0h-22.6zm98.1 0h82.6l6.7-11.3h-22.6l-2.4 4h-37.4l6.2-10.4h25.5l4.3-7.3h-25.5l5.7-9.3h37.3l-2.4 4h22.6L719.2 0h-82.6l-9.9 16.6h-12.4l-4.4 7.3h12.4z" fill="#8d8e8c"/><path d="M65.6 55.5h-6.5a2.9 2.9 0 00-2.6 1.2c-1.4 2.2-2.8 4.5-4.3 6.7L48 70.1h8.6a1.9 1.9 0 001.8-.8l4.1-6.4c1.3-2.2 2.6-4.3 4-6.4.2-.3-.4-1-.9-1m23.3-3l-6.6 10.3-6.5 10.3a4.8 4.8 0 01-4.2 1.8H25.1c2.4-3.7 4.8-7.4 7.1-11.2l7.1-11.2q1.2-1.8 4.2-1.8h43.6c1 0 2.1 1.2 1.8 1.8M120.1 55.5h-6.4a2.9 2.9 0 00-2.6 1.2l-4.3 6.7c-1.3 2.2-2.8 4.5-4.2 6.7h8.6a2.3 2.3 0 001.9-.8c1.3-2.2 2.6-4.3 4-6.4s2.7-4.3 4-6.4c.2-.3-.4-1-1-1m23.3-3l-6.5 10.3c-2.2 3.4-4.4 6.8-6.5 10.3a4.8 4.8 0 01-4.2 1.8H79.8l7.1-11.2c2.3-3.7 4.7-7.4 7-11.2a4.8 4.8 0 014.2-1.8h43.5c1 0 2.2 1.2 1.8 1.8M174.8 55.5h-6.4a2.9 2.9 0 00-2.6 1.2c-1.4 2.2-2.9 4.5-4.2 6.7l-4.3 6.7h8.6a2.3 2.3 0 001.9-.8c1.3-2.2 2.6-4.3 4-6.4s2.7-4.3 4-6.4c.2-.3-.4-1-1-1m23.3-3l-6.5 10.3c-2.2 3.4-4.4 6.8-6.5 10.3a4.8 4.8 0 01-4.2 1.8h-46.4l7.1-11.2c2.3-3.7 4.7-7.4 7-11.2a4.8 4.8 0 014.2-1.8h43.5c1 0 2.2 1.2 1.8 1.8M31.9 50.7h-19a3.7 3.7 0 00-1.8.4l-6.2 2.7a.9.9 0 00.4 1.7h5.2c.5 0 1.1.7 1 1L0 75h16.5c2 0 3.5-.7 4.2-1.9l6.5-10.3c2.2-3.4 4.4-6.8 6.5-10.3.5-.6-.8-1.8-1.8-1.8" fill="#fff"/><path d="M643.6 75.9c5-5.6 20.4-11.2 31.2-11.2 8.5 0 10.2 3.7 6.9 7.2S664 82.5 651.1 82.5c-9.1 0-10.3-3.5-7.5-6.6m30.1-9.5c-9 0-21.6 9.3-23.8 11.7s-.2 3.1 2.7 3.1c8.3 0 19.8-8.3 23-11.8s.3-3-1.9-3M482.1 67c.6 0 .7.8.1 1.2l-12.6 8.5c-1.7 1.3-2.8 2.1-3.3 2.6s.1 1.1.8 1.1 1.9-.2 10.8-2.8l-1.1 1.3c-9.7 3.1-13.2 3.6-15.5 3.6-4.7 0-2.9-2.5-2.1-3.3 2.6-2.9 10.8-8.4 16.8-12.3zM507.2 78.7c-7.7 2.2-13.5 3.8-19.6 3.8s-9.2-1.3-5.8-5c5.1-5.7 20.4-11.1 31.7-11.1 6.6 0 6.2 2.5 5.1 3.8-4.4 4.7-22.5 6.9-29.9 7.8-2.1 2.1.2 2.7 3.5 2.7s6.5-.5 14.9-2.9zm6.5-9.1c.5-.7.7-1.6-2.4-1.6-6.9 0-17.7 5.7-21.3 8.7 19.5-2.6 23.1-6.5 23.7-7.1M420.8 78.7c-7.7 2.2-13.5 3.8-19.6 3.8s-9.2-1.3-5.8-5c5.1-5.7 20.3-11.1 31.7-11.1 6.5 0 6.2 2.5 5 3.8-4.3 4.7-22.4 6.9-29.8 7.8-2.1 2.1.2 2.7 3.5 2.7s6.4-.5 14.9-2.9zm6.5-9.1c.5-.7.6-1.6-2.4-1.6-6.9 0-17.8 5.7-21.4 8.7 19.6-2.6 23.2-6.5 23.8-7.1M452.3 66.7L439 75.9c13.6-6.7 21.5-9 26.3-9.2 11.6-.4-1.3 2.6-7.2 3-3.7.3-14.1 5-26.8 12.6h-8.6L445 66.7zM632.4 65l-14.8 10.2c15.1-7.5 23.9-10 29.3-10.2 12.8-.5-1.5 2.9-8.1 3.3-4.1.3-15.7 5.6-29.8 14.1h-9.5L624.3 65zM591.6 76.1c-7.9 2.9-19.5 6.4-30.7 6.4-13.8 0-16.9-5.7-10.6-12.7 10.8-12.1 39.4-21.4 56.5-21.4 10 0 17.4 4.7 9.9 13-3.9 4.2-11.7 9.7-25.1 14.7m19.6-22.7c-1.3-1.9-4.9-2.6-8.5-2.6-18.8 0-35.9 11.3-44.7 21-5.4 6.1-3.9 9.5 4 9.5 17.6 0 39-12 46.2-19.9 2-2.3 4.5-5.6 3-8M342 78.2a76.4 76.4 0 0021 2.7c8.2 0 21.5-1.3 24.3-5.3 1.4-2.1-1.1-4-5.1-6.6l-4.4-2.5c-3-1.9-6.3-3.7-4.5-6.4C377.1 54.5 396 50 410.5 50c9 0 10.7 2.3 9.6 4s-9 5.1-14.7 6.7l-5.2-1.1c7.3-1.8 14.5-4.2 15.9-6.3s-.3-1.9-6.5-1.9c-10.3 0-27.1 3-30 7.4-1.2 1.8.4 2.5 3.6 4.3l5 2.9c3.7 2 8.2 5.1 5.9 8.6s-11.9 7.8-34.1 7.8c-11.5 0-21-1.4-23.4-2.1zM484.7 64.4h-4.4c-.9 0-.5-.8 1-1.8a10.5 10.5 0 014.2-1.7h4.4c.9 0 .4.8-1 1.7a9.6 9.6 0 01-4.2 1.8" fill="#836f40"/></g></svg>