<svg xmlns="http://www.w3.org/2000/svg" width="566.928" height="111.777" viewBox="0 0 150 29.574"><path d="M28.717 2.749c.297-.444.604-.884.9-1.328.31-.464.644-.916.961-1.375l.032-.045H39.82c1.238 0 3.117.042 4.242.553.723.33 1.055.879.558 1.592-.438.627-1.242 1.03-1.947 1.282-1.232.44-2.605.612-3.911.686l1.272 1.314 1.43 1.48.168.175h-4.318l-.03-.035c-.443-.487-.89-.97-1.325-1.461L34.694 4.16l-3.297.001c-.336.47-.67.94-.997 1.416-.33.488-.664.974-.996 1.46l-.032.046h-3.648l.111-.163 1-1.458c.296-.436.592-.87.898-1.3H25.55L25.657 4c.268-.407.548-.806.825-1.208l.031-.045h.053l2.151.002zm-20.889 0c.297-.442.604-.884.901-1.328.312-.465.641-.917.964-1.375l.03-.045h.054c3.924 0 7.847.014 11.773 0 1.201-.004 3.159.21 3.585 1.573.213.682-.05 1.409-.419 1.985-.669 1.046-1.82 1.874-2.923 2.414-1.52.746-3.225 1.105-4.915 1.11-3.95.014-7.901 0-11.85 0h-.197l.111-.163 1-1.458c.297-.436.595-.87.9-1.3H4.076l.1-.16c.256-.413.535-.81.815-1.208l.03-.044h.053zm48.26 3.041c.158.413.328.82.497 1.228l.027.065h3.892l-.068-.147A354.288 354.288 0 0158.89 3.5c-.51-1.146-1.021-2.291-1.528-3.437L57.335 0H49.6l-.031.045c-.266.378-.53.756-.786 1.142l-.105.16h3.984c-1.659.89-3.315 1.78-4.971 2.674-1.776.96-3.558 1.908-5.335 2.867l-.36.195h4.082l.024-.014a377.63 377.63 0 012.279-1.277l7.709-.002zm50.153-4.376l-5.227-.002h-.199l.113-.161.836-1.205.03-.046h14.481l-.116.163c-.274.4-.549.8-.815 1.204l-.033.046h-.055l-5.355-.001-1.914 2.79c-.651.945-1.301 1.887-1.948 2.835l-.03.045H102.33l.11-.162c.653-.944 1.295-1.893 1.95-2.836.618-.889 1.236-1.778 1.85-2.67zm9.45 2.744c-.3.43-.597.865-.892 1.3-.33.487-.661.975-.993 1.462l-.109.163h.197c4.685 0 9.37-.005 14.057-.005h.053l.03-.044c.213-.31.424-.624.636-.933.212-.314.425-.627.646-.933l.12-.165h-3.667l-.031.044c-.146.203-.284.411-.42.622h-7c.341-.506.69-1.01 1.038-1.509h4.516l.03-.046c.265-.407.541-.804.818-1.2l.113-.164H120.321c.31-.445.618-.891.93-1.338h6.974c-.12.166-.237.335-.348.505l-.105.162H131.428l.032-.047c.212-.31.422-.623.634-.933.214-.315.436-.625.66-.932l.12-.166h-14.31l-.03.045c-.318.458-.647.911-.955 1.375-.296.447-.611.882-.909 1.328l-2.149-.002h-.055l-.03.045c-.277.4-.554.798-.82 1.205l-.107.16h2.182zm28.218-.044l1.276 1.313c.483.495.964.991 1.454 1.479l.177.177h-4.326l-.03-.035c-.45-.487-.907-.967-1.349-1.462-.423-.477-.847-.951-1.273-1.427l-3.282.001c-.332.47-.663.939-.987 1.416-.33.487-.662.972-.99 1.461l-.03.046h-3.662l.11-.163c.33-.486.659-.974.99-1.46.297-.437.6-.869.905-1.3H130.69l.112-.163c.278-.401.557-.801.835-1.204l.03-.044h2.189c.297-.445.612-.878.909-1.324.307-.467.636-.92.952-1.379l.031-.044h.054L144.958 0c1.236 0 3.105.045 4.23.556.717.326 1.08.873.582 1.591-.433.623-1.257 1.031-1.954 1.28-1.231.44-2.602.613-3.907.687zm-68.246.046H72.858l.108-.161c.267-.399.535-.8.81-1.19l.03-.046h6.473l-.115.165c-.275.391-.54.79-.807 1.187-.33.488-.672.966-.995 1.46-.318.492-.659.969-.98 1.462l-.029.046h-.055c-4.006 0-8.011.014-12.016 0-1.186-.005-3.258-.2-3.66-1.574-.208-.722.14-1.49.557-2.067.745-1.03 1.946-1.844 3.086-2.379a11.158 11.158 0 014.76-1.06c3.97.012 7.939 0 11.908 0h.194l-.109.162c-.211.31-.432.614-.635.931-.2.316-.423.616-.62.934l-.03.047H77.072l.106-.16c.11-.17.222-.336.337-.503h-7.017c-1.703 0-3.958.732-5.006 2.144-.234.317-.45.75-.342 1.153.214.813 1.563.944 2.249.962h7.24c.338-.505.678-1.013 1.024-1.513zm8.56 1.509c.11-.168.224-.334.342-.499l.118-.162h-3.669l-.03.044c-.215.312-.436.619-.638.937-.202.315-.422.62-.623.934l-.1.16h9.965c1.686 0 3.446-.157 5.064-.65.823-.25 2.02-.73 2.527-1.455.146-.211.242-.46.214-.718-.155-1.38-3.259-1.498-4.289-1.497-1.646.005-3.293.002-4.94.005-.319 0-1.763-.047-1.798-.48-.022-.25.502-.482.691-.554.663-.25 1.452-.32 2.153-.32 2.017.002 4.032 0 6.046 0-.114.167-.225.335-.336.502l-.106.16h3.661l.03-.046c.2-.317.42-.618.621-.934.202-.317.421-.622.634-.931l.109-.163h-.196L90.326 0c-1.665 0-3.394.155-4.994.626-.81.238-2.018.703-2.527 1.404-.14.192-.238.42-.213.664.135 1.382 3.555 1.478 4.575 1.474l4.66-.002c.363-.002 1.71.064 1.752.56.023.282-.454.518-.669.605-.669.271-1.502.34-2.22.339l-6.467-.001zM33.318 1.414c-.312.443-.622.887-.925 1.336l5.83-.002c.684 0 2.4-.116 2.816-.718.404-.585-1.498-.616-1.749-.616h-5.972zm-20.904-.002c-.51.73-1.03 1.453-1.53 2.189-.472.693-.95 1.38-1.423 2.074l6.947-.002c1.09-.027 2.196-.26 3.176-.738.68-.332 1.407-.844 1.81-1.493.2-.317.346-.72.235-1.095-.244-.81-1.494-.935-2.198-.935h-7.017zm38.341 3.032c.62-.345 1.24-.69 1.857-1.036.702-.39 1.402-.783 2.1-1.173.148.373.296.748.445 1.12l.43 1.09h-4.832zm86.766-1.692a5373.3 5373.3 0 015.842-.003c.68 0 2.41-.115 2.825-.715.385-.594-1.51-.62-1.769-.62-1.99.002-3.98.002-5.97.002-.31.446-.62.89-.928 1.336" fill="#fff" fill-rule="evenodd"/><path d="M2.553 13.842a.553.553 0 01-.218-.191.45.45 0 01-.002-.503l.81-1.153c1.112-1.583 3.519-1.848 5.25-1.844 6.968.01 13.938 0 20.907 0 .451 0 .969.114 1.23.511.17.255.197.613.006.881l-1.29 1.812c-.289.408-.66.556-1.08.609.066.04.124.093.17.16.096.149.11.352 0 .504l-.81 1.154c-1.112 1.582-3.517 1.846-5.25 1.846H1.368c-.453 0-.97-.117-1.23-.512-.171-.259-.197-.615-.006-.882l1.041-1.46a2.37 2.37 0 011.379-.932zm34.6-3.691c-1.734-.004-4.13.267-5.25 1.844l-3.01 4.24c-.189.266-.163.622.006.88.263.396.779.513 1.23.513h21.013c1.736 0 4.132-.27 5.251-1.846l3.01-4.239c.19-.268.165-.626-.004-.88-.262-.398-.78-.512-1.23-.512-7.007 0-14.01.01-21.015 0zm28.869 0c7.001.01 14.009 0 21.013 0 .452 0 .97.114 1.23.511.171.255.196.613.007.881l-3.01 4.239c-1.121 1.577-3.517 1.846-5.249 1.846H58.998c-.453 0-.97-.117-1.23-.512-.17-.259-.198-.615-.007-.882l3.008-4.24c1.121-1.576 3.517-1.847 5.253-1.843zm-38.073 4.24c-.045-.066-.292-.116-.369-.141l-1.311-.432 1.375-.23c.444-.075.937-.082 1.232-.494l1.29-1.814c.072-.104.043-.254-.022-.351-.169-.256-.574-.314-.86-.314-6.97.001-13.94.01-20.907 0-1.553-.002-3.86.216-4.861 1.64l-.793 1.127a.21.21 0 00.013.03c.032.056.318.14.385.167l1.103.433-1.183.181c-.596.065-1.136.34-1.496.845l-1.041 1.46c-.074.103-.044.255.02.35.17.256.575.314.863.314h20.906c1.55 0 3.86-.215 4.86-1.64zm-5.72-2.713c.29-.32.045-.846-.38-.846h-7.548c-.89 0-1.864.069-2.605.66-.505.405-.867.996-1.236 1.52-.243.348-.01.824.405.824h9.343a.949.949 0 00.78-.409zm-13.787 4.42c-.292.32-.045.849.376.849h7.55c.851 0 1.838-.04 2.557-.593.515-.394.884-1.016 1.253-1.54.245-.35.013-.826-.405-.826h-9.341a.95.95 0 00-.78.409zm2.44-2.726h9.341a.48.48 0 00.394-.207l1.268-1.788.001.002c.017-.034-.007-.084-.052-.084h-7.549c-.768 0-1.67.045-2.311.559-.444.352-.815.955-1.141 1.418-.028.043-.003.1.048.1zm-.467 1.082a.471.471 0 00-.393.206L8.783 16.4v-.004c-.017.033.007.085.053.085h7.55c.723 0 1.653-.02 2.269-.493.44-.34.83-.979 1.15-1.435.03-.044.005-.099-.047-.099h-9.342zm26.721-3.838c-1.555-.003-3.853.22-4.861 1.639l-3.011 4.242c-.074.104-.043.256.02.351.169.256.576.314.86.314h21.017c1.553 0 3.853-.221 4.862-1.642l3.01-4.24c.074-.104.043-.254-.021-.351-.168-.256-.575-.314-.861-.314-7.005.002-14.01.01-21.015 0zm.07 5.356l2.502-3.534c.934-1.315 1.856-1.48 3.35-1.48h7.656c.422 0 .669.527.378.847l-2.528 3.57c-.912 1.285-1.872 1.444-3.324 1.444h-7.657c-.422 0-.668-.527-.378-.847zm10.987-.858c-.178.247-.37.489-.608.681-.64.514-1.56.559-2.328.559H37.6c-.044 0-.068-.05-.051-.084v.002L40.08 12.7c.185-.26.388-.52.637-.72.639-.512 1.556-.558 2.323-.558h7.657c.044 0 .068.051.051.085v-.003zm17.811-4.498c7.004.01 14.01 0 21.015-.001.286 0 .693.058.86.314.065.097.096.247.022.35l-3.01 4.241c-1.008 1.421-3.307 1.641-4.863 1.641l-21.015.001c-.287 0-.692-.058-.858-.314-.066-.095-.096-.247-.023-.351l3.01-4.242c1.008-1.419 3.306-1.642 4.862-1.64zm.069 5.356c-.29.32-.044.847.378.847h7.657c1.452 0 2.413-.159 3.324-1.443l2.527-3.57c.292-.321.046-.848-.378-.848h-7.657c-1.492 0-2.414.165-3.347 1.48zm10.988-.858l2.555-3.61.003.003c.015-.034-.009-.085-.053-.085h-7.659c-.765 0-1.68.046-2.321.558-.25.2-.453.46-.636.72l-2.533 3.572v-.002c-.018.033.006.084.05.084h7.658c.77 0 1.687-.045 2.328-.56.239-.191.43-.433.608-.68" fill="#bd1625" fill-rule="evenodd"/><path d="M143.828 10.175l-22.939.003c-.744-.002-.963.325-.963.325s-2.997 5.101-3.493 5.881c-.215.336.186.848.676.865l.755.02s21.276.032 22.506-.014c.775-.028.996-.17 1.146-.337.264-.296.98-1.423 1.136-1.701.126-.238-.617-.24-.617-.24l-7.737-.037-.937 1.378-7.39-.023 3.145-5.183 7.723-.026-.846 1.279 8.536.03c.468-.692.94-1.424.994-1.65.136-.566-1.695-.57-1.695-.57M98.85 14.037l-2.265 3.202h-8.373s-.46.001-.691-.31c-.176-.232.097-.624.097-.624l2.86-4.073 1.165-1.658s.161-.214.404-.315c.24-.104.635-.066.635-.066h22.272c1.23 0 2.582.519 2.642 1.22.022.265-.581 1.366-1.313 1.783-.075.043-.39.276-1.141.364-1.217.141-2.96.13-3.363.13l-1.115-.03s2.097.163 3.435.524c.448.123.762.317.951.465.219.162.32.356.198.741-.074.243-.325.592-.518.896-.29.458-.605.968-.605.968l-1.179-.005-8.173-.045 1.469-2.207s.148-.212.161-.404c.008-.156.024-.357-.355-.493-.31-.115-7.198-.063-7.198-.063zm8.192-.834c.135 0 .567.005.982-.284.22-.154.422-.484.598-.732.51-.716.317-1.086-.27-1.086h-7.533l-1.456 2.081z" fill="#bd1625"/><path d="M89.686 19.878l6.657-.005c2.216-.002 6.383-.02 8.6-.022-.978.247-1.408.842-1.582 1.257-4.078.006-8.985.018-13.077.023-.133 0-.279.109-.332.242-.139.349-.337.696-.475 1.043-.053.133.006.242.139.24l8.255-.014c1.559-.002 2.567.114 3.019.352.452.236.544.672.278 1.306-.135.321-.3.643-.435.962a2.254 2.254 0 01-1.367 1.3c-.651.236-1.747.365-3.3.37l-6.601.025c-2.202.009-4.835.01-7.043.019.173-.444.467-.89.64-1.335 4.062-.01 8.424-.017 12.486-.029.127 0 .273-.108.328-.24l.459-1.116c.054-.131-.003-.239-.13-.239l-8.264.018c-1.555.004-2.568-.113-3.025-.35-.454-.235-.557-.676-.307-1.319.102-.262.234-.523.336-.786.253-.648.764-1.094 1.407-1.336.658-.241 1.773-.365 3.334-.366" fill="#786638"/><path d="M126.79 19.893l6.53-.006 6.502-.005-.593 1.233-11.965.015c-.123 0-.275.108-.335.24l-.473 1.03c-.06.13-.007.238.115.238l8.026-.014c1.518-.003 2.5.11 2.928.346.424.233.492.664.19 1.29l-.457.951a2.437 2.437 0 01-1.424 1.285c-.65.232-1.735.352-3.241.357-3.09.01-6.19.023-9.282.035-.662.003-2.145.007-4.096.01l.597-1.395 3.658-.005c2.912-.006 5.82-.012 8.728-.02.122 0 .273-.107.335-.237.173-.367.321-.656.495-1.023.062-.13.01-.238-.113-.237l-8.003.017c-1.519.004-2.496-.11-2.93-.346-.43-.232-.503-.667-.218-1.303.117-.258.232-.517.35-.775.293-.642.76-1.081 1.41-1.32.656-.238 1.748-.36 3.266-.361" fill="#fcffff"/><path d="M120.053 25.868l-.285.664c1.18-.002 2.361-.003 3.541-.008l9.282-.036c.9-.002 2.267-.03 3.12-.336.558-.199.96-.564 1.218-1.098l.457-.952c.127-.262.285-.636-.037-.812-.534-.294-2.147-.303-2.751-.302l-8.027.015c-.407 0-.61-.4-.446-.755l.472-1.03c.114-.25.388-.452.667-.453l11.735-.015.242-.502-5.922.004-6.528.005c-.905 0-2.286.027-3.142.34-.566.205-.954.582-1.203 1.128-.118.258-.233.517-.35.774-.123.274-.269.654.06.833.545.295 2.142.304 2.755.302l8.004-.018c.41-.001.61.402.443.757-.162.343-.334.681-.496 1.023-.115.246-.387.446-.663.446-2.91.009-5.818.015-8.728.02-1.14.003-2.278.005-3.418.006" fill="#bd1625" fill-rule="evenodd"/><path d="M123.675 19.86c-1.265.29-1.622.775-1.845 1.277-3.723.004-9.662.014-13.4.018-.246 0-.537.212-.648.473-.5 1.165-1.14 2.27-1.64 3.434-.109.258 0 .467.25.466l13.045-.033-.615 1.41c-2.72.008-6.838.015-8.908.022-2.07.005-4.295.012-7.024.021-.857.004-1.234-.77-.859-1.664.517-1.224 1.19-2.463 1.73-3.745.383-.91 1.405-1.654 2.272-1.655 2.766-.002 4.896 0 7.02-.005z" fill="#fcffff"/><path d="M89.686 19.878l6.657-.005c2.216-.002 6.383-.02 8.6-.022-.978.247-1.408.842-1.582 1.257-4.078.006-8.985.018-13.077.023-.133 0-.279.109-.332.242-.139.349-.337.696-.475 1.043-.053.133.006.242.139.24l8.255-.014c1.559-.002 2.567.114 3.019.352.452.236.544.672.278 1.306-.135.321-.3.643-.435.962a2.254 2.254 0 01-1.367 1.3c-.651.236-1.747.365-3.3.37l-6.601.025c-2.202.009-4.835.01-7.043.019.173-.444.467-.89.64-1.335 4.062-.01 8.424-.017 12.486-.029.127 0 .273-.108.328-.24l.459-1.116c.054-.131-.003-.239-.13-.239l-8.264.018c-1.555.004-2.568-.113-3.025-.35-.454-.235-.557-.676-.307-1.319.102-.262.234-.523.336-.786.253-.648.764-1.094 1.407-1.336.658-.241 1.773-.365 3.334-.366" fill="#fcffff"/><path d="M83.303 26.005c-.095.205-.205.403-.309.604 2.157-.008 4.313-.01 6.47-.016 2.2-.008 4.4-.018 6.6-.025.919-.003 2.308-.035 3.178-.348.55-.2.929-.56 1.155-1.098.136-.326.298-.64.434-.964.129-.305.238-.66-.11-.842-.575-.3-2.206-.31-2.849-.308l-8.256.014c-.403.001-.622-.38-.478-.74.142-.357.334-.689.475-1.044a.757.757 0 01.67-.473c4.283-.004 8.566-.015 12.85-.02.108-.199.242-.374.397-.527-2.395.006-4.79.018-7.186.02l-6.658.005c-.91 0-2.348.024-3.208.343-.547.203-.979.577-1.193 1.126-.104.267-.232.521-.337.787-.122.313-.216.68.135.863.582.301 2.208.31 2.858.309l8.263-.019c.4-.001.616.384.468.743l-.459 1.117c-.106.258-.38.464-.664.465-4.081.011-8.164.019-12.246.028" fill="#bd1625" fill-rule="evenodd"/><g fill="#fcffff"><path d="M134.04 29.55h-.435l.168-.41.093-.226a.056.056 0 00-.018-.066.056.056 0 00-.068-.002c-.13.095-.26.19-.386.284-.163.12-.33.24-.493.361a.056.056 0 01-.045.01.058.058 0 01-.038-.028c-.064-.115-.128-.228-.188-.343-.052-.098-.109-.196-.164-.294a.056.056 0 00-.102.007c-.04.099-.077.198-.118.297l-.169.41h-.43c.093-.224.188-.448.277-.672l.272-.673h.449c.066.13.143.259.21.388.056.111.125.222.188.333a.058.058 0 00.037.027c.017.004.032 0 .046-.01.158-.117.321-.234.477-.35.173-.13.356-.26.534-.39h.454c-.091.225-.184.45-.276.674l-.276.672M131.887 28.52h-1.489a.055.055 0 00-.052.035 3.43 3.43 0 00-.037.088.055.055 0 00.006.053c.01.017.028.025.047.025h1.343c-.043.104-.081.21-.124.313l-1.395.002a.056.056 0 00-.053.035l-.036.088a.055.055 0 00.005.054c.011.015.028.024.047.024h1.448c-.042.105-.086.21-.129.314l-1.793.001a.111.111 0 01-.094-.05.11.11 0 01-.011-.105c.071-.174.143-.345.213-.518l.248-.603a.111.111 0 01.105-.07l1.88-.001-.129.315M129.776 28.52h-.79a.056.056 0 00-.053.036l-.198.48-.212.516h-.425a260.342 260.342 0 01.393-.953.055.055 0 00-.005-.053.057.057 0 00-.047-.025h-.744l.13-.314h2.08l-.129.313M127.26 29.138a.617.617 0 01-.258.29.788.788 0 01-.427.125h-1.587l.13-.314h1.587c.055 0 .099-.034.127-.1.027-.068.011-.102-.044-.102h-1.152c-.155 0-.262-.042-.328-.125-.061-.079-.073-.174-.026-.287a.646.646 0 01.271-.294.79.79 0 01.426-.124h1.582l-.13.314h-1.587c-.06 0-.105.035-.132.103-.028.066-.012.1.048.1l1.153-.001c.154 0 .262.042.328.125.062.08.066.176.02.29M125.107 28.625a.64.64 0 01-.253.287.793.793 0 01-.432.126h-.389c-.035.087-.07.173-.107.258-.035.086-.07.173-.107.259h-.43c.037-.086.073-.173.108-.259l.106-.257h-.394c-.154 0-.26-.043-.322-.125-.06-.08-.072-.175-.025-.288l.086-.208.086-.208h.43c-.03.069-.058.139-.087.208l-.086.208c-.028.066-.012.099.048.099l1.213-.001c.06 0 .104-.033.131-.1.03-.068.057-.138.087-.207l.086-.208h.423c-.027.07-.057.139-.086.208l-.086.208M122.474 29.14a.643.643 0 01-.26.29.797.797 0 01-.432.125l-1.583.001c.045-.105.088-.21.131-.314l1.583-.001c.06 0 .103-.034.131-.1.028-.067.012-.101-.048-.101h-1.153c-.15 0-.262-.042-.327-.125-.061-.079-.067-.175-.02-.288a.648.648 0 01.266-.293.792.792 0 01.426-.124h1.582l-.13.313c-.53 0-1.058 0-1.588.002-.06 0-.098.034-.127.102-.028.066-.016.1.044.1l1.157-.001c.15 0 .264.04.328.125.059.078.066.176.02.29M97.161 28.537h-.753a.11.11 0 00-.104.069l-.19.447-.22.516h-.43l.22-.516.186-.437a.053.053 0 00-.005-.053.055.055 0 00-.047-.026l-.738.001.134-.314 2.081-.001-.134.314M87.165 29.159a.634.634 0 01-.264.29.798.798 0 01-.429.125h-1.587l.135-.314h1.587c.06 0 .105-.034.134-.1.028-.068.013-.102-.047-.102l-1.153.001c-.155 0-.26-.042-.325-.126-.06-.078-.06-.175-.012-.288a.643.643 0 01.266-.293.799.799 0 01.427-.123l1.583-.001c-.046.104-.09.21-.135.314h-1.587c-.06 0-.105.035-.134.103-.028.066-.013.1.047.1l1.153-.001c.155 0 .262.041.326.125.06.08.063.177.015.29M94.316 29.57h-.593c-.102-.125-.203-.25-.3-.377-.072-.095-.148-.19-.222-.285a.056.056 0 01-.006-.06.056.056 0 01.051-.032h.987c.075 0 .135-.047.174-.14.04-.092.02-.138-.055-.138l-1.29.001a.055.055 0 00-.052.034l-.206.482-.22.516h-.43l.287-.673.288-.673 1.781-.001c.16 0 .273.048.33.141.052.086.053.19.001.312a.724.724 0 01-.268.311.78.78 0 01-.449.142h-.164l.175.22c.06.074.123.147.181.22M91.975 29.57l-.43.001.092-.213.09-.213h-1.123l.135-.314h1.123l.08-.19c.03-.067.014-.102-.046-.101h-1.212c-.06 0-.105.034-.134.102-.066.155-.133.31-.198.466l-.2.464h-.428c.065-.155.132-.31.198-.464l.199-.467a.672.672 0 01.27-.293.797.797 0 01.427-.122h1.213c.154 0 .26.041.321.122.063.082.069.18.02.292l-.199.466-.198.465M89.543 29.572h-.424l.175-.409c.033-.075.065-.153.097-.23a.056.056 0 00-.017-.067.056.056 0 00-.068 0c-.132.095-.263.192-.392.287l-.498.361c-.014.01-.029.014-.045.01a.058.058 0 01-.038-.028c-.063-.114-.126-.228-.182-.343a22.94 22.94 0 00-.148-.297.056.056 0 00-.053-.031.06.06 0 00-.05.035l-.128.304-.176.41h-.43l.29-.673.288-.673h.45c.064.13.136.26.197.388.053.112.116.217.177.326.008.015.02.024.037.028.016.004.031 0 .045-.01.16-.115.326-.227.485-.344.175-.13.36-.26.54-.39h.444l-.288.674-.288.672M112.023 28.53h-.75a.11.11 0 00-.103.069l-.187.446-.216.517h-.43l.217-.517.183-.437a.051.051 0 00-.005-.053.056.056 0 00-.047-.025h-.743l.131-.314h2.082c-.044.105-.089.209-.132.314M115.899 29.559h-.43l.108-.258.075-.18a.056.056 0 00-.053-.078h-.98a.054.054 0 00-.051.035l-.094.224-.108.258h-.424l.281-.673.282-.673h.424l-.108.257-.075.18a.053.053 0 00.005.053c.01.017.028.025.047.025h.98a.057.057 0 00.053-.035l.093-.223.108-.258h.429l-.282.673-.28.672M113.762 29.56h-1.418c-.165 0-.29-.039-.374-.12-.082-.08-.097-.183-.047-.305l.104-.247c.035-.082.064-.165.098-.247a.639.639 0 01.303-.305c.153-.08.31-.121.475-.121h1.422l-.131.313h-1.422c-.11 0-.186.038-.217.113a6.853 6.853 0 00-.098.247c-.033.082-.07.164-.104.246-.031.074.013.112.122.112h1.418l-.131.314M109.509 29.146a.652.652 0 01-.274.293.79.79 0 01-.426.123h-1.213c-.155 0-.262-.04-.328-.122-.065-.082-.069-.18-.021-.293l.196-.465.195-.465h.435l-.196.465-.196.465c-.029.067-.013.102.047.102l1.218-.001c.06 0 .104-.034.133-.102l.196-.465.194-.465h.43l-.195.465-.195.465M106.892 29.563l-1.752.001a.055.055 0 01-.047-.025.054.054 0 01-.005-.053l.25-.594.284-.674h.43l-.218.516c-.06.146-.123.291-.185.437a.054.054 0 00.006.054c.01.015.027.025.047.025h1.322l-.132.313M104.874 29.565h-1.417c-.17 0-.291-.04-.374-.12-.084-.083-.096-.184-.045-.306a28.849 28.849 0 01.21-.494.628.628 0 01.302-.304 1 1 0 01.475-.122h1.417l-.132.314h-1.417c-.115 0-.186.039-.217.113l-.105.246-.104.247c-.031.074.007.112.122.112l1.418-.001c-.043.105-.088.21-.133.314"/></g><g><path d="M28.717 2.749c.297-.444.604-.884.9-1.328.31-.464.644-.916.961-1.375l.032-.045H39.82c1.238 0 3.117.042 4.242.553.723.33 1.055.879.558 1.592-.438.627-1.242 1.03-1.947 1.282-1.232.44-2.605.612-3.911.686l1.272 1.314 1.43 1.48.168.175h-4.318l-.03-.035c-.443-.487-.89-.97-1.325-1.461L34.694 4.16l-3.297.001c-.336.47-.67.94-.997 1.416-.33.488-.664.974-.996 1.46l-.032.046h-3.648l.111-.163 1-1.458c.296-.436.592-.87.898-1.3H25.55L25.657 4c.268-.407.548-.806.825-1.208l.031-.045h.053l2.151.002zm-20.889 0c.297-.442.604-.884.901-1.328.312-.465.641-.917.964-1.375l.03-.045h.054c3.924 0 7.847.014 11.773 0 1.201-.004 3.159.21 3.585 1.573.213.682-.05 1.409-.419 1.985-.669 1.046-1.82 1.874-2.923 2.414-1.52.746-3.225 1.105-4.915 1.11-3.95.014-7.901 0-11.85 0h-.197l.111-.163 1-1.458c.297-.436.595-.87.9-1.3H4.076l.1-.16c.256-.413.535-.81.815-1.208l.03-.044h.053zm48.26 3.041c.158.413.328.82.497 1.228l.027.065h3.892l-.068-.147A354.288 354.288 0 0158.89 3.5c-.51-1.146-1.021-2.291-1.528-3.437L57.335 0H49.6l-.031.045c-.266.378-.53.756-.786 1.142l-.105.16h3.984c-1.659.89-3.315 1.78-4.971 2.674-1.776.96-3.558 1.908-5.335 2.867l-.36.195h4.082l.024-.014a377.63 377.63 0 012.279-1.277l7.709-.002zm50.153-4.376l-5.227-.002h-.199l.113-.161.836-1.205.03-.046h14.481l-.116.163c-.274.4-.549.8-.815 1.204l-.033.046h-.055l-5.355-.001-1.914 2.79c-.651.945-1.301 1.887-1.948 2.835l-.03.045H102.33l.11-.162c.653-.944 1.295-1.893 1.95-2.836.618-.889 1.236-1.778 1.85-2.67zm9.45 2.744c-.3.43-.597.865-.892 1.3-.33.487-.661.975-.993 1.462l-.109.163h.197c4.685 0 9.37-.005 14.057-.005h.053l.03-.044c.213-.31.424-.624.636-.933.212-.314.425-.627.646-.933l.12-.165h-3.667l-.031.044c-.146.203-.284.411-.42.622h-7c.341-.506.69-1.01 1.038-1.509h4.516l.03-.046c.265-.407.541-.804.818-1.2l.113-.164H120.321c.31-.445.618-.891.93-1.338h6.974c-.12.166-.237.335-.348.505l-.105.162H131.428l.032-.047c.212-.31.422-.623.634-.933.214-.315.436-.625.66-.932l.12-.166h-14.31l-.03.045c-.318.458-.647.911-.955 1.375-.296.447-.611.882-.909 1.328l-2.149-.002h-.055l-.03.045c-.277.4-.554.798-.82 1.205l-.107.16h2.182zm28.218-.044l1.276 1.313c.483.495.964.991 1.454 1.479l.177.177h-4.326l-.03-.035c-.45-.487-.907-.967-1.349-1.462-.423-.477-.847-.951-1.273-1.427l-3.282.001c-.332.47-.663.939-.987 1.416-.33.487-.662.972-.99 1.461l-.03.046h-3.662l.11-.163c.33-.486.659-.974.99-1.46.297-.437.6-.869.905-1.3H130.69l.112-.163c.278-.401.557-.801.835-1.204l.03-.044h2.189c.297-.445.612-.878.909-1.324.307-.467.636-.92.952-1.379l.031-.044h.054L144.958 0c1.236 0 3.105.045 4.23.556.717.326 1.08.873.582 1.591-.433.623-1.257 1.031-1.954 1.28-1.231.44-2.602.613-3.907.687zm-68.246.046H72.858l.108-.161c.267-.399.535-.8.81-1.19l.03-.046h6.473l-.115.165c-.275.391-.54.79-.807 1.187-.33.488-.672.966-.995 1.46-.318.492-.659.969-.98 1.462l-.029.046h-.055c-4.006 0-8.011.014-12.016 0-1.186-.005-3.258-.2-3.66-1.574-.208-.722.14-1.49.557-2.067.745-1.03 1.946-1.844 3.086-2.379a11.158 11.158 0 014.76-1.06c3.97.012 7.939 0 11.908 0h.194l-.109.162c-.211.31-.432.614-.635.931-.2.316-.423.616-.62.934l-.03.047H77.072l.106-.16c.11-.17.222-.336.337-.503h-7.017c-1.703 0-3.958.732-5.006 2.144-.234.317-.45.75-.342 1.153.214.813 1.563.944 2.249.962h7.24c.338-.505.678-1.013 1.024-1.513zm8.56 1.509c.11-.168.224-.334.342-.499l.118-.162h-3.669l-.03.044c-.215.312-.436.619-.638.937-.202.315-.422.62-.623.934l-.1.16h9.965c1.686 0 3.446-.157 5.064-.65.823-.25 2.02-.73 2.527-1.455.146-.211.242-.46.214-.718-.155-1.38-3.259-1.498-4.289-1.497-1.646.005-3.293.002-4.94.005-.319 0-1.763-.047-1.798-.48-.022-.25.502-.482.691-.554.663-.25 1.452-.32 2.153-.32 2.017.002 4.032 0 6.046 0-.114.167-.225.335-.336.502l-.106.16h3.661l.03-.046c.2-.317.42-.618.621-.934.202-.317.421-.622.634-.931l.109-.163h-.196L90.326 0c-1.665 0-3.394.155-4.994.626-.81.238-2.018.703-2.527 1.404-.14.192-.238.42-.213.664.135 1.382 3.555 1.478 4.575 1.474l4.66-.002c.363-.002 1.71.064 1.752.56.023.282-.454.518-.669.605-.669.271-1.502.34-2.22.339l-6.467-.001zM33.318 1.414c-.312.443-.622.887-.925 1.336l5.83-.002c.684 0 2.4-.116 2.816-.718.404-.585-1.498-.616-1.749-.616h-5.972zm-20.904-.002c-.51.73-1.03 1.453-1.53 2.189-.472.693-.95 1.38-1.423 2.074l6.947-.002c1.09-.027 2.196-.26 3.176-.738.68-.332 1.407-.844 1.81-1.493.2-.317.346-.72.235-1.095-.244-.81-1.494-.935-2.198-.935h-7.017zm38.341 3.032c.62-.345 1.24-.69 1.857-1.036.702-.39 1.402-.783 2.1-1.173.148.373.296.748.445 1.12l.43 1.09h-4.832zm86.766-1.692a5373.3 5373.3 0 015.842-.003c.68 0 2.41-.115 2.825-.715.385-.594-1.51-.62-1.769-.62-1.99.002-3.98.002-5.97.002-.31.446-.62.89-.928 1.336" fill="#fff" fill-rule="evenodd"/><path d="M2.553 13.842a.553.553 0 01-.218-.191.45.45 0 01-.002-.503l.81-1.153c1.112-1.583 3.519-1.848 5.25-1.844 6.968.01 13.938 0 20.907 0 .451 0 .969.114 1.23.511.17.255.197.613.006.881l-1.29 1.812c-.289.408-.66.556-1.08.609.066.04.124.093.17.16.096.149.11.352 0 .504l-.81 1.154c-1.112 1.582-3.517 1.846-5.25 1.846H1.368c-.453 0-.97-.117-1.23-.512-.171-.259-.197-.615-.006-.882l1.041-1.46a2.37 2.37 0 011.379-.932zm34.6-3.691c-1.734-.004-4.13.267-5.25 1.844l-3.01 4.24c-.189.266-.163.622.006.88.263.396.779.513 1.23.513h21.013c1.736 0 4.132-.27 5.251-1.846l3.01-4.239c.19-.268.165-.626-.004-.88-.262-.398-.78-.512-1.23-.512-7.007 0-14.01.01-21.015 0zm28.869 0c7.001.01 14.009 0 21.013 0 .452 0 .97.114 1.23.511.171.255.196.613.007.881l-3.01 4.239c-1.121 1.577-3.517 1.846-5.249 1.846H58.998c-.453 0-.97-.117-1.23-.512-.17-.259-.198-.615-.007-.882l3.008-4.24c1.121-1.576 3.517-1.847 5.253-1.843zm-38.073 4.24c-.045-.066-.292-.116-.369-.141l-1.311-.432 1.375-.23c.444-.075.937-.082 1.232-.494l1.29-1.814c.072-.104.043-.254-.022-.351-.169-.256-.574-.314-.86-.314-6.97.001-13.94.01-20.907 0-1.553-.002-3.86.216-4.861 1.64l-.793 1.127a.21.21 0 00.013.03c.032.056.318.14.385.167l1.103.433-1.183.181c-.596.065-1.136.34-1.496.845l-1.041 1.46c-.074.103-.044.255.02.35.17.256.575.314.863.314h20.906c1.55 0 3.86-.215 4.86-1.64zm-5.72-2.713c.29-.32.045-.846-.38-.846h-7.548c-.89 0-1.864.069-2.605.66-.505.405-.867.996-1.236 1.52-.243.348-.01.824.405.824h9.343a.949.949 0 00.78-.409zm-13.787 4.42c-.292.32-.045.849.376.849h7.55c.851 0 1.838-.04 2.557-.593.515-.394.884-1.016 1.253-1.54.245-.35.013-.826-.405-.826h-9.341a.95.95 0 00-.78.409zm2.44-2.726h9.341a.48.48 0 00.394-.207l1.268-1.788.001.002c.017-.034-.007-.084-.052-.084h-7.549c-.768 0-1.67.045-2.311.559-.444.352-.815.955-1.141 1.418-.028.043-.003.1.048.1zm-.467 1.082a.471.471 0 00-.393.206L8.783 16.4v-.004c-.017.033.007.085.053.085h7.55c.723 0 1.653-.02 2.269-.493.44-.34.83-.979 1.15-1.435.03-.044.005-.099-.047-.099h-9.342zm26.721-3.838c-1.555-.003-3.853.22-4.861 1.639l-3.011 4.242c-.074.104-.043.256.02.351.169.256.576.314.86.314h21.017c1.553 0 3.853-.221 4.862-1.642l3.01-4.24c.074-.104.043-.254-.021-.351-.168-.256-.575-.314-.861-.314-7.005.002-14.01.01-21.015 0zm.07 5.356l2.502-3.534c.934-1.315 1.856-1.48 3.35-1.48h7.656c.422 0 .669.527.378.847l-2.528 3.57c-.912 1.285-1.872 1.444-3.324 1.444h-7.657c-.422 0-.668-.527-.378-.847zm10.987-.858c-.178.247-.37.489-.608.681-.64.514-1.56.559-2.328.559H37.6c-.044 0-.068-.05-.051-.084v.002L40.08 12.7c.185-.26.388-.52.637-.72.639-.512 1.556-.558 2.323-.558h7.657c.044 0 .068.051.051.085v-.003zm17.811-4.498c7.004.01 14.01 0 21.015-.001.286 0 .693.058.86.314.065.097.096.247.022.35l-3.01 4.241c-1.008 1.421-3.307 1.641-4.863 1.641l-21.015.001c-.287 0-.692-.058-.858-.314-.066-.095-.096-.247-.023-.351l3.01-4.242c1.008-1.419 3.306-1.642 4.862-1.64zm.069 5.356c-.29.32-.044.847.378.847h7.657c1.452 0 2.413-.159 3.324-1.443l2.527-3.57c.292-.321.046-.848-.378-.848h-7.657c-1.492 0-2.414.165-3.347 1.48zm10.988-.858l2.555-3.61.003.003c.015-.034-.009-.085-.053-.085h-7.659c-.765 0-1.68.046-2.321.558-.25.2-.453.46-.636.72l-2.533 3.572v-.002c-.018.033.006.084.05.084h7.658c.77 0 1.687-.045 2.328-.56.239-.191.43-.433.608-.68" fill="#bd1625" fill-rule="evenodd"/><path d="M143.828 10.175l-22.939.003c-.744-.002-.963.325-.963.325s-2.997 5.101-3.493 5.881c-.215.336.186.848.676.865l.755.02s21.276.032 22.506-.014c.775-.028.996-.17 1.146-.337.264-.296.98-1.423 1.136-1.701.126-.238-.617-.24-.617-.24l-7.737-.037-.937 1.378-7.39-.023 3.145-5.183 7.723-.026-.846 1.279 8.536.03c.468-.692.94-1.424.994-1.65.136-.566-1.695-.57-1.695-.57M98.85 14.037l-2.265 3.202h-8.373s-.46.001-.691-.31c-.176-.232.097-.624.097-.624l2.86-4.073 1.165-1.658s.161-.214.404-.315c.24-.104.635-.066.635-.066h22.272c1.23 0 2.582.519 2.642 1.22.022.265-.581 1.366-1.313 1.783-.075.043-.39.276-1.141.364-1.217.141-2.96.13-3.363.13l-1.115-.03s2.097.163 3.435.524c.448.123.762.317.951.465.219.162.32.356.198.741-.074.243-.325.592-.518.896-.29.458-.605.968-.605.968l-1.179-.005-8.173-.045 1.469-2.207s.148-.212.161-.404c.008-.156.024-.357-.355-.493-.31-.115-7.198-.063-7.198-.063zm8.192-.834c.135 0 .567.005.982-.284.22-.154.422-.484.598-.732.51-.716.317-1.086-.27-1.086h-7.533l-1.456 2.081z" fill="#bd1625"/><path d="M89.686 19.878l6.657-.005c2.216-.002 6.383-.02 8.6-.022-.978.247-1.408.842-1.582 1.257-4.078.006-8.985.018-13.077.023-.133 0-.279.109-.332.242-.139.349-.337.696-.475 1.043-.053.133.006.242.139.24l8.255-.014c1.559-.002 2.567.114 3.019.352.452.236.544.672.278 1.306-.135.321-.3.643-.435.962a2.254 2.254 0 01-1.367 1.3c-.651.236-1.747.365-3.3.37l-6.601.025c-2.202.009-4.835.01-7.043.019.173-.444.467-.89.64-1.335 4.062-.01 8.424-.017 12.486-.029.127 0 .273-.108.328-.24l.459-1.116c.054-.131-.003-.239-.13-.239l-8.264.018c-1.555.004-2.568-.113-3.025-.35-.454-.235-.557-.676-.307-1.319.102-.262.234-.523.336-.786.253-.648.764-1.094 1.407-1.336.658-.241 1.773-.365 3.334-.366" fill="#786638"/><path d="M126.79 19.893l6.53-.006 6.502-.005-.593 1.233-11.965.015c-.123 0-.275.108-.335.24l-.473 1.03c-.06.13-.007.238.115.238l8.026-.014c1.518-.003 2.5.11 2.928.346.424.233.492.664.19 1.29l-.457.951a2.437 2.437 0 01-1.424 1.285c-.65.232-1.735.352-3.241.357-3.09.01-6.19.023-9.282.035-.662.003-2.145.007-4.096.01l.597-1.395 3.658-.005c2.912-.006 5.82-.012 8.728-.02.122 0 .273-.107.335-.237.173-.367.321-.656.495-1.023.062-.13.01-.238-.113-.237l-8.003.017c-1.519.004-2.496-.11-2.93-.346-.43-.232-.503-.667-.218-1.303.117-.258.232-.517.35-.775.293-.642.76-1.081 1.41-1.32.656-.238 1.748-.36 3.266-.361" fill="#fcffff"/><path d="M120.053 25.868l-.285.664c1.18-.002 2.361-.003 3.541-.008l9.282-.036c.9-.002 2.267-.03 3.12-.336.558-.199.96-.564 1.218-1.098l.457-.952c.127-.262.285-.636-.037-.812-.534-.294-2.147-.303-2.751-.302l-8.027.015c-.407 0-.61-.4-.446-.755l.472-1.03c.114-.25.388-.452.667-.453l11.735-.015.242-.502-5.922.004-6.528.005c-.905 0-2.286.027-3.142.34-.566.205-.954.582-1.203 1.128-.118.258-.233.517-.35.774-.123.274-.269.654.06.833.545.295 2.142.304 2.755.302l8.004-.018c.41-.001.61.402.443.757-.162.343-.334.681-.496 1.023-.115.246-.387.446-.663.446-2.91.009-5.818.015-8.728.02-1.14.003-2.278.005-3.418.006" fill="#bd1625" fill-rule="evenodd"/><path d="M123.675 19.86c-1.265.29-1.622.775-1.845 1.277-3.723.004-9.662.014-13.4.018-.246 0-.537.212-.648.473-.5 1.165-1.14 2.27-1.64 3.434-.109.258 0 .467.25.466l13.045-.033-.615 1.41c-2.72.008-6.838.015-8.908.022-2.07.005-4.295.012-7.024.021-.857.004-1.234-.77-.859-1.664.517-1.224 1.19-2.463 1.73-3.745.383-.91 1.405-1.654 2.272-1.655 2.766-.002 4.896 0 7.02-.005z" fill="#fcffff"/><path d="M89.686 19.878l6.657-.005c2.216-.002 6.383-.02 8.6-.022-.978.247-1.408.842-1.582 1.257-4.078.006-8.985.018-13.077.023-.133 0-.279.109-.332.242-.139.349-.337.696-.475 1.043-.053.133.006.242.139.24l8.255-.014c1.559-.002 2.567.114 3.019.352.452.236.544.672.278 1.306-.135.321-.3.643-.435.962a2.254 2.254 0 01-1.367 1.3c-.651.236-1.747.365-3.3.37l-6.601.025c-2.202.009-4.835.01-7.043.019.173-.444.467-.89.64-1.335 4.062-.01 8.424-.017 12.486-.029.127 0 .273-.108.328-.24l.459-1.116c.054-.131-.003-.239-.13-.239l-8.264.018c-1.555.004-2.568-.113-3.025-.35-.454-.235-.557-.676-.307-1.319.102-.262.234-.523.336-.786.253-.648.764-1.094 1.407-1.336.658-.241 1.773-.365 3.334-.366" fill="#fcffff"/><path d="M83.303 26.005c-.095.205-.205.403-.309.604 2.157-.008 4.313-.01 6.47-.016 2.2-.008 4.4-.018 6.6-.025.919-.003 2.308-.035 3.178-.348.55-.2.929-.56 1.155-1.098.136-.326.298-.64.434-.964.129-.305.238-.66-.11-.842-.575-.3-2.206-.31-2.849-.308l-8.256.014c-.403.001-.622-.38-.478-.74.142-.357.334-.689.475-1.044a.757.757 0 01.67-.473c4.283-.004 8.566-.015 12.85-.02.108-.199.242-.374.397-.527-2.395.006-4.79.018-7.186.02l-6.658.005c-.91 0-2.348.024-3.208.343-.547.203-.979.577-1.193 1.126-.104.267-.232.521-.337.787-.122.313-.216.68.135.863.582.301 2.208.31 2.858.309l8.263-.019c.4-.001.616.384.468.743l-.459 1.117c-.106.258-.38.464-.664.465-4.081.011-8.164.019-12.246.028" fill="#bd1625" fill-rule="evenodd"/><g fill="#fcffff"><path d="M134.04 29.55h-.435l.168-.41.093-.226a.056.056 0 00-.018-.066.056.056 0 00-.068-.002c-.13.095-.26.19-.386.284-.163.12-.33.24-.493.361a.056.056 0 01-.045.01.058.058 0 01-.038-.028c-.064-.115-.128-.228-.188-.343-.052-.098-.109-.196-.164-.294a.056.056 0 00-.102.007c-.04.099-.077.198-.118.297l-.169.41h-.43c.093-.224.188-.448.277-.672l.272-.673h.449c.066.13.143.259.21.388.056.111.125.222.188.333a.058.058 0 00.037.027c.017.004.032 0 .046-.01.158-.117.321-.234.477-.35.173-.13.356-.26.534-.39h.454c-.091.225-.184.45-.276.674l-.276.672M131.887 28.52h-1.489a.055.055 0 00-.052.035 3.43 3.43 0 00-.037.088.055.055 0 00.006.053c.01.017.028.025.047.025h1.343c-.043.104-.081.21-.124.313l-1.395.002a.056.056 0 00-.053.035l-.036.088a.055.055 0 00.005.054c.011.015.028.024.047.024h1.448c-.042.105-.086.21-.129.314l-1.793.001a.111.111 0 01-.094-.05.11.11 0 01-.011-.105c.071-.174.143-.345.213-.518l.248-.603a.111.111 0 01.105-.07l1.88-.001-.129.315M129.776 28.52h-.79a.056.056 0 00-.053.036l-.198.48-.212.516h-.425a260.342 260.342 0 01.393-.953.055.055 0 00-.005-.053.057.057 0 00-.047-.025h-.744l.13-.314h2.08l-.129.313M127.26 29.138a.617.617 0 01-.258.29.788.788 0 01-.427.125h-1.587l.13-.314h1.587c.055 0 .099-.034.127-.1.027-.068.011-.102-.044-.102h-1.152c-.155 0-.262-.042-.328-.125-.061-.079-.073-.174-.026-.287a.646.646 0 01.271-.294.79.79 0 01.426-.124h1.582l-.13.314h-1.587c-.06 0-.105.035-.132.103-.028.066-.012.1.048.1l1.153-.001c.154 0 .262.042.328.125.062.08.066.176.02.29M125.107 28.625a.64.64 0 01-.253.287.793.793 0 01-.432.126h-.389c-.035.087-.07.173-.107.258-.035.086-.07.173-.107.259h-.43c.037-.086.073-.173.108-.259l.106-.257h-.394c-.154 0-.26-.043-.322-.125-.06-.08-.072-.175-.025-.288l.086-.208.086-.208h.43c-.03.069-.058.139-.087.208l-.086.208c-.028.066-.012.099.048.099l1.213-.001c.06 0 .104-.033.131-.1.03-.068.057-.138.087-.207l.086-.208h.423c-.027.07-.057.139-.086.208l-.086.208M122.474 29.14a.643.643 0 01-.26.29.797.797 0 01-.432.125l-1.583.001c.045-.105.088-.21.131-.314l1.583-.001c.06 0 .103-.034.131-.1.028-.067.012-.101-.048-.101h-1.153c-.15 0-.262-.042-.327-.125-.061-.079-.067-.175-.02-.288a.648.648 0 01.266-.293.792.792 0 01.426-.124h1.582l-.13.313c-.53 0-1.058 0-1.588.002-.06 0-.098.034-.127.102-.028.066-.016.1.044.1l1.157-.001c.15 0 .264.04.328.125.059.078.066.176.02.29M97.161 28.537h-.753a.11.11 0 00-.104.069l-.19.447-.22.516h-.43l.22-.516.186-.437a.053.053 0 00-.005-.053.055.055 0 00-.047-.026l-.738.001.134-.314 2.081-.001-.134.314M87.165 29.159a.634.634 0 01-.264.29.798.798 0 01-.429.125h-1.587l.135-.314h1.587c.06 0 .105-.034.134-.1.028-.068.013-.102-.047-.102l-1.153.001c-.155 0-.26-.042-.325-.126-.06-.078-.06-.175-.012-.288a.643.643 0 01.266-.293.799.799 0 01.427-.123l1.583-.001c-.046.104-.09.21-.135.314h-1.587c-.06 0-.105.035-.134.103-.028.066-.013.1.047.1l1.153-.001c.155 0 .262.041.326.125.06.08.063.177.015.29M94.316 29.57h-.593c-.102-.125-.203-.25-.3-.377-.072-.095-.148-.19-.222-.285a.056.056 0 01-.006-.06.056.056 0 01.051-.032h.987c.075 0 .135-.047.174-.14.04-.092.02-.138-.055-.138l-1.29.001a.055.055 0 00-.052.034l-.206.482-.22.516h-.43l.287-.673.288-.673 1.781-.001c.16 0 .273.048.33.141.052.086.053.19.001.312a.724.724 0 01-.268.311.78.78 0 01-.449.142h-.164l.175.22c.06.074.123.147.181.22M91.975 29.57l-.43.001.092-.213.09-.213h-1.123l.135-.314h1.123l.08-.19c.03-.067.014-.102-.046-.101h-1.212c-.06 0-.105.034-.134.102-.066.155-.133.31-.198.466l-.2.464h-.428c.065-.155.132-.31.198-.464l.199-.467a.672.672 0 01.27-.293.797.797 0 01.427-.122h1.213c.154 0 .26.041.321.122.063.082.069.18.02.292l-.199.466-.198.465M89.543 29.572h-.424l.175-.409c.033-.075.065-.153.097-.23a.056.056 0 00-.017-.067.056.056 0 00-.068 0c-.132.095-.263.192-.392.287l-.498.361c-.014.01-.029.014-.045.01a.058.058 0 01-.038-.028c-.063-.114-.126-.228-.182-.343a22.94 22.94 0 00-.148-.297.056.056 0 00-.053-.031.06.06 0 00-.05.035l-.128.304-.176.41h-.43l.29-.673.288-.673h.45c.064.13.136.26.197.388.053.112.116.217.177.326.008.015.02.024.037.028.016.004.031 0 .045-.01.16-.115.326-.227.485-.344.175-.13.36-.26.54-.39h.444l-.288.674-.288.672M112.023 28.53h-.75a.11.11 0 00-.103.069l-.187.446-.216.517h-.43l.217-.517.183-.437a.051.051 0 00-.005-.053.056.056 0 00-.047-.025h-.743l.131-.314h2.082c-.044.105-.089.209-.132.314M115.899 29.559h-.43l.108-.258.075-.18a.056.056 0 00-.053-.078h-.98a.054.054 0 00-.051.035l-.094.224-.108.258h-.424l.281-.673.282-.673h.424l-.108.257-.075.18a.053.053 0 00.005.053c.01.017.028.025.047.025h.98a.057.057 0 00.053-.035l.093-.223.108-.258h.429l-.282.673-.28.672M113.762 29.56h-1.418c-.165 0-.29-.039-.374-.12-.082-.08-.097-.183-.047-.305l.104-.247c.035-.082.064-.165.098-.247a.639.639 0 01.303-.305c.153-.08.31-.121.475-.121h1.422l-.131.313h-1.422c-.11 0-.186.038-.217.113a6.853 6.853 0 00-.098.247c-.033.082-.07.164-.104.246-.031.074.013.112.122.112h1.418l-.131.314M109.509 29.146a.652.652 0 01-.274.293.79.79 0 01-.426.123h-1.213c-.155 0-.262-.04-.328-.122-.065-.082-.069-.18-.021-.293l.196-.465.195-.465h.435l-.196.465-.196.465c-.029.067-.013.102.047.102l1.218-.001c.06 0 .104-.034.133-.102l.196-.465.194-.465h.43l-.195.465-.195.465M106.892 29.563l-1.752.001a.055.055 0 01-.047-.025.054.054 0 01-.005-.053l.25-.594.284-.674h.43l-.218.516c-.06.146-.123.291-.185.437a.054.054 0 00.006.054c.01.015.027.025.047.025h1.322l-.132.313M104.874 29.565h-1.417c-.17 0-.291-.04-.374-.12-.084-.083-.096-.184-.045-.306a28.849 28.849 0 01.21-.494.628.628 0 01.302-.304 1 1 0 01.475-.122h1.417l-.132.314h-1.417c-.115 0-.186.039-.217.113l-.105.246-.104.247c-.031.074.007.112.122.112l1.418-.001c-.043.105-.088.21-.133.314"/></g></g></svg>