<svg xmlns="http://www.w3.org/2000/svg" viewBox="0 0 716.66 150.88"><defs><style>.cls-1{fill:#332b24}.cls-1,.cls-3,.cls-4,.cls-6{fill-rule:evenodd}.cls-3{fill:#cf142b}.cls-4{fill:#fff}.cls-5{fill:#2404a1}.cls-6{fill:#857040}</style></defs><g id="Layer_2" data-name="Layer 2"><g id="Layer_1-2" data-name="Layer 1"><path class="cls-1" d="M0 59.87l120.07-.36 17.1 7.42 26.95 4.67 16.76-12.27 131.05-.38-120.17 30.11-15.54 21.95-15.92-13.92-7.23 21.16-28.99-26.71-1.47-10.49L107 85.23 0 59.87z"/><path fill="#57b5e0" fill-rule="evenodd" d="M16.96 61.88l102.56-.3 16.41 7.35 28.23 5.55 18.13-13.08 112.82-.33L191.87 86.7l-16.06 20.59-15.03-12.84-8.19 20.42L128 91.73l-6.22-15.22-15.01 6.01-89.81-20.64z"/><path class="cls-3" d="M128.74 33.21L133 67.88l41.95-49.66-16.12 111.52-18.16 4.08 9.1-61.53-23.66 26.24-4.34-18.75-35.12 66.48-19.52 4.62 61.61-117.67zM186.17 16.71l16.47-3.42-7.14 48.39 40.06-54.74 20.67-4.2-87.2 122.78 17.14-108.81z"/><path class="cls-1" d="M124.27 30.46l4.27 34.68 41.95-49.67L154.37 127l-18.16 4.07 9.1-61.52-23.67 26.24-4.33-18.75-35.13 66.48-19.52 4.61 61.61-117.67z"/><path class="cls-4" d="M122.59 38.03l4.42 32.57 39.65-46.66-14.29 100.76-12.96 3.15 9.3-66.01L122.9 90.8l-4.54-21.1-37.78 71.72-12.92 2.99 54.93-106.38z"/><path class="cls-1" d="M181.71 13.97l16.47-3.43-7.15 48.4L231.1 4.19 251.77 0l-87.21 122.78 17.15-108.81z"/><path class="cls-4" d="M187.01 68.57l45.33-62.32 14.4-2.99-78 109.73 15.14-96.86 11.48-2.35-8.35 54.79z"/><path class="cls-5" d="M277.18 30.26l-4.1 16.29q-6.48-7.45-11.44-7.46a7.32 7.32 0 00-5 1.88 9.48 9.48 0 00-2.92 5 8.32 8.32 0 00.06 4.54q.66 2.13 4.47 5.54a39.46 39.46 0 015.87 6.32 18.46 18.46 0 012.75 8.24q.71 5.31-1.34 13.42-2.91 11.56-9.07 18.43t-13.4 6.86q-7.83 0-13.14-8l4.52-18a31.5 31.5 0 005.4 8.17 8.59 8.59 0 006.27 2.51q6.16 0 8.1-7.69a9.55 9.55 0 000-5q-.65-2.33-4.52-5.66a36.89 36.89 0 01-5.89-6.2 17.92 17.92 0 01-2.7-8.18q-.66-5.31 1.42-13.6 2.7-10.74 8.72-17.34t13.32-6.59q6.74 0 12.61 6.44zM318.37 24.89h10.46L316.94 72.2q-4.59 18.24-12.4 27.67t-17.91 9.43q-10 0-13.1-9.55t1.38-27.43l11.91-47.43h10.5l-12 47.9q-2.19 8.71-.64 14t6.17 5.21q4.84 0 9.1-5.37t6.74-15.27zM338.33 24.89h18.74c4.24 0 7 2.45 8.28 7.34s1.08 10.68-.6 17.36a49.21 49.21 0 01-8.18 17.78q-5.58 7.39-12 7.39h-8.33l-8.41 33.46h-10.44l20.94-83.33zM345 40.16l-4.9 19.33h4.9q6.52 0 9-9.66 1.36-5.43.15-7.55t-5.42-2.12zM392.28 92.95l-3.84 15.27h-30.97l20.94-83.33h30.55l-3.83 15.27h-20.09l-4.39 17.48h19.15l-3.84 15.27h-19.15l-5.04 20.04h20.51zM418.38 24.89h18.77q6.11 0 8.16 7t-.45 17q-3.45 13.77-12.34 20.38 2.44 2.87 2.15 15.38t-.43 23.6h-11.48q0-4.11.36-15.68t-.64-14.86c-.66-2.18-1.69-3.28-3.07-3.28h-3l-8.5 33.82h-10.47l20.94-83.33zM425 40.16l-4.77 19h5.54a6.33 6.33 0 004.81-2.47 16.82 16.82 0 003.33-7.07q2.37-9.42-3.62-9.43zM497.97 24.89l-40.63 84.41h-4.54l.86-84.41h11.4l-.85 47.62 22.49-47.62h11.27zM519.64 92.95l-3.84 15.27h-30.97l20.94-83.33h30.56l-3.84 15.27H512.4l-4.39 17.48h19.15l-3.84 15.27h-19.15l-5.04 20.04h20.51zM560.66 92.95l-3.84 15.27h-32.03l20.95-83.33h10.47L539.1 92.95h21.56zM605.18 23.82q10.74 0 14.15 12.85t-.88 29.92a79.61 79.61 0 01-14.27 30q-9.93 12.7-20.49 12.71t-14.2-12.65Q566 84 570.34 66.59a80.6 80.6 0 0114.19-29.94q9.88-12.84 20.65-12.83zM588 92q6 0 11.36-7t8.26-18.4q2.88-11.46 1-18.43c-1.25-4.65-3.87-7-7.83-7s-7.79 2.33-11.4 7-6.33 10.83-8.25 18.42-2.24 13.73-1 18.4S584.05 92 588 92zM663.1 82.81L658.53 101q-10 8.3-18.59 8.29-11.19 0-14.74-12.26t1-30.21q4.51-18 14.65-30.48t21.42-12.53q9 0 13.37 7.34l-4.67 18.55q-5.49-8.53-12.32-8.53T645.9 48.3a44.28 44.28 0 00-8.82 18.16q-2.79 11.1-.41 18.31t8.91 7.23a15 15 0 006.68-1.7q3.43-1.69 10.84-7.49zM699.98 92.95l-3.84 15.27h-30.97l20.94-83.33h30.55l-3.84 15.27h-20.08l-4.39 17.48h19.15l-3.84 15.27h-19.15l-5.04 20.04h20.51z"/><g id="_978478128" data-name="978478128"><path class="cls-6" d="M681.08 132.38c-7.8 0-18.76 8.06-20.67 10.17-1.55 1.72-.19 2.64 2.36 2.64 7.19 0 17.2-7.14 20-10.24 1.91-2.11.25-2.57-1.69-2.57zm-26.16 8.22c4.35-4.81 17.76-9.73 27.14-9.73 7.42 0 8.84 3.21 6 6.3-3.76 4.16-15.46 9.16-26.66 9.16-7.92 0-9-3-6.52-5.73zM514.58 132.87c.56 0 .65.7.14 1l-10.94 7.44a23.15 23.15 0 00-2.92 2.25c-.59.65.07.89.73.89 1.41-.17 1.61-.11 9.4-2.42l-1 1.12c-8.38 2.72-11.49 3.16-13.46 3.15-4 0-2.49-2.12-1.85-2.83 2.31-2.55 9.45-7.3 14.65-10.73zM542.06 135.1c.48-.53.58-1.37-2-1.37-6 0-15.45 5-18.57 7.6 16.94-2.33 20.03-5.63 20.57-6.23zm-5.65 8c-6.65 1.9-11.72 3.33-17 3.33-4.27 0-8-1.13-5.07-4.4 4.45-4.92 17.68-9.59 27.54-9.59 5.69 0 5.4 2.12 4.39 3.25-3.76 4.15-19.5 6.05-25.95 6.76-1.82 1.9.21 2.4 3.06 2.4 2.41 0 5.6-.44 13-2.51l.06.76zM467 135.1c.48-.53.58-1.37-2-1.37-6 0-15.44 5-18.57 7.6 16.9-2.33 19.99-5.63 20.57-6.23zm-5.65 8c-6.65 1.9-11.72 3.33-17 3.33-4.27 0-8-1.13-5.06-4.4 4.45-4.92 17.67-9.59 27.53-9.59 5.69 0 5.41 2.12 4.39 3.25-3.76 4.15-19.5 6.05-25.95 6.76-1.82 1.9.21 2.4 3.06 2.4 2.41 0 5.6-.44 12.95-2.51l.06.76zM488.73 132.65l-11.56 8c11.78-5.87 18.69-7.81 22.88-8 10-.4-1.14 2.27-6.28 2.59-3.23.21-12.3 4.32-23.35 11l-7.44.08 19.4-13.64zM645.22 131.15L632.37 140c13.09-6.53 20.77-8.68 25.43-8.87 11.15-.44-1.26 2.52-7 2.88-3.59.23-13.67 4.81-26 12.19l-8.28.1 21.57-15.17zM626.79 121.1c-1.1-1.72-4.26-2.32-7.38-2.32-16.37 0-31.18 9.81-38.86 18.31-4.7 5.26-3.39 8.18 3.5 8.18 15.26 0 33.92-10.39 40.16-17.29 1.79-1.92 3.92-4.83 2.58-6.88zm-17 19.66c-6.91 2.57-17 5.63-26.71 5.63-12 0-14.72-5-9.25-11.09 9.46-10.46 34.24-18.59 49.13-18.59 8.67 0 15.11 4.07 8.58 11.29-3.34 3.7-10.17 8.47-21.75 12.76zM392.86 142.61a66.78 66.78 0 0018.25 2.31c7.11 0 18.68-1.13 21.14-4.59 1.23-1.84-.95-3.46-4.44-5.67l-3.81-2.24c-2.64-1.6-5.49-3.16-3.88-5.56 3.26-4.87 19.65-8.77 32.32-8.77 7.78 0 9.28 2 8.31 3.49-1.43 2.13-7.86 4.41-12.8 5.81l-4.5-.91c6.38-1.56 12.59-3.65 13.81-5.48.54-.87-.26-1.64-5.66-1.64-9 0-23.49 2.6-26.06 6.44-1 1.48.34 2.09 3.17 3.72L433 132c3.17 1.79 7.12 4.41 5.09 7.46-1.89 2.81-10.32 6.83-29.65 6.83a104.84 104.84 0 01-20.35-1.81l4.73-1.87zM516.83 130.61h-3.78c-.79 0-.41-.68.84-1.51a8.82 8.82 0 013.69-1.52h3.79c.78 0 .41.68-.84 1.52a8.9 8.9 0 01-3.7 1.51z"/></g></g></g></svg>