<svg xmlns="http://www.w3.org/2000/svg" viewBox="0 0 438.39 29.46"><defs><style>.cls-1,.cls-2{fill:#fff;fill-rule:evenodd}.cls-2{fill:#dd052c}.cls-3{fill:#d9181b}</style></defs><g id="Livello_2" data-name="Livello 2"><g id="Layer_1" data-name="Layer 1"><path class="cls-1" d="M99.15 10.53h7.76c.93-1.22 2-2.45 2.88-3.68s1.95-2.45 2.93-3.68h-6.62a2.09 2.09 0 00-1.73.76c-.88 1.1-1.81 2.2-2.65 3.3s-1.72 2.2-2.57 3.3M63.59 3.16H57a2.13 2.13 0 00-1.78.76l-1.8 2.26-1.8 2.25a1.23 1.23 0 01-1 .33h-15c-.35 0-.61-.16-.4-.46.66-.86 1.36-1.72 2-2.57S38.55 4 39.25 3.16h-6.57a2.15 2.15 0 00-1.78.77c-.57.69-1.13 1.35-1.65 2.05s-1 1.36-1.56 2c-1.85 2.38 1.12 2.49 2.69 2.49h24.18c1.27 0 3.25 0 4.33-1.43.75-1 1.58-2 2.33-3s1.58-1.89 2.37-2.88zM122.91 6c-.92 0-.24-.63-.13-.72a1.21 1.21 0 011-.33h16.9c.31 0 .57.13.47.37h7.7c1.3-2-1.45-2.12-3-2.12h-26c-1.27 0-3.25 0-4.33 1.44-.25.3-.51.6-.76.91-1.41 2.1 1.43 2.2 3 2.2h20.63c.78 0 .3.55.18.72a1.33 1.33 0 01-1.08.33h-16.77c-.31 0-.56-.12-.42-.37h-7.75c-1.3 2 1.49 2.12 3 2.12h25.93c1.22 0 3.2 0 4.32-1.43l.56-.74C148 6.17 145.33 6 143.49 6zm78-.72a1.29 1.29 0 011-.33H217c.31 0 .62.16.36.45-.4.52-.81 1-1.22 1.54L215 8.43a1.29 1.29 0 01-1 .33h-15.15c-.31 0-.62-.15-.36-.45.4-.51.81-1 1.22-1.53zM190.87 8c-1.85 2.35 1.17 2.48 2.75 2.48h24.26c1.23 0 3.25 0 4.32-1.43.48-.58.91-1.15 1.34-1.71s.91-1.14 1.39-1.72c1.87-2.36-1.14-2.49-2.72-2.49H198c-1.22 0-3.25 0-4.32 1.44-.48.57-1 1.14-1.47 1.71s-.91 1.18-1.34 1.72zM41.34 0H2.16A1.61 1.61 0 00.8.57c-.29.36-.56.74-.8 1.1h13.83c-1.21 1.48-2.37 3-3.54 4.43l-3.51 4.43h11.57c.91-1.17 1.86-2.34 2.77-3.52S23 4.66 23.93 3.48a5.15 5.15 0 014.22-1.81H40c.41-.55.85-1.11 1.34-1.67zm198.84 10.53h7.62c1.79-.85 3.66-1.71 5.53-2.57l8.33-4c2.77-1.33 5.54-2.65 8.36-4h-6.65a5.25 5.25 0 00-2.3.47c-2.6 1.2-5.24 2.39-7.8 3.58s-5.15 2.39-7.66 3.58c-.73-.93-1.47-1.87-2.16-2.81L241.37 2a4.9 4.9 0 00-3.83-2h-7.09c.63.89 1.31 1.78 1.94 2.66s1.35 1.78 2 2.67l1.36 1.8 1.36 1.8a4 4 0 003.07 1.6zM342.5 5.24a1.21 1.21 0 011-.33h15c.35 0 .67.16.41.45-.4.52-.82 1-1.21 1.54s-.76 1-1.17 1.53a1.31 1.31 0 01-1.07.33h-15c-.3 0-.62-.16-.36-.45.4-.52.81-1 1.21-1.54zM332.49 8c-1.83 2.35 1.19 2.48 2.77 2.48h24.18c1.22 0 3.2 0 4.31-1.43.42-.58.9-1.15 1.33-1.72s.9-1.13 1.37-1.71c1.86-2.36-1.16-2.48-2.78-2.48h-24.12c-1.23 0-3.25 0-4.31 1.43-.47.57-1 1.14-1.42 1.71s-.9 1.18-1.33 1.72zM190.87 3.17c-1 1.23-2 2.45-2.92 3.68s-1.94 2.46-2.86 3.68h-6.53c.71-.95 1.5-1.9 2.21-2.86s1.5-1.9 2.25-2.86c-2.24 1-4.52 1.91-6.72 2.86l-6.63 2.86h-4.95c-.81-.91-1.58-1.82-2.35-2.73s-1.52-1.84-2.3-2.74a.5.5 0 00-.32-.18.3.3 0 00-.28.09c-.76.93-1.52 1.86-2.24 2.78s-1.43 1.86-2.15 2.78h-6.26c.84-1.1 1.72-2.2 2.56-3.3S153.11 5 154 3.93a2.1 2.1 0 011.73-.76h8.09c.73.93 1.5 1.85 2.23 2.78s1.55 1.85 2.32 2.78l6.1-2.73 6.13-2.66a3.76 3.76 0 011.29-.2zM61.61 10.51h8.5l2.07-2.65 2.07-2.65c.25-.31.38-.47 1.17-.47h13.83c.49 0 .69.22.54.45a8.06 8.06 0 00-.53.7c-.48.57-1.13.59-2 .59H76.22a.09.09 0 00-.1.1c0 .06.08.11.13.13l5.84 1.92 5.9 1.9h8.76c-2.33-.86-4.62-1.73-6.9-2.6a.26.26 0 01-.13-.14c0-.06.06-.1.1-.1h3.06c2.36 0 3.88.07 4.79-1.1.24-.34.53-.68.82-1 2-2.52-2.19-2.4-3.11-2.4H68.45a1.89 1.89 0 00-1.58.69C66 5 65.06 6.08 64.22 7.19s-1.77 2.21-2.61 3.32zm238.79 0h30.35a1.79 1.79 0 01-.95-1.74h-20.24L311.69 6c.7-.93 1.46-1.87 2.21-2.8h-6.66a1.86 1.86 0 00-1.57.69q-1.29 1.68-2.61 3.33c-.9 1.09-1.79 2.19-2.66 3.3zm103.41 0h24.4a14.64 14.64 0 007.7-2h-7.23a10.26 10.26 0 01-3.28.56h-16.64c-.35 0-.62-.16-.41-.46s.54-.64.81-1h15.72a1.75 1.75 0 001.49-.61 5.33 5.33 0 01.41-.6.09.09 0 000-.13.16.16 0 00-.15-.08h-16.38c.3-.41.71-.91.95-1.25a1.52 1.52 0 011.12-.33h16.37a4.36 4.36 0 012.46.56h7.23c.19-1.17-1.72-2-4.65-2h-25.66c-1.14 0-2.85 0-3.95 1-.25.3-.51.6-.72.9a1.94 1.94 0 00-.54 1.41 3 3 0 00-1.38 1c-.28.33-.53.66-.77 1-1.05 1.94 1.61 2.05 3.1 2.05zm-136.73 0h24.35a14.57 14.57 0 007.71-2h-7.23a10.07 10.07 0 01-3.28.56H272c-.36 0-.62-.16-.41-.46s.54-.64.81-1h15.68a1.7 1.7 0 001.53-.61 6.8 6.8 0 00.46-.6v-.13a.17.17 0 00-.16-.08h-16.37c.31-.41.72-.91 1-1.25a1.32 1.32 0 011-.33H292a4.27 4.27 0 012.46.56h7.22c.2-1.17-1.7-2-4.63-2h-25.67c-1.14 0-2.85 0-4 1-.25.3-.51.6-.72.9a1.9 1.9 0 00-.6 1.41 3.19 3.19 0 00-1.33 1c-.29.33-.54.66-.78 1-1.03 1.94 1.64 2.05 3.13 2.05zM368 8c-1.83 2.35 1.19 2.48 2.77 2.48h22.64c1.27 0 3.25 0 4.31-1.43a1.75 1.75 0 01.25-.32H376c-.31 0-.62-.16-.41-.45.4-.52.81-1 1.21-1.54s.81-1 1.26-1.53a1.21 1.21 0 011-.33h21.89c.69-1.65-1.84-1.74-3.24-1.74h-22.65c-1.23 0-3.25 0-4.31 1.43-.47.57-1 1.14-1.42 1.71S368.44 7.46 368 8zM361.6 17h-1.9a1.71 1.71 0 00-.85.27 2.18 2.18 0 00-.73.64l-6 8.14a1.13 1.13 0 00-.21.45c0 .3.11.45.46.45h1.9a1.79 1.79 0 00.83-.26 2.29 2.29 0 00.73-.64l6-8.14a1.13 1.13 0 00.21-.45c.04-.34-.1-.46-.44-.46zM422.23 17h-1.9a1.71 1.71 0 00-.84.27 2.18 2.18 0 00-.73.64l-6 8.14a1.1 1.1 0 00-.2.45c0 .3.11.45.46.45H415a1.76 1.76 0 00.82-.26 2.29 2.29 0 00.73-.64l6-8.14a1.1 1.1 0 00.2-.45c-.03-.34-.18-.46-.52-.46z"/><path class="cls-1" d="M331.6 14.3l-11.14 15.16H423l11.12-15.16zm8.82 6.06c-.41 0-.59-.18-.53-.53a1.22 1.22 0 01.23-.52l.78-1.06a1.22 1.22 0 00.23-.52c.06-.35-.11-.53-.51-.53a2 2 0 00-1 .31 2.83 2.83 0 00-.86.74l-6.18 8.42a2.72 2.72 0 01-.85.75 2.06 2.06 0 01-1 .31h-5.25c-.41 0-.58-.18-.53-.53a1.26 1.26 0 01.24-.52l6.94-9.48a2.57 2.57 0 01.85-.74 2 2 0 011-.31h14.74c.39 0 .56.17.51.53a1.4 1.4 0 01-.24.52l-1.55 2.11a2.57 2.57 0 01-.85.74 2 2 0 01-1 .31zm20.67 7.06a2 2 0 01-.95.31H345.4c-.41 0-.59-.18-.53-.53a1.22 1.22 0 01.23-.52l6.95-9.48a2.48 2.48 0 01.85-.74 2 2 0 011-.31h14.73c.4 0 .57.17.51.53a1.22 1.22 0 01-.23.52l-6.95 9.48a2.48 2.48 0 01-.87.74zM381 17.2a2 2 0 00-1 .31 2.83 2.83 0 00-.86.74l-1.54 2.1a1.17 1.17 0 00-.24.53c-.06.36.12.53.53.53h7.37c.41 0 .58.18.53.53a1.15 1.15 0 01-.26.52l-3.08 4.22a2.57 2.57 0 01-.85.74 2 2 0 01-1 .31h-14.7c-.41 0-.58-.18-.53-.53a1.26 1.26 0 01.24-.52l1.55-2.11a2.61 2.61 0 01.85-.75 2.07 2.07 0 011-.3h5.26c.4 0 .57.17.51.52a1.26 1.26 0 01-.23.53l-.78 1.05a1.26 1.26 0 00-.23.53c-.06.35.11.53.51.53a2.09 2.09 0 001-.31 2.6 2.6 0 00.85-.75l1.55-2.1a1.26 1.26 0 00.23-.53c.06-.35-.12-.53-.53-.53h-7.37c-.39 0-.56-.17-.51-.52a1.29 1.29 0 01.24-.53l3.08-4.21a2.57 2.57 0 01.85-.74 2 2 0 011-.31h14.74c.39 0 .56.17.51.53a1.4 1.4 0 01-.24.52l-1.55 2.11a2.57 2.57 0 01-.85.74 2 2 0 01-1 .31h-5.26c-.41 0-.59-.18-.53-.53a1.22 1.22 0 01.23-.52l.78-1.06a1.22 1.22 0 00.23-.52c.04-.35-.13-.53-.5-.53zm20.07 0a1.92 1.92 0 00-1 .31 2.83 2.83 0 00-.86.74l-1.55 2.1a1.44 1.44 0 00-.24.53c-.05.36.12.53.53.53h7.37c.41 0 .59.18.53.53a1.13 1.13 0 01-.25.52l-3.09 4.22a2.48 2.48 0 01-.85.74 2 2 0 01-1 .31H386c-.41 0-.59-.18-.53-.53a1.22 1.22 0 01.23-.52l1.55-2.11a2.72 2.72 0 01.85-.75 2.07 2.07 0 011-.3h5.27c.39 0 .56.17.51.52a1.44 1.44 0 01-.24.53l-.77 1.05a1.29 1.29 0 00-.24.53c-.05.35.12.53.51.53a2.09 2.09 0 001-.31 2.5 2.5 0 00.85-.75l1.56-2.1a1.4 1.4 0 00.23-.53c.05-.35-.12-.53-.53-.53h-7.37c-.4 0-.57-.17-.51-.52a1.26 1.26 0 01.23-.53l3.09-4.21a2.48 2.48 0 01.85-.74 2 2 0 011-.31h14.73c.4 0 .57.17.51.53a1.22 1.22 0 01-.23.52L408 19.31a2.57 2.57 0 01-.85.74 2 2 0 01-1 .31h-5.26c-.41 0-.59-.18-.54-.53a1.4 1.4 0 01.24-.52l.77-1.06a1.26 1.26 0 00.24-.52c0-.35-.17-.53-.6-.53zm21.54 9.48a2.57 2.57 0 01-.85.74 2 2 0 01-1 .31H406c-.41 0-.58-.18-.53-.53a1.26 1.26 0 01.24-.52l6.94-9.48a2.57 2.57 0 01.85-.74 2 2 0 011-.31h14.74c.39 0 .56.17.51.53a1.26 1.26 0 01-.24.52z"/><path class="cls-2" d="M348.77 16.15c.39 0 .56.17.51.53a1.4 1.4 0 01-.24.52l-1.55 2.11a2.57 2.57 0 01-.85.74 2 2 0 01-1 .31h-5.26c-.41 0-.59-.18-.53-.53a1.22 1.22 0 01.23-.52l.78-1.06a1.22 1.22 0 00.23-.52c.06-.35-.11-.53-.51-.53a2 2 0 00-1 .31 2.83 2.83 0 00-.86.74l-6.18 8.42a2.72 2.72 0 01-.85.75 2.06 2.06 0 01-1 .31h-5.25c-.41 0-.58-.18-.53-.53a1.26 1.26 0 01.24-.52l6.94-9.48a2.57 2.57 0 01.85-.74 2 2 0 011-.31zM380.77 20.36c-.41 0-.59-.18-.53-.53a1.22 1.22 0 01.23-.52l.78-1.06a1.22 1.22 0 00.23-.52c.06-.35-.11-.53-.51-.53a2 2 0 00-1 .31 2.83 2.83 0 00-.86.74l-1.54 2.1a1.17 1.17 0 00-.24.53c-.06.36.12.53.53.53h7.37c.41 0 .58.18.53.53a1.15 1.15 0 01-.26.52l-3.08 4.22a2.57 2.57 0 01-.85.74 2 2 0 01-1 .31H365.9c-.41 0-.58-.18-.53-.53a1.26 1.26 0 01.24-.52l1.55-2.11a2.61 2.61 0 01.85-.75 2.07 2.07 0 011-.3h5.26c.4 0 .57.17.51.52a1.26 1.26 0 01-.23.53l-.78 1.05a1.26 1.26 0 00-.23.53c-.06.35.11.53.51.53a2.09 2.09 0 001-.31 2.6 2.6 0 00.85-.75l1.55-2.1a1.26 1.26 0 00.23-.53c.06-.35-.12-.53-.53-.53h-7.37c-.39 0-.56-.17-.51-.52a1.29 1.29 0 01.24-.53l3.08-4.21a2.57 2.57 0 01.85-.74 2 2 0 011-.31h14.74c.39 0 .56.17.51.53a1.4 1.4 0 01-.24.52l-1.55 2.11a2.57 2.57 0 01-.85.74 2 2 0 01-1 .31zM400.84 20.36c-.41 0-.59-.18-.54-.53a1.4 1.4 0 01.24-.52l.77-1.06a1.26 1.26 0 00.24-.52c.05-.35-.12-.53-.51-.53a1.92 1.92 0 00-1 .31 2.83 2.83 0 00-.86.74l-1.55 2.1a1.44 1.44 0 00-.24.53c-.05.36.12.53.53.53h7.37c.41 0 .59.18.53.53a1.13 1.13 0 01-.25.52l-3.09 4.22a2.48 2.48 0 01-.85.74 2 2 0 01-1 .31H386c-.41 0-.59-.18-.53-.53a1.22 1.22 0 01.23-.52l1.55-2.11a2.72 2.72 0 01.85-.75 2.07 2.07 0 011-.3h5.27c.39 0 .56.17.51.52a1.44 1.44 0 01-.24.53l-.77 1.05a1.29 1.29 0 00-.24.53c-.05.35.12.53.51.53a2.09 2.09 0 001-.31 2.5 2.5 0 00.85-.75l1.56-2.1a1.4 1.4 0 00.23-.53c.05-.35-.12-.53-.53-.53h-7.37c-.4 0-.57-.17-.51-.52a1.26 1.26 0 01.23-.53l3.09-4.21a2.48 2.48 0 01.85-.74 2 2 0 011-.31h14.73c.4 0 .57.17.51.53a1.22 1.22 0 01-.23.52L408 19.31a2.57 2.57 0 01-.85.74 2 2 0 01-1 .31zM429.25 16.15h-14.74a2 2 0 00-1 .31 2.57 2.57 0 00-.85.74l-6.94 9.48a1.26 1.26 0 00-.24.52c-.05.35.12.53.53.53h14.74a2 2 0 001-.31 2.57 2.57 0 00.85-.74l6.94-9.48a1.26 1.26 0 00.24-.52c.03-.36-.14-.53-.53-.53zm-6.78 1.72l-6 8.14a2.29 2.29 0 01-.73.64 1.76 1.76 0 01-.82.26h-1.9c-.35 0-.51-.15-.46-.45a1.1 1.1 0 01.2-.45l6-8.14a2.18 2.18 0 01.73-.64 1.71 1.71 0 01.84-.27h1.9c.34 0 .49.16.44.46a1.1 1.1 0 01-.2.45zM368.61 16.15h-14.73a2 2 0 00-1 .31 2.48 2.48 0 00-.85.74l-6.95 9.48a1.22 1.22 0 00-.23.52c-.06.35.12.53.53.53h14.74a2 2 0 00.95-.31 2.48 2.48 0 00.85-.74l6.95-9.48a1.22 1.22 0 00.23-.52c.08-.36-.1-.53-.49-.53zm-6.78 1.72l-6 8.14a2.29 2.29 0 01-.73.64 1.79 1.79 0 01-.83.26h-1.9c-.35 0-.5-.15-.46-.45a1.13 1.13 0 01.21-.45l6-8.14a2.18 2.18 0 01.73-.64 1.71 1.71 0 01.85-.27h1.9c.34 0 .48.16.44.46a1.13 1.13 0 01-.21.45z"/><path class="cls-3" d="M348.77 16.15c.39 0 .56.17.51.53a1.4 1.4 0 01-.24.52l-1.55 2.11a2.57 2.57 0 01-.85.74 2 2 0 01-1 .31h-5.26c-.41 0-.59-.18-.53-.53a1.22 1.22 0 01.23-.52l.78-1.06a1.22 1.22 0 00.23-.52c.06-.35-.11-.53-.51-.53a2 2 0 00-1 .31 2.83 2.83 0 00-.86.74l-6.18 8.42a2.72 2.72 0 01-.85.75 2.06 2.06 0 01-1 .31h-5.25c-.41 0-.58-.18-.53-.53a1.26 1.26 0 01.24-.52l6.94-9.48a2.57 2.57 0 01.85-.74 2 2 0 011-.31zM380.77 20.36c-.41 0-.59-.18-.53-.53a1.22 1.22 0 01.23-.52l.78-1.06a1.22 1.22 0 00.23-.52c.06-.35-.11-.53-.51-.53a2 2 0 00-1 .31 2.83 2.83 0 00-.86.74l-1.54 2.1a1.17 1.17 0 00-.24.53c-.06.36.12.53.53.53h7.37c.41 0 .58.18.53.53a1.15 1.15 0 01-.26.52l-3.08 4.22a2.57 2.57 0 01-.85.74 2 2 0 01-1 .31H365.9c-.41 0-.58-.18-.53-.53a1.26 1.26 0 01.24-.52l1.55-2.11a2.61 2.61 0 01.85-.75 2.07 2.07 0 011-.3h5.26c.4 0 .57.17.51.52a1.26 1.26 0 01-.23.53l-.78 1.05a1.26 1.26 0 00-.23.53c-.06.35.11.53.51.53a2.09 2.09 0 001-.31 2.6 2.6 0 00.85-.75l1.55-2.1a1.26 1.26 0 00.23-.53c.06-.35-.12-.53-.53-.53h-7.37c-.39 0-.56-.17-.51-.52a1.29 1.29 0 01.24-.53l3.08-4.21a2.57 2.57 0 01.85-.74 2 2 0 011-.31h14.74c.39 0 .56.17.51.53a1.4 1.4 0 01-.24.52l-1.55 2.11a2.57 2.57 0 01-.85.74 2 2 0 01-1 .31zM400.84 20.36c-.41 0-.59-.18-.54-.53a1.4 1.4 0 01.24-.52l.77-1.06a1.26 1.26 0 00.24-.52c.05-.35-.12-.53-.51-.53a1.92 1.92 0 00-1 .31 2.83 2.83 0 00-.86.74l-1.55 2.1a1.44 1.44 0 00-.24.53c-.05.36.12.53.53.53h7.37c.41 0 .59.18.53.53a1.13 1.13 0 01-.25.52l-3.09 4.22a2.48 2.48 0 01-.85.74 2 2 0 01-1 .31H386c-.41 0-.59-.18-.53-.53a1.22 1.22 0 01.23-.52l1.55-2.11a2.72 2.72 0 01.85-.75 2.07 2.07 0 011-.3h5.27c.39 0 .56.17.51.52a1.44 1.44 0 01-.24.53l-.77 1.05a1.29 1.29 0 00-.24.53c-.05.35.12.53.51.53a2.09 2.09 0 001-.31 2.5 2.5 0 00.85-.75l1.56-2.1a1.4 1.4 0 00.23-.53c.05-.35-.12-.53-.53-.53h-7.37c-.4 0-.57-.17-.51-.52a1.26 1.26 0 01.23-.53l3.09-4.21a2.48 2.48 0 01.85-.74 2 2 0 011-.31h14.73c.4 0 .57.17.51.53a1.22 1.22 0 01-.23.52L408 19.31a2.57 2.57 0 01-.85.74 2 2 0 01-1 .31zM429.25 16.15h-14.74a2 2 0 00-1 .31 2.57 2.57 0 00-.85.74l-6.94 9.48a1.26 1.26 0 00-.24.52c-.05.35.12.53.53.53h14.74a2 2 0 001-.31 2.57 2.57 0 00.85-.74l6.94-9.48a1.26 1.26 0 00.24-.52c.03-.36-.14-.53-.53-.53zm-6.78 1.72l-6 8.14a2.29 2.29 0 01-.73.64 1.76 1.76 0 01-.82.26h-1.9c-.35 0-.51-.15-.46-.45a1.1 1.1 0 01.2-.45l6-8.14a2.18 2.18 0 01.73-.64 1.71 1.71 0 01.84-.27h1.9c.34 0 .49.16.44.46a1.1 1.1 0 01-.2.45zM368.61 16.15h-14.73a2 2 0 00-1 .31 2.48 2.48 0 00-.85.74l-6.95 9.48a1.22 1.22 0 00-.23.52c-.06.35.12.53.53.53h14.74a2 2 0 00.95-.31 2.48 2.48 0 00.85-.74l6.95-9.48a1.22 1.22 0 00.23-.52c.08-.36-.1-.53-.49-.53zm-6.78 1.72l-6 8.14a2.29 2.29 0 01-.73.64 1.79 1.79 0 01-.83.26h-1.9c-.35 0-.5-.15-.46-.45a1.13 1.13 0 01.21-.45l6-8.14a2.18 2.18 0 01.73-.64 1.71 1.71 0 01.85-.27h1.9c.34 0 .48.16.44.46a1.13 1.13 0 01-.21.45z"/></g></g></svg>