<svg xmlns="http://www.w3.org/2000/svg" viewBox="0 0 288.5 31.78"><defs><style>.cls-1{fill:#ce0e2d}.cls-2{fill:#8c9091}.cls-4{fill:#070707;fill-rule:evenodd}</style></defs><g id="Livello_2" data-name="Livello 2"><g id="Layer_1" data-name="Layer 1"><path class="cls-1" d="M86 28.64H45.79a.39.39 0 01-.35-.19.42.42 0 010-.42l6.16-10.29A3.89 3.89 0 0154.66 16h38.48a1.39 1.39 0 011.3.63 1.41 1.41 0 01-.13 1.44L89 26.91a3.92 3.92 0 01-3 1.73zM46.23 28H86a3.29 3.29 0 002.51-1.42l5.27-8.83a.83.83 0 00.13-.79.82.82 0 00-.74-.3H54.66a3.29 3.29 0 00-2.5 1.42zM40.63 28.64H.19l-.12-.14a.33.33 0 010-.32s0-.07 1-1.68l1.37-2.28a4.58 4.58 0 013-2L7.1 22a.32.32 0 11.08.64l-1.76.25a4 4 0 00-2.49 1.66l-1.37 2.29L.87 28h39.76a3.29 3.29 0 002.5-1.42l1.4-2.35a1.12 1.12 0 00.17-1 .58.58 0 00-.47-.32l-1.48-.25a.32.32 0 01-.27-.37.33.33 0 01.38-.27l1.47.25a1.2 1.2 0 011 .69 1.73 1.73 0 01-.2 1.62l-1.4 2.35a3.9 3.9 0 01-3.1 1.71z"/><path class="cls-1" d="M7.14 22.65l-1.53-.25a1.24 1.24 0 01-1-.69 1.76 1.76 0 01.2-1.62l1.41-2.35A3.87 3.87 0 019.32 16h38.47A1.27 1.27 0 0149 18.07l-1.4 2.35a4.58 4.58 0 01-2.94 2l-1.77.24a.32.32 0 11-.09-.64l1.77-.24A4 4 0 0047 20.09l1.41-2.35a.83.83 0 00.12-.79.82.82 0 00-.74-.3H9.32a3.29 3.29 0 00-2.51 1.42l-1.4 2.35a1.12 1.12 0 00-.17 1 .63.63 0 00.48.33l1.47.25a.32.32 0 01.27.37.33.33 0 01-.32.28z"/><path class="cls-1" d="M32.2 19c.31 0 .44.09.47.14s0 .21-.11.42a2.91 2.91 0 01-2.2 1.22H19.91c.09-.16.19-.35.32-.56a2.89 2.89 0 012.2-1.22h9.77m0-.64h-9.77a3.55 3.55 0 00-2.76 1.53 5.61 5.61 0 00-.77 1.54h11.46a3.59 3.59 0 002.76-1.54c.5-.84.09-1.53-.92-1.53zM29.31 23.87c.31 0 .44.09.47.14s0 .21-.11.41a2.91 2.91 0 01-2.2 1.22H17c.09-.16.19-.35.32-.55a2.91 2.91 0 012.2-1.22h9.77m0-.65h-9.75a3.58 3.58 0 00-2.76 1.53 5.76 5.76 0 00-.78 1.54h11.47a3.55 3.55 0 002.76-1.54c.5-.84.09-1.53-.92-1.53zM77.2 19a.6.6 0 01.46.14.64.64 0 01-.12.47l-2.81 4.73a3 3 0 01-2.22 1.27H62l.39-.66 2.78-4.68A3 3 0 0167.43 19h9.77m0-.64h-9.77A3.6 3.6 0 0064.65 20l-2.78 4.68-.95 1.61h11.59a3.6 3.6 0 002.78-1.58L78.1 20c.51-.87.11-1.58-.9-1.58zM131.34 28.64H91.15a.39.39 0 01-.35-.19.42.42 0 010-.42L97 17.74a3.9 3.9 0 013-1.74h38.5a1.27 1.27 0 011.17 2.07l-5.27 8.84a3.9 3.9 0 01-3.06 1.73zM91.6 28h39.74a3.29 3.29 0 002.5-1.42l5.28-8.83a.83.83 0 00.12-.79.82.82 0 00-.74-.3H100a3.29 3.29 0 00-2.51 1.42z"/><path class="cls-1" d="M122.56 19a.6.6 0 01.46.14c0 .07 0 .24-.12.47l-2.81 4.73a3 3 0 01-2.22 1.27H107.4l.39-.66 2.78-4.68a3 3 0 012.22-1.27h9.77m0-.64h-9.77A3.6 3.6 0 00110 20l-2.78 4.68-1 1.61h11.56a3.6 3.6 0 002.78-1.58l2.9-4.71c.52-.87.11-1.58-.9-1.58z"/><path class="cls-2" d="M55 5.29l1.73-2.55C57.31 1.84 58 1 58.56.09l.06-.09h17.73c2.39 0 6 .08 8.17 1.07 1.39.63 2 1.69 1.08 3.06a7.79 7.79 0 01-3.75 2.47 27.06 27.06 0 01-7.53 1.32l2.44 2.53 2.76 2.85.32.34h-8.31l-.06-.07c-.85-.94-1.71-1.87-2.55-2.81L66.48 8h-6.35c-.64.9-1.28 1.81-1.91 2.73l-1.92 2.82-.06.09h-7l.22-.32 1.92-2.81c.57-.83 1.14-1.67 1.73-2.5h-4.2l.2-.31c.52-.78 1.06-1.55 1.59-2.33l.06-.08H55zm-40.23 0c.58-.85 1.17-1.7 1.74-2.55S17.72 1 18.34.09L18.4 0h22.78c2.31 0 6.08.4 6.9 3a4.68 4.68 0 01-.81 3.82 14 14 0 01-5.63 4.65 21.78 21.78 0 01-9.46 2.14H9l.22-.32 1.92-2.81L12.85 8H7.53l.19-.3c.5-.8 1-1.57 1.57-2.33l.06-.09h5.4zm92.93 5.86c.3.79.63 1.58 1 2.36v.13h7.49l-.13-.29c-1-2.19-2-4.4-3-6.61s-2-4.41-3-6.62V0H95.18l-.05.09c-.52.72-1 1.45-1.52 2.19l-.2.31h7.67l-9.57 5.15c-3.42 1.85-6.86 3.67-10.28 5.52l-.69.38h7.86c1.46-.82 2.92-1.65 4.39-2.46zm96.57-8.43H193.8l.22-.31c.53-.78 1.07-1.55 1.61-2.32l.05-.09h27.88l-.21.31c-.53.77-1.06 1.54-1.58 2.32l-.06.09h-10.42l-3.68 5.37c-1.25 1.82-2.51 3.64-3.75 5.46l-.06.09h-7.08l.21-.32c1.25-1.81 2.49-3.64 3.75-5.46l3.57-5.14zM222.44 8c-.58.83-1.15 1.67-1.72 2.51l-1.91 2.81-.21.31h27.55l.06-.09 1.22-1.8c.41-.6.82-1.2 1.25-1.79l.23-.32h-7.06l-.06.09c-.28.39-.55.79-.81 1.19H227.5c.66-1 1.33-1.94 2-2.9h8.69l.06-.09c.51-.78 1.05-1.55 1.58-2.31l.17-.31h-8.68l1.78-2.58h13.44c-.23.32-.46.64-.67 1l-.17.28h7.05l.05-.09 1.2-1.8c.41-.6.84-1.2 1.27-1.79l.23-.32H228l-.06.09c-.62.88-1.25 1.75-1.84 2.65s-1.18 1.69-1.75 2.55h-4.24l-.06.08c-.54.77-1.07 1.54-1.59 2.33l-.2.3h4.2zm54.33-.08l2.46 2.53c.93 1 1.86 1.91 2.8 2.84l.34.34H274l-.06-.06c-.86-.94-1.74-1.86-2.59-2.82L268.94 8h-6.32c-.64.9-1.28 1.81-1.9 2.73s-1.28 1.87-1.91 2.81l-.06.09h-7.05l.21-.31 1.91-2.82c.57-.84 1.16-1.67 1.74-2.5h-4.24l.22-.31c.53-.78 1.07-1.55 1.6-2.32l.06-.09h4.22c.57-.85 1.18-1.69 1.74-2.55S260.39 1 261 .09l.06-.09h17.74c2.38 0 6 .09 8.14 1.07 1.38.63 2.08 1.68 1.12 3.06a7.82 7.82 0 01-3.76 2.47 27 27 0 01-7.53 1.32zM145.37 8H140l.21-.31c.51-.77 1-1.54 1.56-2.3v-.08h12.47l-.22.32c-.54.75-1 1.52-1.56 2.28-.63.94-1.29 1.86-1.91 2.81s-1.27 1.87-1.89 2.82l-.06.09h-23.24c-2.28 0-6.28-.39-7-3a4.8 4.8 0 011.08-4 15.47 15.47 0 015.94-4.58 21.5 21.5 0 019.16-2h23.31l-.21.32c-.41.59-.84 1.18-1.23 1.79s-.81 1.18-1.19 1.8l-.06.09h-7l.21-.31c.21-.33.42-.65.64-1h-13.59c-3.28 0-7.62 1.41-9.63 4.13a2.76 2.76 0 00-.67 2.22c.42 1.56 3 1.82 4.34 1.85h13.93c.66-1 1.31-1.95 2-2.91zm16.48 2.9c.21-.32.43-.64.66-.95l.23-.32h-7.07l-.06.09c-.41.6-.84 1.19-1.23 1.8s-.81 1.19-1.19 1.8l-.2.31h19.19a34.08 34.08 0 009.75-1.25c1.59-.49 3.89-1.41 4.87-2.81a2.07 2.07 0 00.41-1.38c-.3-2.66-6.28-2.88-8.26-2.88h-9.51c-.62 0-3.4-.09-3.46-.93 0-.48 1-.93 1.33-1.06a12.1 12.1 0 014.14-.62h11.65l-.65 1-.2.31h7l.06-.09c.38-.61.81-1.19 1.2-1.8s.81-1.2 1.21-1.79L192 0h-18.4a34.6 34.6 0 00-9.6 1.2c-1.56.46-3.89 1.36-4.87 2.71a1.85 1.85 0 00-.41 1.27C159 7.85 165.55 8 167.52 8h9c.7 0 3.3.12 3.38 1.08 0 .54-.88 1-1.29 1.16a11.72 11.72 0 01-4.28.65zm-98-8.19c-.6.86-1.19 1.71-1.78 2.58h11.21c1.32 0 4.62-.23 5.42-1.38s-2.88-1.19-3.37-1.19zm-40.24 0c-1 1.4-2 2.79-2.95 4.21s-1.83 2.66-2.74 4h13.35a14.87 14.87 0 006.12-1.42 8.58 8.58 0 003.49-2.87 2.71 2.71 0 00.45-2.11c-.47-1.56-2.88-1.8-4.24-1.8zm73.8 5.85l3.57-2 4-2.26.85 2.16c.28.7.56 1.4.83 2.1zM264.47 5.3h11.25c1.31 0 4.65-.22 5.44-1.38s-2.9-1.19-3.4-1.19h-11.5z"/><path d="M202.79 16.43h24.15a3.49 3.49 0 00-2.51 2h-20.7a.62.62 0 00-.52.39c-.22.55-.53 1.1-.75 1.65-.09.21 0 .38.22.38h13.06c2.47 0 4.07.18 4.78.55s.86 1.07.44 2.07c-.21.51-.47 1-.69 1.52a3.55 3.55 0 01-2.16 2.01 17.21 17.21 0 01-5.22.59h-21.6c.27-.71.74-1.41 1-2.12h19.77a.63.63 0 00.52-.38l.72-1.77c.09-.21 0-.38-.2-.38L200 23a12.65 12.65 0 01-4.79-.55c-.72-.38-.88-1.07-.49-2.09.16-.42.37-.83.53-1.24a3.68 3.68 0 012.26-2.12 17.06 17.06 0 015.28-.58" fill="#85754e"/><path class="cls-2" d="M273 31.74h-.68l.26-.65.15-.36a.1.1 0 000-.1.08.08 0 00-.11 0l-.61.44-.78.58a.08.08 0 01-.07 0 .07.07 0 01-.06 0l-.3-.54c-.08-.16-.17-.31-.26-.47a.09.09 0 00-.08-.05.1.1 0 00-.08.06c-.06.16-.12.31-.19.47s-.17.43-.26.65h-.68c.14-.35.29-.71.44-1.06s.28-.71.43-1.07h.71c.1.21.22.41.33.62s.2.35.3.52 0 0 .06.05a.1.1 0 00.07 0l.75-.55.85-.62h.72c-.15.35-.29.71-.44 1.06s-.29.71-.44 1.07M269.59 30.11h-2.36a.08.08 0 00-.08.06l-.06.13a.1.1 0 000 .09.1.1 0 00.07 0h2.13c-.07.16-.13.33-.2.49h-2.21a.1.1 0 00-.08.05l-.06.14a.1.1 0 000 .09.11.11 0 00.08 0h2.29l-.21.5h-2.83a.16.16 0 01-.15-.08.16.16 0 010-.16c.11-.28.22-.55.34-.82l.39-1a.17.17 0 01.16-.11h3l-.2.5M266.25 30.11H265a.09.09 0 00-.08.06c-.1.25-.21.5-.31.76l-.34.81h-.67c.11-.27.22-.54.34-.81l.28-.69a.1.1 0 000-.09.08.08 0 00-.07 0H263l.21-.5h3.29c-.07.17-.14.33-.2.5M262.26 31.09a.94.94 0 01-.41.46 1.25 1.25 0 01-.67.2h-2.51c.06-.17.13-.33.2-.5h2.51a.22.22 0 00.2-.16c.05-.11 0-.16-.06-.16h-1.83a.64.64 0 01-.52-.2.44.44 0 010-.45 1.06 1.06 0 01.43-.47 1.24 1.24 0 01.67-.19h2.51l-.21.5H260c-.09 0-.16.06-.21.17s0 .15.08.15h1.82a.62.62 0 01.52.2.42.42 0 010 .46M258.86 30.28a1 1 0 01-.41.45 1.2 1.2 0 01-.68.2h-.61l-.17.41-.17.41h-.68c.05-.14.11-.27.17-.41s.11-.27.17-.41h-.63a.61.61 0 01-.51-.2.44.44 0 010-.45l.14-.33.13-.33h.68l-.13.33-.14.33c0 .1 0 .15.08.15h1.9a.21.21 0 00.2-.15l.14-.33.14-.33h.67L259 30l-.13.33M254.69 31.09a1.06 1.06 0 01-.41.46 1.34 1.34 0 01-.69.2h-2.5c.07-.17.14-.33.2-.5h2.51a.23.23 0 00.21-.16c0-.1 0-.16-.08-.16h-1.82a.6.6 0 01-.52-.2.4.4 0 010-.45.92.92 0 01.42-.46 1.17 1.17 0 01.67-.2h2.51l-.21.5h-2.51a.2.2 0 00-.2.16c-.05.1 0 .16.06.16h1.84a.64.64 0 01.52.19.46.46 0 010 .46M261.52 16.45h20.63c-.32.65-.63 1.3-.94 1.95h-18.94a.66.66 0 00-.53.38l-.74 1.64c-.09.21 0 .38.18.38h12.71c2.4 0 3.95.17 4.63.55s.78 1.05.3 2l-.72 1.5a3.91 3.91 0 01-2.26 2 17.31 17.31 0 01-5.13.56l-14.71.12h-6.48l.94-2.21h19.61a.69.69 0 00.53-.37c.27-.58.51-1 .78-1.62.1-.21 0-.38-.17-.38h-12.67c-2.41 0-4-.17-4.64-.54s-.8-1.06-.35-2.07c.19-.41.37-.82.56-1.22a3.77 3.77 0 012.24-2.12 16.86 16.86 0 015.17-.58"/><path class="cls-4" d="M250.86 25.91L250.4 27h5.6l14.69-.06a17 17 0 004.94-.53 3.28 3.28 0 001.93-1.74l.72-1.5c.2-.42.45-1-.06-1.29-.84-.46-3.4-.48-4.35-.48h-12.71a.81.81 0 01-.7-1.2c.25-.54.49-1.09.74-1.63a1.29 1.29 0 011.06-.72h18.58c.12-.26.25-.53.38-.79h-19.7a16.57 16.57 0 00-5 .54 3.21 3.21 0 00-1.91 1.79c-.18.4-.37.81-.55 1.22s-.43 1 .09 1.32c.87.47 3.39.48 4.37.48h12.66a.8.8 0 01.7 1.2c-.25.54-.52 1.07-.78 1.62a1.24 1.24 0 01-1.05.7h-19.22"/><path class="cls-2" d="M256.59 16.4c-2 .46-2.57 1.23-2.92 2h-21.21a1.27 1.27 0 00-1 .75c-.79 1.84-1.8 3.59-2.59 5.44-.18.4 0 .73.39.73l20.65-.05-1 2.23h-25.22c-1.36 0-2-1.22-1.36-2.63.82-1.94 1.88-3.9 2.74-5.93a4.37 4.37 0 013.59-2.62h11.12z"/><path class="cls-2" d="M202.79 16.43h24.15a3.49 3.49 0 00-2.51 2h-20.7a.62.62 0 00-.52.39c-.22.55-.53 1.1-.75 1.65-.09.21 0 .38.22.38h13.06c2.47 0 4.07.18 4.78.55s.86 1.07.44 2.07c-.21.51-.47 1-.69 1.52a3.55 3.55 0 01-2.16 2.01 17.21 17.21 0 01-5.22.59h-21.6c.27-.71.74-1.41 1-2.12h19.77a.63.63 0 00.52-.38l.72-1.77c.09-.21 0-.38-.2-.38L200 23a12.65 12.65 0 01-4.79-.55c-.72-.38-.88-1.07-.49-2.09.16-.42.37-.83.53-1.24a3.68 3.68 0 012.26-2.12 17.06 17.06 0 015.28-.58"/><path class="cls-4" d="M192.68 26.13c-.15.32-.32.64-.48.95H212.89a17.59 17.59 0 005-.55 3 3 0 001.83-1.74c.22-.51.47-1 .69-1.52s.38-1.05-.18-1.34c-.9-.47-3.49-.49-4.5-.49h-13.07a.82.82 0 01-.76-1.18c.22-.56.53-1.08.75-1.65a1.2 1.2 0 011.06-.74h20.34a3.71 3.71 0 01.63-.83h-21.89a17.3 17.3 0 00-5.08.54 3.09 3.09 0 00-1.89 1.78c-.16.43-.37.83-.53 1.25s-.34 1.07.21 1.36c.92.48 3.5.5 4.53.49h13.07a.82.82 0 01.75 1.18c-.25.59-.49 1.18-.73 1.77a1.22 1.22 0 01-1.05.74h-19.39"/><path class="cls-2" d="M214.62 30.14h-1.19a.18.18 0 00-.17.11l-.3.7c-.11.28-.23.55-.35.82h-.67c.11-.27.23-.54.34-.82l.3-.69a.08.08 0 000-.08.08.08 0 00-.08 0h-1.16l.21-.5h3.29l-.21.5M198.8 31.12a1.08 1.08 0 01-.42.46 1.28 1.28 0 01-.68.2h-2.51l.21-.5h2.52a.23.23 0 00.21-.16c0-.1 0-.16-.08-.16h-1.82a.59.59 0 01-.52-.2.42.42 0 010-.45 1 1 0 01.42-.47 1.3 1.3 0 01.67-.19h2.51c-.08.16-.15.33-.22.49h-2.51a.22.22 0 00-.21.16c-.05.1 0 .15.07.15h1.83a.61.61 0 01.51.2.44.44 0 010 .46M210.12 31.77h-.94l-.48-.59-.35-.46a.09.09 0 010-.09.1.1 0 01.08-.05H210a.31.31 0 00.27-.22c.06-.15 0-.22-.09-.22h-2a.08.08 0 00-.08.05l-.33.77-.34.81h-.68l.45-1.06.45-1.07h2.82a.59.59 0 01.53.22.55.55 0 010 .5 1.22 1.22 0 01-.42.49 1.26 1.26 0 01-.72.23h-.26c.1.11.19.23.28.34s.19.24.29.35M206.41 31.77h-.68l.15-.33a3.45 3.45 0 01.14-.34h-1.78l.21-.5h1.78l.13-.3c0-.11 0-.16-.07-.16h-1.92a.22.22 0 00-.21.16l-.32.74-.31.73h-.68c.1-.25.21-.5.31-.74l.32-.74a1 1 0 01.42-.46 1.26 1.26 0 01.68-.2h1.92a.61.61 0 01.51.2.42.42 0 010 .46c-.1.25-.21.49-.31.74s-.21.49-.32.73M202.56 31.78h-.67c.09-.22.19-.44.28-.65l.15-.37a.07.07 0 000-.1.07.07 0 00-.1 0l-.62.45-.79.57a.1.1 0 01-.07 0s-.05 0-.06-.05-.2-.36-.29-.54l-.24-.47a.08.08 0 00-.08-.05.08.08 0 00-.08.06l-.2.48c-.09.21-.19.43-.28.65h-.68c.15-.36.31-.71.46-1.07l.45-1.06h.72l.31.61a5.21 5.21 0 00.28.52.07.07 0 00.06 0 .09.09 0 00.07 0c.25-.19.51-.36.77-.55l.85-.61h.7l-.5 1.11c-.15.36-.31.71-.46 1.07M238.14 30.12H237a.17.17 0 00-.16.1l-.3.71c-.12.27-.23.55-.34.82h-.68c.11-.27.22-.55.34-.82l.29-.69a.09.09 0 00-.08-.12h-1.18l.21-.5h3.29l-.21.49M244.28 31.75h-.68c.06-.13.11-.27.17-.4l.12-.29a.09.09 0 00-.08-.12h-1.56a.1.1 0 00-.08 0l-.15.36-.17.41h-.67l.45-1.07c.15-.35.29-.71.44-1.06h.67c-.05.14-.11.28-.17.41s-.08.19-.11.29a.08.08 0 000 .08.09.09 0 00.08 0h1.55a.08.08 0 00.08-.05l.15-.36c.06-.13.11-.27.17-.41h.68l-.45 1.07c-.14.35-.29.71-.44 1.06M240.9 31.76h-2.25a.82.82 0 01-.59-.19.41.41 0 01-.07-.49l.16-.39c.06-.13.1-.26.16-.39a1 1 0 01.48-.48 1.55 1.55 0 01.75-.19h2.25l-.21.49h-2.25a.33.33 0 00-.34.18c-.06.13-.11.26-.16.39l-.16.39c0 .12 0 .18.19.18h2.25l-.21.5M234.16 31.1a1 1 0 01-.43.46 1.22 1.22 0 01-.67.2h-1.92a.61.61 0 01-.52-.19.46.46 0 010-.47c.11-.24.21-.49.31-.73s.21-.49.31-.74h.69c-.1.25-.2.49-.31.74s-.2.49-.31.73 0 .16.08.16h1.92a.21.21 0 00.21-.16c.11-.24.21-.49.31-.73l.31-.74h.68l-.31.73c-.1.25-.2.5-.31.74M230 31.76h-2.77a.07.07 0 01-.07 0 .08.08 0 010-.08l.39-.94.45-1.07h.68l-.34.82c-.1.23-.2.46-.29.69a.08.08 0 000 .08.09.09 0 00.08 0h2.09l-.21.5M226.83 31.76h-2.24a.78.78 0 01-.59-.19.39.39 0 01-.08-.48l.17-.39.16-.39a1 1 0 01.48-.48 1.57 1.57 0 01.76-.2h2.24l-.21.5h-2.24c-.19 0-.3.06-.35.18l-.16.39-.17.39c0 .12 0 .18.2.18h2.2l-.21.49"/></g></g></svg>