<svg xmlns="http://www.w3.org/2000/svg" viewBox="0 0 437.24 65.18"><defs><style>.cls-3{fill:#ce0e2d;fill-rule:evenodd}</style></defs><g id="Livello_2" data-name="Livello 2"><g id="Layer_1" data-name="Layer 1"><path d="M389.68 53.87h8.58a11.52 11.52 0 0010.33-6.4c4.48-10.08-6.22-9.52-6.22-9.52h-51.68a16 16 0 01-8.84 12.56L340 53.65c3.5 1.06 7.76 2.28 12.94 3.69l.91.24L362 43.66h27.83s4.68 0 3.69 2.33c-.2.46-.89 2.08-3.79 2.1h-14.91s-25.36 0 8.7 17.11h30.6c-43.23-11.73-24.47-11.31-24.47-11.31" fill="#ce0e2d"/><path d="M270.51 53.8h12.33l11-18.7h31.65a12.43 12.43 0 012.85.36 4.72 4.72 0 013.26 2.3 3.57 3.57 0 010 3.06c-1.13 2.59-3.48 3.67-6.23 3.67h-16.26c-1.26 0-8.85.19-7.24 2.59a13.78 13.78 0 002.65 2.69 51.36 51.36 0 005.75 4c2.88 1.74 5.86 3.34 8.87 4.86h16.63l-.41-.12c-3.26-1-6.55-2.09-9.73-3.34a28.15 28.15 0 01-5-2.42c-1.3-.87-2.46-2.19-2-3.88.75-2.5 4.51-2.62 6.67-2.58h9.33a9.87 9.87 0 007-2.73 10.4 10.4 0 002.17-2.88c.58-1.3 1.28-3.3.89-4.74a2.59 2.59 0 00-1.41-1.64 8.84 8.84 0 00-4.06-.8h-56.74zm-4 2.28h17.62l11-18.7h30.35s5.11 0 4 2.53c-.23.51-1 2.28-4.14 2.3h-16.26s-27.66 0 9.49 18.65H352c-47.15-12.79-26.7-12.33-26.7-12.33h9.36a12.57 12.57 0 0011.27-7c4.88-11-6.79-10.39-6.79-10.39h-58z" fill-rule="evenodd" fill="#8c9091"/><path class="cls-3" d="M9.26 34.25l1.67-.72a3.51 3.51 0 011.33-.27H34l-.25.39c-3.88 6.19-7.23 12.69-11.11 18.88-.59 1-2 1.18-3.07 1.18H3.46l9-15a2.61 2.61 0 00-1.15-3.45 3.41 3.41 0 00-1.83-.57H8.12zM0 55.59h19.61c1.73 0 3.72-.46 4.7-2C28.43 46.9 32.07 40 36.23 33.36c.38-.57-.61-1.4-1-1.65a2.31 2.31 0 00-1.08-.33H12.18a5.37 5.37 0 00-2.13.43l-7 3a1 1 0 00.49 1.82h5.53a1.81 1.81 0 011.16.2c.84.54.57.86.16 1.52C6.89 44.06 3.49 49.86 0 55.59zM84.14 38.32v.1l-4.94 8.69a4.74 4.74 0 01-3.56 2.12H58l5.16-9.17a4.79 4.79 0 013.56-2.12h17.62zM55 51l.18.22h20.48a6.58 6.58 0 005.19-3.11l4.9-8.7A2.53 2.53 0 0086 37a2.31 2.31 0 00-2.14-1.06H66.73A6.6 6.6 0 0061.49 39l-6 10.66-.5.89A.47.47 0 0055 51zm-24.7 2.49l10-17.58a5.25 5.25 0 014.06-2.4l67.46.05a2.08 2.08 0 01.55.07.73.73 0 01.41.27c.15.28-.07.77-.21 1l-9.19 16.22a5.25 5.25 0 01-4 2.41zm84.08-20.6a2.82 2.82 0 00-2.63-1.36l-67.47-.03a7.13 7.13 0 00-5.68 3.39L27.9 53.78a1.24 1.24 0 000 1.21 1.07 1.07 0 00.64.52 1.06 1.06 0 00.31.05h70.46a7.14 7.14 0 005.69-3.33L114.16 36a3.14 3.14 0 00.21-3.08zM164.51 38.22a.31.31 0 010 .1l-4.9 8.7a4.75 4.75 0 01-3.61 2.12h-17.65l5.16-9.14a4.78 4.78 0 013.55-2.12H164.68zM135.36 51l.18.21h20.48a6.6 6.6 0 005.19-3.11l4.9-8.7a2.59 2.59 0 00.21-2.48 2.3 2.3 0 00-2.14-1.07h-17.13a6.61 6.61 0 00-5.19 3.1L137 47.51c-.55 1-1.1 2-1.66 3a.47.47 0 000 .47zm-24.71 2.48l10-17.58a5.27 5.27 0 014-2.41l67.46.06a2.1 2.1 0 01.56.07.66.66 0 01.4.27c.15.27-.06.76-.2 1l-9.19 16.22a5.27 5.27 0 01-4.05 2.41zm84.09-20.6a2.83 2.83 0 00-2.63-1.37l-67.46-.05A7.15 7.15 0 00119 34.8l-10.73 18.89a1.22 1.22 0 000 1.2 1 1 0 00.63.53 1.12 1.12 0 00.32 0l70.46.06a7.11 7.11 0 005.68-3.39l9.19-16.22a3.12 3.12 0 00.19-3.04zm49.31 5.46a.47.47 0 01-.05.1l-4.89 8.7a4.79 4.79 0 01-3.56 2.12h-17.66l5.16-9.26a4.76 4.76 0 013.56-2.12h17.61zM214.9 51l.18.21h20.48a6.6 6.6 0 005.19-3.1l4.9-8.7a2.55 2.55 0 00.21-2.49 2.31 2.31 0 00-2.14-1.06h-17.13A6.6 6.6 0 00221.4 39l-6 10.67-.5.88a.47.47 0 000 .46zm-24.7 2.5l10-17.58a5.28 5.28 0 014-2.41l67.47.05a2.08 2.08 0 01.55.07.67.67 0 01.4.27c.15.28-.06.77-.2 1l-9.19 16.22a5.25 5.25 0 01-4.05 2.41zm84.08-20.61a2.82 2.82 0 00-2.63-1.36l-67.46-.06a7.13 7.13 0 00-5.68 3.39l-10.7 18.89a1.24 1.24 0 000 1.21 1.07 1.07 0 00.64.52 1.06 1.06 0 00.31.05l70.46.06a7.15 7.15 0 005.69-3.39l9.15-16.2a3.12 3.12 0 00.22-3.11z"/><path d="M37.36 14.26l-3.7 6.21H54.2c11.89 0 15.44-6.2 3.73-6.2zM40 9.92h18.23c10.22 0 13.67-5.57 3.33-5.57H43.28zm-25.53 4.34l2.59-4.34h9.41L32.39 0h44.27c9.47 0 7.34 2.21 4.7 6.63C80 8.93 76 10.75 70.82 11.58c5.91.83 9.32 2.88 7.44 6-2.64 4.43-3.52 7.19-14.37 7.2H17.58l6.3-10.55zm91.83-4.34l3.33-5.56h18.17c10.81 0 7.23 5.57-3.32 5.57zM83.92 24.81h13.49l6.29-10.55h9.3l9.28 10.55h15.55l-10.1-10.67c12-.63 17.9-3.71 19.86-7 2.56-4.3 4.65-7.08-9-7.08L98.74 0l-5.92 9.92h-7.4l-2.59 4.35h7.39zm64.81-10.26L157.42 0h13.48l-8.19 13.7c-2.6 4.36 2.44 7.05 10.71 7.25 8.62-.2 16.78-2.89 19.4-7.25L201 0h13.48l-8.77 14.69c-3.43 5.73-17.3 10.63-33.86 10.63h-8.71c-16.58 0-17.92-4.9-14.51-10.63zm72.45 10.26l12.23-20.46h-18.15l2.6-4.35h49.77L265 4.35h-18.11l-12.22 20.46h-13.49zM292.7 16h-16l12.76-7.88zm-44.39 8.77h14.27l7.52-4.66h24.19l1.95 4.67h14.35L299.19 0H271.5l-2.45 4.11h14.2zm66.35 0h49.27l4-6.75h-13.45l-1.43 2.4h-22.32L343 0h-13.53zm58.49 0h49.28l4-6.74H413l-1.44 2.4h-22.34l3.71-6.2h15.17l2.59-4.34H395.5l3.35-5.58h22.28l-1.43 2.4h13.48L437.24 0H388l-6 9.91h-7.39l-2.59 4.35h7.39z" fill="#8c9091"/></g></g></svg>