<svg xmlns="http://www.w3.org/2000/svg" viewBox="0 0 708.7 93"><path d="M601.2 41.6h82.6l6.8-11.3H668l-2.4 4h-37.4l6.2-10.4h25.4l4.4-7.3h-25.5l5.6-9.3h37.4l-2.4 4h22.6L708.7 0h-82.6l-10 16.6h-12.4l-4.3 7.3h12.4zm-98 0h82.6l6.7-11.3h-22.6l-2.4 4h-37.4L550.6 0H528zm-111.2 0h23.9l12.6-7.8H469l3.3 7.8h24.1L477.3 0h-46.5l-4.1 6.9h23.8zm74.4-14.7h-26.9l21.4-13.2zM346.5 41.6L367 7.3h-30.4l4.3-7.3h83.5L420 7.3h-30.4l-20.5 34.3h-22.6zM225.1 24.4L239.6 0h22.6l-13.7 23c-4.4 7.3 4.1 11.8 17.9 12.1S294.6 30.3 299 23l13.7-23h22.6l-14.7 24.6c-5.8 9.6-29 17.9-56.8 17.8h-14.6c-27.8 0-30-8.2-24.3-17.8zM116.4 41.6H139l10.6-17.7h15.6l15.5 17.7h26.1l-16.9-17.9c20.1-1 30-6.2 33.3-11.7C227.5 4.8 231 .1 208 .1h-66.7l-10 16.6h-12.4l-4.3 7.3H127zm37.5-25l5.6-9.3H190c18.1 0 12.1 9.3-5.6 9.3zM0 23.9l4.3-7.3h15.8L30.1 0h74.2c15.8 0 12.3 3.7 7.8 11.1-2.3 3.9-9 6.9-17.6 8.3 9.9 1.4 15.6 4.8 12.4 10.1-4.4 7.4-5.9 12.1-24.1 12.1H5.2l10.6-17.7zm42.7-7.3h30.7c17.1 0 22.9-9.3 5.5-9.3H48.3zm-4.3 7.3l-6.2 10.4h34.4c19.9 0 25.9-10.4 6.3-10.4z" fill="#8d8e8c"/><path d="M347.6 59.3h10.2a2.2 2.2 0 002.1-.9l2.3-3.6c.3-.3-.5-1.1-1.1-1.1h-7.8a3.3 3.3 0 00-3 1.4l-2.7 4.2m-7 11.2h10a2.5 2.5 0 002.1-1l2.1-3.4c.3-.4-.5-1.2-1-1.2h-7.5a3.6 3.6 0 00-3.1 1.4c-.9 1.4-1.8 2.8-2.6 4.2zm47.2-20.2c-2.5 3.9-5.1 7.8-7.6 11.8s-5 7.8-7.5 11.8q-1.3 2.1-4.8 2.1h-53.6l8.1-12.8 8.1-12.9c.9-1.4 2.6-2.2 4.9-2.2h50.3c1.2 0 2.5 1.5 2.1 2.2zM424.3 53.6h-7.4a3.6 3.6 0 00-3.1 1.4c-1.6 2.6-3.2 5.2-4.9 7.7s-3.2 5.2-4.9 7.7h10a2.4 2.4 0 002.1-1l4.6-7.4 4.7-7.3c.2-.4-.5-1.2-1.1-1.2m26.8-3.4L443.6 62c-2.5 4-5.1 7.9-7.5 11.9-.9 1.4-2.6 2.1-4.9 2.1h-53.5l8.2-12.9 8.1-12.9c.9-1.4 2.6-2.1 4.8-2.1h50.3c1.1 0 2.5 1.4 2 2.1zM487.1 53.6h-7.3a3.4 3.4 0 00-3.1 1.4l-4.9 7.7-4.8 7.7h9.9a2.5 2.5 0 002.1-1l4.6-7.4 4.6-7.3c.3-.4-.5-1.2-1.1-1.2m26.8-3.4L506.4 62l-7.5 11.9c-.9 1.4-2.6 2.1-4.8 2.1h-53.4l8.1-12.9c2.7-4.3 5.4-8.6 8.2-12.9.8-1.4 2.5-2.1 4.7-2.1h50.1c1.2 0 2.6 1.4 2.1 2.1z" fill="#cc182c"/><g fill-rule="evenodd"><path d="M568.7 73.9c-1.3 2-2.6 4-4 5.9a16.8 16.8 0 01-4.1 4.3H582zM639.9 93h21.8l-16.3-15.9c19.4-1 28.8-5.6 32-10.5s-3.9-10.7-26-10.7h-17a5.9 5.9 0 01-1 2.9 15.9 15.9 0 01-3.7 3.6h2.8c17.3 0 11.8 8.3-5.3 8.3h-16.5z" fill="#cc182c"/><path d="M589.5 85.3h21.8l-14.6-16c19.4-1 28.9-5.6 32.1-10.5 4.1-6.5-4-10.7-26.1-10.7h-77.1a7.6 7.6 0 01-.5 7.7L514 72.1a14.9 14.9 0 01-4.1 4.2h29.6l14-21.7h30.2c17.4 0 11.8 8.4-5.3 8.3h-18.3z" fill="#8d8e8c"/></g></svg>