<svg xmlns="http://www.w3.org/2000/svg" viewBox="0 0 243.23 32.28"><defs><style>.cls-1{fill:#ce0e2d}.cls-2{fill:#8c9091}.cls-4{fill:#070707;fill-rule:evenodd}</style></defs><g id="Livello_2" data-name="Livello 2"><g id="Layer_1" data-name="Layer 1"><path class="cls-1" d="M88.05 29.34H46.89a.39.39 0 01-.35-.21.42.42 0 010-.43l6.29-10.53A4 4 0 0156 16.39h39.39a1.3 1.3 0 011.2 2.12l-5.4 9a4 4 0 01-3.14 1.83zm-40.7-.67h40.7a3.39 3.39 0 002.57-1.46l5.4-9a.84.84 0 00.12-.81.81.81 0 00-.75-.31H56a3.35 3.35 0 00-2.56 1.46zM41.61 29.34H.19l-.12-.15a.35.35 0 010-.33s0-.07 1-1.72l1.41-2.33a4.66 4.66 0 013-2l1.81-.25a.33.33 0 01.09.66l-1.81.25A4.06 4.06 0 003 25.15l-1.4 2.33-.71 1.19h40.72a3.35 3.35 0 002.56-1.46l1.44-2.4a1.15 1.15 0 00.17-1 .63.63 0 00-.48-.33l-1.52-.25a.33.33 0 01-.27-.38.34.34 0 01.38-.28l1.51.25a1.29 1.29 0 011 .71 1.81 1.81 0 01-.21 1.66l-1.44 2.41a4 4 0 01-3.14 1.74z"/><path class="cls-1" d="M7.31 23.19l-1.51-.25a1.29 1.29 0 01-1-.71 1.82 1.82 0 01.2-1.66l1.44-2.4a4 4 0 013.13-1.78h39.4a1.46 1.46 0 011.34.64 1.44 1.44 0 01-.13 1.48l-1.44 2.4a4.66 4.66 0 01-3 2l-1.81.25a.32.32 0 01-.37-.28.33.33 0 01.28-.38l1.81-.25a4 4 0 002.54-1.71l1.44-2.4a.84.84 0 00.12-.81.83.83 0 00-.76-.31H9.54A3.35 3.35 0 007 18.51l-1.44 2.4a1.15 1.15 0 00-.17 1 .58.58 0 00.48.33l1.52.25a.33.33 0 01-.06.66z"/><path class="cls-1" d="M33 19.49c.32 0 .46.1.49.15s0 .21-.11.42a3 3 0 01-2.25 1.25H20.39c.09-.17.2-.35.33-.57A3 3 0 0123 19.49h10m0-.66H23a3.66 3.66 0 00-2.83 1.57 6.11 6.11 0 00-.82 1.6H31.1a3.63 3.63 0 002.82-1.57c.51-.86.09-1.57-1-1.57zM30 24.44c.33 0 .46.1.49.15s0 .21-.11.42a3 3 0 01-2.25 1.25h-10.7c.09-.17.2-.35.33-.57A3 3 0 0120 24.44h10m0-.66H20a3.63 3.63 0 00-2.82 1.57 6 6 0 00-.8 1.57h11.76A3.63 3.63 0 0031 25.35c.52-.86.09-1.57-.95-1.57zM79.06 19.49a.62.62 0 01.47.14c0 .07 0 .25-.12.48L76.53 25a3 3 0 01-2.27 1.3H63.54l.4-.68 2.84-4.79a3 3 0 012.28-1.3h10m0-.66h-10a3.68 3.68 0 00-2.85 1.62l-2.84 4.79-1 1.65h11.89a3.68 3.68 0 002.85-1.62L80 20.45c.53-.89.12-1.62-.92-1.62zM134.51 29.34H93.35a.41.41 0 01-.35-.64l6.29-10.53a4 4 0 013.13-1.78h39.4a1.46 1.46 0 011.34.64 1.44 1.44 0 01-.13 1.48l-5.41 9a4 4 0 01-3.11 1.83zm-40.7-.67h40.7a3.35 3.35 0 002.56-1.46l5.41-9a.84.84 0 00.12-.81.83.83 0 00-.76-.31h-39.4a3.35 3.35 0 00-2.56 1.46z"/><path class="cls-1" d="M125.52 19.49a.62.62 0 01.47.14c0 .07 0 .25-.12.48L123 25a3 3 0 01-2.27 1.3H110c.12-.21.25-.44.4-.68l2.84-4.79a3 3 0 012.28-1.3h10m0-.66h-10a3.68 3.68 0 00-2.85 1.62l-2.85 4.79c-.52.9-1 1.64-1 1.65h11.84a3.68 3.68 0 002.84-1.62l2.88-4.85c.53-.89.12-1.62-.92-1.62z"/><path class="cls-2" d="M20.42 8l-2.06 3.46H29.8C36.43 11.4 38.4 8 31.88 8zm1.45-2.42h10.18c5.69 0 7.61-3.11 1.85-3.11H23.72l-1.85 3.06zM7.66 8l1.45-2.47h5.24L17.65 0h24.67c5.27 0 4.09 1.23 2.62 3.7-.77 1.3-3.02 2.3-5.88 2.75 3.29.46 5.2 1.61 4.15 3.36-1.47 2.47-2 4-8 4H9.4L12.91 8zm51.17-2.47l1.86-3.1h10.12c6 0 4 3.11-1.85 3.11zm-12.47 8.29h7.52L57.38 8h5.19l5.17 5.87h8.67l-5.63-5.99c6.69-.35 10-2.07 11.06-3.89 1.43-2.4 2.6-3.95-5-3.95L54.62 0l-3.3 5.53H47.2L45.76 8h4.11l-3.51 5.87zm36.11-5.71L87.32 0h7.51l-4.57 7.64c-1.45 2.43 1.37 3.93 6 4 4.8-.11 9.35-1.61 10.81-4L111.6 0h7.52l-4.89 8.19c-1.91 3.19-9.64 5.92-18.87 5.92h-4.85c-9.24 0-10-2.73-8.08-5.92v-.08zm40.38 5.71l6.81-11.4h-10.11L121 0h27.74l-1.45 2.42h-10.12l-6.81 11.4h-7.51zm39.84-4.88h-8.92l7.11-4.38 1.81 4.39zM138 13.83h7.95l4.19-2.59h13.48l1.09 2.6h8L166.31 0h-15.43l-1.37 2.29h7.92L138 13.83zm37 0h27.46l2.24-3.76h-7.51l-.8 1.34h-12.5L190.69 0h-7.51l-8.25 13.82zm32.59 0H235l2.24-3.76h-7.51l-.79 1.34h-12.46L218.54 8H227l1.44-2.42H220l1.87-3.11h12.42l-.8 1.34H241L243.23 0h-27.45l-3.31 5.52h-4.11l-1.45 2.42H211z"/><path d="M155.06 16.94H179.22a3.51 3.51 0 00-2.51 2h-20.7a.61.61 0 00-.52.38c-.22.55-.54 1.1-.76 1.65-.08.21 0 .39.22.39h13.07c2.47 0 4.06.18 4.78.56s.86 1.06.44 2.06c-.22.51-.48 1-.69 1.53a3.58 3.58 0 01-2.16 2.06 17.32 17.32 0 01-5.23.58h-21.59c.27-.7.74-1.41 1-2.11h19.76a.62.62 0 00.52-.38c.24-.58.49-1.17.73-1.76.09-.21 0-.38-.21-.38h-13.08c-2.46 0-4.06-.18-4.79-.56s-.88-1.07-.48-2.09c.16-.41.37-.82.53-1.24a3.67 3.67 0 012.23-2.11 16.68 16.68 0 015.27-.58" fill="#85754e"/><path class="cls-2" d="M225.27 32.24h-.69l.27-.64.15-.36a.11.11 0 000-.11.11.11 0 00-.11 0l-.61.45-.78.57a.1.1 0 01-.07 0s-.05 0-.06-.05-.21-.36-.3-.54l-.26-.46a.08.08 0 00-.08-.05.08.08 0 00-.08.06c-.06.15-.12.31-.19.47l-.27.65h-.67c.14-.36.29-.71.43-1.07l.43-1.06h.71l.34.61c.09.18.19.35.29.53h.06a.08.08 0 00.07 0l.76-.56.85-.62h.71c-.14.36-.29.71-.43 1.07s-.29.71-.44 1.06M221.86 30.61h-2.35a.11.11 0 00-.09.05v.14a.08.08 0 000 .08.09.09 0 00.08 0h2.12c-.06.17-.12.33-.19.5h-2.21a.08.08 0 00-.08.06l-.06.14a.08.08 0 000 .08.08.08 0 00.07 0h2.3l-.21.5h-2.84a.19.19 0 01-.15-.08.17.17 0 010-.17l.33-.82c.13-.31.27-.63.4-.95a.16.16 0 01.16-.11h3l-.21.49M218.52 30.62h-1.25a.08.08 0 00-.08.05c-.11.26-.21.51-.32.76l-.33.82h-.67l.33-.82.29-.69a.09.09 0 00-.08-.12h-1.18l.2-.5h3.3l-.21.5M214.54 31.59a1 1 0 01-.41.46 1.27 1.27 0 01-.67.2h-2.52l.21-.5h2.51a.21.21 0 00.2-.16c0-.1 0-.16-.07-.16H212a.58.58 0 01-.52-.19.42.42 0 010-.46 1 1 0 01.43-.46 1.22 1.22 0 01.67-.2H215c-.06.17-.13.33-.2.5h-2.5a.21.21 0 00-.21.16c0 .11 0 .16.08.16H214a.61.61 0 01.52.19.44.44 0 010 .46M211.13 30.78a1 1 0 01-.4.46 1.31 1.31 0 01-.68.2h-.62l-.17.4-.17.41h-.68c.06-.13.12-.27.17-.41s.12-.27.17-.4h-.62a.59.59 0 01-.51-.2.42.42 0 010-.46l.13-.33c0-.11.1-.22.14-.33h.68l-.14.33-.13.33c0 .11 0 .16.07.16h1.92a.21.21 0 00.21-.16l.14-.33.13-.33h.68l-.14.33-.14.33M207 31.6a1 1 0 01-.41.46 1.27 1.27 0 01-.68.19h-2.51l.21-.5h2.51a.22.22 0 00.2-.16c.05-.11 0-.16-.07-.16h-1.83a.66.66 0 01-.52-.2.46.46 0 010-.46 1.14 1.14 0 01.42-.46 1.3 1.3 0 01.68-.19h2.5c-.07.17-.14.34-.2.5h-2.52c-.09 0-.15.06-.2.16s0 .16.07.16h1.83a.6.6 0 01.52.2.42.42 0 010 .46M213.8 17h20.62c-.31.66-.62 1.31-.94 1.95h-18.93a.65.65 0 00-.53.38l-.75 1.63c-.1.2 0 .37.18.37h12.7c2.41 0 4 .18 4.64.55s.78 1.05.3 2c-.24.5-.48 1-.73 1.51a3.82 3.82 0 01-2.25 2A17 17 0 01223 28h-21.19l.94-2.21h19.61a.68.68 0 00.53-.38c.27-.58.5-1 .78-1.62.1-.2 0-.37-.18-.37h-12.67c-2.4 0-3.95-.18-4.63-.55s-.8-1.06-.35-2.06l.55-1.23a3.87 3.87 0 012.24-2.09 16.53 16.53 0 015.17-.49"/><path class="cls-4" d="M203.13 26.42l-.45 1h5.61L223 27.4a17.42 17.42 0 004.94-.53 3.3 3.3 0 001.92-1.74c.25-.5.49-1 .73-1.51s.45-1-.06-1.28c-.85-.47-3.4-.48-4.35-.48h-12.71a.8.8 0 01-.71-1.19l.75-1.63a1.22 1.22 0 011.06-.72h18.57l.39-.8H213.8a17 17 0 00-5 .53 3.25 3.25 0 00-1.9 1.79c-.19.41-.37.82-.55 1.23s-.43 1 .09 1.31c.86.47 3.39.48 4.36.48h12.67a.8.8 0 01.7 1.2c-.25.54-.53 1.08-.78 1.62a1.26 1.26 0 01-1 .71h-19.23"/><path class="cls-2" d="M208.86 16.91c-2 .46-2.56 1.22-2.92 2h-21.21a1.23 1.23 0 00-1 .75c-.79 1.84-1.81 3.59-2.6 5.43-.17.41 0 .74.4.74l20.65-.05-1 2.23h-25.22c-1.35 0-2-1.22-1.35-2.64.81-1.93 1.88-3.89 2.73-5.92a4.38 4.38 0 013.6-2.62h11.11z"/><path class="cls-2" d="M155.06 16.94H179.22a3.51 3.51 0 00-2.51 2h-20.7a.61.61 0 00-.52.38c-.22.55-.54 1.1-.76 1.65-.08.21 0 .39.22.39h13.07c2.47 0 4.06.18 4.78.56s.86 1.06.44 2.06c-.22.51-.48 1-.69 1.53a3.58 3.58 0 01-2.16 2.06 17.32 17.32 0 01-5.23.58h-21.59c.27-.7.74-1.41 1-2.11h19.76a.62.62 0 00.52-.38c.24-.58.49-1.17.73-1.76.09-.21 0-.38-.21-.38h-13.08c-2.46 0-4.06-.18-4.79-.56s-.88-1.07-.48-2.09c.16-.41.37-.82.53-1.24a3.67 3.67 0 012.23-2.11 16.68 16.68 0 015.27-.58"/><path class="cls-4" d="M145 26.63c-.15.33-.32.64-.49 1H165.2a17.35 17.35 0 005-.56 3 3 0 001.8-1.83c.21-.52.47-1 .69-1.53s.37-1-.18-1.33c-.91-.48-3.49-.49-4.51-.49h-13.07a.82.82 0 01-.75-1.17c.22-.56.53-1.09.75-1.65a1.2 1.2 0 011.06-.75h20.34a3.49 3.49 0 01.63-.84h-21.9a16.91 16.91 0 00-5.07.55 3.09 3.09 0 00-1.89 1.78c-.17.42-.37.82-.53 1.24s-.35 1.08.21 1.37c.92.48 3.49.49 4.52.49h13.08a.81.81 0 01.74 1.18l-.72 1.76a1.2 1.2 0 01-1.05.74h-19.39"/><path class="cls-2" d="M166.9 30.64h-1.2a.17.17 0 00-.16.11l-.3.71c-.12.27-.23.54-.35.82h-.68c.12-.28.23-.55.35-.82s.2-.46.29-.69a.1.1 0 000-.09.12.12 0 00-.08 0h-1.17l.21-.49h3.3l-.21.5M151.07 31.63a1 1 0 01-.41.46 1.3 1.3 0 01-.68.19h-2.51l.21-.49h2.51a.22.22 0 00.21-.16c0-.11 0-.16-.07-.16h-1.83a.61.61 0 01-.51-.2.42.42 0 010-.46 1 1 0 01.42-.46 1.26 1.26 0 01.68-.2h2.5l-.21.5h-2.51a.21.21 0 00-.21.16c0 .11 0 .16.07.16h1.82a.59.59 0 01.52.2.42.42 0 010 .46M162.39 32.28h-.94l-.47-.6-.35-.45a.09.09 0 010-.1.08.08 0 01.08-.05h1.56a.3.3 0 00.28-.22c.06-.14 0-.22-.09-.22h-2a.08.08 0 00-.08.05l-.33.76c-.12.27-.23.55-.35.82h-.7c.15-.36.31-.71.46-1.07l.45-1.06h2.82a.56.56 0 01.52.22.53.53 0 010 .49 1.21 1.21 0 01-.43.5 1.29 1.29 0 01-.71.22h-.26l.28.35.28.35M158.69 32.28H158c.05-.11.09-.23.14-.34l.15-.34h-1.78l.21-.49h1.78c0-.1.08-.2.13-.3s0-.16-.08-.16h-1.92a.23.23 0 00-.21.16l-.31.73c-.11.25-.21.5-.32.74h-.68c.11-.24.21-.49.32-.74l.31-.73a1.13 1.13 0 01.43-.47 1.25 1.25 0 01.68-.19h1.92a.63.63 0 01.51.19.46.46 0 010 .47c-.11.24-.21.49-.32.73s-.21.49-.31.74M154.84 32.28h-.67l.27-.65c.06-.12.11-.24.16-.36a.11.11 0 000-.11.11.11 0 00-.11 0l-.62.46-.79.57a.08.08 0 01-.07 0h-.06c-.1-.18-.2-.36-.29-.54s-.15-.32-.23-.47a.1.1 0 00-.08 0 .08.08 0 00-.08 0l-.21.48-.27.65h-.68l.45-1.06c.16-.36.31-.71.46-1.07h.71c.1.21.22.41.31.62l.28.51a.13.13 0 00.06 0 .12.12 0 00.08 0l.76-.54.86-.62h.7c-.15.36-.3.71-.46 1.07l-.45 1.06M190.42 30.63h-1.18a.18.18 0 00-.17.11l-.3.71c-.11.27-.22.54-.34.81h-.68l.35-.81c.09-.23.19-.46.29-.69a.1.1 0 000-.09.12.12 0 00-.08 0h-1.17l.21-.5h3.29l-.21.5M196.56 32.26h-.68c.05-.14.11-.27.17-.41l.12-.28a.14.14 0 000-.09.12.12 0 00-.08 0h-1.55a.08.08 0 00-.08.06l-.15.35-.17.41h-.67c.15-.35.3-.71.44-1.06l.45-1.07h.64l-.17.41-.12.28a.1.1 0 000 .09.1.1 0 00.07 0h1.56s.06 0 .08-.06l.15-.35c.05-.14.11-.27.17-.41h.68l-.42 1.06c-.15.36-.3.71-.44 1.07M193.17 32.26h-2.24a.81.81 0 01-.59-.19.4.4 0 01-.08-.48l.17-.39.15-.39a1 1 0 01.48-.49 1.55 1.55 0 01.75-.19h2.26l-.21.5h-2.25a.34.34 0 00-.35.18l-.15.39c-.05.13-.11.26-.17.39s0 .17.2.17h2.24l-.21.5M186.44 31.61a1 1 0 01-.43.46 1.25 1.25 0 01-.68.19h-1.92a.61.61 0 01-.51-.2.42.42 0 010-.46c.1-.25.21-.49.31-.74l.31-.73h.69l-.31.73c-.1.25-.21.49-.31.74s0 .16.07.16h1.93a.22.22 0 00.21-.16c.1-.25.21-.49.31-.74s.21-.49.31-.74h.68l-.31.74c-.1.25-.21.49-.31.74M182.3 32.27h-2.77a.12.12 0 01-.08 0 .1.1 0 010-.09c.14-.31.27-.62.4-.94l.45-1.06h.7l-.35.81c-.09.23-.19.47-.29.7a.08.08 0 000 .08.08.08 0 00.08 0h2.09l-.21.5M179.11 32.27h-2.25a.83.83 0 01-.59-.19.4.4 0 01-.07-.48c.05-.13.11-.26.16-.4l.17-.39a1 1 0 01.48-.48 1.64 1.64 0 01.75-.19H180l-.21.5h-2.25a.33.33 0 00-.34.17l-.17.39-.16.39c0 .12 0 .18.19.18h2.25l-.21.5"/></g></g></svg>