<svg xmlns="http://www.w3.org/2000/svg" viewBox="0 0 708.7 106.9"><path d="M650.5 12.8h27.2c3.2 0 11.3-.5 13.2-3.3s-7-2.9-8.2-2.9h-27.9l-4.3 6.2m-404.3 7.9h22.5c-.6-1.7-1.3-3.4-2-5.1s-1.3-3.4-2-5.2l-9.8 5.5-8.7 4.8zM67.6 6.6l-7.2 10.2-6.6 9.6h32.4c5.1-.1 10.2-1.2 14.8-3.4 3.1-1.6 6.5-3.9 8.4-7 1.1-1.5 1.5-3.3 1.1-5.1-1.1-3.7-7-4.3-10.2-4.3H67.6zm97.4 0l-4.3 6.2h27.1c3.2 0 11.2-.5 13.2-3.3s-7-2.9-8.2-2.9H165zm237.2 19.8h30.1c3.5.1 7-.4 10.3-1.6 1.1-.4 3.3-1.5 3.2-2.8s-6.5-2.6-8.2-2.6h-21.7c-4.8 0-20.7-.4-21.3-6.9-.1-1.1.3-2.2 1-3 2.3-3.3 8-5.5 11.7-6.6 7.6-2.1 15.4-3 23.3-2.9h44.5l-.5.8c-1 1.4-2.1 2.8-3 4.3s-2 2.9-2.9 4.4v.2h-17.2l.5-.8 1.6-2.3h-28.2c-3.4-.1-6.8.4-10 1.5-.9.3-3.3 1.4-3.2 2.6s6.8 2.2 8.3 2.2h23c4.8 0 19.3.5 20 6.9.1 1.2-.2 2.4-1 3.4-2.3 3.4-7.9 5.6-11.7 6.8-7.7 2.1-15.6 3.1-23.6 3h-46.5l.5-.7c.9-1.5 2-2.9 2.9-4.4s2-2.9 3-4.4v-.2h17.1l-.5.8-1.5 2.3zm-39.9-7h-13.1l.5-.8 3.8-5.5v-.2h30.2l-.5.7c-1.3 1.9-2.6 3.7-3.8 5.6l-4.5 6.8-4.6 6.8v.2h-.3c-18.7 0-37.3.1-56 0-5.5 0-15.2-.9-17-7.3-1-3.4.6-7 2.6-9.7 3.4-4.8 9-8.6 14.3-11.1C320.8 1.7 328.4 0 336 0h56.4l-.5.8-3 4.3C388 6.6 387 8 386 9.5v.2h-17.2l.5-.8 1.6-2.3h-32.7c-7.9 0-18.4 3.4-23.3 10-1.1 1.4-2.1 3.5-1.6 5.3 1 3.8 7.3 4.4 10.5 4.5h33.7l4.8-7zm318-.2l5.9 6.1 6.8 6.9.8.8h-20.1l-.2-.2-6.3-6.8-5.9-6.6H646l-4.6 6.6-4.6 6.8v.2h-17.2l.5-.8c1.6-2.2 3.1-4.5 4.6-6.8l4.2-6h-10.2l.5-.8 3.9-5.6v-.2h10.2l4.3-6.2 4.5-6.4.2-.2h42.9c5.7 0 14.4.2 19.7 2.6 3.3 1.5 5 4.1 2.7 7.4s-5.9 4.8-9.1 6c-5.9 1.9-12 2.9-18.2 3.2zm-131.5.2h-10.2l.5-.8L543 13v-.2h10.3c1.3-2.1 2.8-4.1 4.2-6.2L562 .2l.2-.2h66.7l-.6.8c-1 1.4-2.1 2.8-3.1 4.3l-2.9 4.4-.2.2h-17l.5-.8 1.6-2.3h-32.5l-4.3 6.2h21l-.5.8c-1.3 1.8-2.6 3.7-3.8 5.6l-.2.2h-21l-4.9 7h32.7l1.9-2.9.2-.2h17l-.5.8-3 4.3-3 4.4v.2h-66.8l.5-.8c1.6-2.2 3.1-4.5 4.6-6.8l4.2-6zm-44-12.8h-25.3l.5-.8 3.9-5.6V0h67.5l-.5.8c-1.3 1.8-2.6 3.7-3.8 5.6l-.2.2h-25.1l-8.9 13-9.1 13.2v.2h-17.3l.6-.8 9-13.2 8.7-12.4zM271.1 27h-35.9l-10.7 5.9h-19.1l1.7-.9 24.8-13.4 23.2-12.3h-18.6l.5-.8 3.7-5.3V0h36.1v.3c2.4 5.3 4.8 10.7 7.1 16l7.2 16 .3.7h-17.9v-.3c-.9-1.9-1.7-3.8-2.4-5.7zM46.2 12.8l4.2-6.2L54.9.2V0H110c5.6 0 14.8 1 16.7 7.3 1 3.2-.2 6.6-1.9 9.3-3.1 4.9-8.5 8.7-13.6 11.2-7.1 3.4-14.9 5.2-22.8 5.2-18.4.1-36.8 0-55.2 0h-1l.6-.8 4.6-6.8 4.2-6H28.7l.5-.8c1.2-1.9 2.5-3.7 3.8-5.6v-.2h13.2zm97.3 0l4.2-6.2 4.5-6.4.2-.2h42.9c5.7 0 14.5.2 19.7 2.6 3.4 1.5 4.9 4.1 2.6 7.4s-5.7 4.8-9 6c-5.9 1.9-12.1 2.9-18.3 3.2l6 6.1 6.6 6.9.8.8h-20.1v-.2c-2.1-2.2-4.2-4.5-6.2-6.8l-5.9-6.6H156l-4.6 6.6-4.7 6.8v.2h-17l.5-.8c1.6-2.2 3.1-4.5 4.7-6.8l4.1-6h-10.2l.5-.8c1.2-1.9 2.5-3.7 3.8-5.6l.2-.2h10.2z" fill-rule="evenodd" clip-rule="evenodd" fill="#fff"/><path d="M527.5 81.5l-5.4 7.9c-1.5 2.2-3.4 4.1-5.5 5.6h28.7l-17.8-13.5zm95.1 25.4h29l-21.7-21.3c25.8-1.2 38.5-7.4 42.7-13.9 5.5-8.6-5.2-14.3-34.7-14.3h-22.7c-.1 1.4-.6 2.7-1.4 3.8-1.3 1.9-3 3.6-4.9 4.9h3.8c23.1 0 15.7 11.1-7.2 11.1h-22l39.1 29.7z" fill-rule="evenodd" clip-rule="evenodd" fill="#cc182c"/><path d="M555.2 96.6h29.2l-19.6-21.4c25.9-1.2 38.6-7.4 42.9-14 5.5-8.6-5.3-14.3-34.9-14.3h-103c1.8 3.3 1.6 7.2-.5 10.3-5 7.2-10 14.5-14.9 21.8-1.5 2.2-3.4 4.1-5.5 5.6h39.5l18.7-29h40.4c23.2 0 15.8 11.2-7.2 11.2H516l39.2 29.8z" fill-rule="evenodd" clip-rule="evenodd" fill="#fff"/><path d="M398 72.3l12.6-18.5c.1-.1-.1-.4-.3-.4h-39.6c-3.9 0-8.7.2-11.9 2.9-1.2 1.1-2.3 2.3-3.2 3.7l-12.4 18.2c-.1.2.1.4.3.4h39.6c3.9 0 8.7-.2 11.9-2.8 1.2-1 2.2-2.2 3-3.5m-56.6 4.4l12.3-18.1c4.6-6.7 9.3-7.6 17-7.6h39.6c1.5 0 2.7 1.2 2.7 2.7 0 .6-.2 1.2-.6 1.7L400 73.6c-4.5 6.6-9.4 7.4-16.9 7.4h-39.6c-2.2 0-3.6-2.7-2.1-4.3zm-1.3-27.4c-8.1 0-19.9 1.1-24.9 8.4l-14.8 21.7c-.2.6-.2 1.3.2 1.8.9 1.3 3 1.6 4.5 1.6h108.6c8.1 0 19.9-1.2 24.9-8.4l14.7-21.7c.3-.6.3-1.3-.1-1.8-.9-1.3-3-1.6-4.5-1.6H340.1zm-91.3 23l12.6-18.5c0-.1-.1-.4-.3-.4h-39.6c-3.9 0-8.7.2-11.9 2.9-1.2 1.1-2.3 2.3-3.2 3.7L194 78.2c-.1.2 0 .4.3.4h39.6c3.9 0 8.7-.2 11.9-2.8 1.2-1 2.2-2.2 3-3.5zm-56.6 4.4l12.3-18.1c4.6-6.7 9.3-7.6 17-7.6h39.6c1.5 0 2.7 1.2 2.7 2.7 0 .6-.2 1.2-.6 1.7l-12.4 18.2c-4.5 6.6-9.4 7.4-16.9 7.4h-39.6c-2.2 0-3.6-2.7-2.1-4.3zm-1.3-27.4c-8.1 0-19.9 1.1-24.9 8.4l-14.8 21.7c-.3.6-.2 1.3.2 1.8.9 1.3 3 1.6 4.5 1.6h108.6c8.1 0 19.9-1.2 24.8-8.4l14.8-21.7c.3-.6.3-1.3-.1-1.8-.9-1.3-3.1-1.6-4.5-1.6H190.9zM53.4 68.9c-.8 0-1.6.4-2 1.1l-6 8.9h-.1c0 .1.1.4.3.4h39.1c3.7 0 8.5-.1 11.6-2.5s4.1-5 5.7-7.4c.1-.1.1-.3 0-.4-.1-.1-.2-.1-.3-.1H53.4zm2.2-5.5h48.3c.8 0 1.6-.4 2-1.1l6.3-9.1c0-.2-.1-.4-.3-.4h-39c-4 0-8.7.2-11.9 2.8s-4 4.9-5.6 7.3c-.1.1-.1.3 0 .4.1.1.1.1.2.1zM43.5 77.3l6-8.7c.9-1.3 2.3-2.1 3.9-2.1h48.3c1.5 0 2.8 1.3 2.7 2.9 0 .5-.2 1-.4 1.4-1.9 2.6-3.7 5.8-6.2 7.8s-8.7 3.1-13.1 3.1H45.6c-1.5-.1-2.7-1.4-2.6-3 0-.5.2-1 .5-1.4zM114 54.7l-6.1 9c-.9 1.3-2.4 2.1-4 2.1H55.6c-1.5 0-2.7-1.3-2.7-2.7 0-.5.2-1 .5-1.5 1.8-2.7 3.6-5.8 6.1-7.8s8.8-3.4 13.4-3.4h39c1.5 0 2.7 1.3 2.6 2.8 0 .5-.2 1.1-.5 1.5zm30 13.9c-.2-.3-1.5-.6-1.9-.7l-6.8-2.2 7-1.2c2.3-.4 4.9-.4 6.3-2.5l6.3-9.3c.3-.6.3-1.3-.1-1.8-.9-1.3-3.1-1.6-4.5-1.6H42.2c-8 0-19.9 1.1-24.8 8.4l-3.9 5.7c0 .1 0 .2.1.2s1.6.7 2 .8l5.8 2.3-6.1.9c-3.1.2-5.8 1.8-7.6 4.3l-5.1 7.5c-.3.6-.3 1.3.1 1.8 1 1.3 3.1 1.6 4.6 1.6h108c8 0 19.9-1.1 24.8-8.4l3.9-5.8zm196.1-21.7c36.2.1 72.4 0 108.6 0 2.3 0 5 .6 6.4 2.6 1 1.3 1 3.1.2 4.5l-14.8 21.7c-5.5 8.1-17.8 9.5-26.8 9.5H305.1c-2.3 0-5-.6-6.4-2.7-1-1.3-1.1-3.1-.2-4.5l14.8-21.7c5.5-8 17.8-9.4 26.8-9.4zm-149.2 0c36.2.1 72.4 0 108.6 0 2.3 0 5 .6 6.4 2.6 1 1.3 1 3.1.2 4.5l-14.8 21.7c-5.5 8.1-17.8 9.5-26.8 9.5H155.9c-2.3 0-5-.6-6.5-2.7-1-1.3-1-3.1-.1-4.5l14.8-21.7c5.5-8 17.8-9.4 26.8-9.4zM12.7 65.8c-.5-.2-.9-.5-1.2-1-.5-.8-.6-1.8-.1-2.6l4-5.9c5.5-8.1 17.9-9.4 26.8-9.4 36 .1 72 0 108.1 0 2.3 0 5 .6 6.4 2.6 1 1.3 1 3.1.2 4.5l-6.3 9.3c-1.2 1.8-3.3 3-5.5 3.1l.9.8c.5.8.6 1.8.1 2.6l-4 5.9c-5.5 8.1-17.8 9.5-26.8 9.5H7.3c-2.4 0-5.1-.6-6.5-2.7-1-1.3-1-3.1-.2-4.5l5.1-7.4c1.7-2.4 4.2-4.1 7-4.8z" fill-rule="evenodd" clip-rule="evenodd" fill="#cc182c"/></svg>